<svg width="640" height="414" viewBox="0 0 640 414" fill="none" xmlns="http://www.w3.org/2000/svg">
<g filter="url(#filter0_i_7297_8261)">
<g clip-path="url(#clip0_7297_8261)">
<rect x="1" y="1" width="638" height="412" rx="11.8991" fill="#1871E3"/>
<g clip-path="url(#clip1_7297_8261)">
<path d="M21.1271 17.015C21.3666 16.3675 22.2824 16.3675 22.522 17.015L23.3128 19.152C23.3881 19.3556 23.5486 19.5161 23.7522 19.5914L25.8892 20.3822C26.5367 20.6218 26.5367 21.5375 25.8892 21.7771L23.7522 22.5679C23.5486 22.6432 23.3881 22.8037 23.3128 23.0073L22.522 25.1443C22.2824 25.7918 21.3666 25.7918 21.1271 25.1443L20.3363 23.0073C20.261 22.8037 20.1005 22.6432 19.8969 22.5679L17.7599 21.7771C17.1124 21.5375 17.1124 20.6218 17.7599 20.3822L19.8969 19.5914C20.1005 19.5161 20.261 19.3556 20.3363 19.152L21.1271 17.015Z" fill="#FFEE34"/>
<path d="M47.8985 17.015C48.1381 16.3675 49.0539 16.3675 49.2935 17.015L50.0843 19.152C50.1596 19.3556 50.3201 19.5161 50.5236 19.5914L52.6607 20.3822C53.3081 20.6218 53.3081 21.5375 52.6607 21.7771L50.5236 22.5679C50.3201 22.6432 50.1596 22.8037 50.0843 23.0073L49.2935 25.1443C49.0539 25.7918 48.1381 25.7918 47.8985 25.1443L47.1078 23.0073C47.0325 22.8037 46.872 22.6432 46.6684 22.5679L44.5314 21.7771C43.8839 21.5375 43.8839 20.6218 44.5314 20.3822L46.6684 19.5914C46.872 19.5161 47.0325 19.3556 47.1078 19.152L47.8985 17.015Z" fill="#FFEE34"/>
<path d="M74.672 17.015C74.9116 16.3675 75.8273 16.3675 76.0669 17.015L76.8577 19.152C76.933 19.3556 77.0935 19.5161 77.2971 19.5914L79.4341 20.3822C80.0816 20.6218 80.0816 21.5375 79.4341 21.7771L77.2971 22.5679C77.0935 22.6432 76.933 22.8037 76.8577 23.0073L76.0669 25.1443C75.8273 25.7918 74.9116 25.7918 74.672 25.1443L73.8812 23.0073C73.8059 22.8037 73.6454 22.6432 73.4418 22.5679L71.3048 21.7771C70.6573 21.5375 70.6573 20.6218 71.3048 20.3822L73.4418 19.5914C73.6454 19.5161 73.8059 19.3556 73.8812 19.152L74.672 17.015Z" fill="#FFEE34"/>
<path d="M101.444 17.015C101.684 16.3675 102.6 16.3675 102.839 17.015L103.63 19.152C103.705 19.3556 103.866 19.5161 104.07 19.5914L106.207 20.3822C106.854 20.6218 106.854 21.5375 106.207 21.7771L104.07 22.5679C103.866 22.6432 103.705 22.8037 103.63 23.0073L102.839 25.1443C102.6 25.7918 101.684 25.7918 101.444 25.1443L100.654 23.0073C100.578 22.8037 100.418 22.6432 100.214 22.5679L98.0773 21.7771C97.4298 21.5375 97.4298 20.6218 98.0773 20.3822L100.214 19.5914C100.418 19.5161 100.578 19.3556 100.654 19.152L101.444 17.015Z" fill="#FFEE34"/>
<path d="M128.219 17.015C128.458 16.3675 129.374 16.3675 129.614 17.015L130.405 19.152C130.48 19.3556 130.64 19.5161 130.844 19.5914L132.981 20.3822C133.628 20.6218 133.628 21.5375 132.981 21.7771L130.844 22.5679C130.64 22.6432 130.48 22.8037 130.405 23.0073L129.614 25.1443C129.374 25.7918 128.458 25.7918 128.219 25.1443L127.428 23.0073C127.353 22.8037 127.192 22.6432 126.989 22.5679L124.852 21.7771C124.204 21.5375 124.204 20.6218 124.852 20.3822L126.989 19.5914C127.192 19.5161 127.353 19.3556 127.428 19.152L128.219 17.015Z" fill="#FFEE34"/>
<path d="M21.1271 43.788C21.3666 43.1405 22.2824 43.1405 22.522 43.788L23.3128 45.925C23.3881 46.1285 23.5486 46.289 23.7522 46.3644L25.8892 47.1551C26.5367 47.3947 26.5367 48.3105 25.8892 48.5501L23.7522 49.3409C23.5486 49.4162 23.3881 49.5767 23.3128 49.7802L22.522 51.9173C22.2824 52.5647 21.3666 52.5647 21.1271 51.9173L20.3363 49.7802C20.261 49.5767 20.1005 49.4162 19.8969 49.3409L17.7599 48.5501C17.1124 48.3105 17.1124 47.3947 17.7599 47.1551L19.8969 46.3644C20.1005 46.289 20.261 46.1285 20.3363 45.925L21.1271 43.788Z" fill="#FFEE34"/>
<path d="M47.8985 43.788C48.1381 43.1405 49.0539 43.1405 49.2935 43.788L50.0843 45.925C50.1596 46.1285 50.3201 46.289 50.5236 46.3644L52.6607 47.1551C53.3081 47.3947 53.3081 48.3105 52.6607 48.5501L50.5236 49.3409C50.3201 49.4162 50.1596 49.5767 50.0843 49.7802L49.2935 51.9173C49.0539 52.5647 48.1381 52.5647 47.8985 51.9173L47.1078 49.7802C47.0325 49.5767 46.872 49.4162 46.6684 49.3409L44.5314 48.5501C43.8839 48.3105 43.8839 47.3947 44.5314 47.1551L46.6684 46.3644C46.872 46.289 47.0325 46.1285 47.1078 45.925L47.8985 43.788Z" fill="#FFEE34"/>
<path d="M74.672 43.788C74.9116 43.1405 75.8273 43.1405 76.0669 43.788L76.8577 45.925C76.933 46.1285 77.0935 46.289 77.2971 46.3644L79.4341 47.1551C80.0816 47.3947 80.0816 48.3105 79.4341 48.5501L77.2971 49.3409C77.0935 49.4162 76.933 49.5767 76.8577 49.7802L76.0669 51.9173C75.8273 52.5647 74.9116 52.5647 74.672 51.9173L73.8812 49.7802C73.8059 49.5767 73.6454 49.4162 73.4418 49.3409L71.3048 48.5501C70.6573 48.3105 70.6573 47.3947 71.3048 47.1551L73.4418 46.3644C73.6454 46.289 73.8059 46.1285 73.8812 45.925L74.672 43.788Z" fill="#FFEE34"/>
<path d="M101.444 43.788C101.684 43.1405 102.6 43.1405 102.839 43.788L103.63 45.925C103.705 46.1285 103.866 46.289 104.07 46.3644L106.207 47.1551C106.854 47.3947 106.854 48.3105 106.207 48.5501L104.07 49.3409C103.866 49.4162 103.705 49.5767 103.63 49.7802L102.839 51.9173C102.6 52.5647 101.684 52.5647 101.444 51.9173L100.654 49.7802C100.578 49.5767 100.418 49.4162 100.214 49.3409L98.0773 48.5501C97.4298 48.3105 97.4298 47.3947 98.0773 47.1551L100.214 46.3644C100.418 46.289 100.578 46.1285 100.654 45.925L101.444 43.788Z" fill="#FFEE34"/>
<path d="M128.219 43.788C128.458 43.1405 129.374 43.1405 129.614 43.788L130.405 45.925C130.48 46.1285 130.64 46.289 130.844 46.3644L132.981 47.1551C133.628 47.3947 133.628 48.3105 132.981 48.5501L130.844 49.3409C130.64 49.4162 130.48 49.5767 130.405 49.7802L129.614 51.9173C129.374 52.5647 128.458 52.5647 128.219 51.9173L127.428 49.7802C127.353 49.5767 127.192 49.4162 126.989 49.3409L124.852 48.5501C124.204 48.3105 124.204 47.3947 124.852 47.1551L126.989 46.3644C127.192 46.289 127.353 46.1285 127.428 45.925L128.219 43.788Z" fill="#FFEE34"/>
<path d="M21.1271 70.5609C21.3666 69.9134 22.2824 69.9134 22.522 70.5609L23.3128 72.6979C23.3881 72.9015 23.5486 73.062 23.7522 73.1373L25.8892 73.9281C26.5367 74.1677 26.5367 75.0834 25.8892 75.323L23.7522 76.1138C23.5486 76.1891 23.3881 76.3496 23.3128 76.5532L22.522 78.6902C22.2824 79.3377 21.3666 79.3377 21.1271 78.6902L20.3363 76.5532C20.261 76.3496 20.1005 76.1891 19.8969 76.1138L17.7599 75.323C17.1124 75.0834 17.1124 74.1677 17.7599 73.9281L19.8969 73.1373C20.1005 73.062 20.261 72.9015 20.3363 72.6979L21.1271 70.5609Z" fill="#FFEE34"/>
<path d="M47.8985 70.5609C48.1381 69.9134 49.0539 69.9134 49.2935 70.5609L50.0843 72.6979C50.1596 72.9015 50.3201 73.062 50.5236 73.1373L52.6607 73.9281C53.3081 74.1677 53.3081 75.0834 52.6607 75.323L50.5236 76.1138C50.3201 76.1891 50.1596 76.3496 50.0843 76.5532L49.2935 78.6902C49.0539 79.3377 48.1381 79.3377 47.8985 78.6902L47.1078 76.5532C47.0325 76.3496 46.872 76.1891 46.6684 76.1138L44.5314 75.323C43.8839 75.0834 43.8839 74.1677 44.5314 73.9281L46.6684 73.1373C46.872 73.062 47.0325 72.9015 47.1078 72.6979L47.8985 70.5609Z" fill="#FFEE34"/>
<path d="M74.672 70.5609C74.9116 69.9134 75.8273 69.9134 76.0669 70.5609L76.8577 72.6979C76.933 72.9015 77.0935 73.062 77.2971 73.1373L79.4341 73.9281C80.0816 74.1677 80.0816 75.0834 79.4341 75.323L77.2971 76.1138C77.0935 76.1891 76.933 76.3496 76.8577 76.5532L76.0669 78.6902C75.8273 79.3377 74.9116 79.3377 74.672 78.6902L73.8812 76.5532C73.8059 76.3496 73.6454 76.1891 73.4418 76.1138L71.3048 75.323C70.6573 75.0834 70.6573 74.1677 71.3048 73.9281L73.4418 73.1373C73.6454 73.062 73.8059 72.9015 73.8812 72.6979L74.672 70.5609Z" fill="#FFEE34"/>
<path d="M101.444 70.5609C101.684 69.9134 102.6 69.9134 102.839 70.5609L103.63 72.6979C103.705 72.9015 103.866 73.062 104.07 73.1373L106.207 73.9281C106.854 74.1677 106.854 75.0834 106.207 75.323L104.07 76.1138C103.866 76.1891 103.705 76.3496 103.63 76.5532L102.839 78.6902C102.6 79.3377 101.684 79.3377 101.444 78.6902L100.654 76.5532C100.578 76.3496 100.418 76.1891 100.214 76.1138L98.0773 75.323C97.4298 75.0834 97.4298 74.1677 98.0773 73.9281L100.214 73.1373C100.418 73.062 100.578 72.9015 100.654 72.6979L101.444 70.5609Z" fill="#FFEE34"/>
<path d="M128.219 70.5609C128.458 69.9134 129.374 69.9134 129.614 70.5609L130.405 72.6979C130.48 72.9015 130.64 73.062 130.844 73.1373L132.981 73.9281C133.628 74.1677 133.628 75.0834 132.981 75.323L130.844 76.1138C130.64 76.1891 130.48 76.3496 130.405 76.5532L129.614 78.6902C129.374 79.3377 128.458 79.3377 128.219 78.6902L127.428 76.5532C127.353 76.3496 127.192 76.1891 126.989 76.1138L124.852 75.323C124.204 75.0834 124.204 74.1677 124.852 73.9281L126.989 73.1373C127.192 73.062 127.353 72.9015 127.428 72.6979L128.219 70.5609Z" fill="#FFEE34"/>
<path d="M21.1271 97.3339C21.3666 96.6864 22.2824 96.6864 22.522 97.3339L23.3128 99.4709C23.3881 99.6744 23.5486 99.8349 23.7522 99.9103L25.8892 100.701C26.5367 100.941 26.5367 101.856 25.8892 102.096L23.7522 102.887C23.5486 102.962 23.3881 103.123 23.3128 103.326L22.522 105.463C22.2824 106.111 21.3666 106.111 21.1271 105.463L20.3363 103.326C20.261 103.123 20.1005 102.962 19.8969 102.887L17.7599 102.096C17.1124 101.856 17.1124 100.941 17.7599 100.701L19.8969 99.9103C20.1005 99.8349 20.261 99.6744 20.3363 99.4709L21.1271 97.3339Z" fill="#FFEE34"/>
<path d="M47.8985 97.3339C48.1381 96.6864 49.0539 96.6864 49.2935 97.3339L50.0843 99.4709C50.1596 99.6744 50.3201 99.8349 50.5236 99.9103L52.6607 100.701C53.3081 100.941 53.3081 101.856 52.6607 102.096L50.5236 102.887C50.3201 102.962 50.1596 103.123 50.0843 103.326L49.2935 105.463C49.0539 106.111 48.1381 106.111 47.8985 105.463L47.1078 103.326C47.0325 103.123 46.872 102.962 46.6684 102.887L44.5314 102.096C43.8839 101.856 43.8839 100.941 44.5314 100.701L46.6684 99.9103C46.872 99.8349 47.0325 99.6744 47.1078 99.4709L47.8985 97.3339Z" fill="#FFEE34"/>
<path d="M74.672 97.3339C74.9116 96.6864 75.8273 96.6864 76.0669 97.3339L76.8577 99.4709C76.933 99.6744 77.0935 99.8349 77.2971 99.9103L79.4341 100.701C80.0816 100.941 80.0816 101.856 79.4341 102.096L77.2971 102.887C77.0935 102.962 76.933 103.123 76.8577 103.326L76.0669 105.463C75.8273 106.111 74.9116 106.111 74.672 105.463L73.8812 103.326C73.8059 103.123 73.6454 102.962 73.4418 102.887L71.3048 102.096C70.6573 101.856 70.6573 100.941 71.3048 100.701L73.4418 99.9103C73.6454 99.8349 73.8059 99.6744 73.8812 99.4709L74.672 97.3339Z" fill="#FFEE34"/>
<path d="M101.444 97.3339C101.684 96.6864 102.6 96.6864 102.839 97.3339L103.63 99.4709C103.705 99.6744 103.866 99.8349 104.07 99.9103L106.207 100.701C106.854 100.941 106.854 101.856 106.207 102.096L104.07 102.887C103.866 102.962 103.705 103.123 103.63 103.326L102.839 105.463C102.6 106.111 101.684 106.111 101.444 105.463L100.654 103.326C100.578 103.123 100.418 102.962 100.214 102.887L98.0773 102.096C97.4298 101.856 97.4298 100.941 98.0773 100.701L100.214 99.9103C100.418 99.8349 100.578 99.6744 100.654 99.4709L101.444 97.3339Z" fill="#FFEE34"/>
<path d="M128.219 97.3339C128.458 96.6864 129.374 96.6864 129.614 97.3339L130.405 99.4709C130.48 99.6744 130.64 99.8349 130.844 99.9103L132.981 100.701C133.628 100.941 133.628 101.856 132.981 102.096L130.844 102.887C130.64 102.962 130.48 103.123 130.405 103.326L129.614 105.463C129.374 106.111 128.458 106.111 128.219 105.463L127.428 103.326C127.353 103.123 127.192 102.962 126.989 102.887L124.852 102.096C124.204 101.856 124.204 100.941 124.852 100.701L126.989 99.9103C127.192 99.8349 127.353 99.6744 127.428 99.4709L128.219 97.3339Z" fill="#FFEE34"/>
<path d="M21.1271 124.107C21.3666 123.459 22.2824 123.459 22.522 124.107L23.3128 126.244C23.3881 126.447 23.5486 126.608 23.7522 126.683L25.8892 127.474C26.5367 127.714 26.5367 128.629 25.8892 128.869L23.7522 129.66C23.5486 129.735 23.3881 129.896 23.3128 130.099L22.522 132.236C22.2824 132.884 21.3666 132.884 21.1271 132.236L20.3363 130.099C20.261 129.896 20.1005 129.735 19.8969 129.66L17.7599 128.869C17.1124 128.629 17.1124 127.714 17.7599 127.474L19.8969 126.683C20.1005 126.608 20.261 126.447 20.3363 126.244L21.1271 124.107Z" fill="#FFEE34"/>
<path d="M47.8985 124.107C48.1381 123.459 49.0539 123.459 49.2935 124.107L50.0843 126.244C50.1596 126.447 50.3201 126.608 50.5236 126.683L52.6607 127.474C53.3081 127.714 53.3081 128.629 52.6607 128.869L50.5236 129.66C50.3201 129.735 50.1596 129.896 50.0843 130.099L49.2935 132.236C49.0539 132.884 48.1381 132.884 47.8985 132.236L47.1078 130.099C47.0325 129.896 46.872 129.735 46.6684 129.66L44.5314 128.869C43.8839 128.629 43.8839 127.714 44.5314 127.474L46.6684 126.683C46.872 126.608 47.0325 126.447 47.1078 126.244L47.8985 124.107Z" fill="#FFEE34"/>
<path d="M74.672 124.107C74.9116 123.459 75.8273 123.459 76.0669 124.107L76.8577 126.244C76.933 126.447 77.0935 126.608 77.2971 126.683L79.4341 127.474C80.0816 127.714 80.0816 128.629 79.4341 128.869L77.2971 129.66C77.0935 129.735 76.933 129.896 76.8577 130.099L76.0669 132.236C75.8273 132.884 74.9116 132.884 74.672 132.236L73.8812 130.099C73.8059 129.896 73.6454 129.735 73.4418 129.66L71.3048 128.869C70.6573 128.629 70.6573 127.714 71.3048 127.474L73.4418 126.683C73.6454 126.608 73.8059 126.447 73.8812 126.244L74.672 124.107Z" fill="#FFEE34"/>
<path d="M101.444 124.107C101.684 123.459 102.6 123.459 102.839 124.107L103.63 126.244C103.705 126.447 103.866 126.608 104.07 126.683L106.207 127.474C106.854 127.714 106.854 128.629 106.207 128.869L104.07 129.66C103.866 129.735 103.705 129.896 103.63 130.099L102.839 132.236C102.6 132.884 101.684 132.884 101.444 132.236L100.654 130.099C100.578 129.896 100.418 129.735 100.214 129.66L98.0773 128.869C97.4298 128.629 97.4298 127.714 98.0773 127.474L100.214 126.683C100.418 126.608 100.578 126.447 100.654 126.244L101.444 124.107Z" fill="#FFEE34"/>
<path d="M128.219 124.107C128.458 123.459 129.374 123.459 129.614 124.107L130.405 126.244C130.48 126.447 130.64 126.608 130.844 126.683L132.981 127.474C133.628 127.714 133.628 128.629 132.981 128.869L130.844 129.66C130.64 129.735 130.48 129.896 130.405 130.099L129.614 132.236C129.374 132.884 128.458 132.884 128.219 132.236L127.428 130.099C127.353 129.896 127.192 129.735 126.989 129.66L124.852 128.869C124.204 128.629 124.204 127.714 124.852 127.474L126.989 126.683C127.192 126.608 127.353 126.447 127.428 126.244L128.219 124.107Z" fill="#FFEE34"/>
</g>
<g clip-path="url(#clip2_7297_8261)">
<mask id="path-28-inside-1_7297_8261" fill="white">
<rect x="66" y="58" width="575" height="461" rx="4.64"/>
</mask>
<rect x="66" y="58" width="575" height="461" rx="4.64" fill="white"/>
<g clip-path="url(#clip3_7297_8261)">
<rect width="870" height="611.719" transform="translate(-81 9)" fill="white"/>
<path d="M81.3212 86.5664H80.1364V78.0753H84.8988V79.0975H81.3212V81.9782H84.6782V82.9946H81.3212V86.5664ZM87.2263 80.1661V86.5664H86.0589V80.1661H87.2263ZM86.6513 77.7442C86.8372 77.7442 86.9959 77.7984 87.1276 77.9069C87.2631 78.0153 87.3309 78.1914 87.3309 78.4354C87.3309 78.6793 87.2631 78.8574 87.1276 78.9697C86.9959 79.0781 86.8372 79.1323 86.6513 79.1323C86.4616 79.1323 86.3009 79.0781 86.1693 78.9697C86.0415 78.8574 85.9776 78.6793 85.9776 78.4354C85.9776 78.1914 86.0415 78.0153 86.1693 77.9069C86.3009 77.7984 86.4616 77.7442 86.6513 77.7442ZM90.2217 86.5664H89.0485V77.5294H90.2217V86.5664ZM94.5471 80.05C95.1046 80.05 95.5828 80.17 95.9816 80.4101C96.3804 80.6462 96.6863 80.9812 96.8993 81.4148C97.1122 81.8485 97.2187 82.3596 97.2187 82.9481V83.6102H92.8744C92.886 84.2955 93.0622 84.8221 93.4029 85.1899C93.7436 85.5539 94.2218 85.7359 94.8375 85.7359C95.244 85.7359 95.606 85.6972 95.9235 85.6197C96.241 85.5423 96.5701 85.4281 96.9109 85.2771V86.2586C96.5895 86.4057 96.2662 86.5122 95.941 86.578C95.6196 86.6477 95.2343 86.6826 94.7852 86.6826C94.1657 86.6826 93.6217 86.5587 93.1532 86.3109C92.6885 86.0631 92.3265 85.6972 92.0671 85.2132C91.8077 84.7253 91.678 84.1252 91.678 83.4127C91.678 82.708 91.7961 82.106 92.0322 81.6065C92.2684 81.1031 92.6014 80.7179 93.0312 80.4507C93.461 80.1835 93.9663 80.05 94.5471 80.05ZM94.5413 80.956C94.0689 80.956 93.6894 81.1109 93.4029 81.4206C93.1164 81.7265 92.948 82.166 92.8976 82.739H96.0455C96.0416 82.3867 95.9855 82.0769 95.8771 81.8098C95.7687 81.5426 95.6041 81.3335 95.3834 81.1825C95.1666 81.0315 94.8859 80.956 94.5413 80.956ZM98.4717 85.9043C98.4717 85.61 98.5453 85.4029 98.6924 85.2829C98.8434 85.159 99.0254 85.097 99.2383 85.097C99.4552 85.097 99.6391 85.159 99.7901 85.2829C99.9411 85.4029 100.017 85.61 100.017 85.9043C100.017 86.1908 99.9411 86.3999 99.7901 86.5316C99.6391 86.6632 99.4552 86.729 99.2383 86.729C99.0254 86.729 98.8434 86.6632 98.6924 86.5316C98.5453 86.3999 98.4717 86.1908 98.4717 85.9043ZM101.496 85.9043C101.496 85.61 101.57 85.4029 101.717 85.2829C101.868 85.159 102.05 85.097 102.263 85.097C102.48 85.097 102.663 85.159 102.814 85.2829C102.965 85.4029 103.041 85.61 103.041 85.9043C103.041 86.1908 102.965 86.3999 102.814 86.5316C102.663 86.6632 102.48 86.729 102.263 86.729C102.05 86.729 101.868 86.6632 101.717 86.5316C101.57 86.3999 101.496 86.1908 101.496 85.9043ZM104.521 85.9043C104.521 85.61 104.594 85.4029 104.741 85.2829C104.892 85.159 105.074 85.097 105.287 85.097C105.504 85.097 105.688 85.159 105.839 85.2829C105.99 85.4029 106.065 85.61 106.065 85.9043C106.065 86.1908 105.99 86.3999 105.839 86.5316C105.688 86.6632 105.504 86.729 105.287 86.729C105.074 86.729 104.892 86.6632 104.741 86.5316C104.594 86.3999 104.521 86.1908 104.521 85.9043Z" fill="#3A3A3A"/>
<path d="M113.583 78.696C113.334 78.9445 113.334 79.3459 113.583 79.5944L116.055 82.0668L113.583 84.5392C113.334 84.7877 113.334 85.1891 113.583 85.4376C113.831 85.6861 114.233 85.6861 114.481 85.4376L117.406 82.5128C117.655 82.2643 117.655 81.8629 117.406 81.6144L114.481 78.6896C114.239 78.4475 113.831 78.4475 113.583 78.696Z" fill="#3A3A3A"/>
<path d="M135.659 86.5664H134.474V78.0753H139.237V79.0975H135.659V81.9782H139.016V82.9946H135.659V86.5664ZM141.564 80.1661V86.5664H140.397V80.1661H141.564ZM140.989 77.7442C141.175 77.7442 141.334 77.7984 141.465 77.9069C141.601 78.0153 141.669 78.1914 141.669 78.4354C141.669 78.6793 141.601 78.8574 141.465 78.9697C141.334 79.0781 141.175 79.1323 140.989 79.1323C140.8 79.1323 140.639 79.0781 140.507 78.9697C140.379 78.8574 140.316 78.6793 140.316 78.4354C140.316 78.1914 140.379 78.0153 140.507 77.9069C140.639 77.7984 140.8 77.7442 140.989 77.7442ZM144.56 86.5664H143.386V77.5294H144.56V86.5664ZM148.885 80.05C149.443 80.05 149.921 80.17 150.319 80.4101C150.718 80.6462 151.024 80.9812 151.237 81.4148C151.45 81.8485 151.557 82.3596 151.557 82.9481V83.6102H147.212C147.224 84.2955 147.4 84.8221 147.741 85.1899C148.082 85.5539 148.56 85.7359 149.175 85.7359C149.582 85.7359 149.944 85.6972 150.261 85.6197C150.579 85.5423 150.908 85.4281 151.249 85.2771V86.2586C150.927 86.4057 150.604 86.5122 150.279 86.578C149.957 86.6477 149.572 86.6826 149.123 86.6826C148.504 86.6826 147.96 86.5587 147.491 86.3109C147.026 86.0631 146.664 85.6972 146.405 85.2132C146.146 84.7253 146.016 84.1252 146.016 83.4127C146.016 82.708 146.134 82.106 146.37 81.6065C146.606 81.1031 146.939 80.7179 147.369 80.4507C147.799 80.1835 148.304 80.05 148.885 80.05ZM148.879 80.956C148.407 80.956 148.027 81.1109 147.741 81.4206C147.454 81.7265 147.286 82.166 147.236 82.739H150.383C150.38 82.3867 150.323 82.0769 150.215 81.8098C150.107 81.5426 149.942 81.3335 149.721 81.1825C149.504 81.0315 149.224 80.956 148.879 80.956ZM152.81 85.9043C152.81 85.61 152.883 85.4029 153.03 85.2829C153.181 85.159 153.363 85.097 153.576 85.097C153.793 85.097 153.977 85.159 154.128 85.2829C154.279 85.4029 154.354 85.61 154.354 85.9043C154.354 86.1908 154.279 86.3999 154.128 86.5316C153.977 86.6632 153.793 86.729 153.576 86.729C153.363 86.729 153.181 86.6632 153.03 86.5316C152.883 86.3999 152.81 86.1908 152.81 85.9043ZM155.834 85.9043C155.834 85.61 155.908 85.4029 156.055 85.2829C156.206 85.159 156.388 85.097 156.601 85.097C156.817 85.097 157.001 85.159 157.152 85.2829C157.303 85.4029 157.379 85.61 157.379 85.9043C157.379 86.1908 157.303 86.3999 157.152 86.5316C157.001 86.6632 156.817 86.729 156.601 86.729C156.388 86.729 156.206 86.6632 156.055 86.5316C155.908 86.3999 155.834 86.1908 155.834 85.9043ZM158.858 85.9043C158.858 85.61 158.932 85.4029 159.079 85.2829C159.23 85.159 159.412 85.097 159.625 85.097C159.842 85.097 160.026 85.159 160.177 85.2829C160.328 85.4029 160.403 85.61 160.403 85.9043C160.403 86.1908 160.328 86.3999 160.177 86.5316C160.026 86.6632 159.842 86.729 159.625 86.729C159.412 86.729 159.23 86.6632 159.079 86.5316C158.932 86.3999 158.858 86.1908 158.858 85.9043Z" fill="#3A3A3A"/>
<path d="M167.921 78.696C167.672 78.9445 167.672 79.3459 167.921 79.5944L170.393 82.0668L167.921 84.5392C167.672 84.7877 167.672 85.1891 167.921 85.4376C168.169 85.6861 168.571 85.6861 168.819 85.4376L171.744 82.5128C171.993 82.2643 171.993 81.8629 171.744 81.6144L168.819 78.6896C168.577 78.4475 168.169 78.4475 167.921 78.696Z" fill="#3A3A3A"/>
<path d="M-7.00599 124.707C-8.26049 125.358 -9.82088 125.683 -11.6871 125.683C-14.1032 125.683 -16.0392 124.92 -17.495 123.395C-18.9509 121.869 -19.6788 119.867 -19.6788 117.389C-19.6788 114.726 -18.8618 112.573 -17.2279 110.931C-15.5862 109.289 -13.5147 108.469 -11.0134 108.469C-9.40271 108.469 -8.0669 108.697 -7.00599 109.154V111.895C-8.12885 111.229 -9.36786 110.896 -10.723 110.896C-12.5273 110.896 -13.9909 111.473 -15.1138 112.627C-16.2289 113.781 -16.7865 115.322 -16.7865 117.25C-16.7865 119.085 -16.2637 120.549 -15.2183 121.641C-14.1729 122.725 -12.7984 123.267 -11.0947 123.267C-9.52274 123.267 -8.15982 122.895 -7.00599 122.152V124.707ZM4.74357 125.404H2.13003V123.546H2.08357C1.26272 124.971 0.0585537 125.683 -1.52893 125.683C-2.69825 125.683 -3.6159 125.366 -4.28187 124.731C-4.94009 124.096 -5.26921 123.255 -5.26921 122.21C-5.26921 119.964 -3.97598 118.656 -1.38954 118.284L2.14165 117.784C2.14165 116.088 1.33629 115.241 -0.274431 115.241C-1.69155 115.241 -2.96929 115.728 -4.10763 116.704V114.346C-2.85313 113.603 -1.40503 113.231 0.236662 113.231C3.24127 113.231 4.74357 114.71 4.74357 117.668V125.404ZM2.14165 119.562L-0.355742 119.91C-1.13013 120.011 -1.71478 120.2 -2.10972 120.479C-2.49691 120.75 -2.69051 121.23 -2.69051 121.92C-2.69051 122.423 -2.5124 122.837 -2.15618 123.162C-1.79222 123.48 -1.30823 123.639 -0.704214 123.639C0.116632 123.639 0.794218 123.352 1.32854 122.779C1.87061 122.198 2.14165 121.47 2.14165 120.595V119.562ZM10.511 125.404H7.80456V107.795H10.511V125.404ZM23.8636 120.189H15.7558C15.7867 121.288 16.1236 122.136 16.7663 122.733C17.4168 123.329 18.3074 123.627 19.438 123.627C20.708 123.627 21.8734 123.248 22.9343 122.489V124.661C21.8502 125.342 20.4176 125.683 18.6365 125.683C16.8864 125.683 15.5118 125.145 14.5129 124.068C13.5217 122.984 13.0261 121.463 13.0261 119.503C13.0261 117.653 13.572 116.147 14.6639 114.985C15.7635 113.816 17.1264 113.231 18.7526 113.231C20.3788 113.231 21.6372 113.754 22.5278 114.799C23.4183 115.845 23.8636 117.297 23.8636 119.155V120.189ZM21.2616 118.284C21.2539 117.316 21.0255 116.565 20.5763 116.03C20.1272 115.488 19.5077 115.217 18.7178 115.217C17.9434 115.217 17.2852 115.5 16.7431 116.065C16.2088 116.631 15.8797 117.37 15.7558 118.284H21.2616ZM36.7863 125.404H34.0915V118.702C34.0915 116.48 33.3055 115.368 31.7335 115.368C30.9126 115.368 30.235 115.678 29.7007 116.298C29.1664 116.909 28.8992 117.684 28.8992 118.621V125.404H26.1928V113.51H28.8992V115.484H28.9457C29.8362 113.982 31.1217 113.231 32.8021 113.231C34.0953 113.231 35.0827 113.653 35.7641 114.497C36.4456 115.333 36.7863 116.545 36.7863 118.133V125.404ZM50.6616 125.404H47.9667V123.383H47.9203C47.0529 124.916 45.7171 125.683 43.9128 125.683C42.4492 125.683 41.276 125.153 40.3932 124.092C39.5182 123.023 39.0807 121.571 39.0807 119.736C39.0807 117.769 39.5647 116.193 40.5326 115.008C41.5084 113.823 42.8055 113.231 44.4239 113.231C46.0269 113.231 47.1923 113.874 47.9203 115.159H47.9667V107.795H50.6616V125.404ZM48.0016 119.968V118.412C48.0016 117.568 47.7267 116.851 47.1768 116.263C46.627 115.674 45.9262 115.38 45.0744 115.38C44.0677 115.38 43.274 115.755 42.6932 116.507C42.1201 117.258 41.8336 118.299 41.8336 119.631C41.8336 120.839 42.1085 121.796 42.6583 122.5C43.2159 123.197 43.9632 123.546 44.9002 123.546C45.8217 123.546 46.569 123.209 47.142 122.535C47.715 121.854 48.0016 120.998 48.0016 119.968ZM63.0732 125.404H60.4597V123.546H60.4132C59.5924 124.971 58.3882 125.683 56.8007 125.683C55.6314 125.683 54.7138 125.366 54.0478 124.731C53.3896 124.096 53.0605 123.255 53.0605 122.21C53.0605 119.964 54.3537 118.656 56.9401 118.284L60.4713 117.784C60.4713 116.088 59.666 115.241 58.0552 115.241C56.6381 115.241 55.3604 115.728 54.222 116.704V114.346C55.4765 113.603 56.9246 113.231 58.5663 113.231C61.5709 113.231 63.0732 114.71 63.0732 117.668V125.404ZM60.4713 119.562L57.9739 119.91C57.1995 120.011 56.6149 120.2 56.2199 120.479C55.8328 120.75 55.6392 121.23 55.6392 121.92C55.6392 122.423 55.8173 122.837 56.1735 123.162C56.5374 123.48 57.0214 123.639 57.6255 123.639C58.4463 123.639 59.1239 123.352 59.6582 122.779C60.2003 122.198 60.4713 121.47 60.4713 120.595V119.562ZM73.034 116.077C72.7087 115.821 72.2402 115.694 71.6285 115.694C70.8309 115.694 70.1649 116.054 69.6306 116.774C69.0962 117.494 68.8291 118.474 68.8291 119.713V125.404H66.1342V113.51H68.8291V115.961H68.8755C69.1388 115.124 69.5415 114.474 70.0836 114.009C70.6334 113.537 71.2452 113.301 71.9189 113.301C72.4067 113.301 72.7784 113.374 73.034 113.521V116.077Z" fill="black"/>
<path d="M53.8027 146.645C53.8027 144.768 55.3243 143.246 57.2012 143.246H137.088C138.965 143.246 140.486 144.768 140.486 146.645V167.035C140.486 168.912 138.965 170.434 137.088 170.434H57.2012C55.3243 170.434 53.8027 168.912 53.8027 167.035V146.645Z" fill="#F5F5F5"/>
<path d="M70.4332 160.84L69.4923 158.313H66.1644L65.2351 160.84H63.998L67.2388 152.314H68.4585L71.6819 160.84H70.4332ZM69.1612 157.28L68.2668 154.776C68.2397 154.691 68.1971 154.563 68.1391 154.393C68.0849 154.223 68.0287 154.047 67.9706 153.865C67.9164 153.683 67.8719 153.532 67.8371 153.412C67.7983 153.57 67.7538 153.739 67.7035 153.917C67.6531 154.091 67.6028 154.256 67.5525 154.411C67.506 154.562 67.4673 154.683 67.4363 154.776L66.5303 157.28H69.1612ZM77.0337 159.051C77.0337 159.465 76.9311 159.816 76.7259 160.102C76.5246 160.385 76.2303 160.598 75.8431 160.741C75.4559 160.884 74.9913 160.956 74.4492 160.956C74.0001 160.956 73.6129 160.921 73.2876 160.851C72.9624 160.786 72.6681 160.689 72.4048 160.561V159.527C72.6875 159.663 73.0147 159.783 73.3864 159.887C73.7581 159.992 74.122 160.044 74.4782 160.044C74.9777 160.044 75.3378 159.965 75.5585 159.806C75.7831 159.647 75.8954 159.432 75.8954 159.161C75.8954 159.003 75.8508 158.863 75.7618 158.743C75.6727 158.619 75.5159 158.497 75.2913 158.377C75.0706 158.253 74.7531 158.112 74.3389 157.953C73.9323 157.795 73.5838 157.636 73.2934 157.477C73.0069 157.318 72.7882 157.127 72.6371 156.902C72.4861 156.678 72.4106 156.387 72.4106 156.031C72.4106 155.477 72.6313 155.055 73.0727 154.765C73.518 154.471 74.1046 154.323 74.8325 154.323C75.2197 154.323 75.5837 154.362 75.9244 154.44C76.269 154.517 76.5981 154.625 76.9117 154.765L76.5342 155.665C76.2555 155.545 75.9689 155.446 75.6747 155.369C75.3804 155.288 75.0803 155.247 74.7744 155.247C74.3756 155.247 74.0698 155.311 73.8568 155.439C73.6477 155.566 73.5432 155.742 73.5432 155.967C73.5432 156.141 73.5916 156.286 73.6884 156.403C73.789 156.519 73.9555 156.633 74.1878 156.745C74.4202 156.854 74.7338 156.983 75.1287 157.134C75.5198 157.282 75.8566 157.434 76.1393 157.593C76.4258 157.752 76.6465 157.946 76.8014 158.174C76.9563 158.402 77.0337 158.695 77.0337 159.051ZM82.8908 159.051C82.8908 159.465 82.7882 159.816 82.583 160.102C82.3817 160.385 82.0874 160.598 81.7002 160.741C81.313 160.884 80.8484 160.956 80.3063 160.956C79.8572 160.956 79.47 160.921 79.1448 160.851C78.8195 160.786 78.5252 160.689 78.262 160.561V159.527C78.5446 159.663 78.8718 159.783 79.2435 159.887C79.6152 159.992 79.9792 160.044 80.3354 160.044C80.8348 160.044 81.1949 159.965 81.4156 159.806C81.6402 159.647 81.7525 159.432 81.7525 159.161C81.7525 159.003 81.708 158.863 81.6189 158.743C81.5299 158.619 81.373 158.497 81.1485 158.377C80.9278 158.253 80.6103 158.112 80.196 157.953C79.7894 157.795 79.441 157.636 79.1506 157.477C78.864 157.318 78.6453 157.127 78.4943 156.902C78.3433 156.678 78.2678 156.387 78.2678 156.031C78.2678 155.477 78.4885 155.055 78.9299 154.765C79.3751 154.471 79.9617 154.323 80.6897 154.323C81.0768 154.323 81.4408 154.362 81.7815 154.44C82.1261 154.517 82.4552 154.625 82.7689 154.765L82.3914 155.665C82.1126 155.545 81.8261 155.446 81.5318 155.369C81.2375 155.288 80.9375 155.247 80.6316 155.247C80.2328 155.247 79.9269 155.311 79.7139 155.439C79.5048 155.566 79.4003 155.742 79.4003 155.967C79.4003 156.141 79.4487 156.286 79.5455 156.403C79.6462 156.519 79.8127 156.633 80.045 156.745C80.2773 156.854 80.5909 156.983 80.9859 157.134C81.3769 157.282 81.7138 157.434 81.9964 157.593C82.2829 157.752 82.5036 157.946 82.6585 158.174C82.8134 158.402 82.8908 158.695 82.8908 159.051ZM85.693 154.44V160.84H84.5256V154.44H85.693ZM85.118 152.018C85.3039 152.018 85.4626 152.072 85.5943 152.18C85.7298 152.289 85.7976 152.465 85.7976 152.709C85.7976 152.953 85.7298 153.131 85.5943 153.243C85.4626 153.352 85.3039 153.406 85.118 153.406C84.9283 153.406 84.7676 153.352 84.636 153.243C84.5082 153.131 84.4443 152.953 84.4443 152.709C84.4443 152.465 84.5082 152.289 84.636 152.18C84.7676 152.072 84.9283 152.018 85.118 152.018ZM89.6161 163.697C88.7604 163.697 88.1022 163.541 87.6414 163.227C87.1846 162.913 86.9561 162.476 86.9561 161.914C86.9561 161.515 87.082 161.177 87.3336 160.898C87.5853 160.623 87.9376 160.437 88.3907 160.34C88.2203 160.263 88.0732 160.145 87.9493 159.986C87.8292 159.823 87.7692 159.641 87.7692 159.44C87.7692 159.204 87.835 159.001 87.9667 158.83C88.1022 158.656 88.3035 158.488 88.5707 158.325C88.2339 158.186 87.9628 157.955 87.7576 157.634C87.5524 157.309 87.4498 156.929 87.4498 156.496C87.4498 156.035 87.5466 155.642 87.7402 155.317C87.9376 154.991 88.2203 154.744 88.5881 154.573C88.956 154.403 89.4032 154.318 89.9298 154.318C90.0459 154.318 90.1659 154.323 90.2898 154.335C90.4137 154.343 90.5318 154.356 90.6441 154.376C90.7564 154.395 90.8474 154.414 90.9171 154.434H93.1241V155.125L91.9857 155.299C92.098 155.446 92.189 155.62 92.2587 155.822C92.3284 156.023 92.3633 156.244 92.3633 156.484C92.3633 157.134 92.1406 157.649 91.6953 158.029C91.2539 158.404 90.6422 158.592 89.8601 158.592C89.6781 158.588 89.4942 158.573 89.3083 158.546C89.1418 158.643 89.016 158.749 88.9308 158.865C88.8456 158.977 88.803 159.107 88.803 159.254C88.803 159.367 88.8398 159.458 88.9134 159.527C88.9908 159.597 89.1012 159.649 89.2444 159.684C89.3877 159.715 89.5619 159.731 89.7671 159.731H90.8822C91.5792 159.731 92.1135 159.878 92.4852 160.172C92.8569 160.466 93.0428 160.896 93.0428 161.461C93.0428 162.178 92.7485 162.729 92.16 163.117C91.5714 163.504 90.7235 163.697 89.6161 163.697ZM89.6568 162.844C90.1563 162.844 90.5725 162.793 90.9055 162.693C91.2423 162.592 91.4959 162.449 91.6663 162.263C91.8367 162.077 91.9219 161.856 91.9219 161.601C91.9219 161.368 91.8657 161.19 91.7534 161.066C91.645 160.946 91.4824 160.865 91.2656 160.822C91.0487 160.78 90.7816 160.759 90.4641 160.759H89.407C89.136 160.759 88.8998 160.801 88.6985 160.886C88.4971 160.971 88.3403 161.093 88.228 161.252C88.1158 161.415 88.0596 161.614 88.0596 161.85C88.0596 162.172 88.1971 162.418 88.472 162.588C88.7508 162.758 89.1457 162.844 89.6568 162.844ZM89.9123 157.797C90.3421 157.797 90.6635 157.684 90.8764 157.46C91.0894 157.231 91.1959 156.906 91.1959 156.484C91.1959 156.031 91.0875 155.69 90.8706 155.462C90.6538 155.233 90.3324 155.119 89.9065 155.119C89.4922 155.119 89.1747 155.237 88.954 155.473C88.7372 155.706 88.6288 156.046 88.6288 156.496C88.6288 156.91 88.7391 157.231 88.9598 157.46C89.1805 157.684 89.498 157.797 89.9123 157.797ZM97.6338 154.323C98.3733 154.323 98.9406 154.509 99.3355 154.881C99.7343 155.253 99.9337 155.849 99.9337 156.67V160.84H98.7779V156.827C98.7779 156.316 98.6656 155.932 98.4411 155.677C98.2165 155.417 97.8719 155.288 97.4073 155.288C96.7452 155.288 96.2805 155.483 96.0134 155.874C95.7501 156.265 95.6185 156.832 95.6185 157.576V160.84H94.4511V154.44H95.3745L95.5429 155.34H95.6068C95.7424 155.115 95.9147 154.927 96.1237 154.776C96.3328 154.625 96.5651 154.513 96.8207 154.44C97.0801 154.362 97.3511 154.323 97.6338 154.323ZM104.513 154.323C105.071 154.323 105.549 154.443 105.948 154.683C106.346 154.92 106.652 155.255 106.865 155.688C107.078 156.122 107.185 156.633 107.185 157.222V157.884H102.84C102.852 158.569 103.028 159.096 103.369 159.463C103.71 159.827 104.188 160.009 104.803 160.009C105.21 160.009 105.572 159.971 105.89 159.893C106.207 159.816 106.536 159.701 106.877 159.55V160.532C106.556 160.679 106.232 160.786 105.907 160.851C105.586 160.921 105.2 160.956 104.751 160.956C104.132 160.956 103.588 160.832 103.119 160.584C102.655 160.336 102.293 159.971 102.033 159.487C101.774 158.999 101.644 158.399 101.644 157.686C101.644 156.981 101.762 156.379 101.998 155.88C102.234 155.377 102.567 154.991 102.997 154.724C103.427 154.457 103.932 154.323 104.513 154.323ZM104.507 155.229C104.035 155.229 103.655 155.384 103.369 155.694C103.082 156 102.914 156.439 102.864 157.012H106.012C106.008 156.66 105.952 156.35 105.843 156.083C105.735 155.816 105.57 155.607 105.349 155.456C105.133 155.305 104.852 155.229 104.507 155.229ZM111.404 154.323C111.962 154.323 112.44 154.443 112.839 154.683C113.237 154.92 113.543 155.255 113.756 155.688C113.969 156.122 114.076 156.633 114.076 157.222V157.884H109.731C109.743 158.569 109.919 159.096 110.26 159.463C110.601 159.827 111.079 160.009 111.694 160.009C112.101 160.009 112.463 159.971 112.78 159.893C113.098 159.816 113.427 159.701 113.768 159.55V160.532C113.446 160.679 113.123 160.786 112.798 160.851C112.477 160.921 112.091 160.956 111.642 160.956C111.023 160.956 110.479 160.832 110.01 160.584C109.546 160.336 109.183 159.971 108.924 159.487C108.665 158.999 108.535 158.399 108.535 157.686C108.535 156.981 108.653 156.379 108.889 155.88C109.125 155.377 109.458 154.991 109.888 154.724C110.318 154.457 110.823 154.323 111.404 154.323ZM111.398 155.229C110.926 155.229 110.546 155.384 110.26 155.694C109.973 156 109.805 156.439 109.755 157.012H112.902C112.899 156.66 112.842 156.35 112.734 156.083C112.626 155.816 112.461 155.607 112.24 155.456C112.024 155.305 111.743 155.229 111.398 155.229Z" fill="#3A3A3A"/>
<path d="M123.944 156.466L125.594 158.117C125.843 158.365 126.244 158.365 126.493 158.117L128.143 156.466C128.544 156.065 128.258 155.377 127.691 155.377H124.39C123.823 155.377 123.542 156.065 123.944 156.466Z" fill="#3A3A3A"/>
<path d="M149.809 146.692C149.809 144.789 151.351 143.246 153.254 143.246H208.047C209.95 143.246 211.492 144.789 211.492 146.692V166.988C211.492 168.891 209.95 170.434 208.047 170.434H153.254C151.351 170.434 149.809 168.891 149.809 166.988V146.692Z" fill="#0072C4"/>
<path d="M168.007 160.84H166.578L162.182 153.882H162.135C162.147 154.091 162.161 154.321 162.176 154.573C162.192 154.821 162.203 155.082 162.211 155.357C162.223 155.628 162.23 155.903 162.234 156.182V160.84H161.142V152.349H162.559L166.939 159.272H166.979C166.971 159.101 166.962 158.89 166.95 158.639C166.939 158.387 166.927 158.122 166.915 157.843C166.908 157.56 166.904 157.293 166.904 157.041V152.349H168.007V160.84ZM172.767 154.323C173.324 154.323 173.802 154.443 174.201 154.683C174.6 154.92 174.906 155.255 175.119 155.688C175.332 156.122 175.438 156.633 175.438 157.222V157.884H171.094C171.106 158.569 171.282 159.096 171.622 159.463C171.963 159.827 172.441 160.009 173.057 160.009C173.464 160.009 173.826 159.971 174.143 159.893C174.461 159.816 174.79 159.701 175.13 159.55V160.532C174.809 160.679 174.486 160.786 174.16 160.851C173.839 160.921 173.454 160.956 173.005 160.956C172.385 160.956 171.841 160.832 171.373 160.584C170.908 160.336 170.546 159.971 170.287 159.487C170.027 158.999 169.898 158.399 169.898 157.686C169.898 156.981 170.016 156.379 170.252 155.88C170.488 155.377 170.821 154.991 171.251 154.724C171.681 154.457 172.186 154.323 172.767 154.323ZM172.761 155.229C172.288 155.229 171.909 155.384 171.622 155.694C171.336 156 171.167 156.439 171.117 157.012H174.265C174.261 156.66 174.205 156.35 174.097 156.083C173.988 155.816 173.824 155.607 173.603 155.456C173.386 155.305 173.105 155.229 172.761 155.229ZM182.37 160.828L181.394 157.483C181.351 157.332 181.305 157.165 181.255 156.983C181.208 156.801 181.162 156.619 181.115 156.437C181.069 156.255 181.026 156.087 180.988 155.932C180.953 155.773 180.926 155.646 180.906 155.549H180.86C180.84 155.646 180.813 155.773 180.778 155.932C180.744 156.087 180.703 156.257 180.656 156.443C180.614 156.625 180.567 156.809 180.517 156.995C180.471 157.181 180.424 157.349 180.378 157.5L179.356 160.828H178.066L176.289 154.434H177.48L178.357 157.785C178.415 158.009 178.471 158.242 178.525 158.482C178.579 158.722 178.626 158.948 178.664 159.161C178.703 159.374 178.732 159.556 178.751 159.707H178.798C178.817 159.607 178.841 159.483 178.868 159.336C178.899 159.185 178.932 159.028 178.966 158.865C179.001 158.699 179.038 158.538 179.077 158.383C179.119 158.228 179.158 158.093 179.193 157.977L180.273 154.434H181.539L182.579 157.971C182.629 158.141 182.681 158.333 182.736 158.546C182.79 158.755 182.838 158.962 182.881 159.167C182.923 159.372 182.953 159.549 182.968 159.696H183.014C183.03 159.564 183.059 159.394 183.102 159.185C183.144 158.976 183.193 158.749 183.247 158.505C183.301 158.257 183.359 158.017 183.421 157.785L184.31 154.434H185.483L183.694 160.828H182.37Z" fill="white"/>
<path d="M200.872 157.477H197.686V160.663C197.686 161.014 197.399 161.3 197.048 161.3C196.698 161.3 196.411 161.014 196.411 160.663V157.477H193.225C192.875 157.477 192.588 157.19 192.588 156.84C192.588 156.489 192.875 156.203 193.225 156.203H196.411V153.017C196.411 152.666 196.698 152.379 197.048 152.379C197.399 152.379 197.686 152.666 197.686 153.017V156.203H200.872C201.222 156.203 201.509 156.489 201.509 156.84C201.509 157.19 201.222 157.477 200.872 157.477Z" fill="white"/>
<path d="M551.07 146.692C551.07 144.789 552.613 143.246 554.516 143.246H603.015C604.918 143.246 606.461 144.789 606.461 146.692V166.988C606.461 168.891 604.918 170.434 603.015 170.434H554.516C552.613 170.434 551.07 168.891 551.07 166.988V146.692Z" fill="#F5F5F5"/>
<path d="M565.18 160.84H563.984V153.377H561.405V152.349H567.753V153.377H565.18V160.84ZM574.615 157.628C574.615 158.155 574.545 158.625 574.406 159.039C574.27 159.45 574.071 159.798 573.808 160.085C573.548 160.367 573.235 160.584 572.867 160.735C572.499 160.882 572.083 160.956 571.618 160.956C571.184 160.956 570.786 160.882 570.422 160.735C570.062 160.584 569.75 160.367 569.487 160.085C569.223 159.798 569.02 159.45 568.877 159.039C568.733 158.625 568.662 158.155 568.662 157.628C568.662 156.927 568.782 156.331 569.022 155.839C569.262 155.344 569.605 154.968 570.05 154.713C570.499 154.453 571.033 154.323 571.653 154.323C572.241 154.323 572.758 154.453 573.204 154.713C573.649 154.972 573.995 155.348 574.243 155.839C574.491 156.331 574.615 156.927 574.615 157.628ZM569.858 157.628C569.858 158.12 569.92 158.544 570.044 158.9C570.172 159.252 570.365 159.523 570.625 159.713C570.888 159.903 571.227 159.998 571.641 159.998C572.048 159.998 572.383 159.903 572.646 159.713C572.909 159.523 573.103 159.252 573.227 158.9C573.351 158.544 573.413 158.12 573.413 157.628C573.413 157.14 573.351 156.722 573.227 156.374C573.103 156.025 572.909 155.758 572.646 155.572C572.387 155.386 572.048 155.293 571.63 155.293C571.018 155.293 570.569 155.499 570.282 155.909C570 156.316 569.858 156.889 569.858 157.628ZM578.567 160.956C577.785 160.956 577.16 160.679 576.691 160.125C576.226 159.572 575.994 158.751 575.994 157.663C575.994 156.563 576.23 155.733 576.703 155.171C577.179 154.606 577.81 154.323 578.596 154.323C578.925 154.323 579.214 154.368 579.461 154.457C579.709 154.546 579.922 154.664 580.1 154.811C580.282 154.958 580.433 155.125 580.553 155.311H580.623C580.604 155.191 580.584 155.022 580.565 154.805C580.546 154.589 580.536 154.399 580.536 154.236V151.803H581.703V160.84H580.78L580.588 159.951H580.536C580.42 160.137 580.271 160.307 580.089 160.462C579.911 160.613 579.696 160.733 579.444 160.822C579.196 160.911 578.904 160.956 578.567 160.956ZM578.84 160.004C579.471 160.004 579.916 159.822 580.176 159.458C580.439 159.094 580.573 158.553 580.577 157.837V157.657C580.577 156.894 580.451 156.31 580.199 155.903C579.951 155.493 579.494 155.288 578.828 155.288C578.286 155.288 577.878 155.5 577.603 155.926C577.328 156.348 577.191 156.935 577.191 157.686C577.191 158.43 577.328 159.003 577.603 159.405C577.878 159.804 578.29 160.004 578.84 160.004ZM586.265 154.329C587.055 154.329 587.646 154.505 588.037 154.858C588.428 155.206 588.623 155.758 588.623 156.513V160.84H587.787L587.56 159.911H587.514C587.336 160.143 587.15 160.336 586.956 160.491C586.763 160.646 586.538 160.762 586.283 160.84C586.031 160.917 585.723 160.956 585.359 160.956C584.972 160.956 584.627 160.886 584.325 160.747C584.023 160.608 583.785 160.398 583.611 160.12C583.441 159.837 583.356 159.479 583.356 159.045C583.356 158.395 583.605 157.901 584.105 157.564C584.604 157.227 585.361 157.043 586.376 157.012L587.479 156.966V156.606C587.479 156.106 587.367 155.754 587.142 155.549C586.922 155.344 586.612 155.241 586.213 155.241C585.884 155.241 585.568 155.289 585.266 155.386C584.964 155.479 584.674 155.591 584.395 155.723L584.023 154.875C584.325 154.72 584.668 154.591 585.051 154.486C585.439 154.381 585.843 154.329 586.265 154.329ZM587.468 157.733L586.573 157.773C585.834 157.8 585.313 157.924 585.011 158.145C584.713 158.362 584.564 158.666 584.564 159.057C584.564 159.398 584.666 159.647 584.871 159.806C585.077 159.965 585.348 160.044 585.684 160.044C586.203 160.044 586.629 159.899 586.962 159.609C587.299 159.314 587.468 158.881 587.468 158.308V157.733ZM589.712 154.44H590.972L592.331 158.128C592.401 158.317 592.465 158.503 592.523 158.685C592.585 158.863 592.637 159.037 592.68 159.208C592.726 159.374 592.763 159.539 592.79 159.701H592.831C592.877 159.504 592.943 159.264 593.028 158.981C593.114 158.699 593.207 158.412 593.307 158.122L594.608 154.44H595.863L593.098 161.746C592.947 162.152 592.763 162.501 592.546 162.791C592.333 163.086 592.08 163.31 591.786 163.465C591.491 163.624 591.143 163.703 590.74 163.703C590.554 163.703 590.39 163.692 590.246 163.668C590.107 163.649 589.987 163.626 589.886 163.599V162.669C589.972 162.689 590.074 162.706 590.194 162.722C590.318 162.737 590.446 162.745 590.578 162.745C590.821 162.745 591.031 162.696 591.205 162.6C591.383 162.507 591.534 162.373 591.658 162.199C591.786 162.025 591.892 161.821 591.977 161.589L592.268 160.834L589.712 154.44Z" fill="#3A3A3A"/>
<path d="M620.055 163.14C619.849 163.14 619.669 163.126 619.515 163.099C619.36 163.072 619.228 163.037 619.12 162.995V161.99C619.244 162.025 619.377 162.054 619.52 162.077C619.664 162.1 619.817 162.112 619.979 162.112C620.196 162.112 620.393 162.069 620.572 161.984C620.75 161.899 620.891 161.752 620.996 161.543C621.1 161.334 621.152 161.043 621.152 160.671V152.349H622.349V160.613C622.349 161.19 622.254 161.665 622.064 162.036C621.878 162.412 621.613 162.689 621.269 162.867C620.924 163.049 620.519 163.14 620.055 163.14ZM631.238 152.349V157.843C631.238 158.439 631.114 158.972 630.866 159.44C630.622 159.909 630.252 160.278 629.757 160.549C629.261 160.82 628.638 160.956 627.886 160.956C626.822 160.956 626.009 160.671 625.447 160.102C624.89 159.529 624.611 158.768 624.611 157.82V152.349H625.807V157.773C625.807 158.49 625.985 159.03 626.342 159.394C626.702 159.758 627.236 159.94 627.945 159.94C628.432 159.94 628.831 159.853 629.141 159.678C629.451 159.5 629.679 159.25 629.826 158.929C629.977 158.604 630.053 158.219 630.053 157.773V152.349H631.238ZM640.434 160.84H639.006L634.609 153.882H634.563C634.574 154.091 634.588 154.321 634.603 154.573C634.619 154.821 634.63 155.082 634.638 155.357C634.65 155.628 634.657 155.903 634.661 156.182V160.84H633.569V152.349H634.987L639.366 159.272H639.406C639.399 159.101 639.389 158.89 639.377 158.639C639.366 158.387 639.354 158.122 639.342 157.843C639.335 157.56 639.331 157.293 639.331 157.041V152.349H640.434V160.84Z" fill="#3A3A3A"/>
<g clip-path="url(#clip4_7297_8261)">
<rect width="768.896" height="28.3906" transform="translate(-20.6777 188.275)" fill="white"/>
<rect x="-20.2529" y="188.7" width="109.721" height="27.541" stroke="#E0E0E0" stroke-width="0.849609"/>
<rect x="89.4678" y="188.7" width="109.721" height="27.541" stroke="#E0E0E0" stroke-width="0.849609"/>
<path d="M136.166 206.471L133.518 199.17H133.471C133.483 199.329 133.494 199.534 133.506 199.786C133.522 200.034 133.533 200.305 133.541 200.599C133.553 200.889 133.558 201.176 133.558 201.459V206.471H132.466V197.98H134.18L136.695 204.897H136.735L139.314 197.98H141.016V206.471H139.866V201.389C139.866 201.133 139.87 200.868 139.877 200.593C139.885 200.314 139.895 200.051 139.906 199.803C139.922 199.552 139.935 199.344 139.947 199.182H139.895L137.182 206.471H136.166ZM148.859 203.259C148.859 203.786 148.789 204.256 148.65 204.67C148.514 205.081 148.315 205.429 148.052 205.716C147.792 205.998 147.479 206.215 147.111 206.366C146.743 206.513 146.327 206.587 145.862 206.587C145.429 206.587 145.03 206.513 144.666 206.366C144.306 206.215 143.994 205.998 143.731 205.716C143.467 205.429 143.264 205.081 143.121 204.67C142.978 204.256 142.906 203.786 142.906 203.259C142.906 202.558 143.026 201.962 143.266 201.47C143.506 200.975 143.849 200.599 144.294 200.343C144.743 200.084 145.278 199.954 145.897 199.954C146.486 199.954 147.002 200.084 147.448 200.343C147.893 200.603 148.24 200.978 148.487 201.47C148.735 201.962 148.859 202.558 148.859 203.259ZM144.102 203.259C144.102 203.751 144.164 204.175 144.288 204.531C144.416 204.883 144.61 205.154 144.869 205.344C145.132 205.534 145.471 205.629 145.885 205.629C146.292 205.629 146.627 205.534 146.89 205.344C147.154 205.154 147.347 204.883 147.471 204.531C147.595 204.175 147.657 203.751 147.657 203.259C147.657 202.771 147.595 202.353 147.471 202.004C147.347 201.656 147.154 201.389 146.89 201.203C146.631 201.017 146.292 200.924 145.874 200.924C145.262 200.924 144.813 201.129 144.526 201.54C144.244 201.946 144.102 202.519 144.102 203.259ZM153.781 199.954C154.521 199.954 155.088 200.14 155.483 200.512C155.882 200.884 156.081 201.48 156.081 202.301V206.471H154.925V202.457C154.925 201.946 154.813 201.563 154.588 201.308C154.364 201.048 154.019 200.918 153.555 200.918C152.893 200.918 152.428 201.114 152.161 201.505C151.897 201.896 151.766 202.463 151.766 203.207V206.471H150.598V200.07H151.522L151.69 200.971H151.754C151.89 200.746 152.062 200.558 152.271 200.407C152.48 200.256 152.712 200.144 152.968 200.07C153.227 199.993 153.498 199.954 153.781 199.954Z" fill="black"/>
<rect x="199.189" y="188.7" width="109.721" height="27.541" stroke="#E0E0E0" stroke-width="0.849609"/>
<path d="M246.964 206.471H245.768V199.008H243.189V197.98H249.537V199.008H246.964V206.471ZM256.242 200.07V206.471H255.307L255.145 205.594H255.081C254.949 205.814 254.779 205.998 254.57 206.145C254.361 206.293 254.126 206.403 253.867 206.477C253.607 206.55 253.333 206.587 253.042 206.587C252.55 206.587 252.132 206.506 251.788 206.343C251.447 206.18 251.187 205.929 251.009 205.588C250.835 205.243 250.748 204.8 250.748 204.258V200.07H251.921V204.095C251.921 204.61 252.032 204.996 252.252 205.251C252.477 205.507 252.818 205.634 253.274 205.634C253.72 205.634 254.072 205.547 254.331 205.373C254.595 205.195 254.783 204.937 254.895 204.601C255.011 204.26 255.069 203.844 255.069 203.352V200.07H256.242ZM260.868 199.954C261.426 199.954 261.904 200.074 262.303 200.314C262.701 200.551 263.007 200.885 263.22 201.319C263.433 201.753 263.54 202.264 263.54 202.852V203.514H259.195C259.207 204.2 259.383 204.726 259.724 205.094C260.065 205.458 260.543 205.64 261.159 205.64C261.565 205.64 261.927 205.601 262.245 205.524C262.562 205.447 262.891 205.332 263.232 205.181V206.163C262.911 206.31 262.587 206.416 262.262 206.482C261.941 206.552 261.555 206.587 261.106 206.587C260.487 206.587 259.943 206.463 259.474 206.215C259.01 205.967 258.648 205.601 258.388 205.117C258.129 204.63 257.999 204.029 257.999 203.317C257.999 202.612 258.117 202.01 258.353 201.511C258.59 201.007 258.922 200.622 259.352 200.355C259.782 200.088 260.287 199.954 260.868 199.954ZM260.862 200.86C260.39 200.86 260.011 201.015 259.724 201.325C259.437 201.631 259.269 202.07 259.219 202.643H262.367C262.363 202.291 262.307 201.981 262.198 201.714C262.09 201.447 261.925 201.238 261.704 201.087C261.488 200.936 261.207 200.86 260.862 200.86Z" fill="black"/>
<rect x="308.91" y="188.7" width="109.721" height="27.541" stroke="#E0E0E0" stroke-width="0.849609"/>
<path d="M361.753 197.98L359.511 206.471H358.251L356.7 201.069C356.658 200.926 356.615 200.771 356.573 200.605C356.53 200.438 356.487 200.274 356.445 200.111C356.406 199.945 356.373 199.796 356.346 199.664C356.319 199.532 356.3 199.432 356.288 199.362C356.28 199.432 356.263 199.532 356.236 199.664C356.212 199.792 356.183 199.937 356.149 200.099C356.114 200.262 356.075 200.429 356.032 200.599C355.99 200.765 355.947 200.924 355.905 201.075L354.389 206.471H353.134L350.904 197.98H352.118L353.413 203.131C353.456 203.302 353.496 203.476 353.535 203.654C353.578 203.828 353.616 204.004 353.651 204.182C353.686 204.357 353.717 204.527 353.744 204.693C353.771 204.856 353.796 205.011 353.82 205.158C353.839 205.007 353.864 204.846 353.895 204.676C353.926 204.502 353.959 204.326 353.994 204.148C354.033 203.969 354.073 203.793 354.116 203.619C354.158 203.445 354.203 203.278 354.249 203.12L355.701 197.98H356.892L358.396 203.149C358.443 203.311 358.487 203.482 358.53 203.66C358.576 203.838 358.617 204.016 358.652 204.194C358.691 204.372 358.723 204.542 358.751 204.705C358.782 204.868 358.809 205.019 358.832 205.158C358.859 204.965 358.892 204.755 358.931 204.531C358.973 204.306 359.022 204.074 359.076 203.834C359.13 203.594 359.184 203.358 359.238 203.125L360.534 197.98H361.753ZM365.508 199.954C366.065 199.954 366.544 200.074 366.942 200.314C367.341 200.551 367.647 200.885 367.86 201.319C368.073 201.753 368.18 202.264 368.18 202.852V203.514H363.835C363.847 204.2 364.023 204.726 364.364 205.094C364.704 205.458 365.183 205.64 365.798 205.64C366.205 205.64 366.567 205.601 366.884 205.524C367.202 205.447 367.531 205.332 367.872 205.181V206.163C367.55 206.31 367.227 206.416 366.902 206.482C366.58 206.552 366.195 206.587 365.746 206.587C365.126 206.587 364.582 206.463 364.114 206.215C363.649 205.967 363.287 205.601 363.028 205.117C362.768 204.63 362.639 204.029 362.639 203.317C362.639 202.612 362.757 202.01 362.993 201.511C363.229 201.007 363.562 200.622 363.992 200.355C364.422 200.088 364.927 199.954 365.508 199.954ZM365.502 200.86C365.03 200.86 364.65 201.015 364.364 201.325C364.077 201.631 363.909 202.07 363.858 202.643H367.006C367.002 202.291 366.946 201.981 366.838 201.714C366.729 201.447 366.565 201.238 366.344 201.087C366.127 200.936 365.847 200.86 365.502 200.86ZM372.103 206.587C371.32 206.587 370.695 206.31 370.227 205.756C369.762 205.203 369.53 204.382 369.53 203.294C369.53 202.194 369.766 201.364 370.238 200.802C370.715 200.237 371.346 199.954 372.132 199.954C372.461 199.954 372.749 199.999 372.997 200.088C373.245 200.177 373.458 200.295 373.636 200.442C373.818 200.589 373.969 200.756 374.089 200.942H374.159C374.139 200.822 374.12 200.653 374.101 200.436C374.081 200.219 374.071 200.03 374.071 199.867V197.434H375.239V206.471H374.315L374.124 205.582H374.071C373.955 205.768 373.806 205.938 373.624 206.093C373.446 206.244 373.231 206.364 372.98 206.453C372.732 206.542 372.439 206.587 372.103 206.587ZM372.376 205.634C373.007 205.634 373.452 205.452 373.711 205.088C373.975 204.724 374.108 204.184 374.112 203.468V203.288C374.112 202.525 373.986 201.941 373.735 201.534C373.487 201.124 373.03 200.918 372.364 200.918C371.822 200.918 371.413 201.131 371.138 201.557C370.864 201.979 370.726 202.566 370.726 203.317C370.726 204.06 370.864 204.633 371.138 205.036C371.413 205.435 371.826 205.634 372.376 205.634Z" fill="black"/>
<rect x="418.631" y="188.7" width="109.721" height="27.541" fill="white"/>
<rect x="418.631" y="188.7" width="109.721" height="27.541" stroke="#E0E0E0" stroke-width="0.849609"/>
<path d="M466.406 206.471H465.209V199.008H462.631V197.98H468.979V199.008H466.406V206.471ZM471.415 197.434V199.919C471.415 200.117 471.409 200.31 471.397 200.5C471.386 200.69 471.372 200.849 471.357 200.976H471.427C471.562 200.752 471.729 200.566 471.926 200.419C472.127 200.268 472.354 200.156 472.606 200.082C472.861 200.005 473.13 199.966 473.413 199.966C473.912 199.966 474.334 200.047 474.679 200.21C475.024 200.372 475.285 200.626 475.463 200.971C475.641 201.311 475.73 201.755 475.73 202.301V206.471H474.574V202.457C474.574 201.946 474.462 201.563 474.238 201.308C474.013 201.048 473.668 200.918 473.204 200.918C472.762 200.918 472.41 201.007 472.147 201.186C471.883 201.36 471.696 201.617 471.583 201.958C471.471 202.299 471.415 202.717 471.415 203.212V206.471H470.248V197.434H471.415ZM483.237 200.07V206.471H482.302L482.139 205.594H482.075C481.943 205.814 481.773 205.998 481.564 206.145C481.355 206.293 481.121 206.403 480.861 206.477C480.602 206.55 480.327 206.587 480.037 206.587C479.545 206.587 479.127 206.506 478.782 206.343C478.441 206.18 478.182 205.929 478.004 205.588C477.83 205.243 477.742 204.8 477.742 204.258V200.07H478.916V204.095C478.916 204.61 479.026 204.996 479.247 205.251C479.471 205.507 479.812 205.634 480.269 205.634C480.714 205.634 481.067 205.547 481.326 205.373C481.589 205.195 481.777 204.937 481.889 204.601C482.005 204.26 482.064 203.844 482.064 203.352V200.07H483.237Z" fill="black"/>
<rect x="528.352" y="188.7" width="109.721" height="27.541" stroke="#E0E0E0" stroke-width="0.849609"/>
<path d="M578.035 206.471H576.85V197.98H581.613V199.002H578.035V201.882H581.392V202.899H578.035V206.471ZM586.14 199.954C586.256 199.954 586.382 199.962 586.517 199.977C586.653 199.989 586.769 200.005 586.866 200.024L586.744 201.11C586.651 201.087 586.543 201.067 586.419 201.052C586.299 201.036 586.186 201.029 586.082 201.029C585.834 201.029 585.598 201.075 585.373 201.168C585.149 201.261 584.951 201.397 584.781 201.575C584.61 201.749 584.477 201.964 584.38 202.219C584.283 202.471 584.235 202.759 584.235 203.085V206.471H583.062V200.07H584.003L584.142 201.226H584.194C584.326 200.994 584.485 200.781 584.67 200.587C584.86 200.394 585.077 200.241 585.321 200.129C585.569 200.012 585.842 199.954 586.14 199.954ZM589.343 200.07V206.471H588.175V200.07H589.343ZM588.768 197.649C588.954 197.649 589.112 197.703 589.244 197.811C589.38 197.92 589.447 198.096 589.447 198.34C589.447 198.584 589.38 198.762 589.244 198.874C589.112 198.982 588.954 199.037 588.768 199.037C588.578 199.037 588.417 198.982 588.286 198.874C588.158 198.762 588.094 198.584 588.094 198.34C588.094 198.096 588.158 197.92 588.286 197.811C588.417 197.703 588.578 197.649 588.768 197.649Z" fill="black"/>
<rect x="638.073" y="188.7" width="109.721" height="27.541" stroke="#E0E0E0" stroke-width="0.849609"/>
<rect x="-20.4653" y="216.878" width="109.418" height="123.717" fill="#F5F5F5"/>
<rect x="-20.4653" y="216.878" width="109.418" height="123.717" stroke="#E0E0E0" stroke-width="0.424805"/>
<path d="M75.68 235.463H74.5242V229.719C74.5242 229.514 74.5242 229.326 74.5242 229.156C74.5281 228.981 74.5339 228.817 74.5416 228.662C74.5494 228.503 74.5571 228.35 74.5649 228.203C74.4642 228.308 74.3577 228.408 74.2454 228.505C74.137 228.598 74.0112 228.704 73.8679 228.824L72.898 229.609L72.2998 228.842L74.7101 226.972H75.68V235.463Z" fill="#6F6F6F"/>
<rect x="89.3774" y="216.878" width="109.418" height="123.717" fill="#F5F5F5"/>
<rect x="89.3774" y="216.878" width="109.418" height="123.717" stroke="#E0E0E0" stroke-width="0.424805"/>
<path d="M185.523 235.463H184.367V229.719C184.367 229.514 184.367 229.326 184.367 229.156C184.371 228.981 184.377 228.817 184.384 228.662C184.392 228.503 184.4 228.35 184.408 228.203C184.307 228.308 184.2 228.408 184.088 228.505C183.98 228.598 183.854 228.704 183.711 228.824L182.741 229.609L182.143 228.842L184.553 226.972H185.523V235.463Z" fill="#6F6F6F"/>
<rect x="199.219" y="216.878" width="109.418" height="123.717" fill="#F5F5F5"/>
<rect x="199.219" y="216.878" width="109.418" height="123.717" stroke="#E0E0E0" stroke-width="0.424805"/>
<path d="M295.365 235.463H294.209V229.719C294.209 229.514 294.209 229.326 294.209 229.156C294.213 228.981 294.218 228.817 294.226 228.662C294.234 228.503 294.242 228.35 294.249 228.203C294.149 228.308 294.042 228.408 293.93 228.505C293.822 228.598 293.696 228.704 293.552 228.824L292.583 229.609L291.984 228.842L294.395 226.972H295.365V235.463Z" fill="#6F6F6F"/>
<rect x="309.062" y="216.878" width="109.418" height="123.717" fill="#F5F5F5"/>
<rect x="309.062" y="216.878" width="109.418" height="123.717" stroke="#E0E0E0" stroke-width="0.424805"/>
<path d="M405.207 235.463H404.052V229.719C404.052 229.514 404.052 229.326 404.052 229.156C404.055 228.981 404.061 228.817 404.069 228.662C404.077 228.503 404.084 228.35 404.092 228.203C403.992 228.308 403.885 228.408 403.773 228.505C403.664 228.598 403.539 228.704 403.395 228.824L402.425 229.609L401.827 228.842L404.237 226.972H405.207V235.463Z" fill="#6F6F6F"/>
<rect x="418.904" y="216.878" width="109.418" height="123.717" fill="white"/>
<rect x="418.904" y="216.878" width="109.418" height="123.717" stroke="#E0E0E0" stroke-width="0.424805"/>
<path d="M515.049 235.463H513.893V229.719C513.893 229.514 513.893 229.326 513.893 229.156C513.897 228.981 513.903 228.817 513.911 228.662C513.919 228.503 513.926 228.35 513.934 228.203C513.833 228.308 513.727 228.408 513.615 228.505C513.506 228.598 513.38 228.704 513.237 228.824L512.267 229.609L511.669 228.842L514.079 226.972H515.049V235.463Z" fill="#6F6F6F"/>
<rect x="529.384" y="217.516" width="108.143" height="122.443" fill="white"/>
<rect x="529.384" y="217.516" width="108.143" height="122.443" stroke="#008FF5" stroke-width="1.69922"/>
<path d="M624.892 235.463H623.736V229.719C623.736 229.514 623.736 229.326 623.736 229.156C623.74 228.981 623.746 228.817 623.754 228.662C623.761 228.503 623.769 228.35 623.777 228.203C623.676 228.308 623.57 228.408 623.457 228.505C623.349 228.598 623.223 228.704 623.08 228.824L622.11 229.609L621.512 228.842L623.922 226.972H624.892V235.463Z" fill="#0072C4"/>
<rect x="638.588" y="216.878" width="109.418" height="123.717" fill="white"/>
<rect x="638.588" y="216.878" width="109.418" height="123.717" stroke="#E0E0E0" stroke-width="0.424805"/>
<rect x="-20.4653" y="341.021" width="109.418" height="123.717" fill="white"/>
<rect x="-20.4653" y="341.021" width="109.418" height="123.717" stroke="#E0E0E0" stroke-width="0.424805"/>
<path d="M75.68 359.605H74.5242V353.861C74.5242 353.656 74.5242 353.468 74.5242 353.298C74.5281 353.123 74.5339 352.959 74.5416 352.804C74.5494 352.645 74.5571 352.492 74.5649 352.345C74.4642 352.45 74.3577 352.55 74.2454 352.647C74.137 352.74 74.0112 352.847 73.8679 352.967L72.898 353.751L72.2998 352.984L74.7101 351.114H75.68V359.605Z" fill="#6F6F6F"/>
<rect x="89.3774" y="341.021" width="109.418" height="123.717" fill="white"/>
<rect x="89.3774" y="341.021" width="109.418" height="123.717" stroke="#E0E0E0" stroke-width="0.424805"/>
<path d="M185.523 359.605H184.367V353.861C184.367 353.656 184.367 353.468 184.367 353.298C184.371 353.123 184.377 352.959 184.384 352.804C184.392 352.645 184.4 352.492 184.408 352.345C184.307 352.45 184.2 352.55 184.088 352.647C183.98 352.74 183.854 352.847 183.711 352.967L182.741 353.751L182.143 352.984L184.553 351.114H185.523V359.605Z" fill="#6F6F6F"/>
<rect x="199.219" y="341.021" width="109.418" height="123.717" fill="white"/>
<rect x="199.219" y="341.021" width="109.418" height="123.717" stroke="#E0E0E0" stroke-width="0.424805"/>
<path d="M295.365 359.605H294.209V353.861C294.209 353.656 294.209 353.468 294.209 353.298C294.213 353.123 294.218 352.959 294.226 352.804C294.234 352.645 294.242 352.492 294.249 352.345C294.149 352.45 294.042 352.55 293.93 352.647C293.822 352.74 293.696 352.847 293.552 352.967L292.583 353.751L291.984 352.984L294.395 351.114H295.365V359.605Z" fill="#6F6F6F"/>
<rect x="309.062" y="341.021" width="109.418" height="123.717" fill="white"/>
<rect x="309.062" y="341.021" width="109.418" height="123.717" stroke="#E0E0E0" stroke-width="0.424805"/>
<path d="M405.207 359.605H404.052V353.861C404.052 353.656 404.052 353.468 404.052 353.298C404.055 353.123 404.061 352.959 404.069 352.804C404.077 352.645 404.084 352.492 404.092 352.345C403.992 352.45 403.885 352.55 403.773 352.647C403.664 352.74 403.539 352.847 403.395 352.967L402.425 353.751L401.827 352.984L404.237 351.114H405.207V359.605Z" fill="#6F6F6F"/>
<rect x="418.904" y="341.021" width="109.418" height="123.717" fill="white"/>
<rect x="418.904" y="341.021" width="109.418" height="123.717" stroke="#E0E0E0" stroke-width="0.424805"/>
<path d="M515.049 359.605H513.893V353.861C513.893 353.656 513.893 353.468 513.893 353.298C513.897 353.123 513.903 352.959 513.911 352.804C513.919 352.645 513.926 352.492 513.934 352.345C513.833 352.45 513.727 352.55 513.615 352.647C513.506 352.74 513.38 352.847 513.237 352.967L512.267 353.751L511.669 352.984L514.079 351.114H515.049V359.605Z" fill="#6F6F6F"/>
<rect x="528.747" y="341.021" width="109.418" height="123.717" fill="white"/>
<rect x="528.747" y="341.021" width="109.418" height="123.717" stroke="#E0E0E0" stroke-width="0.424805"/>
<path d="M624.892 359.605H623.736V353.861C623.736 353.656 623.736 353.468 623.736 353.298C623.74 353.123 623.746 352.959 623.754 352.804C623.761 352.645 623.769 352.492 623.777 352.345C623.676 352.45 623.57 352.55 623.457 352.647C623.349 352.74 623.223 352.847 623.08 352.967L622.11 353.751L621.512 352.984L623.922 351.114H624.892V359.605Z" fill="#6F6F6F"/>
<rect x="638.588" y="341.021" width="109.418" height="123.717" fill="white"/>
<rect x="638.588" y="341.021" width="109.418" height="123.717" stroke="#E0E0E0" stroke-width="0.424805"/>
<path d="M-13.0312 251.485C-13.0312 249.582 -11.4886 248.039 -9.58571 248.039H744.877C746.78 248.039 748.322 249.582 748.322 251.485V271.155C748.322 273.058 746.78 274.601 744.877 274.601H-9.58571C-11.4886 274.601 -13.0312 273.058 -13.0312 271.155V251.485Z" fill="#D4BBFF"/>
<path d="M18.2516 256.116C19.5039 256.116 20.4177 256.373 20.993 256.886C21.5682 257.399 21.8558 258.118 21.8558 259.043C21.8558 259.463 21.7895 259.864 21.6567 260.245C21.5284 260.621 21.316 260.955 21.0195 261.247C20.723 261.534 20.3314 261.762 19.8447 261.93C19.3623 262.099 18.7672 262.183 18.0591 262.183H17.0237V265.82H15.4307V256.116H18.2516ZM18.1454 257.437H17.0237V260.855H17.8932C18.3932 260.855 18.818 260.798 19.1676 260.683C19.5172 260.563 19.7827 260.375 19.9641 260.118C20.1456 259.862 20.2363 259.523 20.2363 259.103C20.2363 258.541 20.0659 258.123 19.7252 257.848C19.3889 257.574 18.8623 257.437 18.1454 257.437ZM27.1885 258.333C27.3124 258.333 27.4473 258.34 27.5934 258.353C27.7394 258.366 27.8655 258.384 27.9717 258.406L27.8257 259.866C27.7327 259.84 27.6177 259.82 27.4805 259.806C27.3478 259.793 27.2283 259.787 27.1221 259.787C26.8433 259.787 26.5778 259.833 26.3256 259.926C26.0733 260.014 25.8499 260.152 25.6552 260.337C25.4605 260.519 25.3078 260.747 25.1972 261.021C25.0866 261.295 25.0312 261.614 25.0312 261.977V265.82H23.4648V258.472H24.6861L24.8985 259.767H24.9715C25.1175 259.506 25.299 259.267 25.5158 259.05C25.7326 258.833 25.9804 258.66 26.2592 258.532C26.5424 258.399 26.8522 258.333 27.1885 258.333ZM35.6673 262.13C35.6673 262.74 35.5876 263.282 35.4283 263.756C35.269 264.229 35.0367 264.63 34.7314 264.957C34.4261 265.28 34.0588 265.528 33.6296 265.701C33.2003 265.869 32.7158 265.953 32.1759 265.953C31.6715 265.953 31.2091 265.869 30.7887 265.701C30.3683 265.528 30.0032 265.28 29.6935 264.957C29.3882 264.63 29.1514 264.229 28.9833 263.756C28.8151 263.282 28.731 262.74 28.731 262.13C28.731 261.32 28.8704 260.634 29.1492 260.072C29.4324 259.506 29.8351 259.074 30.3572 258.778C30.8794 258.481 31.5011 258.333 32.2224 258.333C32.8994 258.333 33.4968 258.481 34.0145 258.778C34.5323 259.074 34.9372 259.506 35.2292 260.072C35.5213 260.638 35.6673 261.324 35.6673 262.13ZM30.3373 262.13C30.3373 262.665 30.4015 263.123 30.5298 263.504C30.6626 263.884 30.8661 264.176 31.1405 264.38C31.4148 264.579 31.7688 264.678 32.2025 264.678C32.6361 264.678 32.9901 264.579 33.2645 264.38C33.5388 264.176 33.7402 263.884 33.8685 263.504C33.9968 263.123 34.061 262.665 34.061 262.13C34.061 261.594 33.9968 261.141 33.8685 260.769C33.7402 260.393 33.5388 260.107 33.2645 259.913C32.9901 259.714 32.6339 259.614 32.1958 259.614C31.5498 259.614 31.0785 259.831 30.782 260.264C30.4856 260.698 30.3373 261.32 30.3373 262.13ZM36.5527 269.086C36.3226 269.086 36.1036 269.068 35.8956 269.033C35.6877 269.002 35.5129 268.964 35.3713 268.92V267.672C35.5217 267.716 35.6677 267.749 35.8093 267.772C35.9509 267.794 36.1125 267.805 36.2939 267.805C36.5815 267.805 36.8183 267.725 37.0041 267.566C37.1944 267.406 37.2895 267.103 37.2895 266.656V258.472H38.8493V266.796C38.8493 267.243 38.7697 267.639 38.6104 267.984C38.4555 268.329 38.2077 268.599 37.867 268.794C37.5307 268.988 37.0926 269.086 36.5527 269.086ZM37.1966 256.514C37.1966 256.2 37.2807 255.979 37.4488 255.85C37.6214 255.722 37.8316 255.658 38.0794 255.658C38.3183 255.658 38.5241 255.722 38.6967 255.85C38.8737 255.979 38.9622 256.2 38.9622 256.514C38.9622 256.824 38.8737 257.045 38.6967 257.178C38.5241 257.306 38.3183 257.37 38.0794 257.37C37.8316 257.37 37.6214 257.306 37.4488 257.178C37.2807 257.045 37.1966 256.824 37.1966 256.514ZM43.8435 258.333C44.4984 258.333 45.0603 258.468 45.5294 258.738C45.9985 259.008 46.3591 259.39 46.6113 259.886C46.8636 260.382 46.9897 260.975 46.9897 261.665V262.501H42.0845C42.1022 263.214 42.2925 263.762 42.6553 264.147C43.0226 264.532 43.5359 264.725 44.1953 264.725C44.6643 264.725 45.0847 264.681 45.4564 264.592C45.8325 264.499 46.2197 264.364 46.618 264.187V265.455C46.2507 265.628 45.8768 265.754 45.4962 265.833C45.1157 265.913 44.6599 265.953 44.1289 265.953C43.4076 265.953 42.7726 265.813 42.2239 265.535C41.6796 265.251 41.2526 264.831 40.9428 264.274C40.6375 263.716 40.4848 263.023 40.4848 262.196C40.4848 261.373 40.6242 260.674 40.903 260.098C41.1818 259.523 41.5734 259.085 42.0779 258.784C42.5823 258.483 43.1709 258.333 43.8435 258.333ZM43.8435 259.508C43.3523 259.508 42.954 259.667 42.6487 259.986C42.3478 260.304 42.1708 260.771 42.1177 261.386H45.463C45.4586 261.019 45.3967 260.694 45.2772 260.41C45.1621 260.127 44.9851 259.906 44.7462 259.747C44.5116 259.587 44.2107 259.508 43.8435 259.508ZM51.5391 265.953C50.8443 265.953 50.2425 265.818 49.7336 265.548C49.2248 265.278 48.8331 264.864 48.5588 264.307C48.2844 263.749 48.1473 263.041 48.1473 262.183C48.1473 261.289 48.2977 260.559 48.5986 259.992C48.8995 259.426 49.3155 259.008 49.8465 258.738C50.3819 258.468 50.9948 258.333 51.6851 258.333C52.1232 258.333 52.5192 258.377 52.8732 258.466C53.2316 258.55 53.5348 258.654 53.7826 258.778L53.3179 260.025C53.048 259.915 52.7714 259.822 52.4882 259.747C52.205 259.671 51.9329 259.634 51.6718 259.634C51.2426 259.634 50.8842 259.729 50.5965 259.919C50.3133 260.11 50.1009 260.393 49.9593 260.769C49.8221 261.145 49.7536 261.612 49.7536 262.169C49.7536 262.709 49.8244 263.165 49.966 263.537C50.1076 263.904 50.3177 264.183 50.5965 264.373C50.8753 264.559 51.2182 264.652 51.6254 264.652C52.028 264.652 52.3887 264.603 52.7073 264.506C53.0259 264.408 53.3268 264.282 53.61 264.127V265.482C53.3312 265.641 53.0325 265.758 52.7139 265.833C52.3953 265.913 52.0037 265.953 51.5391 265.953ZM57.9005 264.692C58.1041 264.692 58.3054 264.674 58.5045 264.639C58.7037 264.599 58.8851 264.552 59.0488 264.499V265.681C58.8762 265.756 58.6528 265.82 58.3784 265.873C58.1041 265.926 57.8186 265.953 57.5222 265.953C57.1062 265.953 56.7323 265.884 56.4004 265.747C56.0685 265.605 55.8053 265.364 55.6105 265.024C55.4158 264.683 55.3185 264.212 55.3185 263.61V259.66H54.3162V258.963L55.3915 258.413L55.9026 256.839H56.885V258.472H58.9891V259.66H56.885V263.59C56.885 263.962 56.9779 264.238 57.1637 264.42C57.3496 264.601 57.5952 264.692 57.9005 264.692ZM67.8157 265.82H66.2493V259.574C66.2493 259.366 66.2515 259.158 66.2559 258.95C66.2603 258.742 66.2647 258.539 66.2692 258.34C66.278 258.14 66.2891 257.95 66.3024 257.769C66.2094 257.87 66.0944 257.981 65.9572 258.101C65.8244 258.22 65.6828 258.344 65.5324 258.472L64.4173 259.362L63.634 258.373L66.5148 256.116H67.8157V265.82Z" fill="#3A3A3A"/>
<path d="M81.8676 265.82H80.6712V258.357H78.0925V257.329H84.4405V258.357H81.8676V265.82ZM90.8625 265.82L89.9217 263.294H86.5938L85.6645 265.82H84.4274L87.6682 257.294H88.8879L92.1112 265.82H90.8625ZM89.5906 262.26L88.6962 259.757C88.6691 259.671 88.6265 259.544 88.5684 259.373C88.5142 259.203 88.4581 259.027 88.4 258.845C88.3458 258.663 88.3013 258.512 88.2664 258.392C88.2277 258.551 88.1832 258.719 88.1328 258.897C88.0825 259.071 88.0322 259.236 87.9818 259.391C87.9354 259.542 87.8967 259.664 87.8657 259.757L86.9596 262.26H89.5906ZM97.9467 263.538C97.9467 264.041 97.8208 264.473 97.5691 264.833C97.3213 265.189 96.9709 265.462 96.5179 265.652C96.0649 265.841 95.5267 265.936 94.9033 265.936C94.5897 265.936 94.2896 265.919 94.0031 265.884C93.7205 265.853 93.4572 265.807 93.2132 265.745C92.9693 265.683 92.7486 265.605 92.5511 265.512V264.386C92.8725 264.517 93.2442 264.641 93.6663 264.757C94.0883 264.87 94.5239 264.926 94.973 264.926C95.3641 264.926 95.6913 264.873 95.9546 264.769C96.2217 264.66 96.4231 264.509 96.5586 264.316C96.6941 264.122 96.7619 263.89 96.7619 263.619C96.7619 263.348 96.696 263.121 96.5644 262.939C96.4327 262.754 96.2237 262.583 95.9371 262.428C95.6545 262.273 95.2828 262.109 94.822 261.935C94.5007 261.818 94.2083 261.687 93.945 261.54C93.6817 261.389 93.4533 261.216 93.2597 261.023C93.07 260.829 92.9228 260.603 92.8183 260.343C92.7138 260.08 92.6615 259.778 92.6615 259.437C92.6615 258.969 92.7757 258.568 93.0042 258.235C93.2365 257.902 93.5598 257.648 93.9741 257.474C94.3884 257.296 94.8685 257.207 95.4144 257.207C95.8636 257.207 96.2817 257.252 96.6689 257.341C97.06 257.43 97.4317 257.552 97.784 257.706L97.4065 258.694C97.0774 258.558 96.7464 258.448 96.4134 258.363C96.0804 258.278 95.7358 258.235 95.3796 258.235C95.0505 258.235 94.7717 258.283 94.5432 258.38C94.3187 258.477 94.1464 258.614 94.0263 258.793C93.9102 258.971 93.8521 259.182 93.8521 259.426C93.8521 259.701 93.9141 259.929 94.038 260.111C94.1619 260.293 94.3574 260.457 94.6246 260.605C94.8917 260.752 95.2402 260.909 95.67 261.075C96.154 261.261 96.5644 261.458 96.9012 261.667C97.242 261.877 97.5014 262.128 97.6795 262.422C97.8576 262.717 97.9467 263.088 97.9467 263.538ZM105.757 265.82H104.369L101.517 261.83L100.646 262.573V265.82H99.4552V257.329H100.646V261.476C100.843 261.243 101.043 261.013 101.244 260.785C101.449 260.556 101.653 260.326 101.854 260.094L104.287 257.329H105.652L102.377 261.029L105.757 265.82ZM112.874 265.82H111.718V260.076C111.718 259.871 111.718 259.683 111.718 259.513C111.722 259.338 111.728 259.174 111.736 259.019C111.744 258.86 111.751 258.707 111.759 258.56C111.658 258.665 111.552 258.765 111.44 258.862C111.331 258.955 111.205 259.062 111.062 259.182L110.092 259.966L109.494 259.199L111.904 257.329H112.874V265.82ZM115.974 265.158C115.974 264.864 116.048 264.657 116.195 264.537C116.346 264.413 116.528 264.351 116.741 264.351C116.958 264.351 117.142 264.413 117.293 264.537C117.444 264.657 117.519 264.864 117.519 265.158C117.519 265.444 117.444 265.654 117.293 265.785C117.142 265.917 116.958 265.983 116.741 265.983C116.528 265.983 116.346 265.917 116.195 265.785C116.048 265.654 115.974 265.444 115.974 265.158ZM118.999 265.158C118.999 264.864 119.072 264.657 119.219 264.537C119.37 264.413 119.552 264.351 119.765 264.351C119.982 264.351 120.166 264.413 120.317 264.537C120.468 264.657 120.543 264.864 120.543 265.158C120.543 265.444 120.468 265.654 120.317 265.785C120.166 265.917 119.982 265.983 119.765 265.983C119.552 265.983 119.37 265.917 119.219 265.785C119.072 265.654 118.999 265.444 118.999 265.158ZM122.023 265.158C122.023 264.864 122.097 264.657 122.244 264.537C122.395 264.413 122.577 264.351 122.79 264.351C123.006 264.351 123.19 264.413 123.341 264.537C123.492 264.657 123.568 264.864 123.568 265.158C123.568 265.444 123.492 265.654 123.341 265.785C123.19 265.917 123.006 265.983 122.79 265.983C122.577 265.983 122.395 265.917 122.244 265.785C122.097 265.654 122.023 265.444 122.023 265.158Z" fill="#262626"/>
<path d="M-13.8809 283.027C-13.8809 281.124 -12.3382 279.582 -10.4353 279.582H744.877C746.78 279.582 748.322 281.124 748.322 283.027V302.698C748.322 304.601 746.78 306.143 744.877 306.143H-10.4353C-12.3382 306.143 -13.8809 304.601 -13.8809 302.698V283.027Z" fill="#D4BBFF"/>
<path d="M17.402 287.658C18.6543 287.658 19.5681 287.915 20.1433 288.428C20.7186 288.941 21.0062 289.661 21.0062 290.585C21.0062 291.006 20.9398 291.406 20.8071 291.787C20.6788 292.163 20.4664 292.497 20.1699 292.789C19.8734 293.077 19.4818 293.305 18.995 293.473C18.5127 293.641 17.9175 293.725 17.2095 293.725H16.1741V297.362H14.5811V287.658H17.402ZM17.2958 288.979H16.1741V292.397H17.0436C17.5436 292.397 17.9684 292.34 18.318 292.225C18.6676 292.105 18.9331 291.917 19.1145 291.661C19.2959 291.404 19.3867 291.065 19.3867 290.645C19.3867 290.083 19.2163 289.665 18.8756 289.391C18.5393 289.116 18.0127 288.979 17.2958 288.979ZM26.3389 289.875C26.4628 289.875 26.5977 289.882 26.7437 289.895C26.8898 289.908 27.0159 289.926 27.1221 289.948L26.9761 291.408C26.8831 291.382 26.7681 291.362 26.6309 291.349C26.4982 291.335 26.3787 291.329 26.2725 291.329C25.9937 291.329 25.7282 291.375 25.476 291.468C25.2237 291.557 25.0003 291.694 24.8056 291.88C24.6109 292.061 24.4582 292.289 24.3476 292.563C24.237 292.838 24.1816 293.156 24.1816 293.519V297.362H22.6152V290.015H23.8365L24.0489 291.309H24.1219C24.2679 291.048 24.4494 290.809 24.6662 290.592C24.883 290.375 25.1308 290.203 25.4096 290.074C25.6928 289.941 26.0025 289.875 26.3389 289.875ZM34.8177 293.672C34.8177 294.282 34.738 294.825 34.5787 295.298C34.4194 295.771 34.1871 296.172 33.8818 296.499C33.5765 296.822 33.2092 297.07 32.78 297.243C32.3507 297.411 31.8662 297.495 31.3263 297.495C30.8219 297.495 30.3595 297.411 29.9391 297.243C29.5187 297.07 29.1536 296.822 28.8439 296.499C28.5385 296.172 28.3018 295.771 28.1337 295.298C27.9655 294.825 27.8814 294.282 27.8814 293.672C27.8814 292.862 28.0208 292.176 28.2996 291.614C28.5828 291.048 28.9855 290.616 29.5076 290.32C30.0298 290.023 30.6515 289.875 31.3728 289.875C32.0498 289.875 32.6472 290.023 33.1649 290.32C33.6827 290.616 34.0876 291.048 34.3796 291.614C34.6717 292.181 34.8177 292.866 34.8177 293.672ZM29.4877 293.672C29.4877 294.207 29.5519 294.665 29.6802 295.046C29.813 295.426 30.0165 295.718 30.2909 295.922C30.5652 296.121 30.9192 296.221 31.3529 296.221C31.7865 296.221 32.1405 296.121 32.4149 295.922C32.6892 295.718 32.8906 295.426 33.0189 295.046C33.1472 294.665 33.2114 294.207 33.2114 293.672C33.2114 293.136 33.1472 292.683 33.0189 292.311C32.8906 291.935 32.6892 291.65 32.4149 291.455C32.1405 291.256 31.7843 291.156 31.3462 291.156C30.7002 291.156 30.2289 291.373 29.9324 291.807C29.636 292.24 29.4877 292.862 29.4877 293.672ZM35.7031 300.628C35.473 300.628 35.254 300.61 35.046 300.575C34.838 300.544 34.6633 300.506 34.5217 300.462V299.214C34.6721 299.258 34.8181 299.292 34.9597 299.314C35.1013 299.336 35.2628 299.347 35.4443 299.347C35.7319 299.347 35.9686 299.267 36.1545 299.108C36.3448 298.949 36.4399 298.646 36.4399 298.199V290.015H37.9997V298.338C37.9997 298.785 37.9201 299.181 37.7608 299.526C37.6059 299.871 37.3581 300.141 37.0174 300.336C36.6811 300.531 36.243 300.628 35.7031 300.628ZM36.347 288.056C36.347 287.742 36.4311 287.521 36.5992 287.393C36.7718 287.264 36.982 287.2 37.2298 287.2C37.4687 287.2 37.6745 287.264 37.8471 287.393C38.0241 287.521 38.1126 287.742 38.1126 288.056C38.1126 288.366 38.0241 288.587 37.8471 288.72C37.6745 288.849 37.4687 288.913 37.2298 288.913C36.982 288.913 36.7718 288.849 36.5992 288.72C36.4311 288.587 36.347 288.366 36.347 288.056ZM42.9939 289.875C43.6488 289.875 44.2107 290.01 44.6798 290.28C45.1488 290.55 45.5095 290.933 45.7617 291.428C46.0139 291.924 46.1401 292.517 46.1401 293.207V294.044H41.2349C41.2526 294.756 41.4429 295.305 41.8057 295.69C42.173 296.075 42.6863 296.267 43.3456 296.267C43.8147 296.267 44.2351 296.223 44.6068 296.134C44.9829 296.041 45.3701 295.906 45.7684 295.729V296.997C45.4011 297.17 45.0272 297.296 44.6466 297.376C44.2661 297.455 43.8103 297.495 43.2793 297.495C42.558 297.495 41.923 297.356 41.3743 297.077C40.83 296.794 40.403 296.373 40.0932 295.816C39.7879 295.258 39.6352 294.566 39.6352 293.738C39.6352 292.915 39.7746 292.216 40.0534 291.641C40.3322 291.065 40.7238 290.627 41.2283 290.326C41.7327 290.026 42.3212 289.875 42.9939 289.875ZM42.9939 291.05C42.5027 291.05 42.1044 291.209 41.7991 291.528C41.4982 291.846 41.3212 292.313 41.2681 292.928H44.6134C44.609 292.561 44.547 292.236 44.4276 291.953C44.3125 291.669 44.1355 291.448 43.8966 291.289C43.662 291.13 43.3611 291.05 42.9939 291.05ZM50.6895 297.495C49.9947 297.495 49.3929 297.36 48.884 297.09C48.3752 296.82 47.9835 296.406 47.7092 295.849C47.4348 295.291 47.2977 294.583 47.2977 293.725C47.2977 292.831 47.4481 292.101 47.749 291.535C48.0499 290.968 48.4659 290.55 48.9969 290.28C49.5323 290.01 50.1452 289.875 50.8355 289.875C51.2736 289.875 51.6696 289.919 52.0236 290.008C52.382 290.092 52.6852 290.196 52.933 290.32L52.4683 291.568C52.1984 291.457 51.9218 291.364 51.6386 291.289C51.3554 291.214 51.0833 291.176 50.8222 291.176C50.393 291.176 50.0345 291.271 49.7469 291.462C49.4637 291.652 49.2513 291.935 49.1097 292.311C48.9725 292.687 48.9039 293.154 48.9039 293.712C48.9039 294.251 48.9747 294.707 49.1163 295.079C49.2579 295.446 49.4681 295.725 49.7469 295.915C50.0257 296.101 50.3686 296.194 50.7757 296.194C51.1784 296.194 51.5391 296.145 51.8577 296.048C52.1763 295.951 52.4772 295.825 52.7604 295.67V297.024C52.4816 297.183 52.1829 297.3 51.8643 297.376C51.5457 297.455 51.1541 297.495 50.6895 297.495ZM57.0509 296.234C57.2545 296.234 57.4558 296.216 57.6549 296.181C57.854 296.141 58.0355 296.095 58.1992 296.041V297.223C58.0266 297.298 57.8032 297.362 57.5288 297.415C57.2545 297.469 56.969 297.495 56.6726 297.495C56.2566 297.495 55.8827 297.426 55.5508 297.289C55.2189 297.148 54.9556 296.907 54.7609 296.566C54.5662 296.225 54.4689 295.754 54.4689 295.152V291.203H53.4666V290.506L54.5419 289.955L55.053 288.382H56.0354V290.015H58.1395V291.203H56.0354V295.132C56.0354 295.504 56.1283 295.78 56.3141 295.962C56.5 296.143 56.7456 296.234 57.0509 296.234ZM66.9661 297.362H65.3996V291.116C65.3996 290.908 65.4019 290.7 65.4063 290.492C65.4107 290.284 65.4151 290.081 65.4196 289.882C65.4284 289.683 65.4395 289.492 65.4527 289.311C65.3598 289.413 65.2448 289.523 65.1076 289.643C64.9748 289.762 64.8332 289.886 64.6828 290.015L63.5677 290.904L62.7844 289.915L65.6651 287.658H66.9661V297.362Z" fill="#3A3A3A"/>
<path d="M81.018 297.362H79.8216V289.899H77.2429V288.871H83.5909V289.899H81.018V297.362ZM90.0129 297.362L89.0721 294.836H85.7441L84.8149 297.362H83.5778L86.8186 288.836H88.0383L91.2616 297.362H90.0129ZM88.741 293.802L87.8466 291.299C87.8195 291.214 87.7769 291.086 87.7188 290.916C87.6646 290.745 87.6085 290.569 87.5504 290.387C87.4962 290.205 87.4517 290.054 87.4168 289.934C87.3781 290.093 87.3336 290.261 87.2832 290.439C87.2329 290.614 87.1826 290.778 87.1322 290.933C87.0858 291.084 87.047 291.206 87.0161 291.299L86.11 293.802H88.741ZM97.097 295.08C97.097 295.583 96.9712 296.015 96.7195 296.375C96.4717 296.731 96.1213 297.004 95.6683 297.194C95.2153 297.384 94.6771 297.478 94.0537 297.478C93.7401 297.478 93.44 297.461 93.1535 297.426C92.8708 297.395 92.6076 297.349 92.3636 297.287C92.1197 297.225 91.899 297.147 91.7015 297.054V295.928C92.0229 296.059 92.3946 296.183 92.8166 296.299C93.2387 296.412 93.6743 296.468 94.1234 296.468C94.5145 296.468 94.8417 296.416 95.1049 296.311C95.3721 296.203 95.5734 296.052 95.709 295.858C95.8445 295.664 95.9122 295.432 95.9122 295.161C95.9122 294.89 95.8464 294.664 95.7148 294.482C95.5831 294.296 95.374 294.125 95.0875 293.971C94.8049 293.816 94.4332 293.651 93.9724 293.477C93.651 293.361 93.3587 293.229 93.0954 293.082C92.8321 292.931 92.6037 292.759 92.4101 292.565C92.2204 292.371 92.0732 292.145 91.9687 291.885C91.8642 291.622 91.8119 291.32 91.8119 290.979C91.8119 290.511 91.9261 290.11 92.1545 289.777C92.3869 289.444 92.7102 289.191 93.1245 289.016C93.5388 288.838 94.0189 288.749 94.5648 288.749C95.014 288.749 95.4321 288.794 95.8193 288.883C96.2104 288.972 96.5821 289.094 96.9344 289.249L96.5569 290.236C96.2278 290.101 95.8968 289.99 95.5638 289.905C95.2308 289.82 94.8862 289.777 94.53 289.777C94.2009 289.777 93.9221 289.826 93.6936 289.922C93.4691 290.019 93.2968 290.157 93.1767 290.335C93.0606 290.513 93.0025 290.724 93.0025 290.968C93.0025 291.243 93.0644 291.471 93.1883 291.653C93.3122 291.835 93.5078 292 93.7749 292.147C94.0421 292.294 94.3906 292.451 94.8204 292.617C95.3043 292.803 95.7148 293.001 96.0516 293.21C96.3924 293.419 96.6518 293.67 96.8299 293.965C97.008 294.259 97.097 294.631 97.097 295.08ZM104.907 297.362H103.519L100.667 293.372L99.7962 294.116V297.362H98.6056V288.871H99.7962V293.018C99.9937 292.786 100.193 292.555 100.394 292.327C100.6 292.098 100.803 291.868 101.004 291.636L103.438 288.871H104.803L101.527 292.571L104.907 297.362ZM112.025 297.362H110.869V291.618C110.869 291.413 110.869 291.225 110.869 291.055C110.873 290.881 110.879 290.716 110.886 290.561C110.894 290.403 110.902 290.25 110.91 290.102C110.809 290.207 110.702 290.308 110.59 290.404C110.482 290.497 110.356 290.604 110.213 290.724L109.243 291.508L108.644 290.741L111.055 288.871H112.025V297.362ZM115.125 296.7C115.125 296.406 115.198 296.199 115.345 296.079C115.496 295.955 115.678 295.893 115.891 295.893C116.108 295.893 116.292 295.955 116.443 296.079C116.594 296.199 116.669 296.406 116.669 296.7C116.669 296.987 116.594 297.196 116.443 297.327C116.292 297.459 116.108 297.525 115.891 297.525C115.678 297.525 115.496 297.459 115.345 297.327C115.198 297.196 115.125 296.987 115.125 296.7ZM118.149 296.7C118.149 296.406 118.223 296.199 118.37 296.079C118.521 295.955 118.703 295.893 118.916 295.893C119.132 295.893 119.316 295.955 119.467 296.079C119.618 296.199 119.694 296.406 119.694 296.7C119.694 296.987 119.618 297.196 119.467 297.327C119.316 297.459 119.132 297.525 118.916 297.525C118.703 297.525 118.521 297.459 118.37 297.327C118.223 297.196 118.149 296.987 118.149 296.7ZM121.173 296.7C121.173 296.406 121.247 296.199 121.394 296.079C121.545 295.955 121.727 295.893 121.94 295.893C122.157 295.893 122.341 295.955 122.492 296.079C122.643 296.199 122.718 296.406 122.718 296.7C122.718 296.987 122.643 297.196 122.492 297.327C122.341 297.459 122.157 297.525 121.94 297.525C121.727 297.525 121.545 297.459 121.394 297.327C121.247 297.196 121.173 296.987 121.173 296.7Z" fill="#262626"/>
<path d="M560.559 314.569C560.559 312.666 562.101 311.123 564.004 311.123H738.08C739.983 311.123 741.525 312.666 741.525 314.569V334.239C741.525 336.142 739.983 337.685 738.08 337.685H564.004C562.101 337.685 560.559 336.142 560.559 334.239V314.569Z" fill="#D4BBFF"/>
<circle cx="575.852" cy="324.404" r="5.09766" fill="#9E29FE"/>
<path d="M591.841 319.2C593.094 319.2 594.008 319.457 594.583 319.97C595.158 320.483 595.446 321.202 595.446 322.127C595.446 322.547 595.379 322.948 595.247 323.328C595.118 323.705 594.906 324.039 594.609 324.331C594.313 324.618 593.921 324.846 593.434 325.014C592.952 325.183 592.357 325.267 591.649 325.267H590.614V328.904H589.021V319.2H591.841ZM591.735 320.521H590.614V323.939H591.483C591.983 323.939 592.408 323.882 592.757 323.767C593.107 323.647 593.373 323.459 593.554 323.202C593.735 322.946 593.826 322.607 593.826 322.187C593.826 321.625 593.656 321.207 593.315 320.932C592.979 320.658 592.452 320.521 591.735 320.521ZM600.778 321.417C600.902 321.417 601.037 321.424 601.183 321.437C601.329 321.45 601.455 321.468 601.562 321.49L601.416 322.95C601.323 322.924 601.208 322.904 601.07 322.89C600.938 322.877 600.818 322.87 600.712 322.87C600.433 322.87 600.168 322.917 599.915 323.01C599.663 323.098 599.44 323.236 599.245 323.421C599.05 323.603 598.898 323.831 598.787 324.105C598.676 324.379 598.621 324.698 598.621 325.061V328.904H597.055V321.556H598.276L598.488 322.851H598.561C598.707 322.59 598.889 322.351 599.106 322.134C599.322 321.917 599.57 321.744 599.849 321.616C600.132 321.483 600.442 321.417 600.778 321.417ZM609.257 325.214C609.257 325.824 609.177 326.366 609.018 326.84C608.859 327.313 608.627 327.714 608.321 328.041C608.016 328.364 607.649 328.612 607.219 328.785C606.79 328.953 606.306 329.037 605.766 329.037C605.261 329.037 604.799 328.953 604.379 328.785C603.958 328.612 603.593 328.364 603.283 328.041C602.978 327.714 602.741 327.313 602.573 326.84C602.405 326.366 602.321 325.824 602.321 325.214C602.321 324.404 602.46 323.718 602.739 323.156C603.022 322.59 603.425 322.158 603.947 321.862C604.469 321.565 605.091 321.417 605.812 321.417C606.489 321.417 607.087 321.565 607.604 321.862C608.122 322.158 608.527 322.59 608.819 323.156C609.111 323.722 609.257 324.408 609.257 325.214ZM603.927 325.214C603.927 325.749 603.991 326.207 604.12 326.588C604.252 326.968 604.456 327.26 604.73 327.464C605.005 327.663 605.359 327.762 605.792 327.762C606.226 327.762 606.58 327.663 606.854 327.464C607.129 327.26 607.33 326.968 607.458 326.588C607.587 326.207 607.651 325.749 607.651 325.214C607.651 324.678 607.587 324.225 607.458 323.853C607.33 323.477 607.129 323.191 606.854 322.997C606.58 322.797 606.224 322.698 605.786 322.698C605.14 322.698 604.668 322.915 604.372 323.348C604.075 323.782 603.927 324.404 603.927 325.214ZM610.143 332.17C609.912 332.17 609.693 332.152 609.485 332.117C609.277 332.086 609.103 332.048 608.961 332.004V330.756C609.112 330.8 609.258 330.833 609.399 330.855C609.541 330.878 609.702 330.889 609.884 330.889C610.171 330.889 610.408 330.809 610.594 330.65C610.784 330.49 610.879 330.187 610.879 329.74V321.556H612.439V329.88C612.439 330.327 612.36 330.723 612.2 331.068C612.045 331.413 611.798 331.683 611.457 331.878C611.121 332.072 610.682 332.17 610.143 332.17ZM610.786 319.598C610.786 319.284 610.871 319.063 611.039 318.934C611.211 318.806 611.421 318.742 611.669 318.742C611.908 318.742 612.114 318.806 612.287 318.934C612.464 319.063 612.552 319.284 612.552 319.598C612.552 319.908 612.464 320.129 612.287 320.262C612.114 320.39 611.908 320.454 611.669 320.454C611.421 320.454 611.211 320.39 611.039 320.262C610.871 320.129 610.786 319.908 610.786 319.598ZM617.433 321.417C618.088 321.417 618.65 321.552 619.119 321.822C619.588 322.092 619.949 322.474 620.201 322.97C620.453 323.466 620.58 324.059 620.58 324.749V325.585H615.674C615.692 326.298 615.882 326.846 616.245 327.231C616.612 327.616 617.126 327.809 617.785 327.809C618.254 327.809 618.675 327.765 619.046 327.676C619.422 327.583 619.81 327.448 620.208 327.271V328.539C619.841 328.712 619.467 328.838 619.086 328.917C618.706 328.997 618.25 329.037 617.719 329.037C616.997 329.037 616.362 328.897 615.814 328.619C615.269 328.335 614.842 327.915 614.533 327.357C614.227 326.8 614.075 326.107 614.075 325.28C614.075 324.457 614.214 323.758 614.493 323.182C614.772 322.607 615.163 322.169 615.668 321.868C616.172 321.567 616.761 321.417 617.433 321.417ZM617.433 322.592C616.942 322.592 616.544 322.751 616.239 323.07C615.938 323.388 615.761 323.855 615.708 324.47H619.053C619.048 324.103 618.986 323.778 618.867 323.494C618.752 323.211 618.575 322.99 618.336 322.831C618.101 322.671 617.801 322.592 617.433 322.592ZM625.129 329.037C624.434 329.037 623.832 328.902 623.323 328.632C622.815 328.362 622.423 327.948 622.149 327.391C621.874 326.833 621.737 326.125 621.737 325.267C621.737 324.373 621.888 323.643 622.188 323.076C622.489 322.51 622.905 322.092 623.436 321.822C623.972 321.552 624.585 321.417 625.275 321.417C625.713 321.417 626.109 321.461 626.463 321.55C626.821 321.634 627.125 321.738 627.372 321.862L626.908 323.109C626.638 322.999 626.361 322.906 626.078 322.831C625.795 322.755 625.523 322.718 625.262 322.718C624.832 322.718 624.474 322.813 624.186 323.003C623.903 323.194 623.691 323.477 623.549 323.853C623.412 324.229 623.343 324.696 623.343 325.253C623.343 325.793 623.414 326.249 623.556 326.621C623.697 326.988 623.908 327.267 624.186 327.457C624.465 327.643 624.808 327.736 625.215 327.736C625.618 327.736 625.979 327.687 626.297 327.59C626.616 327.492 626.917 327.366 627.2 327.211V328.566C626.921 328.725 626.622 328.842 626.304 328.917C625.985 328.997 625.594 329.037 625.129 329.037ZM631.49 327.776C631.694 327.776 631.895 327.758 632.094 327.723C632.294 327.683 632.475 327.636 632.639 327.583V328.765C632.466 328.84 632.243 328.904 631.968 328.957C631.694 329.01 631.408 329.037 631.112 329.037C630.696 329.037 630.322 328.968 629.99 328.831C629.658 328.689 629.395 328.448 629.2 328.108C629.006 327.767 628.908 327.296 628.908 326.694V322.744H627.906V322.047L628.981 321.497L629.492 319.923H630.475V321.556H632.579V322.744H630.475V326.674C630.475 327.046 630.568 327.322 630.754 327.504C630.939 327.685 631.185 327.776 631.49 327.776ZM641.406 328.904H639.839V322.658C639.839 322.45 639.841 322.242 639.846 322.034C639.85 321.826 639.855 321.623 639.859 321.424C639.868 321.224 639.879 321.034 639.892 320.853C639.799 320.954 639.684 321.065 639.547 321.185C639.414 321.304 639.273 321.428 639.122 321.556L638.007 322.446L637.224 321.457L640.105 319.2H641.406V328.904Z" fill="#3A3A3A"/>
</g>
<path d="M-0.00488281 188.7H727.546C738.728 188.7 747.794 197.766 747.794 208.948V816.704C747.794 827.887 738.728 836.952 727.546 836.952H-0.00488281C-11.1875 836.952 -20.2527 827.887 -20.2529 816.704V208.948L-20.2461 208.426C-19.9687 197.485 -11.0128 188.7 -0.00488281 188.7Z" stroke="#E0E0E0" stroke-width="0.849609"/>
<mask id="path-92-inside-2_7297_8261" fill="white">
<path d="M-81 9H789V59.9766H-81V9Z"/>
</mask>
<path d="M-81 9H789V59.9766H-81V9Z" fill="white"/>
<path d="M789 59.9766V59.127H-81V59.9766V60.8262H789V59.9766Z" fill="#E0E0E0" mask="url(#path-92-inside-2_7297_8261)"/>
</g>
</g>
<rect x="66" y="58" width="575" height="461" rx="4.64" stroke="#262626" stroke-width="16" mask="url(#path-28-inside-1_7297_8261)"/>
</g>
<rect x="0.628154" y="0.628154" width="638.744" height="412.744" rx="12.2709" stroke="#E0E0E0" stroke-width="0.743692"/>
</g>
<defs>
<filter id="filter0_i_7297_8261" x="-3.4626" y="-6.43688" width="643.207" height="420.181" filterUnits="userSpaceOnUse" color-interpolation-filters="sRGB">
<feFlood flood-opacity="0" result="BackgroundImageFix"/>
<feBlend mode="normal" in="SourceGraphic" in2="BackgroundImageFix" result="shape"/>
<feColorMatrix in="SourceAlpha" type="matrix" values="0 0 0 0 0 0 0 0 0 0 0 0 0 0 0 0 0 0 127 0" result="hardAlpha"/>
<feOffset dx="-3.71846" dy="-6.69323"/>
<feGaussianBlur stdDeviation="8.32935"/>
<feComposite in2="hardAlpha" operator="arithmetic" k2="-1" k3="1"/>
<feColorMatrix type="matrix" values="0 0 0 0 0 0 0 0 0 0 0 0 0 0 0 0 0 0 0.1 0"/>
<feBlend mode="normal" in2="shape" result="effect1_innerShadow_7297_8261"/>
</filter>
<clipPath id="clip0_7297_8261">
<rect x="1" y="1" width="638" height="412" rx="11.8991" fill="white"/>
</clipPath>
<clipPath id="clip1_7297_8261">
<rect width="135.352" height="135.352" fill="white" transform="translate(15.875 1.74365)"/>
</clipPath>
<clipPath id="clip2_7297_8261">
<rect x="66" y="58" width="575" height="461" rx="4.64" fill="white"/>
</clipPath>
<clipPath id="clip3_7297_8261">
<rect width="870" height="611.719" fill="white" transform="translate(-81 9)"/>
</clipPath>
<clipPath id="clip4_7297_8261">
<path d="M-20.6777 208.949C-20.6777 197.531 -11.422 188.275 -0.00446701 188.275H727.545C738.963 188.275 748.219 197.531 748.219 208.949V816.704C748.219 828.121 738.963 837.377 727.545 837.377H-0.00446129C-11.422 837.377 -20.6777 828.121 -20.6777 816.704V208.949Z" fill="white"/>
</clipPath>
</defs>
</svg>
