<svg width="531" height="656" viewBox="0 0 531 656" fill="none" xmlns="http://www.w3.org/2000/svg">
<g clip-path="url(#clip0_1862_5536)">
<path d="M531 328C531 670.417 254.312 948 -87 948C-428.312 948 -705 670.417 -705 328C-705 -14.4165 -428.312 -292 -87 -292C254.312 -292 531 -14.4165 531 328Z" fill="#3395FF"/>
<path d="M119.298 476.562C125.814 471.061 129.772 462.372 128.734 453.912C127.696 445.453 121.267 437.676 112.927 435.88C104.587 434.083 95.0804 439.056 92.5473 447.194C91.1532 431.504 89.5468 415.156 81.1961 401.794C73.6348 389.695 60.5385 381.037 46.345 379.489C32.1515 377.94 17.2076 383.789 8.35559 394.981C-0.496399 406.172 -2.66376 422.442 3.53595 435.29C8.10303 444.755 16.5172 451.799 25.3332 457.53C53.8207 475.892 87.9879 483.359 121.548 478.557L119.298 476.562Z" fill="#F2F2F2"/>
<path d="M22.3912 384.114C34.1026 393.643 44.8466 404.301 54.4677 415.933C69.5248 434.075 81.7091 454.415 90.5962 476.246C91.2468 477.838 88.6581 478.532 88.0148 476.957C73.4739 441.478 50.2606 410.207 20.4982 386.005C19.1617 384.918 21.0657 383.035 22.3912 384.114Z" fill="white"/>
<path d="M345.145 475.068C336.194 467.512 330.757 455.577 332.183 443.958C333.609 432.339 342.44 421.657 353.895 419.19C365.349 416.723 378.407 423.553 381.886 434.731C383.801 413.18 386.007 390.726 397.477 372.373C407.862 355.755 425.85 343.864 445.345 341.737C464.84 339.61 485.365 347.644 497.523 363.015C509.682 378.387 512.659 400.733 504.143 418.381C497.87 431.381 486.313 441.056 474.205 448.927C435.574 474.039 387.652 484.512 342.053 477.808" fill="#F2F2F2"/>
<path d="M478.246 348.09C462.16 361.178 447.403 375.817 434.189 391.793C420.972 407.754 409.336 424.957 399.444 443.162C393.915 453.374 388.948 463.88 384.566 474.633C383.672 476.82 387.228 477.772 388.112 475.609C395.874 456.652 405.478 438.5 416.785 421.414C428.037 404.39 440.916 388.497 455.24 373.957C463.342 365.737 471.89 357.969 480.846 350.687C482.681 349.194 480.066 346.609 478.246 348.09Z" fill="white"/>
<path d="M143.632 479.335H357.178V260.454C357.178 213.886 319.253 176 272.637 176H228.172C181.557 176 143.632 213.886 143.632 260.454V479.335Z" fill="#F2F2F2"/>
<path d="M188.096 479.335H357.178V260.454C357.224 242.61 351.568 225.218 341.032 210.808C340.644 210.279 340.257 209.757 339.857 209.241C334.761 202.564 328.697 196.684 321.864 191.794C321.478 191.514 321.091 191.238 320.698 190.963C314.98 187.01 308.796 183.779 302.284 181.343C301.898 181.197 301.504 181.05 301.11 180.909C295.222 178.81 289.117 177.372 282.91 176.622C282.525 176.569 282.13 176.528 281.735 176.487C275.686 175.841 269.586 175.841 263.537 176.487C263.143 176.528 262.748 176.569 262.358 176.622C256.153 177.372 250.05 178.81 244.163 180.909C243.769 181.05 243.375 181.197 242.988 181.343C236.557 183.749 230.445 186.931 224.789 190.821C224.396 191.09 224.002 191.366 223.615 191.642C219.785 194.373 216.188 197.415 212.859 200.738C210.19 203.404 207.703 206.245 205.415 209.243C205.017 209.757 204.629 210.279 204.242 210.807C193.706 225.217 188.049 242.61 188.096 260.454V479.335Z" fill="#CCCCCC"/>
<path d="M201.845 381.438C196.675 381.438 192.484 377.251 192.484 372.086C192.484 366.922 196.675 362.735 201.845 362.735C207.015 362.735 211.206 366.922 211.206 372.086C211.206 377.251 207.015 381.438 201.845 381.438Z" fill="#3395FF"/>
<path d="M161.125 472.779H168.298L171.711 445.141L161.124 445.141L161.125 472.779Z" fill="#FFB8B8"/>
<path d="M173.422 470.731H159.589V479.432H182.131C182.131 478.289 181.906 477.158 181.468 476.102C181.031 475.047 180.389 474.088 179.58 473.28C178.772 472.472 177.811 471.831 176.755 471.393C175.698 470.956 174.565 470.731 173.422 470.731Z" fill="#2F2E41"/>
<path d="M125.437 472.779H132.61L136.022 445.141L125.436 445.141L125.437 472.779Z" fill="#FFB8B8"/>
<path d="M137.733 470.731H123.9V479.432H146.443C146.443 478.289 146.218 477.158 145.78 476.102C145.342 475.047 144.701 474.088 143.892 473.28C143.083 472.472 142.123 471.831 141.066 471.393C140.01 470.956 138.877 470.731 137.733 470.731Z" fill="#2F2E41"/>
<path d="M197.107 373.939C197.623 373.179 197.966 372.316 198.112 371.41C198.258 370.503 198.203 369.576 197.952 368.693C197.7 367.811 197.258 366.994 196.656 366.3C196.054 365.607 195.307 365.053 194.468 364.679L170.086 297.544L158.088 304.085L185.928 368.242C185.392 369.691 185.407 371.287 185.971 372.726C186.534 374.166 187.606 375.349 188.984 376.051C190.362 376.753 191.95 376.926 193.447 376.537C194.945 376.147 196.247 375.223 197.107 373.939Z" fill="#FFB8B8"/>
<path d="M129.101 386.554C129.898 386.097 130.585 385.471 131.114 384.721C131.643 383.97 132.001 383.113 132.162 382.209C132.323 381.306 132.284 380.378 132.048 379.491C131.812 378.604 131.383 377.779 130.793 377.076L138.347 306.058L124.693 306.682L121.554 376.536C120.436 377.605 119.749 379.046 119.624 380.586C119.499 382.126 119.943 383.659 120.873 384.894C121.804 386.128 123.155 386.979 124.671 387.285C126.188 387.591 127.764 387.331 129.101 386.554Z" fill="#FFB8B8"/>
<path d="M150.883 285.109C142.947 285.109 136.513 278.682 136.513 270.754C136.513 262.826 142.947 256.399 150.883 256.399C158.819 256.399 165.252 262.826 165.252 270.754C165.252 278.682 158.819 285.109 150.883 285.109Z" fill="#FFB8B8"/>
<path d="M129.193 370.402H172.514L172.462 370.065C172.384 369.562 164.741 319.545 170.378 303.182C170.944 301.574 170.894 299.814 170.239 298.24C169.583 296.667 168.368 295.391 166.827 294.659C158.77 290.868 143.303 286.201 130.249 297.528C128.328 299.222 126.828 301.34 125.868 303.713C124.907 306.086 124.513 308.65 124.715 311.202L129.193 370.402Z" fill="#3395FF"/>
<path d="M164.194 326.937L183.698 322.984L174.556 301.342C174.008 299.246 172.651 297.452 170.782 296.354C168.913 295.256 166.684 294.943 164.584 295.485C162.485 296.026 160.686 297.378 159.582 299.242C158.478 301.107 158.16 303.333 158.697 305.432L164.194 326.937Z" fill="#3395FF"/>
<path d="M139.214 334.276L140.387 307.426C141.276 302.378 138.383 297.606 133.935 296.826C129.485 296.049 125.141 299.55 124.248 304.635L119.84 329.724L139.214 334.276Z" fill="#3395FF"/>
<path d="M130.634 367.188C123.663 393.708 122.903 427.428 124.783 464.208L134.144 463.039L151.111 392.904L160.472 464.208L171.003 463.623C174.149 425.032 177.212 391.901 172.173 370.11L130.634 367.188Z" fill="#2F2E41"/>
<path d="M141.415 281.848C144.095 284.701 149.074 283.169 149.423 279.272C149.451 278.97 149.448 278.665 149.417 278.363C149.237 276.637 148.239 275.069 148.478 273.247C148.532 272.793 148.701 272.361 148.969 271.991C151.105 269.133 156.12 273.269 158.136 270.682C159.372 269.096 157.919 266.598 158.868 264.825C160.12 262.486 163.828 263.64 166.154 262.358C168.742 260.933 168.587 256.967 166.883 254.554C164.806 251.612 161.164 250.043 157.567 249.816C153.971 249.59 150.399 250.561 147.041 251.869C143.226 253.354 139.442 255.407 137.094 258.758C134.239 262.833 133.964 268.313 135.392 273.078C136.261 275.977 139.226 279.518 141.415 281.848Z" fill="#2F2E41"/>
<path d="M17.5621 479.711H449.507C449.691 479.71 449.868 479.637 449.998 479.506C450.128 479.376 450.201 479.199 450.201 479.015C450.201 478.831 450.128 478.654 449.998 478.523C449.868 478.393 449.691 478.319 449.507 478.319H17.5621C17.3777 478.319 17.201 478.393 17.0709 478.523C16.9407 478.654 16.8676 478.831 16.8676 479.015C16.8676 479.199 16.9407 479.376 17.0709 479.506C17.201 479.637 17.3777 479.71 17.5621 479.711Z" fill="#3F3D56"/>
<path d="M234.608 415.921H310.665C311.667 415.926 312.63 415.534 313.343 414.831C314.056 414.128 314.461 413.172 314.468 412.171V242.579C314.461 241.578 314.056 240.622 313.343 239.919C312.63 239.216 311.667 238.824 310.665 238.829H234.608C233.606 238.824 232.643 239.216 231.93 239.919C231.218 240.622 230.813 241.578 230.805 242.579V412.171C230.813 413.172 231.218 414.128 231.93 414.831C232.643 415.534 233.606 415.926 234.608 415.921Z" fill="white"/>
<path d="M230.806 293.704H314.469V294.873H230.806V293.704Z" fill="#CCCCCC"/>
<path d="M230.513 360.397H314.176V361.566H230.513V360.397Z" fill="#CCCCCC"/>
<path d="M286.971 238.829H288.141V416.505H286.971V238.829Z" fill="#CCCCCC"/>
<path d="M257.718 238.829H258.888V416.505H257.718V238.829Z" fill="#CCCCCC"/>
</g>
<defs>
<clipPath id="clip0_1862_5536">
<rect width="531" height="656" fill="white" transform="matrix(-1 0 0 1 531 0)"/>
</clipPath>
</defs>
</svg>
