<svg width="425" height="219" viewBox="0 0 425 219" fill="none" xmlns="http://www.w3.org/2000/svg">
<g clip-path="url(#clip0_2420_33307)">
<path d="M424.436 218.951H0.564673C0.415281 218.951 0.272159 218.891 0.166675 218.785C0.0611914 218.68 0.00195312 218.536 0.00195312 218.387C0.00195312 218.238 0.0611914 218.095 0.166675 217.989C0.272159 217.883 0.415281 217.823 0.564673 217.823H424.436C424.585 217.823 424.728 217.883 424.834 217.989C424.939 218.095 424.999 218.238 424.999 218.387C424.999 218.536 424.939 218.68 424.834 218.785C424.728 218.891 424.585 218.951 424.436 218.951Z" fill="#3F3D56"/>
<path d="M132.88 27.2155C134.572 27.2155 135.945 25.8438 135.945 24.1518C135.945 22.4598 134.572 21.0881 132.88 21.0881C131.187 21.0881 129.814 22.4598 129.814 24.1518C129.814 25.8438 131.187 27.2155 132.88 27.2155Z" fill="#F2F2F2"/>
<path d="M120.664 27.2155C122.357 27.2155 123.729 25.8438 123.729 24.1518C123.729 22.4598 122.357 21.0881 120.664 21.0881C118.971 21.0881 117.599 22.4598 117.599 24.1518C117.599 25.8438 118.971 27.2155 120.664 27.2155Z" fill="#F2F2F2"/>
<path d="M108.448 27.2155C110.141 27.2155 111.513 25.8438 111.513 24.1518C111.513 22.4598 110.141 21.0881 108.448 21.0881C106.755 21.0881 105.383 22.4598 105.383 24.1518C105.383 25.8438 106.755 27.2155 108.448 27.2155Z" fill="#F2F2F2"/>
<path d="M96.2321 27.2155C97.9249 27.2155 99.2973 25.8438 99.2973 24.1518C99.2973 22.4598 97.9249 21.0881 96.2321 21.0881C94.5393 21.0881 93.167 22.4598 93.167 24.1518C93.167 25.8438 94.5393 27.2155 96.2321 27.2155Z" fill="#F2F2F2"/>
<path d="M132.88 40.0066C134.572 40.0066 135.945 38.635 135.945 36.9429C135.945 35.2509 134.572 33.8793 132.88 33.8793C131.187 33.8793 129.814 35.2509 129.814 36.9429C129.814 38.635 131.187 40.0066 132.88 40.0066Z" fill="#F2F2F2"/>
<path d="M120.664 40.0066C122.357 40.0066 123.729 38.635 123.729 36.9429C123.729 35.2509 122.357 33.8793 120.664 33.8793C118.971 33.8793 117.599 35.2509 117.599 36.9429C117.599 38.635 118.971 40.0066 120.664 40.0066Z" fill="#F2F2F2"/>
<path d="M108.448 40.0066C110.141 40.0066 111.513 38.635 111.513 36.9429C111.513 35.2509 110.141 33.8793 108.448 33.8793C106.755 33.8793 105.383 35.2509 105.383 36.9429C105.383 38.635 106.755 40.0066 108.448 40.0066Z" fill="#F2F2F2"/>
<path d="M96.2321 40.0066C97.9249 40.0066 99.2973 38.635 99.2973 36.9429C99.2973 35.2509 97.9249 33.8793 96.2321 33.8793C94.5393 33.8793 93.167 35.2509 93.167 36.9429C93.167 38.635 94.5393 40.0066 96.2321 40.0066Z" fill="#F2F2F2"/>
<path d="M132.88 52.7978C134.572 52.7978 135.945 51.4261 135.945 49.7341C135.945 48.0421 134.572 46.6704 132.88 46.6704C131.187 46.6704 129.814 48.0421 129.814 49.7341C129.814 51.4261 131.187 52.7978 132.88 52.7978Z" fill="#F2F2F2"/>
<path d="M120.664 52.7978C122.357 52.7978 123.729 51.4261 123.729 49.7341C123.729 48.0421 122.357 46.6704 120.664 46.6704C118.971 46.6704 117.599 48.0421 117.599 49.7341C117.599 51.4261 118.971 52.7978 120.664 52.7978Z" fill="#F2F2F2"/>
<path d="M108.448 52.7978C110.141 52.7978 111.513 51.4261 111.513 49.7341C111.513 48.0421 110.141 46.6704 108.448 46.6704C106.755 46.6704 105.383 48.0421 105.383 49.7341C105.383 51.4261 106.755 52.7978 108.448 52.7978Z" fill="#F2F2F2"/>
<path d="M96.2321 52.7978C97.9249 52.7978 99.2973 51.4261 99.2973 49.7341C99.2973 48.0421 97.9249 46.6704 96.2321 46.6704C94.5393 46.6704 93.167 48.0421 93.167 49.7341C93.167 51.4261 94.5393 52.7978 96.2321 52.7978Z" fill="#F2F2F2"/>
<path d="M132.88 65.589C134.572 65.589 135.945 64.2174 135.945 62.5253C135.945 60.8333 134.572 59.4617 132.88 59.4617C131.187 59.4617 129.814 60.8333 129.814 62.5253C129.814 64.2174 131.187 65.589 132.88 65.589Z" fill="#F2F2F2"/>
<path d="M120.664 65.589C122.357 65.589 123.729 64.2174 123.729 62.5253C123.729 60.8333 122.357 59.4617 120.664 59.4617C118.971 59.4617 117.599 60.8333 117.599 62.5253C117.599 64.2174 118.971 65.589 120.664 65.589Z" fill="#F2F2F2"/>
<path d="M108.448 65.589C110.141 65.589 111.513 64.2174 111.513 62.5253C111.513 60.8333 110.141 59.4617 108.448 59.4617C106.755 59.4617 105.383 60.8333 105.383 62.5253C105.383 64.2174 106.755 65.589 108.448 65.589Z" fill="#F2F2F2"/>
<path d="M96.2321 65.589C97.9249 65.589 99.2973 64.2174 99.2973 62.5253C99.2973 60.8333 97.9249 59.4617 96.2321 59.4617C94.5393 59.4617 93.167 60.8333 93.167 62.5253C93.167 64.2174 94.5393 65.589 96.2321 65.589Z" fill="#F2F2F2"/>
<path d="M132.88 78.3802C134.572 78.3802 135.945 77.0085 135.945 75.3165C135.945 73.6245 134.572 72.2528 132.88 72.2528C131.187 72.2528 129.814 73.6245 129.814 75.3165C129.814 77.0085 131.187 78.3802 132.88 78.3802Z" fill="#F2F2F2"/>
<path d="M120.664 78.3802C122.357 78.3802 123.729 77.0085 123.729 75.3165C123.729 73.6245 122.357 72.2528 120.664 72.2528C118.971 72.2528 117.599 73.6245 117.599 75.3165C117.599 77.0085 118.971 78.3802 120.664 78.3802Z" fill="#F2F2F2"/>
<path d="M108.448 78.3802C110.141 78.3802 111.513 77.0085 111.513 75.3165C111.513 73.6245 110.141 72.2528 108.448 72.2528C106.755 72.2528 105.383 73.6245 105.383 75.3165C105.383 77.0085 106.755 78.3802 108.448 78.3802Z" fill="#F2F2F2"/>
<path d="M96.2321 78.3802C97.9249 78.3802 99.2973 77.0085 99.2973 75.3165C99.2973 73.6245 97.9249 72.2528 96.2321 72.2528C94.5393 72.2528 93.167 73.6245 93.167 75.3165C93.167 77.0085 94.5393 78.3802 96.2321 78.3802Z" fill="#F2F2F2"/>
<path d="M132.88 91.1713C134.572 91.1713 135.945 89.7996 135.945 88.1076C135.945 86.4156 134.572 85.0439 132.88 85.0439C131.187 85.0439 129.814 86.4156 129.814 88.1076C129.814 89.7996 131.187 91.1713 132.88 91.1713Z" fill="#F2F2F2"/>
<path d="M120.664 91.1713C122.357 91.1713 123.729 89.7996 123.729 88.1076C123.729 86.4156 122.357 85.0439 120.664 85.0439C118.971 85.0439 117.599 86.4156 117.599 88.1076C117.599 89.7996 118.971 91.1713 120.664 91.1713Z" fill="#F2F2F2"/>
<path d="M108.448 91.1713C110.141 91.1713 111.513 89.7996 111.513 88.1076C111.513 86.4156 110.141 85.0439 108.448 85.0439C106.755 85.0439 105.383 86.4156 105.383 88.1076C105.383 89.7996 106.755 91.1713 108.448 91.1713Z" fill="#F2F2F2"/>
<path d="M96.2321 91.1713C97.9249 91.1713 99.2973 89.7996 99.2973 88.1076C99.2973 86.4156 97.9249 85.0439 96.2321 85.0439C94.5393 85.0439 93.167 86.4156 93.167 88.1076C93.167 89.7996 94.5393 91.1713 96.2321 91.1713Z" fill="#F2F2F2"/>
<path d="M105.946 171.686V172.633C105.948 174.204 106.572 175.709 107.683 176.819C108.794 177.93 110.3 178.554 111.871 178.555H154.529C156.1 178.555 157.606 177.931 158.717 176.82C159.828 175.71 160.453 174.204 160.453 172.633V171.686C160.456 170.3 159.969 168.958 159.078 167.896C158.782 167.543 158.447 167.226 158.078 166.949C158.078 166.949 134.626 166.418 134.626 165.764H111.871C110.3 165.766 108.795 166.391 107.684 167.501C106.573 168.611 105.948 170.116 105.946 171.686Z" fill="#CCCCCC"/>
<path d="M136.624 178.32H130.462V218.115H136.624V178.32Z" fill="#CCCCCC"/>
<path d="M154.161 217.899C154.161 218.564 144.824 218.156 133.306 218.156C121.788 218.156 112.451 218.564 112.451 217.899C112.451 217.233 121.788 211.956 133.306 211.956C144.824 211.956 154.161 217.233 154.161 217.899Z" fill="#CCCCCC"/>
<path d="M145.689 170.882C146.134 170.286 146.442 169.599 146.593 168.87C146.743 168.142 146.732 167.389 146.56 166.665C146.388 165.941 146.059 165.264 145.597 164.681C145.135 164.097 144.55 163.623 143.885 163.29L130.825 118.812L120.881 123.68L136.845 165.87C136.359 167.024 136.315 168.317 136.719 169.503C137.124 170.688 137.949 171.685 139.039 172.302C140.129 172.92 141.409 173.117 142.634 172.855C143.86 172.594 144.947 171.892 145.689 170.882Z" fill="#A0616A"/>
<path d="M133.784 126.24L122.653 129.251C122.337 129.337 122.005 129.353 121.682 129.299C121.358 129.246 121.05 129.123 120.778 128.939C120.506 128.755 120.277 128.515 120.107 128.235C119.936 127.955 119.828 127.641 119.79 127.316L118.444 115.904C118.015 114.282 118.247 112.556 119.088 111.105C119.93 109.653 121.314 108.595 122.935 108.161C124.557 107.728 126.284 107.954 127.739 108.792C129.193 109.629 130.256 111.009 130.694 112.628L135.28 123.124C135.411 123.425 135.476 123.75 135.47 124.078C135.464 124.406 135.387 124.729 135.245 125.024C135.103 125.32 134.899 125.582 134.647 125.791C134.395 126.001 134.1 126.154 133.784 126.24Z" fill="#0066D8"/>
<path d="M148.599 213.234L154.41 213.234L157.174 198.17H148.598L148.599 213.234Z" fill="#A0616A"/>
<path d="M147.116 211.338L158.56 211.337H158.56C159.518 211.337 160.466 211.526 161.351 211.892C162.236 212.259 163.04 212.795 163.717 213.472C164.394 214.149 164.931 214.953 165.298 215.837C165.664 216.721 165.853 217.669 165.853 218.627V218.863L147.117 218.864L147.116 211.338Z" fill="#2F2E41"/>
<path d="M155.343 205.156C155.276 205.156 155.208 205.153 155.139 205.147L147.098 204.561C146.772 204.531 146.459 204.427 146.18 204.256C145.902 204.086 145.666 203.853 145.492 203.577C145.317 203.301 145.208 202.989 145.174 202.664C145.139 202.34 145.18 202.012 145.292 201.705L156.054 177.537C156.131 177.322 156.163 177.092 156.147 176.864C156.131 176.636 156.068 176.414 155.961 176.211C155.855 176.006 155.707 175.826 155.527 175.682C155.346 175.538 155.137 175.435 154.913 175.377C149.853 174.055 136.868 170.534 125.628 166.415C120.813 164.65 117.78 162.099 116.614 158.834C115.077 154.529 117.351 150.603 117.448 150.439L117.525 150.309L128.101 151.27L139.567 152.245L164.694 165.713C166.799 166.851 168.399 168.74 169.173 171.003C169.948 173.267 169.841 175.739 168.874 177.928L157.289 203.893C157.122 204.269 156.849 204.588 156.503 204.813C156.158 205.037 155.755 205.156 155.343 205.156Z" fill="#2F2E41"/>
<path d="M129.94 103.456C136.369 103.456 141.581 98.246 141.581 91.8198C141.581 85.3936 136.369 80.1841 129.94 80.1841C123.511 80.1841 118.299 85.3936 118.299 91.8198C118.299 98.246 123.511 103.456 129.94 103.456Z" fill="#A0616A"/>
<path d="M145.28 212.76L151.091 212.76L153.856 197.697H145.279L145.28 212.76Z" fill="#A0616A"/>
<path d="M143.798 210.864L155.241 210.864H155.242C156.2 210.864 157.148 211.052 158.033 211.418C158.917 211.785 159.721 212.322 160.399 212.999C161.076 213.675 161.613 214.479 161.98 215.363C162.346 216.248 162.535 217.196 162.535 218.153V218.39L143.798 218.39L143.798 210.864Z" fill="#2F2E41"/>
<path d="M152.025 206.578C151.957 206.578 151.889 206.574 151.821 206.568L143.779 205.983C143.454 205.953 143.14 205.848 142.862 205.677C142.583 205.507 142.348 205.275 142.173 204.999C141.999 204.723 141.89 204.41 141.855 204.086C141.821 203.761 141.861 203.433 141.974 203.126L152.736 178.958C152.813 178.743 152.844 178.514 152.828 178.286C152.812 178.057 152.749 177.835 152.643 177.632C152.537 177.427 152.389 177.247 152.208 177.103C152.028 176.96 151.819 176.856 151.595 176.799C146.534 175.476 133.55 171.956 122.31 167.836C117.494 166.071 114.461 163.521 113.296 160.255C111.758 155.95 114.032 152.025 114.13 151.86L114.206 151.731L124.783 152.692L136.249 153.666L161.376 167.134C163.481 168.272 165.08 170.161 165.855 172.425C166.63 174.688 166.523 177.161 165.555 179.349L153.971 205.314C153.804 205.69 153.531 206.01 153.185 206.234C152.84 206.458 152.437 206.577 152.025 206.578Z" fill="#2F2E41"/>
<path d="M133.53 110.053L121.207 105.79C121.207 105.79 113.47 111.73 117.187 126.468C119.127 134.073 118.562 142.101 115.575 149.36C115.216 150.258 114.801 151.133 114.334 151.98C114.334 151.98 128.079 168.561 140.876 156.244L135.9 132.32C135.9 132.32 143.72 116.449 133.53 110.053Z" fill="#2F2E41"/>
<path d="M131.385 103.851C129.729 101.372 128.421 97.9353 130.245 95.5768C132.046 93.2487 135.597 93.5917 138.355 92.5616C142.196 91.1267 144.424 86.6164 143.729 82.577C143.034 78.5377 139.79 75.1892 135.926 73.8191C132.061 72.449 127.703 72.8946 123.918 74.4724C119.26 76.4146 115.263 80.1717 113.587 84.9309C111.911 89.6902 112.807 95.4046 116.284 99.0626C120.011 102.984 125.861 104.03 131.272 103.966" fill="#2F2E41"/>
<path d="M120.556 82.7067C118.469 84.4055 115.283 83.651 113.042 82.1601C110.801 80.6692 108.983 78.5462 106.558 77.3773C102.283 75.3165 97.1145 76.6864 92.954 78.9691C88.7935 81.2518 85.1054 84.4054 80.7107 86.1967C76.316 87.988 70.708 88.0766 67.3803 84.6941C66.5614 87.0656 66.4944 89.6319 67.1886 92.0428C67.8828 94.4538 69.3042 96.5919 71.259 98.1656C73.2138 99.7392 75.6068 100.672 78.1114 100.836C80.616 101 83.1103 100.388 85.2539 99.0825C90.0691 96.1508 92.7289 90.0038 98.1298 88.3856C101.118 87.4902 104.328 88.2114 107.348 88.9925C110.369 89.7737 113.518 90.6177 116.567 89.9527C119.615 89.2877 122.466 86.5497 122.078 83.4554L120.556 82.7067Z" fill="#2F2E41"/>
<path d="M158.452 192.345C157.219 184.342 157.219 176.198 158.452 168.195C158.53 167.719 158.775 167.286 159.143 166.973C159.51 166.66 159.977 166.488 160.46 166.487H179.359C179.665 166.486 179.967 166.555 180.243 166.688C180.518 166.822 180.76 167.016 180.949 167.257C181.142 167.502 181.277 167.787 181.343 168.091C181.41 168.395 181.406 168.71 181.332 169.012C179.564 176.413 179.564 184.126 181.331 191.527C181.405 191.83 181.409 192.145 181.343 192.449C181.277 192.753 181.142 193.038 180.949 193.282C180.76 193.523 180.518 193.718 180.243 193.851C179.967 193.985 179.665 194.054 179.359 194.053H160.46C159.977 194.052 159.51 193.88 159.143 193.567C158.775 193.254 158.53 192.821 158.452 192.345Z" fill="#0066D8"/>
<path d="M173.543 178.177H163.626C163.249 178.177 162.888 178.027 162.621 177.761C162.354 177.494 162.205 177.133 162.204 176.756V176.201C162.205 175.824 162.354 175.463 162.621 175.196C162.888 174.93 163.249 174.78 163.626 174.78H173.543C173.92 174.78 174.282 174.93 174.548 175.196C174.815 175.463 174.965 175.824 174.965 176.201V176.756C174.965 177.133 174.815 177.494 174.548 177.761C174.282 178.027 173.92 178.177 173.543 178.177Z" fill="white"/>
<path d="M173.543 184.026H163.626C163.249 184.025 162.888 183.875 162.621 183.609C162.354 183.343 162.205 182.981 162.204 182.604V182.049C162.205 181.672 162.354 181.311 162.621 181.045C162.888 180.778 163.249 180.628 163.626 180.628H173.543C173.92 180.628 174.282 180.778 174.548 181.045C174.815 181.311 174.965 181.672 174.965 182.049V182.604C174.965 182.981 174.815 183.343 174.548 183.609C174.282 183.875 173.92 184.025 173.543 184.026Z" fill="white"/>
<path d="M163.422 168.751C163.703 168.062 163.83 167.32 163.794 166.577C163.758 165.834 163.559 165.108 163.211 164.45C162.863 163.792 162.376 163.218 161.782 162.769C161.189 162.319 160.504 162.006 159.777 161.85L136.014 122.043L127.602 129.24L153.605 166.106C153.423 167.345 153.703 168.608 154.391 169.655C155.079 170.702 156.128 171.46 157.338 171.786C158.548 172.113 159.835 171.984 160.957 171.424C162.078 170.865 162.955 169.913 163.422 168.751Z" fill="#A0616A"/>
<path d="M140.736 128.497L130.711 134.192C130.426 134.354 130.109 134.453 129.783 134.482C129.456 134.51 129.127 134.468 128.818 134.358C128.508 134.248 128.227 134.073 127.992 133.844C127.756 133.616 127.573 133.339 127.455 133.033L123.3 122.32C122.479 120.856 122.272 119.127 122.724 117.512C123.176 115.896 124.251 114.526 125.713 113.701C127.174 112.876 128.904 112.664 130.521 113.112C132.139 113.559 133.513 114.63 134.342 116.088L141.406 125.107C141.608 125.365 141.752 125.664 141.828 125.983C141.904 126.302 141.911 126.633 141.847 126.955C141.784 127.277 141.652 127.581 141.46 127.847C141.268 128.113 141.021 128.335 140.736 128.497Z" fill="#2F2E41"/>
<path d="M247.399 142.479H54.9656C54.1485 142.479 53.3649 142.804 52.7871 143.381C52.2094 143.959 51.8848 144.742 51.8848 145.559C51.8848 146.375 52.2094 147.159 52.7871 147.736C53.3649 148.314 54.1485 148.638 54.9656 148.638H60.4163V215.673C60.4163 216.49 60.7409 217.273 61.3186 217.851C61.8964 218.428 62.68 218.753 63.4971 218.753C64.3142 218.753 65.0978 218.428 65.6756 217.851C66.2534 217.273 66.5779 216.49 66.5779 215.673V154.555L101.117 217.127C101.526 217.832 102.199 218.347 102.987 218.557C103.776 218.767 104.616 218.656 105.322 218.249C106.029 217.841 106.545 217.169 106.757 216.382C106.969 215.594 106.86 214.755 106.453 214.047L70.3477 148.638H235.312V148.678L199.229 214.047C198.821 214.755 198.71 215.595 198.922 216.384C199.133 217.173 199.649 217.845 200.357 218.254C201.064 218.662 201.905 218.773 202.695 218.561C203.484 218.35 204.157 217.834 204.565 217.127L235.312 161.424V215.673C235.312 216.49 235.637 217.273 236.215 217.851C236.792 218.428 237.576 218.753 238.393 218.753C239.21 218.753 239.994 218.428 240.572 217.851C241.149 217.273 241.474 216.49 241.474 215.673V150.262L242.37 148.638H247.399C248.216 148.638 248.999 148.314 249.577 147.736C250.155 147.159 250.48 146.375 250.48 145.559C250.48 144.742 250.155 143.959 249.577 143.381C248.999 142.804 248.216 142.479 247.399 142.479Z" fill="#3F3D56"/>
<path d="M167.771 140.584H130.327C129.411 140.584 128.668 141.327 128.668 142.242C128.668 143.158 129.411 143.901 130.327 143.901H167.771C168.687 143.901 169.43 143.158 169.43 142.242C169.43 141.327 168.687 140.584 167.771 140.584Z" fill="#CCCCCC"/>
<path d="M192.891 143.901H150.708C149.891 143.9 149.108 143.575 148.53 142.998C147.953 142.42 147.628 141.638 147.627 140.821V117.608C147.628 116.791 147.953 116.008 148.53 115.431C149.108 114.854 149.891 114.529 150.708 114.528H192.891C193.708 114.529 194.491 114.854 195.069 115.431C195.646 116.008 195.971 116.791 195.972 117.608V140.821C195.971 141.638 195.646 142.42 195.069 142.998C194.491 143.575 193.708 143.9 192.891 143.901Z" fill="#CCCCCC"/>
<path d="M171.8 132.057C173.371 132.057 174.644 130.784 174.644 129.214C174.644 127.645 173.371 126.372 171.8 126.372C170.229 126.372 168.956 127.645 168.956 129.214C168.956 130.784 170.229 132.057 171.8 132.057Z" fill="white"/>
<path d="M225.084 86.7059V3.56325C225.085 2.61855 225.461 1.71285 226.129 1.04484C226.798 0.37683 227.704 0.00107457 228.649 0H294.403C295.348 0.00107457 296.254 0.37683 296.922 1.04484C297.59 1.71285 297.966 2.61855 297.967 3.56325V86.7059C297.966 87.6506 297.59 88.5563 296.922 89.2243C296.254 89.8923 295.348 90.2681 294.403 90.2692H228.649C227.704 90.2681 226.798 89.8923 226.129 89.2243C225.461 88.5563 225.085 87.6506 225.084 86.7059ZM228.649 0.791837C227.914 0.792662 227.209 1.08491 226.689 1.60448C226.169 2.12404 225.877 2.82848 225.876 3.56325V86.7059C225.877 87.4407 226.169 88.1451 226.689 88.6647C227.209 89.1843 227.914 89.4765 228.649 89.4773H294.403C295.138 89.4765 295.842 89.1843 296.362 88.6647C296.882 88.1451 297.174 87.4407 297.175 86.7059V3.56325C297.174 2.82848 296.882 2.12404 296.362 1.60448C295.842 1.08491 295.138 0.792662 294.403 0.791837H228.649Z" fill="#E6E6E6"/>
<path d="M265.213 38.1829V21.1111C265.213 20.6387 265.401 20.1859 265.736 19.8519C266.07 19.5179 266.523 19.33 266.995 19.3295H281.469C281.942 19.33 282.395 19.5179 282.729 19.8519C283.063 20.1859 283.251 20.6387 283.252 21.1111V38.1829C283.251 38.6553 283.063 39.1081 282.729 39.4421C282.395 39.7761 281.942 39.964 281.469 39.9645H266.995C266.523 39.964 266.07 39.7761 265.736 39.4421C265.401 39.1081 265.213 38.6553 265.213 38.1829Z" fill="#0066D8"/>
<path d="M237.09 46.1013V29.0294C237.09 28.5571 237.278 28.1042 237.613 27.7702C237.947 27.4362 238.4 27.2483 238.872 27.2478H253.346C253.819 27.2483 254.272 27.4362 254.606 27.7702C254.94 28.1042 255.128 28.5571 255.129 29.0294V46.1013C255.128 46.5736 254.94 47.0265 254.606 47.3605C254.272 47.6945 253.819 47.8824 253.346 47.8829H238.872C238.4 47.8824 237.947 47.6945 237.613 47.3605C237.278 47.0265 237.09 46.5736 237.09 46.1013Z" fill="#CCCCCC"/>
<path d="M259.668 70.2523V53.1804C259.668 52.7081 259.856 52.2552 260.191 51.9212C260.525 51.5872 260.978 51.3993 261.45 51.3988H275.924C276.397 51.3993 276.85 51.5872 277.184 51.9212C277.518 52.2552 277.706 52.7081 277.707 53.1804V70.2523C277.706 70.7246 277.518 71.1775 277.184 71.5115C276.85 71.8455 276.397 72.0334 275.924 72.0339H261.45C260.978 72.0334 260.525 71.8455 260.191 71.5115C259.856 71.1775 259.668 70.7246 259.668 70.2523Z" fill="#E81C1A"/>
<path d="M370.05 8.66348C371.743 8.66348 373.116 7.29182 373.116 5.5998C373.116 3.90779 371.743 2.53613 370.05 2.53613C368.358 2.53613 366.985 3.90779 366.985 5.5998C366.985 7.29182 368.358 8.66348 370.05 8.66348Z" fill="#F2F2F2"/>
<path d="M370.05 20.8736C371.743 20.8736 373.116 19.5019 373.116 17.8099C373.116 16.1179 371.743 14.7462 370.05 14.7462C368.358 14.7462 366.985 16.1179 366.985 17.8099C366.985 19.5019 368.358 20.8736 370.05 20.8736Z" fill="#F2F2F2"/>
<path d="M370.05 33.0835C371.743 33.0835 373.116 31.7119 373.116 30.0198C373.116 28.3278 371.743 26.9562 370.05 26.9562C368.358 26.9562 366.985 28.3278 366.985 30.0198C366.985 31.7119 368.358 33.0835 370.05 33.0835Z" fill="#F2F2F2"/>
<path d="M370.05 45.2936C371.743 45.2936 373.116 43.922 373.116 42.2299C373.116 40.5379 371.743 39.1663 370.05 39.1663C368.358 39.1663 366.985 40.5379 366.985 42.2299C366.985 43.922 368.358 45.2936 370.05 45.2936Z" fill="#F2F2F2"/>
<path d="M357.253 8.66348C358.945 8.66348 360.318 7.29182 360.318 5.5998C360.318 3.90779 358.945 2.53613 357.253 2.53613C355.56 2.53613 354.188 3.90779 354.188 5.5998C354.188 7.29182 355.56 8.66348 357.253 8.66348Z" fill="#F2F2F2"/>
<path d="M357.253 20.8736C358.945 20.8736 360.318 19.5019 360.318 17.8099C360.318 16.1179 358.945 14.7462 357.253 14.7462C355.56 14.7462 354.188 16.1179 354.188 17.8099C354.188 19.5019 355.56 20.8736 357.253 20.8736Z" fill="#F2F2F2"/>
<path d="M357.253 33.0835C358.945 33.0835 360.318 31.7119 360.318 30.0198C360.318 28.3278 358.945 26.9562 357.253 26.9562C355.56 26.9562 354.188 28.3278 354.188 30.0198C354.188 31.7119 355.56 33.0835 357.253 33.0835Z" fill="#F2F2F2"/>
<path d="M357.253 45.2936C358.945 45.2936 360.318 43.922 360.318 42.2299C360.318 40.5379 358.945 39.1663 357.253 39.1663C355.56 39.1663 354.188 40.5379 354.188 42.2299C354.188 43.922 355.56 45.2936 357.253 45.2936Z" fill="#F2F2F2"/>
<path d="M344.456 8.66348C346.149 8.66348 347.521 7.29182 347.521 5.5998C347.521 3.90779 346.149 2.53613 344.456 2.53613C342.763 2.53613 341.391 3.90779 341.391 5.5998C341.391 7.29182 342.763 8.66348 344.456 8.66348Z" fill="#F2F2F2"/>
<path d="M344.456 20.8736C346.149 20.8736 347.521 19.5019 347.521 17.8099C347.521 16.1179 346.149 14.7462 344.456 14.7462C342.763 14.7462 341.391 16.1179 341.391 17.8099C341.391 19.5019 342.763 20.8736 344.456 20.8736Z" fill="#F2F2F2"/>
<path d="M344.456 33.0835C346.149 33.0835 347.521 31.7119 347.521 30.0198C347.521 28.3278 346.149 26.9562 344.456 26.9562C342.763 26.9562 341.391 28.3278 341.391 30.0198C341.391 31.7119 342.763 33.0835 344.456 33.0835Z" fill="#F2F2F2"/>
<path d="M344.456 45.2936C346.149 45.2936 347.521 43.922 347.521 42.2299C347.521 40.5379 346.149 39.1663 344.456 39.1663C342.763 39.1663 341.391 40.5379 341.391 42.2299C341.391 43.922 342.763 45.2936 344.456 45.2936Z" fill="#F2F2F2"/>
<path d="M331.659 8.66348C333.352 8.66348 334.724 7.29182 334.724 5.5998C334.724 3.90779 333.352 2.53613 331.659 2.53613C329.966 2.53613 328.594 3.90779 328.594 5.5998C328.594 7.29182 329.966 8.66348 331.659 8.66348Z" fill="#F2F2F2"/>
<path d="M331.659 20.8736C333.352 20.8736 334.724 19.5019 334.724 17.8099C334.724 16.1179 333.352 14.7462 331.659 14.7462C329.966 14.7462 328.594 16.1179 328.594 17.8099C328.594 19.5019 329.966 20.8736 331.659 20.8736Z" fill="#F2F2F2"/>
<path d="M331.659 33.0835C333.352 33.0835 334.724 31.7119 334.724 30.0198C334.724 28.3278 333.352 26.9562 331.659 26.9562C329.966 26.9562 328.594 28.3278 328.594 30.0198C328.594 31.7119 329.966 33.0835 331.659 33.0835Z" fill="#F2F2F2"/>
<path d="M331.659 45.2936C333.352 45.2936 334.724 43.922 334.724 42.2299C334.724 40.5379 333.352 39.1663 331.659 39.1663C329.966 39.1663 328.594 40.5379 328.594 42.2299C328.594 43.922 329.966 45.2936 331.659 45.2936Z" fill="#F2F2F2"/>
<path d="M318.861 8.66348C320.554 8.66348 321.926 7.29182 321.926 5.5998C321.926 3.90779 320.554 2.53613 318.861 2.53613C317.168 2.53613 315.796 3.90779 315.796 5.5998C315.796 7.29182 317.168 8.66348 318.861 8.66348Z" fill="#F2F2F2"/>
<path d="M318.861 20.8736C320.554 20.8736 321.926 19.5019 321.926 17.8099C321.926 16.1179 320.554 14.7462 318.861 14.7462C317.168 14.7462 315.796 16.1179 315.796 17.8099C315.796 19.5019 317.168 20.8736 318.861 20.8736Z" fill="#F2F2F2"/>
<path d="M318.861 33.0835C320.554 33.0835 321.926 31.7119 321.926 30.0198C321.926 28.3278 320.554 26.9562 318.861 26.9562C317.168 26.9562 315.796 28.3278 315.796 30.0198C315.796 31.7119 317.168 33.0835 318.861 33.0835Z" fill="#F2F2F2"/>
<path d="M318.861 45.2936C320.554 45.2936 321.926 43.922 321.926 42.2299C321.926 40.5379 320.554 39.1663 318.861 39.1663C317.168 39.1663 315.796 40.5379 315.796 42.2299C315.796 43.922 317.168 45.2936 318.861 45.2936Z" fill="#F2F2F2"/>
<path d="M306.064 8.66348C307.757 8.66348 309.129 7.29182 309.129 5.5998C309.129 3.90779 307.757 2.53613 306.064 2.53613C304.371 2.53613 302.999 3.90779 302.999 5.5998C302.999 7.29182 304.371 8.66348 306.064 8.66348Z" fill="#F2F2F2"/>
<path d="M306.064 20.8736C307.757 20.8736 309.129 19.5019 309.129 17.8099C309.129 16.1179 307.757 14.7462 306.064 14.7462C304.371 14.7462 302.999 16.1179 302.999 17.8099C302.999 19.5019 304.371 20.8736 306.064 20.8736Z" fill="#F2F2F2"/>
<path d="M306.064 33.0835C307.757 33.0835 309.129 31.7119 309.129 30.0198C309.129 28.3278 307.757 26.9562 306.064 26.9562C304.371 26.9562 302.999 28.3278 302.999 30.0198C302.999 31.7119 304.371 33.0835 306.064 33.0835Z" fill="#F2F2F2"/>
<path d="M306.064 45.2936C307.757 45.2936 309.129 43.922 309.129 42.2299C309.129 40.5379 307.757 39.1663 306.064 39.1663C304.371 39.1663 302.999 40.5379 302.999 42.2299C302.999 43.922 304.371 45.2936 306.064 45.2936Z" fill="#F2F2F2"/>
<path d="M318.413 114.293C318.161 113.603 318.058 112.867 318.111 112.135C318.164 111.403 318.371 110.689 318.718 110.043C319.066 109.396 319.546 108.829 320.128 108.381C320.71 107.933 321.38 107.612 322.094 107.44C322.321 107.387 322.55 107.35 322.782 107.328L334.301 87.1475L331.392 82.153L338.632 76.5701L344.172 84.2599C344.832 85.1843 345.177 86.297 345.155 87.4328C345.133 88.5686 344.745 89.6669 344.048 90.5648L328.234 110.8C328.292 110.961 328.341 111.125 328.382 111.291C328.553 112.005 328.572 112.747 328.436 113.469C328.301 114.191 328.014 114.876 327.595 115.479C327.176 116.082 326.635 116.59 326.006 116.97C325.377 117.35 324.674 117.592 323.945 117.681C323.733 117.708 323.52 117.721 323.307 117.721C322.238 117.718 321.197 117.387 320.322 116.774C319.447 116.162 318.78 115.295 318.413 114.293Z" fill="#FFB8B8"/>
<path d="M295.939 213.607L290.128 213.607L287.364 191.204L295.94 191.204L295.939 213.607Z" fill="#FFB8B8"/>
<path d="M285.978 211.947H297.184V219H278.922C278.922 218.073 279.104 217.156 279.459 216.301C279.814 215.445 280.333 214.668 280.989 214.013C281.644 213.358 282.422 212.838 283.278 212.484C284.134 212.129 285.051 211.947 285.978 211.947Z" fill="#2F2E41"/>
<path d="M343.81 213.607L338 213.607L335.235 191.204L343.811 191.204L343.81 213.607Z" fill="#FFB8B8"/>
<path d="M333.849 211.947H345.055V219H326.793C326.793 218.073 326.975 217.156 327.33 216.301C327.685 215.445 328.204 214.668 328.86 214.013C329.515 213.358 330.293 212.838 331.149 212.484C332.005 212.129 332.922 211.947 333.849 211.947Z" fill="#2F2E41"/>
<path d="M340.244 77.6609L327.198 82.616L324.013 73.7728C323.59 72.5985 323.596 71.3126 324.03 70.1423C324.464 68.972 325.298 67.9927 326.384 67.3774C327.483 66.755 328.768 66.5458 330.008 66.7877C331.248 67.0297 332.36 67.7067 333.144 68.6965L340.244 77.6609Z" fill="#0066D8"/>
<path d="M296.441 195.463L285.499 192.968C284.918 192.835 284.408 192.486 284.073 191.992C283.737 191.498 283.602 190.896 283.693 190.306C288.083 162.493 292.307 146.205 303.192 125.52C303.344 125.134 305.044 117.306 306.153 112.12C306.14 111.549 306.336 110.992 306.703 110.554C307.071 110.116 307.585 109.827 308.15 109.74L328.552 106.602C328.86 106.495 329.185 106.446 329.51 106.458L329.714 106.496L329.712 106.697C329.709 106.904 329.503 106.936 329.425 106.948L329.154 106.989C329.463 107.133 329.747 107.326 329.995 107.561C338.934 118.307 343.582 153.533 349.486 192.449C349.519 192.765 349.48 193.084 349.374 193.383C349.267 193.682 349.094 193.954 348.868 194.177C348.655 194.41 348.396 194.598 348.108 194.728C347.82 194.858 347.508 194.929 347.192 194.935L334.157 195.253C333.584 195.266 333.026 195.07 332.587 194.703C332.148 194.335 331.858 193.82 331.77 193.255L322.99 142.541C322.93 142.144 322.744 141.778 322.461 141.494C322.178 141.211 321.811 141.025 321.415 140.964C321.019 140.903 320.614 140.97 320.258 141.155C319.902 141.34 319.615 141.633 319.438 141.993C312.355 156.411 305.749 168.88 299.244 193.758C299.115 194.262 298.821 194.709 298.41 195.029C297.999 195.348 297.493 195.522 296.972 195.523C296.793 195.523 296.615 195.503 296.441 195.463Z" fill="#2F2E41"/>
<path d="M307.061 112.699C306.787 112.505 306.557 112.255 306.387 111.965C306.216 111.675 306.11 111.352 306.074 111.018C304.403 95.4272 305.567 83.2261 309.631 73.7176C310.347 72.0777 311.426 70.6212 312.786 69.4577C314.146 68.2942 315.752 67.4539 317.484 67.0001L328.029 66.468L328.084 66.4944C330.464 67.6594 332.404 69.56 333.618 71.9142C334.832 74.2685 335.255 76.9511 334.824 79.5643C331.432 88.5007 328.592 97.805 330.758 105.311C330.848 105.624 330.875 105.953 330.835 106.278C330.796 106.602 330.692 106.915 330.528 107.198C330.37 107.471 330.157 107.709 329.903 107.898C329.649 108.086 329.359 108.22 329.051 108.292L308.965 113.068C308.64 113.145 308.302 113.152 307.974 113.089C307.645 113.025 307.334 112.892 307.061 112.699Z" fill="#0066D8"/>
<path d="M302.522 90.3255L282.296 74.3763C282.134 74.4329 281.971 74.4813 281.804 74.5211C281.091 74.688 280.35 74.7029 279.629 74.5649C278.909 74.4268 278.226 74.1389 277.625 73.7198C277.02 73.3004 276.511 72.7566 276.133 72.1248C275.754 71.4929 275.516 70.7876 275.432 70.0561C275.297 68.8867 275.56 67.7057 276.181 66.7049C276.801 65.704 277.741 64.9421 278.849 64.5426C279.541 64.2946 280.277 64.1955 281.009 64.2518C281.742 64.308 282.454 64.5182 283.1 64.8688C283.745 65.2193 284.309 65.7022 284.755 66.2859C285.201 66.8695 285.519 67.5407 285.687 68.2555C285.739 68.482 285.775 68.7119 285.795 68.9435L305.93 80.5537L310.941 77.6703L316.492 84.9338L308.712 90.4763C307.801 91.1198 306.707 91.4526 305.592 91.4255C304.477 91.3983 303.4 91.0125 302.522 90.3255Z" fill="#FFB8B8"/>
<path d="M318.96 87.1958L307.419 79.3518L312.843 71.6738C313.563 70.6543 314.62 69.922 315.828 69.6065C317.036 69.2909 318.317 69.4124 319.444 69.9494C320.585 70.4926 321.493 71.4254 322.005 72.5794C322.518 73.7334 322.6 75.0324 322.238 76.242L318.96 87.1958Z" fill="#0066D8"/>
<path d="M324.51 62.5311C330.94 62.5311 336.152 57.3216 336.152 50.8954C336.152 44.4691 330.94 39.2596 324.51 39.2596C318.081 39.2596 312.869 44.4691 312.869 50.8954C312.869 57.3216 318.081 62.5311 324.51 62.5311Z" fill="#FFB8B8"/>
<path d="M320.241 49.1623C317.249 51.2091 313.321 53.3132 310.265 51.1334C308.258 49.7022 307.626 47.0519 308.44 44.7261C309.903 40.5436 313.923 38.7022 317.768 37.2908C322.766 35.456 328.207 33.9963 333.367 35.3103C338.526 36.6243 343.086 41.6172 342.155 46.8569C341.406 51.0705 337.429 54.5766 337.994 58.8188C338.562 63.0883 343.365 65.3356 347.606 66.0987C351.847 66.8617 356.593 67.1069 359.641 70.1517C363.529 74.0359 362.558 80.9784 358.9 85.0793C355.241 89.1802 349.72 91.0391 344.371 92.3028C337.282 93.9771 329.616 94.857 322.884 92.0783C316.152 89.2996 310.914 81.8196 312.864 74.8056C313.688 71.8429 315.628 69.339 317.503 66.9013C319.379 64.4637 321.278 61.9147 321.993 58.924C322.589 56.4317 322.148 53.5381 320.494 51.6686C320.194 51.3414 320.004 50.9273 319.954 50.4859C319.903 50.0444 319.994 49.5983 320.213 49.2115L320.241 49.1623Z" fill="#2F2E41"/>
</g>
<defs>
<clipPath id="clip0_2420_33307">
<rect width="425" height="219" fill="white"/>
</clipPath>
</defs>
</svg>
