<svg width="317" height="126" viewBox="0 0 317 126" fill="none" xmlns="http://www.w3.org/2000/svg">
<path d="M109.697 41.3303C109.971 40.8546 109.808 40.2467 109.333 39.9723L106.32 38.2329C97.1677 32.9488 85.4649 36.0846 80.1807 45.2366L62.7228 75.4747C59.4632 81.1205 61.3976 88.3399 67.0433 91.5996C72.6894 94.8592 79.9086 92.9248 83.1682 87.279L109.697 41.3303Z" fill="#0066D8"/>
<path d="M16.5619 41.3303C16.2874 40.8546 16.4503 40.2467 16.9258 39.9723L19.9388 38.2329C29.0911 32.9488 40.7941 36.0846 46.0782 45.2366L63.5361 75.4747C66.7957 81.1205 64.8613 88.3399 59.2153 91.5996C53.5695 94.8592 46.35 92.9248 43.0904 87.279L16.5619 41.3303Z" fill="#0066D8"/>
<path d="M72.101 56.8956C75.0503 60.5811 75.6094 65.8431 73.1068 70.1775L63.2876 87.1853C63.1628 87.4011 63.0324 87.6112 62.8967 87.8163C62.7949 87.6578 62.6967 87.4966 62.6015 87.3318L52.7823 70.3243C49.5227 64.6786 51.4571 57.4591 57.1029 54.1995C62.1675 51.2753 68.498 52.5309 72.101 56.8956Z" fill="#004CB2"/>
<path d="M163.928 43.068C164.603 43.068 165.248 43.332 165.864 43.86C166.48 44.3587 166.788 45.048 166.788 45.928C166.788 46.192 166.744 46.4853 166.656 46.808L157.988 72.328C157.812 72.856 157.489 73.2667 157.02 73.56C156.58 73.824 156.111 73.9707 155.612 74C155.113 74 154.615 73.8533 154.116 73.56C153.647 73.2667 153.28 72.8413 153.016 72.284L146.504 57.5L146.9 57.764L140.476 72.284C140.212 72.8413 139.831 73.2667 139.332 73.56C138.863 73.8533 138.379 74 137.88 74C137.411 73.9707 136.941 73.824 136.472 73.56C136.003 73.2667 135.68 72.856 135.504 72.328L126.836 46.808C126.748 46.4853 126.704 46.192 126.704 45.928C126.704 45.048 127.012 44.3587 127.628 43.86C128.273 43.332 128.933 43.068 129.608 43.068C130.165 43.068 130.679 43.2147 131.148 43.508C131.647 43.8013 131.984 44.2267 132.16 44.784L139.156 65.992L138.188 65.948L144.436 50.944C144.671 50.416 145.008 50.0053 145.448 49.712C145.888 49.3893 146.387 49.2427 146.944 49.272C147.501 49.2427 148 49.3893 148.44 49.712C148.88 50.0053 149.203 50.416 149.408 50.944L155.128 65.288L154.424 65.728L161.332 44.784C161.508 44.2267 161.845 43.8013 162.344 43.508C162.843 43.2147 163.371 43.068 163.928 43.068ZM178.171 74.44C175.678 74.44 173.507 73.9267 171.659 72.9C169.841 71.844 168.433 70.4213 167.435 68.632C166.467 66.8427 165.983 64.8187 165.983 62.56C165.983 59.92 166.511 57.676 167.567 55.828C168.653 53.9507 170.061 52.5133 171.791 51.516C173.522 50.5187 175.355 50.02 177.291 50.02C178.787 50.02 180.195 50.328 181.515 50.944C182.865 51.56 184.053 52.4107 185.079 53.496C186.106 54.552 186.913 55.784 187.499 57.192C188.115 58.6 188.423 60.096 188.423 61.68C188.394 62.384 188.115 62.956 187.587 63.396C187.059 63.836 186.443 64.056 185.739 64.056H168.931L167.611 59.656H183.759L182.791 60.536V59.348C182.733 58.4973 182.425 57.7347 181.867 57.06C181.339 56.3853 180.665 55.8573 179.843 55.476C179.051 55.0653 178.201 54.86 177.291 54.86C176.411 54.86 175.59 54.9773 174.827 55.212C174.065 55.4467 173.405 55.8427 172.847 56.4C172.29 56.9573 171.85 57.7053 171.527 58.644C171.205 59.5827 171.043 60.7707 171.043 62.208C171.043 63.792 171.366 65.1413 172.011 66.256C172.686 67.3413 173.537 68.1773 174.563 68.764C175.619 69.3213 176.734 69.6 177.907 69.6C178.993 69.6 179.858 69.512 180.503 69.336C181.149 69.16 181.662 68.9547 182.043 68.72C182.454 68.456 182.821 68.236 183.143 68.06C183.671 67.796 184.17 67.664 184.639 67.664C185.285 67.664 185.813 67.884 186.223 68.324C186.663 68.764 186.883 69.2773 186.883 69.864C186.883 70.656 186.473 71.3747 185.651 72.02C184.889 72.6653 183.818 73.2373 182.439 73.736C181.061 74.2053 179.638 74.44 178.171 74.44ZM203.024 50.02C205.078 50.02 206.911 50.548 208.524 51.604C210.167 52.6307 211.458 54.0533 212.396 55.872C213.364 57.6907 213.848 59.8027 213.848 62.208C213.848 64.6133 213.364 66.74 212.396 68.588C211.458 70.4067 210.182 71.844 208.568 72.9C206.984 73.9267 205.195 74.44 203.2 74.44C202.027 74.44 200.927 74.2493 199.9 73.868C198.874 73.4867 197.964 73.0027 197.172 72.416C196.41 71.8293 195.808 71.2427 195.368 70.656C194.958 70.04 194.752 69.5267 194.752 69.116L196.116 68.544V71.756C196.116 72.5187 195.867 73.164 195.368 73.692C194.87 74.1907 194.239 74.44 193.476 74.44C192.714 74.44 192.083 74.1907 191.584 73.692C191.086 73.1933 190.836 72.548 190.836 71.756V44.124C190.836 43.3613 191.086 42.7307 191.584 42.232C192.083 41.704 192.714 41.44 193.476 41.44C194.239 41.44 194.87 41.704 195.368 42.232C195.867 42.7307 196.116 43.3613 196.116 44.124V55.3L195.368 54.904C195.368 54.5227 195.574 54.068 195.984 53.54C196.395 52.9827 196.952 52.44 197.656 51.912C198.36 51.3547 199.167 50.9 200.076 50.548C201.015 50.196 201.998 50.02 203.024 50.02ZM202.364 54.86C201.074 54.86 199.944 55.1827 198.976 55.828C198.008 56.4733 197.246 57.3533 196.688 58.468C196.16 59.5533 195.896 60.8 195.896 62.208C195.896 63.5867 196.16 64.848 196.688 65.992C197.246 67.1067 198.008 67.9867 198.976 68.632C199.944 69.2773 201.074 69.6 202.364 69.6C203.655 69.6 204.77 69.2773 205.708 68.632C206.676 67.9867 207.424 67.1067 207.952 65.992C208.51 64.848 208.788 63.5867 208.788 62.208C208.788 60.8 208.51 59.5533 207.952 58.468C207.424 57.3533 206.676 56.4733 205.708 55.828C204.77 55.1827 203.655 54.86 202.364 54.86ZM221.985 71.316C221.985 72.0787 221.721 72.724 221.193 73.252C220.695 73.7507 220.064 74 219.301 74C218.568 74 217.952 73.7507 217.453 73.252C216.955 72.724 216.705 72.0787 216.705 71.316V44.124C216.705 43.3613 216.955 42.7307 217.453 42.232C217.981 41.704 218.627 41.44 219.389 41.44C220.152 41.44 220.768 41.704 221.237 42.232C221.736 42.7307 221.985 43.3613 221.985 44.124V71.316ZM230.897 71.316C230.897 72.0787 230.647 72.724 230.149 73.252C229.65 73.7507 229.019 74 228.257 74C227.494 74 226.863 73.7507 226.365 73.252C225.866 72.724 225.617 72.0787 225.617 71.316V53.144C225.617 52.3813 225.866 51.7507 226.365 51.252C226.863 50.724 227.494 50.46 228.257 50.46C229.019 50.46 229.65 50.724 230.149 51.252C230.647 51.7507 230.897 52.3813 230.897 53.144V71.316ZM228.213 47.6C227.215 47.6 226.511 47.4387 226.101 47.116C225.69 46.7933 225.485 46.2213 225.485 45.4V44.564C225.485 43.7133 225.705 43.1413 226.145 42.848C226.614 42.5253 227.318 42.364 228.257 42.364C229.283 42.364 230.002 42.5253 230.413 42.848C230.823 43.1707 231.029 43.7427 231.029 44.564V45.4C231.029 46.2507 230.809 46.8373 230.369 47.16C229.929 47.4533 229.21 47.6 228.213 47.6ZM246.707 50.02C248.878 50.02 250.52 50.4747 251.635 51.384C252.779 52.2933 253.556 53.5107 253.967 55.036C254.407 56.532 254.627 58.204 254.627 60.052V71.316C254.627 72.0787 254.378 72.724 253.879 73.252C253.38 73.7507 252.75 74 251.987 74C251.224 74 250.594 73.7507 250.095 73.252C249.596 72.724 249.347 72.0787 249.347 71.316V60.052C249.347 59.084 249.215 58.2187 248.951 57.456C248.716 56.664 248.276 56.0333 247.631 55.564C246.986 55.0947 246.062 54.86 244.859 54.86C243.686 54.86 242.688 55.0947 241.867 55.564C241.075 56.0333 240.459 56.664 240.019 57.456C239.608 58.2187 239.403 59.084 239.403 60.052V71.316C239.403 72.0787 239.154 72.724 238.655 73.252C238.156 73.7507 237.526 74 236.763 74C236 74 235.37 73.7507 234.871 73.252C234.372 72.724 234.123 72.0787 234.123 71.316V53.144C234.123 52.3813 234.372 51.7507 234.871 51.252C235.37 50.724 236 50.46 236.763 50.46C237.526 50.46 238.156 50.724 238.655 51.252C239.154 51.7507 239.403 52.3813 239.403 53.144V55.036L238.743 54.904C239.007 54.4053 239.388 53.8773 239.887 53.32C240.386 52.7333 240.972 52.1907 241.647 51.692C242.322 51.1933 243.084 50.7973 243.935 50.504C244.786 50.1813 245.71 50.02 246.707 50.02ZM267.902 50.02C269.134 50.02 270.263 50.2107 271.29 50.592C272.317 50.9733 273.197 51.4573 273.93 52.044C274.693 52.6307 275.279 53.232 275.69 53.848C276.13 54.4347 276.35 54.9333 276.35 55.344L275.206 55.916V52.704C275.206 51.9413 275.455 51.3107 275.954 50.812C276.453 50.284 277.083 50.02 277.846 50.02C278.609 50.02 279.239 50.2693 279.738 50.768C280.237 51.2667 280.486 51.912 280.486 52.704V72.284C280.486 74.836 279.929 76.8747 278.814 78.4C277.729 79.9547 276.291 81.0693 274.502 81.744C272.713 82.448 270.791 82.8 268.738 82.8C268.151 82.8 267.389 82.7267 266.45 82.58C265.511 82.4333 264.617 82.2573 263.766 82.052C262.915 81.8467 262.27 81.656 261.83 81.48C260.95 81.0987 260.334 80.6147 259.982 80.028C259.659 79.4707 259.601 78.8693 259.806 78.224C260.07 77.3733 260.495 76.7867 261.082 76.464C261.669 76.1707 262.285 76.1413 262.93 76.376C263.223 76.464 263.707 76.64 264.382 76.904C265.057 77.168 265.79 77.4027 266.582 77.608C267.403 77.8427 268.122 77.96 268.738 77.96C270.938 77.96 272.566 77.52 273.622 76.64C274.678 75.76 275.206 74.5427 275.206 72.988V69.16L275.734 69.556C275.734 69.9373 275.529 70.4067 275.118 70.964C274.737 71.492 274.194 72.02 273.49 72.548C272.815 73.076 272.009 73.5307 271.07 73.912C270.131 74.264 269.134 74.44 268.078 74.44C265.995 74.44 264.118 73.9267 262.446 72.9C260.774 71.844 259.454 70.4067 258.486 68.588C257.518 66.74 257.034 64.628 257.034 62.252C257.034 59.8467 257.518 57.7347 258.486 55.916C259.454 54.068 260.759 52.6307 262.402 51.604C264.045 50.548 265.878 50.02 267.902 50.02ZM268.738 54.86C267.418 54.86 266.259 55.1827 265.262 55.828C264.265 56.4733 263.487 57.3533 262.93 58.468C262.373 59.5827 262.094 60.844 262.094 62.252C262.094 63.6307 262.373 64.8773 262.93 65.992C263.487 67.1067 264.265 67.9867 265.262 68.632C266.259 69.2773 267.418 69.6 268.738 69.6C270.087 69.6 271.261 69.2773 272.258 68.632C273.255 67.9867 274.033 67.1067 274.59 65.992C275.147 64.8773 275.426 63.6307 275.426 62.252C275.426 60.844 275.147 59.5827 274.59 58.468C274.033 57.3533 273.255 56.4733 272.258 55.828C271.261 55.1827 270.087 54.86 268.738 54.86ZM282.199 70.348C281.906 69.9373 281.774 69.4093 281.803 68.764C281.832 68.1187 282.214 67.5613 282.947 67.092C283.416 66.7987 283.915 66.6813 284.443 66.74C284.971 66.7693 285.484 67.0333 285.983 67.532C286.834 68.3827 287.728 69.0427 288.667 69.512C289.606 69.9813 290.779 70.216 292.187 70.216C292.627 70.1867 293.111 70.128 293.639 70.04C294.167 69.9227 294.622 69.688 295.003 69.336C295.414 68.9547 295.619 68.3827 295.619 67.62C295.619 66.9747 295.399 66.4613 294.959 66.08C294.519 65.6987 293.932 65.376 293.199 65.112C292.495 64.848 291.703 64.5987 290.823 64.364C289.914 64.1 288.975 63.8067 288.007 63.484C287.068 63.1613 286.203 62.7507 285.411 62.252C284.619 61.724 283.974 61.0347 283.475 60.184C282.976 59.3333 282.727 58.2627 282.727 56.972C282.727 55.5053 283.138 54.2587 283.959 53.232C284.78 52.2053 285.836 51.4133 287.127 50.856C288.447 50.2987 289.826 50.02 291.263 50.02C292.172 50.02 293.126 50.1373 294.123 50.372C295.12 50.5773 296.074 50.9293 296.983 51.428C297.892 51.8973 298.655 52.528 299.271 53.32C299.594 53.76 299.784 54.288 299.843 54.904C299.902 55.52 299.623 56.0773 299.007 56.576C298.567 56.928 298.054 57.0893 297.467 57.06C296.88 57.0013 296.396 56.796 296.015 56.444C295.516 55.7987 294.842 55.2853 293.991 54.904C293.17 54.5227 292.216 54.332 291.131 54.332C290.691 54.332 290.207 54.3907 289.679 54.508C289.18 54.596 288.74 54.816 288.359 55.168C287.978 55.4907 287.787 56.0187 287.787 56.752C287.787 57.4267 288.007 57.9693 288.447 58.38C288.887 58.7613 289.474 59.084 290.207 59.348C290.97 59.5827 291.776 59.8173 292.627 60.052C293.507 60.2867 294.402 60.5653 295.311 60.888C296.22 61.2107 297.056 61.636 297.819 62.164C298.582 62.692 299.198 63.3813 299.667 64.232C300.136 65.0533 300.371 66.1093 300.371 67.4C300.371 68.896 299.931 70.172 299.051 71.228C298.171 72.284 297.071 73.0907 295.751 73.648C294.431 74.176 293.082 74.44 291.703 74.44C289.972 74.44 288.242 74.1467 286.511 73.56C284.78 72.944 283.343 71.8733 282.199 70.348Z" fill="#0066D8"/>
<path d="M138.006 89.7207C138.006 90.2285 137.879 90.6621 137.625 91.0215C137.375 91.377 137.023 91.6484 136.57 91.8359C136.117 92.0234 135.584 92.1172 134.971 92.1172C134.646 92.1172 134.34 92.1016 134.051 92.0703C133.762 92.0391 133.496 91.9941 133.254 91.9355C133.012 91.877 132.799 91.8047 132.615 91.7188V90.7637C132.908 90.8848 133.266 90.998 133.688 91.1035C134.109 91.2051 134.551 91.2559 135.012 91.2559C135.441 91.2559 135.805 91.1992 136.102 91.0859C136.398 90.9688 136.623 90.8027 136.775 90.5879C136.932 90.3691 137.01 90.1074 137.01 89.8027C137.01 89.5098 136.945 89.2656 136.816 89.0703C136.688 88.8711 136.473 88.6914 136.172 88.5312C135.875 88.3672 135.469 88.1934 134.953 88.0098C134.59 87.8809 134.27 87.7402 133.992 87.5879C133.715 87.4316 133.482 87.2559 133.295 87.0605C133.107 86.8652 132.965 86.6387 132.867 86.3809C132.773 86.123 132.727 85.8281 132.727 85.4961C132.727 85.0391 132.842 84.6484 133.072 84.3242C133.307 83.9961 133.629 83.7461 134.039 83.5742C134.453 83.3984 134.928 83.3105 135.463 83.3105C135.92 83.3105 136.342 83.3535 136.729 83.4395C137.119 83.5254 137.477 83.6406 137.801 83.7852L137.49 84.6406C137.182 84.5117 136.854 84.4043 136.506 84.3184C136.162 84.2324 135.807 84.1895 135.439 84.1895C135.072 84.1895 134.762 84.2441 134.508 84.3535C134.258 84.459 134.066 84.6094 133.934 84.8047C133.801 85 133.734 85.2324 133.734 85.502C133.734 85.8027 133.797 86.0527 133.922 86.252C134.051 86.4512 134.254 86.6289 134.531 86.7852C134.812 86.9375 135.184 87.0977 135.645 87.2656C136.148 87.4492 136.576 87.6445 136.928 87.8516C137.279 88.0547 137.547 88.3047 137.73 88.6016C137.914 88.8945 138.006 89.2676 138.006 89.7207ZM140.384 85.5781V92H139.411V85.5781H140.384ZM139.909 83.1758C140.07 83.1758 140.206 83.2285 140.32 83.334C140.437 83.4355 140.495 83.5957 140.495 83.8145C140.495 84.0293 140.437 84.1895 140.32 84.2949C140.206 84.4004 140.07 84.4531 139.909 84.4531C139.741 84.4531 139.601 84.4004 139.488 84.2949C139.378 84.1895 139.323 84.0293 139.323 83.8145C139.323 83.5957 139.378 83.4355 139.488 83.334C139.601 83.2285 139.741 83.1758 139.909 83.1758ZM149.219 85.4609C149.926 85.4609 150.459 85.6465 150.819 86.0176C151.178 86.3848 151.358 86.9766 151.358 87.793V92H150.397V87.8398C150.397 87.3203 150.284 86.9316 150.057 86.6738C149.834 86.4121 149.502 86.2812 149.061 86.2812C148.44 86.2812 147.989 86.4609 147.707 86.8203C147.426 87.1797 147.286 87.709 147.286 88.4082V92H146.319V87.8398C146.319 87.4922 146.268 87.2031 146.166 86.9727C146.069 86.7422 145.92 86.5703 145.721 86.457C145.526 86.3398 145.278 86.2812 144.977 86.2812C144.551 86.2812 144.209 86.3691 143.952 86.5449C143.694 86.7207 143.506 86.9824 143.389 87.3301C143.276 87.6738 143.219 88.0977 143.219 88.6016V92H142.246V85.5781H143.032L143.178 86.4863H143.231C143.36 86.2637 143.522 86.0762 143.717 85.9238C143.913 85.7715 144.131 85.6562 144.373 85.5781C144.616 85.5 144.873 85.4609 145.147 85.4609C145.635 85.4609 146.043 85.5527 146.371 85.7363C146.704 85.916 146.944 86.1914 147.092 86.5625H147.145C147.356 86.1914 147.645 85.916 148.012 85.7363C148.379 85.5527 148.782 85.4609 149.219 85.4609ZM156.173 85.4609C156.974 85.4609 157.613 85.7363 158.089 86.2871C158.566 86.8379 158.804 87.666 158.804 88.7715C158.804 89.502 158.695 90.1152 158.476 90.6113C158.257 91.1074 157.949 91.4824 157.55 91.7363C157.156 91.9902 156.689 92.1172 156.15 92.1172C155.81 92.1172 155.511 92.0723 155.254 91.9824C154.996 91.8926 154.775 91.7715 154.591 91.6191C154.408 91.4668 154.255 91.3008 154.134 91.1211H154.064C154.076 91.2734 154.089 91.457 154.105 91.6719C154.125 91.8867 154.134 92.0742 154.134 92.2344V94.8711H153.156V85.5781H153.959L154.087 86.5273H154.134C154.259 86.332 154.412 86.1543 154.591 85.9941C154.771 85.8301 154.99 85.7012 155.248 85.6074C155.509 85.5098 155.818 85.4609 156.173 85.4609ZM156.004 86.2812C155.558 86.2812 155.199 86.3672 154.925 86.5391C154.656 86.7109 154.459 86.9688 154.334 87.3125C154.209 87.6523 154.142 88.0801 154.134 88.5957V88.7832C154.134 89.3262 154.193 89.7852 154.31 90.1602C154.431 90.5352 154.629 90.8203 154.902 91.0156C155.179 91.2109 155.55 91.3086 156.015 91.3086C156.414 91.3086 156.746 91.2012 157.011 90.9863C157.277 90.7715 157.474 90.4727 157.603 90.0898C157.736 89.7031 157.802 89.2598 157.802 88.7598C157.802 88.002 157.654 87.4004 157.357 86.9551C157.064 86.5059 156.613 86.2812 156.004 86.2812ZM161.282 92H160.304V82.8828H161.282V92ZM165.611 85.4609C166.158 85.4609 166.627 85.582 167.018 85.8242C167.408 86.0664 167.707 86.4062 167.914 86.8438C168.121 87.2773 168.225 87.7852 168.225 88.3672V88.9707H163.789C163.801 89.7246 163.988 90.2988 164.352 90.6934C164.715 91.0879 165.227 91.2852 165.887 91.2852C166.293 91.2852 166.652 91.248 166.965 91.1738C167.277 91.0996 167.602 90.9902 167.938 90.8457V91.7012C167.613 91.8457 167.291 91.9512 166.971 92.0176C166.654 92.084 166.279 92.1172 165.846 92.1172C165.229 92.1172 164.689 91.9922 164.229 91.7422C163.771 91.4883 163.416 91.1172 163.162 90.6289C162.908 90.1406 162.781 89.543 162.781 88.8359C162.781 88.1445 162.896 87.5469 163.127 87.043C163.361 86.5352 163.689 86.1445 164.111 85.8711C164.537 85.5977 165.037 85.4609 165.611 85.4609ZM165.6 86.2578C165.08 86.2578 164.666 86.4277 164.357 86.7676C164.049 87.1074 163.865 87.582 163.807 88.1914H167.205C167.201 87.8086 167.141 87.4727 167.023 87.1836C166.91 86.8906 166.736 86.6641 166.502 86.5039C166.268 86.3398 165.967 86.2578 165.6 86.2578ZM178.114 92L177.059 89.2812H173.625L172.577 92H171.569L174.92 83.3984H175.817L179.145 92H178.114ZM176.76 88.3965L175.758 85.6953C175.735 85.625 175.696 85.5098 175.641 85.3496C175.59 85.1895 175.537 85.0234 175.483 84.8516C175.428 84.6797 175.383 84.541 175.348 84.4355C175.309 84.5957 175.266 84.7559 175.219 84.916C175.176 85.0723 175.133 85.2188 175.09 85.3555C175.047 85.4883 175.01 85.6016 174.979 85.6953L173.959 88.3965H176.76ZM183.029 85.4609C183.791 85.4609 184.367 85.6484 184.757 86.0234C185.148 86.3945 185.343 86.9922 185.343 87.8164V92H184.382V87.8809C184.382 87.3457 184.259 86.9453 184.013 86.6797C183.771 86.4141 183.398 86.2812 182.894 86.2812C182.183 86.2812 181.683 86.4824 181.394 86.8848C181.105 87.2871 180.961 87.8711 180.961 88.6367V92H179.988V85.5781H180.773L180.92 86.5039H180.972C181.109 86.2773 181.283 86.0879 181.494 85.9355C181.705 85.7793 181.941 85.6621 182.203 85.584C182.464 85.502 182.74 85.4609 183.029 85.4609ZM189.432 92.1172C188.62 92.1172 187.975 91.8398 187.499 91.2852C187.026 90.7305 186.79 89.9062 186.79 88.8125C186.79 87.707 187.032 86.873 187.516 86.3105C188.001 85.7441 188.645 85.4609 189.45 85.4609C189.79 85.4609 190.087 85.5059 190.341 85.5957C190.595 85.6855 190.813 85.8066 190.997 85.959C191.18 86.1074 191.335 86.2773 191.46 86.4688H191.53C191.514 86.3477 191.499 86.1816 191.483 85.9707C191.468 85.7598 191.46 85.5879 191.46 85.4551V82.8828H192.432V92H191.647L191.501 91.0859H191.46C191.339 91.2773 191.184 91.4512 190.997 91.6074C190.813 91.7637 190.593 91.8887 190.335 91.9824C190.081 92.0723 189.78 92.1172 189.432 92.1172ZM189.585 91.3086C190.272 91.3086 190.759 91.1133 191.044 90.7227C191.329 90.332 191.471 89.752 191.471 88.9824V88.8066C191.471 87.9902 191.335 87.3633 191.061 86.9258C190.792 86.4883 190.3 86.2695 189.585 86.2695C188.987 86.2695 188.54 86.5 188.243 86.9609C187.946 87.418 187.798 88.043 187.798 88.8359C187.798 89.625 187.944 90.2344 188.237 90.6641C188.534 91.0938 188.983 91.3086 189.585 91.3086ZM202.732 92L201.677 89.2812H198.243L197.195 92H196.187L199.538 83.3984H200.435L203.763 92H202.732ZM201.378 88.3965L200.376 85.6953C200.353 85.625 200.314 85.5098 200.259 85.3496C200.208 85.1895 200.155 85.0234 200.101 84.8516C200.046 84.6797 200.001 84.541 199.966 84.4355C199.927 84.5957 199.884 84.7559 199.837 84.916C199.794 85.0723 199.751 85.2188 199.708 85.3555C199.665 85.4883 199.628 85.6016 199.597 85.6953L198.577 88.3965H201.378ZM207.465 86.3398H205.866V92H204.893V86.3398H203.756V85.8711L204.893 85.5488V85.1211C204.893 84.582 204.973 84.1445 205.133 83.8086C205.293 83.4688 205.526 83.2188 205.83 83.0586C206.135 82.8984 206.506 82.8184 206.944 82.8184C207.19 82.8184 207.414 82.8398 207.618 82.8828C207.825 82.9258 208.006 82.9746 208.162 83.0293L207.911 83.7969C207.778 83.7539 207.627 83.7148 207.459 83.6797C207.295 83.6406 207.127 83.6211 206.955 83.6211C206.584 83.6211 206.309 83.7422 206.129 83.9844C205.954 84.2227 205.866 84.5977 205.866 85.1094V85.5781H207.465V86.3398ZM211.502 86.3398H209.903V92H208.93V86.3398H207.793V85.8711L208.93 85.5488V85.1211C208.93 84.582 209.01 84.1445 209.17 83.8086C209.33 83.4688 209.563 83.2188 209.868 83.0586C210.172 82.8984 210.543 82.8184 210.981 82.8184C211.227 82.8184 211.452 82.8398 211.655 82.8828C211.862 82.9258 212.043 82.9746 212.2 83.0293L211.948 83.7969C211.815 83.7539 211.664 83.7148 211.496 83.6797C211.332 83.6406 211.164 83.6211 210.993 83.6211C210.621 83.6211 210.346 83.7422 210.166 83.9844C209.991 84.2227 209.903 84.5977 209.903 85.1094V85.5781H211.502V86.3398ZM218.017 88.7773C218.017 89.3047 217.949 89.7754 217.812 90.1895C217.675 90.6035 217.478 90.9531 217.22 91.2383C216.963 91.5234 216.65 91.7422 216.283 91.8945C215.92 92.043 215.507 92.1172 215.046 92.1172C214.617 92.1172 214.222 92.043 213.863 91.8945C213.507 91.7422 213.199 91.5234 212.937 91.2383C212.679 90.9531 212.478 90.6035 212.334 90.1895C212.193 89.7754 212.123 89.3047 212.123 88.7773C212.123 88.0742 212.242 87.4766 212.48 86.9844C212.718 86.4883 213.058 86.1113 213.5 85.8535C213.945 85.5918 214.474 85.4609 215.088 85.4609C215.673 85.4609 216.185 85.5918 216.623 85.8535C217.064 86.1152 217.406 86.4941 217.648 86.9902C217.894 87.4824 218.017 88.0781 218.017 88.7773ZM213.13 88.7773C213.13 89.293 213.199 89.7402 213.336 90.1191C213.472 90.498 213.683 90.791 213.968 90.998C214.254 91.2051 214.621 91.3086 215.07 91.3086C215.515 91.3086 215.88 91.2051 216.166 90.998C216.455 90.791 216.668 90.498 216.804 90.1191C216.941 89.7402 217.009 89.293 217.009 88.7773C217.009 88.2656 216.941 87.8242 216.804 87.4531C216.668 87.0781 216.457 86.7891 216.171 86.5859C215.886 86.3828 215.517 86.2812 215.064 86.2812C214.396 86.2812 213.906 86.502 213.593 86.9434C213.285 87.3848 213.13 87.9961 213.13 88.7773ZM222.417 85.4609C222.546 85.4609 222.68 85.4688 222.821 85.4844C222.962 85.4961 223.087 85.5137 223.196 85.5371L223.073 86.4395C222.968 86.4121 222.85 86.3906 222.721 86.375C222.593 86.3594 222.471 86.3516 222.358 86.3516C222.1 86.3516 221.856 86.4043 221.626 86.5098C221.399 86.6113 221.2 86.7598 221.028 86.9551C220.856 87.1465 220.721 87.3789 220.624 87.6523C220.526 87.9219 220.477 88.2227 220.477 88.5547V92H219.499V85.5781H220.307L220.413 86.7617H220.454C220.587 86.5234 220.747 86.3066 220.934 86.1113C221.122 85.9121 221.339 85.7539 221.585 85.6367C221.835 85.5195 222.112 85.4609 222.417 85.4609ZM226.494 92.1172C225.682 92.1172 225.037 91.8398 224.561 91.2852C224.088 90.7305 223.852 89.9062 223.852 88.8125C223.852 87.707 224.094 86.873 224.578 86.3105C225.062 85.7441 225.707 85.4609 226.512 85.4609C226.852 85.4609 227.148 85.5059 227.402 85.5957C227.656 85.6855 227.875 85.8066 228.059 85.959C228.242 86.1074 228.396 86.2773 228.521 86.4688H228.592C228.576 86.3477 228.561 86.1816 228.545 85.9707C228.529 85.7598 228.521 85.5879 228.521 85.4551V82.8828H229.494V92H228.709L228.562 91.0859H228.521C228.4 91.2773 228.246 91.4512 228.059 91.6074C227.875 91.7637 227.654 91.8887 227.396 91.9824C227.143 92.0723 226.842 92.1172 226.494 92.1172ZM226.646 91.3086C227.334 91.3086 227.82 91.1133 228.105 90.7227C228.391 90.332 228.533 89.752 228.533 88.9824V88.8066C228.533 87.9902 228.396 87.3633 228.123 86.9258C227.854 86.4883 227.361 86.2695 226.646 86.2695C226.049 86.2695 225.602 86.5 225.305 86.9609C225.008 87.418 224.859 88.043 224.859 88.8359C224.859 89.625 225.006 90.2344 225.299 90.6641C225.596 91.0938 226.045 91.3086 226.646 91.3086ZM233.759 85.4727C234.525 85.4727 235.093 85.6445 235.464 85.9883C235.835 86.332 236.021 86.8809 236.021 87.6348V92H235.312L235.124 91.0508H235.077C234.898 91.2852 234.71 91.4824 234.515 91.6426C234.32 91.7988 234.093 91.918 233.835 92C233.581 92.0781 233.269 92.1172 232.898 92.1172C232.507 92.1172 232.159 92.0488 231.855 91.9121C231.554 91.7754 231.316 91.5684 231.14 91.291C230.968 91.0137 230.882 90.6621 230.882 90.2363C230.882 89.5957 231.136 89.1035 231.644 88.7598C232.152 88.416 232.925 88.2285 233.964 88.1973L235.071 88.1504V87.7578C235.071 87.2031 234.952 86.8145 234.714 86.5918C234.476 86.3691 234.14 86.2578 233.706 86.2578C233.37 86.2578 233.05 86.3066 232.745 86.4043C232.441 86.502 232.152 86.6172 231.878 86.75L231.579 86.0117C231.868 85.8633 232.2 85.7363 232.575 85.6309C232.95 85.5254 233.345 85.4727 233.759 85.4727ZM235.06 88.8359L234.081 88.877C233.28 88.9082 232.716 89.0391 232.388 89.2695C232.06 89.5 231.896 89.8262 231.896 90.248C231.896 90.6152 232.007 90.8867 232.23 91.0625C232.452 91.2383 232.747 91.3262 233.114 91.3262C233.685 91.3262 234.152 91.168 234.515 90.8516C234.878 90.5352 235.06 90.0605 235.06 89.4277V88.8359ZM238.797 82.8828V85.1621C238.797 85.4238 238.789 85.6777 238.774 85.9238C238.762 86.1699 238.752 86.3613 238.745 86.498H238.797C238.973 86.209 239.227 85.9648 239.559 85.7656C239.891 85.5664 240.315 85.4668 240.83 85.4668C241.635 85.4668 242.276 85.7461 242.752 86.3047C243.233 86.8594 243.473 87.6855 243.473 88.7832C243.473 89.5059 243.364 90.1152 243.145 90.6113C242.926 91.1074 242.618 91.4824 242.219 91.7363C241.821 91.9902 241.35 92.1172 240.807 92.1172C240.299 92.1172 239.881 92.0234 239.553 91.8359C239.229 91.6445 238.979 91.4121 238.803 91.1387H238.727L238.528 92H237.825V82.8828H238.797ZM240.672 86.2812C240.207 86.2812 239.838 86.373 239.565 86.5566C239.291 86.7363 239.094 87.0098 238.973 87.377C238.856 87.7402 238.797 88.2012 238.797 88.7598V88.8125C238.797 89.6211 238.932 90.2402 239.202 90.6699C239.471 91.0957 239.961 91.3086 240.672 91.3086C241.27 91.3086 241.717 91.0898 242.014 90.6523C242.315 90.2148 242.465 89.5898 242.465 88.7773C242.465 87.9492 242.317 87.3262 242.02 86.9082C241.727 86.4902 241.278 86.2812 240.672 86.2812ZM245.951 92H244.972V82.8828H245.951V92ZM250.28 85.4609C250.827 85.4609 251.296 85.582 251.686 85.8242C252.077 86.0664 252.376 86.4062 252.583 86.8438C252.79 87.2773 252.893 87.7852 252.893 88.3672V88.9707H248.458C248.47 89.7246 248.657 90.2988 249.02 90.6934C249.384 91.0879 249.895 91.2852 250.555 91.2852C250.962 91.2852 251.321 91.248 251.634 91.1738C251.946 91.0996 252.27 90.9902 252.606 90.8457V91.7012C252.282 91.8457 251.96 91.9512 251.639 92.0176C251.323 92.084 250.948 92.1172 250.514 92.1172C249.897 92.1172 249.358 91.9922 248.897 91.7422C248.44 91.4883 248.085 91.1172 247.831 90.6289C247.577 90.1406 247.45 89.543 247.45 88.8359C247.45 88.1445 247.565 87.5469 247.796 87.043C248.03 86.5352 248.358 86.1445 248.78 85.8711C249.206 85.5977 249.706 85.4609 250.28 85.4609ZM250.268 86.2578C249.749 86.2578 249.335 86.4277 249.026 86.7676C248.718 87.1074 248.534 87.582 248.475 88.1914H251.874C251.87 87.8086 251.809 87.4727 251.692 87.1836C251.579 86.8906 251.405 86.6641 251.171 86.5039C250.936 86.3398 250.636 86.2578 250.268 86.2578Z" fill="#6D6D6D"/>
</svg>
