<svg width="182" height="182" viewBox="0 0 182 182" fill="none" xmlns="http://www.w3.org/2000/svg">
<g clip-path="url(#clip0_2269_15244)">
<path d="M7.06215 20.5345C7.38431 19.6639 8.61569 19.6639 8.93785 20.5345L10.0012 23.408C10.1024 23.6818 10.3182 23.8976 10.592 23.9988L13.4655 25.0621C14.3361 25.3843 14.3361 26.6157 13.4655 26.9379L10.592 28.0012C10.3182 28.1024 10.1024 28.3182 10.0012 28.592L8.93785 31.4655C8.61569 32.3361 7.38431 32.3361 7.06215 31.4655L5.99885 28.592C5.89756 28.3182 5.68175 28.1024 5.40803 28.0012L2.5345 26.9379C1.66389 26.6157 1.66389 25.3843 2.53451 25.0621L5.40803 23.9988C5.68175 23.8976 5.89756 23.6818 5.99885 23.408L7.06215 20.5345Z" fill="#95C0FA"/>
<path d="M43.0621 20.5345C43.3843 19.6639 44.6157 19.6639 44.9379 20.5345L46.0012 23.408C46.1024 23.6818 46.3182 23.8976 46.592 23.9988L49.4655 25.0621C50.3361 25.3843 50.3361 26.6157 49.4655 26.9379L46.592 28.0012C46.3182 28.1024 46.1024 28.3182 46.0012 28.592L44.9379 31.4655C44.6157 32.3361 43.3843 32.3361 43.0621 31.4655L41.9988 28.592C41.8976 28.3182 41.6818 28.1024 41.408 28.0012L38.5345 26.9379C37.6639 26.6157 37.6639 25.3843 38.5345 25.0621L41.408 23.9988C41.6818 23.8976 41.8976 23.6818 41.9988 23.408L43.0621 20.5345Z" fill="#95C0FA"/>
<path d="M79.0621 20.5345C79.3843 19.6639 80.6157 19.6639 80.9379 20.5345L82.0012 23.408C82.1024 23.6818 82.3182 23.8976 82.592 23.9988L85.4655 25.0621C86.3361 25.3843 86.3361 26.6157 85.4655 26.9379L82.592 28.0012C82.3182 28.1024 82.1024 28.3182 82.0012 28.592L80.9379 31.4655C80.6157 32.3361 79.3843 32.3361 79.0621 31.4655L77.9988 28.592C77.8976 28.3182 77.6818 28.1024 77.408 28.0012L74.5345 26.9379C73.6639 26.6157 73.6639 25.3843 74.5345 25.0621L77.408 23.9988C77.6818 23.8976 77.8976 23.6818 77.9988 23.408L79.0621 20.5345Z" fill="#95C0FA"/>
<path d="M115.062 20.5345C115.384 19.6639 116.616 19.6639 116.938 20.5345L118.001 23.408C118.102 23.6818 118.318 23.8976 118.592 23.9988L121.465 25.0621C122.336 25.3843 122.336 26.6157 121.465 26.9379L118.592 28.0012C118.318 28.1024 118.102 28.3182 118.001 28.592L116.938 31.4655C116.616 32.3361 115.384 32.3361 115.062 31.4655L113.999 28.592C113.898 28.3182 113.682 28.1024 113.408 28.0012L110.535 26.9379C109.664 26.6157 109.664 25.3843 110.535 25.0621L113.408 23.9988C113.682 23.8976 113.898 23.6818 113.999 23.408L115.062 20.5345Z" fill="#95C0FA"/>
<path d="M151.062 20.5345C151.384 19.6639 152.616 19.6639 152.938 20.5345L154.001 23.408C154.102 23.6818 154.318 23.8976 154.592 23.9988L157.465 25.0621C158.336 25.3843 158.336 26.6157 157.465 26.9379L154.592 28.0012C154.318 28.1024 154.102 28.3182 154.001 28.592L152.938 31.4655C152.616 32.3361 151.384 32.3361 151.062 31.4655L149.999 28.592C149.898 28.3182 149.682 28.1024 149.408 28.0012L146.535 26.9379C145.664 26.6157 145.664 25.3843 146.535 25.0621L149.408 23.9988C149.682 23.8976 149.898 23.6818 149.999 23.408L151.062 20.5345Z" fill="#95C0FA"/>
<path d="M7.06215 56.5345C7.38431 55.6639 8.61569 55.6639 8.93785 56.5345L10.0012 59.408C10.1024 59.6818 10.3182 59.8976 10.592 59.9988L13.4655 61.0621C14.3361 61.3843 14.3361 62.6157 13.4655 62.9379L10.592 64.0012C10.3182 64.1024 10.1024 64.3182 10.0012 64.592L8.93785 67.4655C8.61569 68.3361 7.38431 68.3361 7.06215 67.4655L5.99885 64.592C5.89756 64.3182 5.68175 64.1024 5.40803 64.0012L2.5345 62.9379C1.66389 62.6157 1.66389 61.3843 2.53451 61.0621L5.40803 59.9988C5.68175 59.8976 5.89756 59.6818 5.99885 59.408L7.06215 56.5345Z" fill="#95C0FA"/>
<path d="M43.0621 56.5345C43.3843 55.6639 44.6157 55.6639 44.9379 56.5345L46.0012 59.408C46.1024 59.6818 46.3182 59.8976 46.592 59.9988L49.4655 61.0621C50.3361 61.3843 50.3361 62.6157 49.4655 62.9379L46.592 64.0012C46.3182 64.1024 46.1024 64.3182 46.0012 64.592L44.9379 67.4655C44.6157 68.3361 43.3843 68.3361 43.0621 67.4655L41.9988 64.592C41.8976 64.3182 41.6818 64.1024 41.408 64.0012L38.5345 62.9379C37.6639 62.6157 37.6639 61.3843 38.5345 61.0621L41.408 59.9988C41.6818 59.8976 41.8976 59.6818 41.9988 59.408L43.0621 56.5345Z" fill="#95C0FA"/>
<path d="M79.0621 56.5345C79.3843 55.6639 80.6157 55.6639 80.9379 56.5345L82.0012 59.408C82.1024 59.6818 82.3182 59.8976 82.592 59.9988L85.4655 61.0621C86.3361 61.3843 86.3361 62.6157 85.4655 62.9379L82.592 64.0012C82.3182 64.1024 82.1024 64.3182 82.0012 64.592L80.9379 67.4655C80.6157 68.3361 79.3843 68.3361 79.0621 67.4655L77.9988 64.592C77.8976 64.3182 77.6818 64.1024 77.408 64.0012L74.5345 62.9379C73.6639 62.6157 73.6639 61.3843 74.5345 61.0621L77.408 59.9988C77.6818 59.8976 77.8976 59.6818 77.9988 59.408L79.0621 56.5345Z" fill="#95C0FA"/>
<path d="M115.062 56.5345C115.384 55.6639 116.616 55.6639 116.938 56.5345L118.001 59.408C118.102 59.6818 118.318 59.8976 118.592 59.9988L121.465 61.0621C122.336 61.3843 122.336 62.6157 121.465 62.9379L118.592 64.0012C118.318 64.1024 118.102 64.3182 118.001 64.592L116.938 67.4655C116.616 68.3361 115.384 68.3361 115.062 67.4655L113.999 64.592C113.898 64.3182 113.682 64.1024 113.408 64.0012L110.535 62.9379C109.664 62.6157 109.664 61.3843 110.535 61.0621L113.408 59.9988C113.682 59.8976 113.898 59.6818 113.999 59.408L115.062 56.5345Z" fill="#95C0FA"/>
<path d="M151.062 56.5345C151.384 55.6639 152.616 55.6639 152.938 56.5345L154.001 59.408C154.102 59.6818 154.318 59.8976 154.592 59.9988L157.465 61.0621C158.336 61.3843 158.336 62.6157 157.465 62.9379L154.592 64.0012C154.318 64.1024 154.102 64.3182 154.001 64.592L152.938 67.4655C152.616 68.3361 151.384 68.3361 151.062 67.4655L149.999 64.592C149.898 64.3182 149.682 64.1024 149.408 64.0012L146.535 62.9379C145.664 62.6157 145.664 61.3843 146.535 61.0621L149.408 59.9988C149.682 59.8976 149.898 59.6818 149.999 59.408L151.062 56.5345Z" fill="#95C0FA"/>
<path d="M7.06215 92.5345C7.38431 91.6639 8.61569 91.6639 8.93785 92.5345L10.0012 95.408C10.1024 95.6818 10.3182 95.8976 10.592 95.9988L13.4655 97.0621C14.3361 97.3843 14.3361 98.6157 13.4655 98.9379L10.592 100.001C10.3182 100.102 10.1024 100.318 10.0012 100.592L8.93785 103.465C8.61569 104.336 7.38431 104.336 7.06215 103.465L5.99885 100.592C5.89756 100.318 5.68175 100.102 5.40803 100.001L2.5345 98.9379C1.66389 98.6157 1.66389 97.3843 2.53451 97.0621L5.40803 95.9988C5.68175 95.8976 5.89756 95.6818 5.99885 95.408L7.06215 92.5345Z" fill="#95C0FA"/>
<path d="M43.0621 92.5345C43.3843 91.6639 44.6157 91.6639 44.9379 92.5345L46.0012 95.408C46.1024 95.6818 46.3182 95.8976 46.592 95.9988L49.4655 97.0621C50.3361 97.3843 50.3361 98.6157 49.4655 98.9379L46.592 100.001C46.3182 100.102 46.1024 100.318 46.0012 100.592L44.9379 103.465C44.6157 104.336 43.3843 104.336 43.0621 103.465L41.9988 100.592C41.8976 100.318 41.6818 100.102 41.408 100.001L38.5345 98.9379C37.6639 98.6157 37.6639 97.3843 38.5345 97.0621L41.408 95.9988C41.6818 95.8976 41.8976 95.6818 41.9988 95.408L43.0621 92.5345Z" fill="#95C0FA"/>
<path d="M79.0621 92.5345C79.3843 91.6639 80.6157 91.6639 80.9379 92.5345L82.0012 95.408C82.1024 95.6818 82.3182 95.8976 82.592 95.9988L85.4655 97.0621C86.3361 97.3843 86.3361 98.6157 85.4655 98.9379L82.592 100.001C82.3182 100.102 82.1024 100.318 82.0012 100.592L80.9379 103.465C80.6157 104.336 79.3843 104.336 79.0621 103.465L77.9988 100.592C77.8976 100.318 77.6818 100.102 77.408 100.001L74.5345 98.9379C73.6639 98.6157 73.6639 97.3843 74.5345 97.0621L77.408 95.9988C77.6818 95.8976 77.8976 95.6818 77.9988 95.408L79.0621 92.5345Z" fill="#95C0FA"/>
<path d="M115.062 92.5345C115.384 91.6639 116.616 91.6639 116.938 92.5345L118.001 95.408C118.102 95.6818 118.318 95.8976 118.592 95.9988L121.465 97.0621C122.336 97.3843 122.336 98.6157 121.465 98.9379L118.592 100.001C118.318 100.102 118.102 100.318 118.001 100.592L116.938 103.465C116.616 104.336 115.384 104.336 115.062 103.465L113.999 100.592C113.898 100.318 113.682 100.102 113.408 100.001L110.535 98.9379C109.664 98.6157 109.664 97.3843 110.535 97.0621L113.408 95.9988C113.682 95.8976 113.898 95.6818 113.999 95.408L115.062 92.5345Z" fill="#95C0FA"/>
<path d="M151.062 92.5345C151.384 91.6639 152.616 91.6639 152.938 92.5345L154.001 95.408C154.102 95.6818 154.318 95.8976 154.592 95.9988L157.465 97.0621C158.336 97.3843 158.336 98.6157 157.465 98.9379L154.592 100.001C154.318 100.102 154.102 100.318 154.001 100.592L152.938 103.465C152.616 104.336 151.384 104.336 151.062 103.465L149.999 100.592C149.898 100.318 149.682 100.102 149.408 100.001L146.535 98.9379C145.664 98.6157 145.664 97.3843 146.535 97.0621L149.408 95.9988C149.682 95.8976 149.898 95.6818 149.999 95.408L151.062 92.5345Z" fill="#95C0FA"/>
<path d="M7.06215 128.535C7.38431 127.664 8.61569 127.664 8.93785 128.535L10.0012 131.408C10.1024 131.682 10.3182 131.898 10.592 131.999L13.4655 133.062C14.3361 133.384 14.3361 134.616 13.4655 134.938L10.592 136.001C10.3182 136.102 10.1024 136.318 10.0012 136.592L8.93785 139.465C8.61569 140.336 7.38431 140.336 7.06215 139.465L5.99885 136.592C5.89756 136.318 5.68175 136.102 5.40803 136.001L2.5345 134.938C1.66389 134.616 1.66389 133.384 2.53451 133.062L5.40803 131.999C5.68175 131.898 5.89756 131.682 5.99885 131.408L7.06215 128.535Z" fill="#95C0FA"/>
<path d="M43.0621 128.535C43.3843 127.664 44.6157 127.664 44.9379 128.535L46.0012 131.408C46.1024 131.682 46.3182 131.898 46.592 131.999L49.4655 133.062C50.3361 133.384 50.3361 134.616 49.4655 134.938L46.592 136.001C46.3182 136.102 46.1024 136.318 46.0012 136.592L44.9379 139.465C44.6157 140.336 43.3843 140.336 43.0621 139.465L41.9988 136.592C41.8976 136.318 41.6818 136.102 41.408 136.001L38.5345 134.938C37.6639 134.616 37.6639 133.384 38.5345 133.062L41.408 131.999C41.6818 131.898 41.8976 131.682 41.9988 131.408L43.0621 128.535Z" fill="#95C0FA"/>
<path d="M79.0621 128.535C79.3843 127.664 80.6157 127.664 80.9379 128.535L82.0012 131.408C82.1024 131.682 82.3182 131.898 82.592 131.999L85.4655 133.062C86.3361 133.384 86.3361 134.616 85.4655 134.938L82.592 136.001C82.3182 136.102 82.1024 136.318 82.0012 136.592L80.9379 139.465C80.6157 140.336 79.3843 140.336 79.0621 139.465L77.9988 136.592C77.8976 136.318 77.6818 136.102 77.408 136.001L74.5345 134.938C73.6639 134.616 73.6639 133.384 74.5345 133.062L77.408 131.999C77.6818 131.898 77.8976 131.682 77.9988 131.408L79.0621 128.535Z" fill="#95C0FA"/>
<path d="M115.062 128.535C115.384 127.664 116.616 127.664 116.938 128.535L118.001 131.408C118.102 131.682 118.318 131.898 118.592 131.999L121.465 133.062C122.336 133.384 122.336 134.616 121.465 134.938L118.592 136.001C118.318 136.102 118.102 136.318 118.001 136.592L116.938 139.465C116.616 140.336 115.384 140.336 115.062 139.465L113.999 136.592C113.898 136.318 113.682 136.102 113.408 136.001L110.535 134.938C109.664 134.616 109.664 133.384 110.535 133.062L113.408 131.999C113.682 131.898 113.898 131.682 113.999 131.408L115.062 128.535Z" fill="#95C0FA"/>
<path d="M151.062 128.535C151.384 127.664 152.616 127.664 152.938 128.535L154.001 131.408C154.102 131.682 154.318 131.898 154.592 131.999L157.465 133.062C158.336 133.384 158.336 134.616 157.465 134.938L154.592 136.001C154.318 136.102 154.102 136.318 154.001 136.592L152.938 139.465C152.616 140.336 151.384 140.336 151.062 139.465L149.999 136.592C149.898 136.318 149.682 136.102 149.408 136.001L146.535 134.938C145.664 134.616 145.664 133.384 146.535 133.062L149.408 131.999C149.682 131.898 149.898 131.682 149.999 131.408L151.062 128.535Z" fill="#95C0FA"/>
<path d="M7.06215 164.535C7.38431 163.664 8.61569 163.664 8.93785 164.535L10.0012 167.408C10.1024 167.682 10.3182 167.898 10.592 167.999L13.4655 169.062C14.3361 169.384 14.3361 170.616 13.4655 170.938L10.592 172.001C10.3182 172.102 10.1024 172.318 10.0012 172.592L8.93785 175.465C8.61569 176.336 7.38431 176.336 7.06215 175.465L5.99885 172.592C5.89756 172.318 5.68175 172.102 5.40803 172.001L2.5345 170.938C1.66389 170.616 1.66389 169.384 2.53451 169.062L5.40803 167.999C5.68175 167.898 5.89756 167.682 5.99885 167.408L7.06215 164.535Z" fill="#95C0FA"/>
<path d="M43.0621 164.535C43.3843 163.664 44.6157 163.664 44.9379 164.535L46.0012 167.408C46.1024 167.682 46.3182 167.898 46.592 167.999L49.4655 169.062C50.3361 169.384 50.3361 170.616 49.4655 170.938L46.592 172.001C46.3182 172.102 46.1024 172.318 46.0012 172.592L44.9379 175.465C44.6157 176.336 43.3843 176.336 43.0621 175.465L41.9988 172.592C41.8976 172.318 41.6818 172.102 41.408 172.001L38.5345 170.938C37.6639 170.616 37.6639 169.384 38.5345 169.062L41.408 167.999C41.6818 167.898 41.8976 167.682 41.9988 167.408L43.0621 164.535Z" fill="#95C0FA"/>
<path d="M79.0621 164.535C79.3843 163.664 80.6157 163.664 80.9379 164.535L82.0012 167.408C82.1024 167.682 82.3182 167.898 82.592 167.999L85.4655 169.062C86.3361 169.384 86.3361 170.616 85.4655 170.938L82.592 172.001C82.3182 172.102 82.1024 172.318 82.0012 172.592L80.9379 175.465C80.6157 176.336 79.3843 176.336 79.0621 175.465L77.9988 172.592C77.8976 172.318 77.6818 172.102 77.408 172.001L74.5345 170.938C73.6639 170.616 73.6639 169.384 74.5345 169.062L77.408 167.999C77.6818 167.898 77.8976 167.682 77.9988 167.408L79.0621 164.535Z" fill="#95C0FA"/>
<path d="M115.062 164.535C115.384 163.664 116.616 163.664 116.938 164.535L118.001 167.408C118.102 167.682 118.318 167.898 118.592 167.999L121.465 169.062C122.336 169.384 122.336 170.616 121.465 170.938L118.592 172.001C118.318 172.102 118.102 172.318 118.001 172.592L116.938 175.465C116.616 176.336 115.384 176.336 115.062 175.465L113.999 172.592C113.898 172.318 113.682 172.102 113.408 172.001L110.535 170.938C109.664 170.616 109.664 169.384 110.535 169.062L113.408 167.999C113.682 167.898 113.898 167.682 113.999 167.408L115.062 164.535Z" fill="#95C0FA"/>
<path d="M151.062 164.535C151.384 163.664 152.616 163.664 152.938 164.535L154.001 167.408C154.102 167.682 154.318 167.898 154.592 167.999L157.465 169.062C158.336 169.384 158.336 170.616 157.465 170.938L154.592 172.001C154.318 172.102 154.102 172.318 154.001 172.592L152.938 175.465C152.616 176.336 151.384 176.336 151.062 175.465L149.999 172.592C149.898 172.318 149.682 172.102 149.408 172.001L146.535 170.938C145.664 170.616 145.664 169.384 146.535 169.062L149.408 167.999C149.682 167.898 149.898 167.682 149.999 167.408L151.062 164.535Z" fill="#95C0FA"/>
</g>
<defs>
<clipPath id="clip0_2269_15244">
<rect width="182" height="182" fill="white"/>
</clipPath>
</defs>
</svg>
