<svg width="48" height="48" viewBox="0 0 48 48" fill="none" xmlns="http://www.w3.org/2000/svg">
<path d="M24 37.9999L16.06 42.7599C15.4379 43.1337 14.7258 43.3312 14 43.3312C13.2742 43.3312 12.5621 43.1337 11.94 42.7599L5.94 39.1599C5.34952 38.8052 4.86066 38.3039 4.52077 37.7048C4.18089 37.1056 4.00151 36.4288 4 35.7399V29.2599C4.00151 28.5711 4.18089 27.8943 4.52077 27.2951C4.86066 26.6959 5.34952 26.1947 5.94 25.8399L14 20.9999M24 37.9999V26.9999M24 37.9999L31.94 42.7599C32.5621 43.1337 33.2742 43.3312 34 43.3312C34.7258 43.3312 35.4379 43.1337 36.06 42.7599L42.06 39.1599C42.6505 38.8052 43.1393 38.3039 43.4792 37.7048C43.8191 37.1056 43.9985 36.4288 44 35.7399V29.2599C43.9985 28.5711 43.8191 27.8943 43.4792 27.2951C43.1393 26.6959 42.6505 26.1947 42.06 25.8399L34 20.9999M24 26.9999L14 20.9999M24 26.9999L14 32.9999M24 26.9999L34 20.9999M24 26.9999L34 32.9999M24 26.9999V15.9999M14 20.9999V12.2599C14.0015 11.5711 14.1809 10.8943 14.5208 10.2951C14.8607 9.69594 15.3495 9.1947 15.94 8.83994L21.94 5.23994C22.5621 4.86617 23.2742 4.6687 24 4.6687C24.7258 4.6687 25.4379 4.86617 26.06 5.23994L32.06 8.83994C32.6505 9.1947 33.1393 9.69594 33.4792 10.2951C33.8191 10.8943 33.9985 11.5711 34 12.2599V20.9999M14 32.9999L4.52 27.2999M14 32.9999V43.3399M34 32.9999L43.48 27.2999M34 32.9999V43.3399M24 15.9999L14.52 10.2999M24 15.9999L33.48 10.2999" stroke="#BF392F" stroke-width="2.25882" stroke-linecap="round" stroke-linejoin="round"/>
</svg>
