<svg width="19" height="18" viewBox="0 0 19 18" fill="none" xmlns="http://www.w3.org/2000/svg">
<g id="Frame">
<path id="Vector" d="M9.29277 1.82812C13.2693 1.82812 16.4928 5.05167 16.4928 9.02815C16.4928 12.6219 13.8598 15.6005 10.4178 16.1407V11.1094H12.0954L12.4146 9.02815L10.4178 9.02787V7.67751C10.4178 7.67304 10.4178 7.66865 10.4178 7.66419C10.4178 7.65749 10.418 7.65087 10.4181 7.64417C10.4289 7.08667 10.7142 6.55312 11.5911 6.55312H12.499V4.78125C12.499 4.78125 11.675 4.64034 10.8873 4.64034C9.26829 4.64034 8.2014 5.6063 8.16857 7.3579C8.16806 7.38562 8.16777 7.41348 8.16777 7.44156V9.02787H6.33965V11.1091L8.16777 11.1094V16.1404C4.72571 15.6002 2.09277 12.6219 2.09277 9.02815C2.09277 5.05167 5.31632 1.82812 9.29277 1.82812Z" fill="#3A3A3A"/>
</g>
</svg>
