<svg width="38" height="41" viewBox="0 0 38 41" fill="none" xmlns="http://www.w3.org/2000/svg">
<path id="Vector" d="M14.1661 15.3151L3.37264 18.6255V24.3332L27.7528 30.3072M34.4082 26.8826V9.11269L21.8043 12.9749M18.2007 29.6604C18.0196 30.3849 17.7109 31.063 17.2923 31.656C16.8736 32.2489 16.3533 32.745 15.7609 33.116C15.1685 33.487 14.5157 33.7256 13.8397 33.8182C13.1637 33.9108 12.4778 33.8556 11.8212 33.6558C11.1646 33.4559 10.55 33.1152 10.0127 32.6533C9.47539 32.1914 9.02578 31.6172 8.68955 30.9635C8.35333 30.3098 8.13708 29.5895 8.05315 28.8436C7.96922 28.0977 8.01925 27.3408 8.20039 26.6163M1.64844 1.50244L36.1324 39.5537" stroke="white" stroke-width="2.5863" stroke-linecap="round" stroke-linejoin="round"/>
</svg>
