<svg width="41" height="41" viewBox="0 0 41 41" fill="none" xmlns="http://www.w3.org/2000/svg">
<g id="lucide/shield-check">
<path id="Vector" d="M15.8268 20.5279L19.1696 23.8707L25.8553 17.1851M34.2124 22.1993C34.2124 30.5564 28.3624 34.7349 21.4093 37.1585C21.0452 37.2819 20.6497 37.276 20.2895 37.1418C13.3197 34.735 7.46973 30.5564 7.46973 22.1993V10.4994C7.46973 10.0561 7.64582 9.63099 7.95927 9.31754C8.27272 9.00409 8.69786 8.82799 9.14114 8.82799C12.484 8.82799 16.6625 6.82229 19.5708 4.28174C19.9249 3.97921 20.3753 3.81299 20.8411 3.81299C21.3068 3.81299 21.7572 3.97921 22.1113 4.28174C25.0363 6.839 29.1981 8.82799 32.541 8.82799C32.9843 8.82799 33.4094 9.00409 33.7228 9.31754C34.0363 9.63099 34.2124 10.0561 34.2124 10.4994V22.1993Z" stroke="white" stroke-width="2.50712" stroke-linecap="round" stroke-linejoin="round"/>
</g>
</svg>
