<svg width="41" height="41" viewBox="0 0 41 41" fill="none" xmlns="http://www.w3.org/2000/svg">
<path d="M20.5257 35.5706V12.1708M20.5257 35.5706C20.5257 34.2407 19.9974 32.9654 19.057 32.025C18.1167 31.0846 16.8413 30.5564 15.5114 30.5564H5.48294C5.03965 30.5564 4.61452 30.3803 4.30107 30.0668C3.98762 29.7534 3.81152 29.3282 3.81152 28.8849V7.15652C3.81152 6.71324 3.98762 6.28811 4.30107 5.97465C4.61452 5.6612 5.03965 5.48511 5.48294 5.48511H13.84C15.6132 5.48511 17.3137 6.18949 18.5675 7.44329C19.8213 8.6971 20.5257 10.3976 20.5257 12.1708M20.5257 35.5706C20.5257 34.2407 21.054 32.9654 21.9943 32.025C22.9347 31.0846 24.2101 30.5564 25.5399 30.5564H35.5684C36.0117 30.5564 36.4369 30.3803 36.7503 30.0668C37.0638 29.7534 37.2399 29.3282 37.2399 28.8849V26.7121M20.5257 12.1708C20.5257 10.3976 21.2301 8.6971 22.4839 7.44329C23.7377 6.18949 25.4382 5.48511 27.2114 5.48511H35.5684C36.0117 5.48511 36.4369 5.6612 36.7503 5.97465C37.0638 6.28811 37.2399 6.71324 37.2399 7.15652V10.4994M27.2114 20.5279L30.5542 23.8707L37.2399 17.185" stroke="white" stroke-width="2.50712" stroke-linecap="round" stroke-linejoin="round"/>
</svg>
