<svg width="1279" height="626" viewBox="0 0 1279 626" fill="none" xmlns="http://www.w3.org/2000/svg">
<defs>
    <!-- Filters for the original elements -->
    <filter id="filter0_d_7138_6111" x="607" y="569" width="56" height="56" filterUnits="userSpaceOnUse" color-interpolation-filters="sRGB">
        <feFlood flood-opacity="0" result="BackgroundImageFix"/>
        <feColorMatrix in="SourceAlpha" type="matrix" values="0 0 0 0 0 0 0 0 0 0 0 0 0 0 0 0 0 0 127 0" result="hardAlpha"/>
        <feOffset/>
        <feGaussianBlur stdDeviation="3"/>
        <feColorMatrix type="matrix" values="0 0 0 0 0 0 0 0 0 0 0 0 0 0 0 0 0 0 0.1 0"/>
        <feBlend mode="normal" in2="BackgroundImageFix" result="effect1_dropShadow_7138_6111"/>
        <feBlend mode="normal" in="SourceGraphic" in2="effect1_dropShadow_7138_6111" result="shape"/>
    </filter>
    <filter id="filter1_d_7138_6111" x="356" y="485" width="56" height="56" filterUnits="userSpaceOnUse" color-interpolation-filters="sRGB">
        <feFlood flood-opacity="0" result="BackgroundImageFix"/>
        <feColorMatrix in="SourceAlpha" type="matrix" values="0 0 0 0 0 0 0 0 0 0 0 0 0 0 0 0 0 0 127 0" result="hardAlpha"/>
        <feOffset/>
        <feGaussianBlur stdDeviation="3"/>
        <feColorMatrix type="matrix" values="0 0 0 0 0 0 0 0 0 0 0 0 0 0 0 0 0 0 0.1 0"/>
        <feBlend mode="normal" in2="BackgroundImageFix" result="effect1_dropShadow_7138_6111"/>
        <feBlend mode="normal" in="SourceGraphic" in2="effect1_dropShadow_7138_6111" result="shape"/>
    </filter>
    <filter id="filter2_d_7138_6111" x="158" y="382" width="56" height="56" filterUnits="userSpaceOnUse" color-interpolation-filters="sRGB">
        <feFlood flood-opacity="0" result="BackgroundImageFix"/>
        <feColorMatrix in="SourceAlpha" type="matrix" values="0 0 0 0 0 0 0 0 0 0 0 0 0 0 0 0 0 0 127 0" result="hardAlpha"/>
        <feOffset/>
        <feGaussianBlur stdDeviation="3"/>
        <feColorMatrix type="matrix" values="0 0 0 0 0 0 0 0 0 0 0 0 0 0 0 0 0 0 0.1 0"/>
        <feBlend mode="normal" in2="BackgroundImageFix" result="effect1_dropShadow_7138_6111"/>
        <feBlend mode="normal" in="SourceGraphic" in2="effect1_dropShadow_7138_6111" result="shape"/>
    </filter>
    <filter id="filter3_d_7138_6111" x="72" y="210" width="56" height="56" filterUnits="userSpaceOnUse" color-interpolation-filters="sRGB">
        <feFlood flood-opacity="0" result="BackgroundImageFix"/>
        <feColorMatrix in="SourceAlpha" type="matrix" values="0 0 0 0 0 0 0 0 0 0 0 0 0 0 0 0 0 0 127 0" result="hardAlpha"/>
        <feOffset/>
        <feGaussianBlur stdDeviation="3"/>
        <feColorMatrix type="matrix" values="0 0 0 0 0 0 0 0 0 0 0 0 0 0 0 0 0 0 0.1 0"/>
        <feBlend mode="normal" in2="BackgroundImageFix" result="effect1_dropShadow_7138_6111"/>
        <feBlend mode="normal" in="SourceGraphic" in2="effect1_dropShadow_7138_6111" result="shape"/>
    </filter>
    <filter id="filter4_d_7138_6111" x="845" y="508" width="56" height="56" filterUnits="userSpaceOnUse" color-interpolation-filters="sRGB">
        <feFlood flood-opacity="0" result="BackgroundImageFix"/>
        <feColorMatrix in="SourceAlpha" type="matrix" values="0 0 0 0 0 0 0 0 0 0 0 0 0 0 0 0 0 0 127 0" result="hardAlpha"/>
        <feOffset/>
        <feGaussianBlur stdDeviation="3"/>
        <feColorMatrix type="matrix" values="0 0 0 0 0 0 0 0 0 0 0 0 0 0 0 0 0 0 0.1 0"/>
        <feBlend mode="normal" in2="BackgroundImageFix" result="effect1_dropShadow_7138_6111"/>
        <feBlend mode="normal" in="SourceGraphic" in2="effect1_dropShadow_7138_6111" result="shape"/>
    </filter>
    <filter id="filter5_d_7138_6111" x="1072" y="469" width="56" height="56" filterUnits="userSpaceOnUse" color-interpolation-filters="sRGB">
        <feFlood flood-opacity="0" result="BackgroundImageFix"/>
        <feColorMatrix in="SourceAlpha" type="matrix" values="0 0 0 0 0 0 0 0 0 0 0 0 0 0 0 0 0 0 127 0" result="hardAlpha"/>
        <feOffset/>
        <feGaussianBlur stdDeviation="3"/>
        <feColorMatrix type="matrix" values="0 0 0 0 0 0 0 0 0 0 0 0 0 0 0 0 0 0 0.1 0"/>
        <feBlend mode="normal" in2="BackgroundImageFix" result="effect1_dropShadow_7138_6111"/>
        <feBlend mode="normal" in="SourceGraphic" in2="effect1_dropShadow_7138_6111" result="shape"/>
    </filter>
    <filter id="filter6_d_7138_6111" x="1072" y="263" width="56" height="56" filterUnits="userSpaceOnUse" color-interpolation-filters="sRGB">
        <feFlood flood-opacity="0" result="BackgroundImageFix"/>
        <feColorMatrix in="SourceAlpha" type="matrix" values="0 0 0 0 0 0 0 0 0 0 0 0 0 0 0 0 0 0 127 0" result="hardAlpha"/>
        <feOffset/>
        <feGaussianBlur stdDeviation="3"/>
        <feColorMatrix type="matrix" values="0 0 0 0 0 0 0 0 0 0 0 0 0 0 0 0 0 0 0.1 0"/>
        <feBlend mode="normal" in2="BackgroundImageFix" result="effect1_dropShadow_7138_6111"/>
        <feBlend mode="normal" in="SourceGraphic" in2="effect1_dropShadow_7138_6111" result="shape"/>
    </filter>
    
    <!-- Particle filter for blur effect -->
    <filter id="particleGlow" x="-50%" y="-50%" width="200%" height="200%">
        <feGaussianBlur stdDeviation="3" result="coloredBlur"/>
        <feMerge>
            <feMergeNode in="coloredBlur"/>
            <feMergeNode in="SourceGraphic"/>
        </feMerge>
    </filter>

    <!-- Radial gradient for the particle -->
    <radialGradient id="particleGradient" cx="50%" cy="50%" r="50%">
        <stop offset="0%" style="stop-color:#FF6B6B;stop-opacity:1" />
        <stop offset="70%" style="stop-color:#FF6B6B;stop-opacity:0.6" />
        <stop offset="100%" style="stop-color:#FF6B6B;stop-opacity:0" />
    </radialGradient>

    <clipPath id="clip0_7138_6111">
        <rect width="1279" height="626" fill="white"/>
    </clipPath>
</defs>

<g clip-path="url(#clip0_7138_6111)">
    <rect width="1279" height="626" fill="white"/>
    
    <!-- Main path -->
    <path id="mainPath" d="M72 -0.5V209.883C72 209.883 75.9983 240.122 127.476 238.044C178.954 235.967 186.951 279.133 186.951 279.133C186.951 544.132 173.457 514.123 256.921 514.123C256.921 514.123 512.812 509.506 578.284 514.123C643.756 518.74 633.26 570.447 633.26 638.774C633.26 707.101 633.783 690.564 633.783 603.226C633.783 515.888 778.698 535.36 952.623 535.36C1126.55 535.36 1097.56 561.675 1097.56 353C1097.56 144.325 1238 237.352 1238 160.022C1238 82.6925 1238 0 1238 0H1150L1027.5 -0.5H72Z" stroke="#C1DCF6"/>
    
    <!-- Additional paths -->
    <path d="M1278 360C1092 360 1106 365.5 1099 440" stroke="#C1DCF6"/>
    <path d="M1280 590.347C1063.73 590.347 974 601.03 974 536" stroke="#C1DCF6"/>
    <path d="M0.5 427.5C60.5 427.5 14 515.5 84.5 515.5H219.5" stroke="#C1DCF6"/>
    <path d="M1010 72C1010 72 1010 138.366 1010 217.705C1010 297.044 1098.51 255.628 1099 319" stroke="#C1DCF6"/>
    <path d="M122 238L0 238.5" stroke="#C1DCF6"/>

    <!-- All the circles and icons from original SVG -->
    <g filter="url(#filter0_d_7138_6111)">
        <circle cx="635" cy="597" r="22" fill="white"/>
        <circle cx="635" cy="597" r="21.5" stroke="#E5E5E5"/>
    </g>
    <g filter="url(#filter1_d_7138_6111)">
        <circle cx="384" cy="513" r="22" fill="white"/>
        <circle cx="384" cy="513" r="21.5" stroke="#E5E5E5"/>
    </g>
    <path d="M381.866 515.603L379.533 513.27C379.273 513.01 378.859 513.01 378.599 513.27C378.339 513.53 378.339 513.943 378.599 514.203L381.393 516.997C381.653 517.257 382.073 517.257 382.333 516.997L389.399 509.937C389.659 509.677 389.659 509.263 389.399 509.003C389.139 508.743 388.726 508.743 388.466 509.003L381.866 515.603Z" fill="#A9A9A9"/>
    <g filter="url(#filter2_d_7138_6111)">
        <circle cx="186" cy="410" r="22" fill="white"/>
        <circle cx="186" cy="410" r="21.5" stroke="#E5E5E5"/>
    </g>
    <g filter="url(#filter3_d_7138_6111)">
        <circle cx="100" cy="238" r="22" fill="white"/>
        <circle cx="100" cy="238" r="21.5" stroke="#E5E5E5"/>
    </g>
    <path d="M110 231.612C110 230.512 109.1 229.612 108 229.612H92C90.9 229.612 90 230.512 90 231.612V243.612C90 244.712 90.9 245.612 92 245.612H108C109.1 245.612 110 244.712 110 243.612V231.612ZM108 231.612L100 236.612L92 231.612H108ZM108 243.612H92V233.612L100 238.612L108 233.612V243.612Z" fill="#A9A9A9"/>
    <g filter="url(#filter4_d_7138_6111)">
        <circle cx="873" cy="536" r="22" fill="white"/>
        <circle cx="873" cy="536" r="21.5" stroke="#E5E5E5"/>
    </g>
    <g filter="url(#filter5_d_7138_6111)">
        <circle cx="1100" cy="497" r="22" fill="white"/>
        <circle cx="1100" cy="497" r="21.5" stroke="#E5E5E5"/>
    </g>
    <g filter="url(#filter6_d_7138_6111)">
        <circle cx="1100" cy="291" r="22" fill="white"/>
        <circle cx="1100" cy="291" r="21.5" stroke="#E5E5E5"/>
    </g>
    <path d="M870.866 538.603L868.533 536.27C868.273 536.01 867.859 536.01 867.599 536.27C867.339 536.53 867.339 536.943 867.599 537.203L870.393 539.997C870.653 540.257 871.073 540.257 871.333 539.997L878.399 532.937C878.659 532.677 878.659 532.263 878.399 532.003C378.139 531.743 877.726 531.743 877.466 532.003L870.866 538.603Z" fill="#A9A9A9"/>
    <path d="M1107 283H1106V282C1106 281.448 1105.55 281 1105 281C1104.45 281 1104 281.448 1104 282V283H1096V282C1096 281.448 1095.55 281 1095 281C1094.45 281 1094 281.448 1094 282V283H1093C1091.89 283 1091.01 283.9 1091.01 285L1091 299C1091 300.1 1091.89 301 1093 301H1107C1108.1 301 1109 300.1 1109 299V285C1109 283.9 1108.1 283 1107 283ZM1107 299H1093V289H1107V299ZM1107 287H1093V285H1107V287ZM1097 292C1097 292.552 1096.55 293 1096 293C1095.45 293 1095 292.552 1095 292C1095 291.448 1095.45 291 1096 291C1096.55 291 1097 291.448 1097 292ZM1101 292C1101 292.552 1100.55 293 1100 293C1099.45 293 1099 292.552 1099 292C1099 291.448 1099.45 291 1100 291C1100.55 291 1101 291.448 1101 292ZM1105 292C1105 292.552 1104.55 293 1104 293C1103.45 293 1103 292.552 1103 292C1103 291.448 1103.45 291 1104 291C1104.55 291 1105 291.448 1105 292ZM1097 296C1097 296.552 1096.55 297 1096 297C1095.45 297 1095 296.552 1095 296C1095 295.448 1095.45 295 1096 295C1096.55 295 1097 295.448 1097 296ZM1101 296C1101 296.552 1100.55 297 1100 297C1099.45 297 1099 296.552 1099 296C1099 295.448 1099.45 295 1100 295C1100.55 295 1101 295.448 1101 296ZM1105 296C1105 296.552 1104.55 297 1104 297C1103.45 297 1103 296.552 1103 296C1103 295.448 1103.45 295 1104 295C1104.55 295 1105 295.448 1105 296Z" fill="#A9A9A9"/>
    <path d="M194 402.703V414.703H179.17L178 415.873V402.703H194ZM194 400.703H178C176.9 400.703 176 401.603 176 402.703V418.293C176 419.183 177.08 419.633 177.71 419.003L180 416.703H194C195.1 416.703 196 415.803 196 414.703V402.703C196 401.603 195.1 400.703 194 400.703Z" fill="#A9A9A9"/>
    <path d="M631 588H626V593" stroke="#A9A9A9" stroke-width="2" stroke-linecap="round" stroke-linejoin="round"/>
    <path d="M639 588H644V593" stroke="#A9A9A9" stroke-width="2" stroke-linecap="round" stroke-linejoin="round"/>
    <path d="M626 588L633.536 595.536C634.473 596.473 635 597.745 635 599.07V606" stroke="#A9A9A9" stroke-width="2" stroke-linecap="round" stroke-linejoin="round"/>
    <path d="M641 591.01V591" stroke="#A9A9A9" stroke-width="2" stroke-linecap="round" stroke-linejoin="round"/>
    <path d="M639 593.02V593.01" stroke="#A9A9A9" stroke-width="2" stroke-linecap="round" stroke-linejoin="round"/>
    <path d="M637 595V595.01" stroke="#A9A9A9" stroke-width="2" stroke-linecap="round" stroke-linejoin="round"/>
    <path d="M1100 498V487L1108 491L1100 495M1108.56 495.222C1109.09 496.862 1109.14 498.62 1108.71 500.288C1108.27 501.955 1107.36 503.462 1106.09 504.628C1104.82 505.794 1103.24 506.571 1101.54 506.866C1099.84 507.161 1098.09 506.962 1096.51 506.292C1094.92 505.623 1093.55 504.51 1092.58 503.088C1091.6 501.666 1091.06 499.994 1091.01 498.27C1090.95 496.547 1091.4 494.845 1092.28 493.366C1093.17 491.888 1094.47 490.696 1096.01 489.932M1096 494.997C1095.5 495.664 1095.18 496.445 1095.05 497.271C1094.93 498.096 1095.02 498.939 1095.31 499.722C1095.59 500.505 1096.07 501.204 1096.7 501.755C1097.33 502.306 1098.08 502.691 1098.89 502.876C1099.71 503.06 1100.55 503.038 1101.36 502.812C1102.16 502.586 1102.89 502.162 1103.49 501.58C1104.09 500.997 1104.53 500.274 1104.78 499.478C1105.02 498.681 1105.07 497.834 1104.9 497.017" stroke="#A9A9A9" stroke-width="1.33333" stroke-linecap="round" stroke-linejoin="round"/>

    <!-- ANIMATED PARTICLE -->
  <rect x="-12" y="-8" width="24" height="16" fill="#FF6B6B" stroke="url(#particleGradient)" stroke-width="2" filter="url(#particleGlow)">
        <animateMotion  dur="35s" repeatCount="indefinite" rotate="auto" keyTimes="0;0.1;0.9;1" keySplines="0.4 0 0.6 1;0.4 0 0.6 1;0.4 0 0.6 1">
            <mpath href="#mainPath"/>
        </animateMotion >
    </rect>
</g>
</svg>