<svg width="84" height="84" viewBox="0 0 84 84" fill="none" xmlns="http://www.w3.org/2000/svg">
<g opacity="0.4">
<path d="M38.0209 37.0042C38.883 37.8 40.4304 37.6232 40.9388 36.54C41.403 35.059 39.1704 32.1853 38.6841 30.5053C35.943 24.4927 33.1357 18.5021 30.2399 12.5558C29.3557 10.5221 25.7967 11.6495 26.7472 13.86C30.6599 21.4863 33.9314 29.5106 38.0209 37.0042ZM53.7599 54.8432C52.2125 52.7432 49.1178 54.8211 50.7757 57.0316C52.9862 62.7127 54.7767 68.5263 56.8988 74.2516C57.5841 76.3516 61.2314 75.6221 60.502 73.3232C56.8325 63.1106 55.0641 57.3411 53.7599 54.8432ZM39.8114 51.6821C38.3967 52.4558 38.1314 54.4453 37.2693 55.7274C34.462 61.3421 31.4778 66.8463 28.5157 72.3727C28.0514 73.2348 28.4272 74.2516 29.2672 74.7158C30.063 75.1579 31.2788 75.0474 31.743 74.1632C36.6062 65.1221 39.3251 59.7284 41.7125 54.7327C43.0167 53.2737 41.7788 51.0632 39.8114 51.6821ZM51.903 36.1863C55.6167 27.6537 59.0209 21.619 64.6357 11.119C65.7188 9.17371 62.5135 7.47161 61.4304 9.32845C57.0093 17.7506 52.4335 26.1285 48.8967 34.9485C48.123 36.739 51.1735 37.9769 51.903 36.1863ZM34.5504 43.0611C30.2178 42.1106 25.7083 42.1769 21.2872 41.8232C16.5788 41.5358 11.8483 41.2927 7.13986 40.8727C6.18934 40.7842 5.21671 41.4253 5.15039 42.4421C5.32723 45.559 10.8757 44.299 13.0641 44.8295C19.8504 45.3158 26.703 45.2937 33.4672 46.1116C35.6335 46.8632 36.6946 43.7684 34.5504 43.0611ZM76.9262 42.3095C71.4883 42.4863 66.0504 42.6853 60.6346 43.0611C59.3083 43.2821 57.8051 42.9506 56.6114 43.6137C55.7051 44.299 56.0146 45.7137 56.9872 46.1779C63.663 46.5758 70.5156 45.6695 77.2356 45.6916C79.6451 45.6253 79.1367 42.1548 76.9262 42.3095Z" fill="#00812B"/>
</g>
</svg>
