<svg width="1279" height="626" viewBox="0 0 1279 626" fill="none" xmlns="http://www.w3.org/2000/svg">
<g clip-path="url(#clip0_7189_6303)">
<rect width="1279" height="626" fill="url(#paint0_linear_7189_6303)"/>
<path id="mainPath" d="M72 -0.5V209.883C72 209.883 75.9983 240.122 127.476 238.044C178.954 235.967 186.951 279.133 186.951 279.133C186.951 544.132 173.457 514.123 256.921 514.123C256.921 514.123 512.812 509.506 578.284 514.123C643.756 518.74 633.26 570.447 633.26 638.774C633.26 707.101 633.783 690.564 633.783 603.226C633.783 515.888 778.698 535.36 952.623 535.36C1126.55 535.36 1097.56 561.675 1097.56 353C1097.56 144.325 1238 237.352 1238 160.022C1238 82.6925 1238 0 1238 0" stroke="#90C8FF"/>
<path id='secondPath' d="M1278 360C1092 360 1106 365.5 1099 440" stroke="#90C8FF"/>
<path d="M1280 590.347C1063.73 590.347 974 601.03 974 536" stroke="#90C8FF"/>
<path d="M0.5 427.5C60.5 427.5 14 515.5 84.5 515.5H219.5" stroke="#90C8FF"/>
<path d="M1010 72C1010 72 1010 138.366 1010 217.705C1010 297.044 1098.51 255.628 1099 319" stroke="#90C8FF"/>
<path d="M122 238L0 238.5" stroke="#90C8FF"/>
<g filter="url(#filter0_d_7189_6303)">
<circle cx="635" cy="597" r="22" fill="white"/>
<circle cx="635" cy="597" r="21.5" stroke="#E5E5E5"/>
</g>
<g filter="url(#filter1_d_7189_6303)">
<circle cx="384" cy="513" r="22" fill="white"/>
<circle cx="384" cy="513" r="21.5" stroke="#E5E5E5"/>
</g>
<path d="M377 518.5C375.62 518.5 374.5 517.155 374.5 515.5C374.476 515.166 374.525 514.83 374.642 514.516C374.759 514.202 374.942 513.917 375.18 513.68C375.417 513.443 375.702 513.259 376.016 513.142C376.33 513.025 376.666 512.977 377 513C377.334 512.977 377.67 513.025 377.984 513.142C378.298 513.259 378.583 513.443 378.821 513.68C379.058 513.917 379.241 514.202 379.358 514.516C379.475 514.83 379.524 515.166 379.5 515.5C379.5 517.155 378.38 518.5 377 518.5ZM377 514C376.798 513.978 376.593 514.002 376.401 514.069C376.209 514.137 376.034 514.247 375.89 514.391C375.746 514.535 375.637 514.709 375.569 514.901C375.501 515.093 375.478 515.298 375.5 515.5C375.5 516.605 376.175 517.5 377 517.5C377.825 517.5 378.5 516.605 378.5 515.5C378.522 515.298 378.499 515.093 378.431 514.901C378.364 514.709 378.254 514.535 378.11 514.391C377.966 514.247 377.791 514.137 377.599 514.069C377.407 514.002 377.202 513.978 377 514Z" fill="#A9A9A9"/>
<path d="M373 525H372V520.29C371.996 519.672 372.222 519.075 372.633 518.613C373.043 518.152 373.611 517.858 374.225 517.79L376.945 517.5L377.055 518.5L374.335 518.805C373.966 518.846 373.626 519.022 373.38 519.299C373.133 519.576 372.998 519.935 373 520.305V525Z" fill="#A9A9A9"/>
<path d="M375 520.5H374V525H375V520.5Z" fill="#A9A9A9"/>
<path d="M382 525H381V520.29C381.003 519.92 380.867 519.561 380.621 519.284C380.374 519.007 380.034 518.831 379.665 518.79L376.945 518.5L377.055 517.5L379.775 517.8C380.39 517.868 380.957 518.162 381.368 518.623C381.779 519.085 382.004 519.682 382 520.3V525Z" fill="#A9A9A9"/>
<path d="M380 520.5H379V525H380V520.5Z" fill="#A9A9A9"/>
<path d="M377.5 520H376.5V521H377.5V520Z" fill="#A9A9A9"/>
<path d="M377.5 522H376.5V523H377.5V522Z" fill="#A9A9A9"/>
<path d="M377.5 524H376.5V525H377.5V524Z" fill="#A9A9A9"/>
<path d="M391 518.5C389.62 518.5 388.5 517.155 388.5 515.5C388.476 515.166 388.525 514.83 388.642 514.516C388.759 514.202 388.942 513.917 389.18 513.68C389.417 513.443 389.702 513.259 390.016 513.142C390.33 513.025 390.666 512.977 391 513C391.334 512.977 391.67 513.025 391.984 513.142C392.298 513.259 392.583 513.443 392.821 513.68C393.058 513.917 393.241 514.202 393.358 514.516C393.475 514.83 393.524 515.166 393.5 515.5C393.5 517.155 392.38 518.5 391 518.5ZM391 514C390.798 513.978 390.593 514.002 390.401 514.069C390.209 514.137 390.034 514.247 389.89 514.391C389.746 514.535 389.637 514.709 389.569 514.901C389.501 515.093 389.478 515.298 389.5 515.5C389.5 516.605 390.175 517.5 391 517.5C391.825 517.5 392.5 516.605 392.5 515.5C392.522 515.298 392.499 515.093 392.431 514.901C392.364 514.709 392.254 514.535 392.11 514.391C391.966 514.247 391.791 514.137 391.599 514.069C391.407 514.002 391.202 513.978 391 514Z" fill="#A9A9A9"/>
<path d="M387 525H386V520.29C385.996 519.672 386.222 519.075 386.633 518.613C387.043 518.152 387.611 517.858 388.225 517.79L390.945 517.49L391.055 518.49L388.335 518.795C387.966 518.836 387.626 519.012 387.38 519.289C387.133 519.566 386.998 519.925 387 520.295V525Z" fill="#A9A9A9"/>
<path d="M389 520.5H388V525H389V520.5Z" fill="#A9A9A9"/>
<path d="M396 525H395V520.29C395.003 519.92 394.867 519.561 394.621 519.284C394.374 519.007 394.034 518.831 393.665 518.79L390.945 518.5L391.055 517.5L393.775 517.8C394.39 517.868 394.957 518.162 395.368 518.623C395.779 519.085 396.004 519.682 396 520.3V525Z" fill="#A9A9A9"/>
<path d="M394 520.5H393V525H394V520.5Z" fill="#A9A9A9"/>
<path d="M384 510C383.506 510 383.022 509.854 382.611 509.579C382.2 509.304 381.88 508.914 381.69 508.457C381.501 508 381.452 507.498 381.548 507.013C381.645 506.528 381.883 506.082 382.232 505.733C382.582 505.383 383.027 505.145 383.512 505.048C383.997 504.952 384.5 505.002 384.957 505.191C385.414 505.38 385.804 505.7 386.079 506.112C386.353 506.523 386.5 507.006 386.5 507.5C386.5 508.163 386.237 508.799 385.768 509.268C385.299 509.737 384.663 510 384 510ZM384 506C383.703 506 383.413 506.088 383.167 506.253C382.92 506.418 382.728 506.652 382.614 506.926C382.501 507.2 382.471 507.502 382.529 507.793C382.587 508.084 382.73 508.351 382.939 508.561C383.149 508.771 383.416 508.914 383.707 508.972C383.998 509.029 384.3 509 384.574 508.886C384.848 508.773 385.082 508.58 385.247 508.334C385.412 508.087 385.5 507.797 385.5 507.5C385.5 507.103 385.342 506.721 385.061 506.44C384.779 506.158 384.398 506 384 506Z" fill="#A9A9A9"/>
<path d="M385 514H383C382.886 514.004 382.774 513.968 382.683 513.899C382.592 513.829 382.528 513.731 382.5 513.62L382.105 512.04L380.705 512.88C380.61 512.937 380.498 512.961 380.387 512.948C380.277 512.934 380.174 512.884 380.095 512.805L378.68 511.39C378.602 511.311 378.552 511.209 378.538 511.098C378.524 510.988 378.548 510.876 378.605 510.78L379.445 509.38L377.88 509C377.769 508.973 377.671 508.908 377.602 508.817C377.533 508.726 377.497 508.614 377.5 508.5V506.5C377.497 506.386 377.533 506.274 377.602 506.183C377.671 506.092 377.769 506.028 377.88 506L379.46 505.605L378.62 504.205C378.563 504.11 378.539 503.998 378.553 503.887C378.567 503.777 378.617 503.674 378.695 503.595L380.11 502.18C380.189 502.102 380.292 502.052 380.402 502.038C380.513 502.024 380.625 502.048 380.72 502.105L382.12 502.945L382.5 501.38C382.528 501.269 382.592 501.171 382.683 501.102C382.774 501.033 382.886 500.997 383 501H385C385.114 500.997 385.226 501.033 385.317 501.102C385.408 501.171 385.473 501.269 385.5 501.38L385.895 502.96L387.295 502.12C387.391 502.063 387.503 502.039 387.613 502.053C387.724 502.067 387.826 502.117 387.905 502.195L389.32 503.61C389.399 503.689 389.449 503.792 389.463 503.902C389.476 504.013 389.452 504.125 389.395 504.22L388.555 505.62L390.135 506.015C390.241 506.045 390.334 506.108 390.4 506.196C390.466 506.284 390.501 506.391 390.5 506.5V508.5C390.504 508.614 390.468 508.726 390.399 508.817C390.329 508.908 390.231 508.973 390.12 509L388.54 509.395L389.38 510.795C389.437 510.891 389.461 511.003 389.448 511.113C389.434 511.224 389.384 511.326 389.305 511.405L387.89 512.82C387.811 512.899 387.709 512.949 387.598 512.963C387.488 512.976 387.376 512.952 387.28 512.895L385.88 512.055L385.5 513.62C385.473 513.731 385.408 513.829 385.317 513.899C385.226 513.968 385.114 514.004 385 514ZM383.39 513H384.61L385.075 511.145C385.094 511.069 385.13 510.997 385.181 510.937C385.233 510.877 385.297 510.83 385.37 510.8C385.442 510.771 385.52 510.759 385.597 510.765C385.674 510.771 385.749 510.795 385.815 510.835L387.46 511.835L388.32 510.975L387.32 509.33C387.28 509.264 387.256 509.189 387.25 509.112C387.244 509.035 387.256 508.957 387.285 508.885C387.315 508.812 387.362 508.748 387.422 508.696C387.482 508.645 387.554 508.609 387.63 508.59L389.5 508.11V506.89L387.645 506.425C387.569 506.407 387.497 506.37 387.437 506.319C387.377 506.268 387.33 506.203 387.3 506.13C387.271 506.058 387.259 505.981 387.265 505.904C387.271 505.826 387.295 505.752 387.335 505.685L388.335 504.04L387.46 503.18L385.815 504.18C385.749 504.22 385.674 504.244 385.597 504.25C385.52 504.256 385.442 504.244 385.37 504.215C385.297 504.185 385.233 504.138 385.181 504.078C385.13 504.018 385.094 503.947 385.075 503.87L384.61 502H383.39L382.925 503.855C382.907 503.932 382.87 504.003 382.819 504.063C382.768 504.123 382.703 504.17 382.63 504.2C382.558 504.229 382.481 504.241 382.404 504.235C382.326 504.229 382.252 504.205 382.185 504.165L380.54 503.165L379.68 504.04L380.68 505.685C380.72 505.752 380.744 505.826 380.75 505.904C380.756 505.981 380.744 506.058 380.715 506.13C380.685 506.203 380.638 506.268 380.578 506.319C380.518 506.37 380.447 506.407 380.37 506.425L378.5 506.89V508.11L380.355 508.575C380.432 508.594 380.503 508.63 380.563 508.681C380.623 508.733 380.67 508.797 380.7 508.87C380.729 508.942 380.741 509.02 380.735 509.097C380.729 509.174 380.705 509.249 380.665 509.315L379.665 510.96L380.525 511.82L382.17 510.82C382.237 510.78 382.311 510.756 382.389 510.75C382.466 510.744 382.543 510.756 382.615 510.785C382.688 510.815 382.753 510.862 382.804 510.922C382.855 510.982 382.892 511.054 382.91 511.13L383.39 513Z" fill="#A9A9A9"/>
<g filter="url(#filter2_d_7189_6303)">
<circle cx="186" cy="410" r="22" fill="white"/>
<circle cx="186" cy="410" r="21.5" stroke="#E5E5E5"/>
</g>
<g filter="url(#filter3_d_7189_6303)">
<circle cx="100" cy="238" r="22" fill="white"/>
<circle cx="100" cy="238" r="21.5" stroke="#E5E5E5"/>
</g>
<path d="M110 231.612C110 230.512 109.1 229.612 108 229.612H92C90.9 229.612 90 230.512 90 231.612V243.612C90 244.712 90.9 245.612 92 245.612H108C109.1 245.612 110 244.712 110 243.612V231.612ZM108 231.612L100 236.612L92 231.612H108ZM108 243.612H92V233.612L100 238.612L108 233.612V243.612Z" fill="#A9A9A9"/>
<g filter="url(#filter4_d_7189_6303)">
<circle cx="873" cy="536" r="22" fill="white"/>
<circle cx="873" cy="536" r="21.5" stroke="#E5E5E5"/>
</g>
<g filter="url(#filter5_d_7189_6303)">
<circle cx="1100" cy="497" r="22" fill="white"/>
<circle cx="1100" cy="497" r="21.5" stroke="#E5E5E5"/>
</g>
<g filter="url(#filter6_d_7189_6303)">
<circle cx="1100" cy="291" r="22" fill="white"/>
<circle cx="1100" cy="291" r="21.5" stroke="#E5E5E5"/>
</g>
<path d="M870.866 538.603L868.533 536.27C868.273 536.01 867.859 536.01 867.599 536.27C867.339 536.53 867.339 536.943 867.599 537.203L870.393 539.997C870.653 540.257 871.073 540.257 871.333 539.997L878.399 532.937C878.659 532.677 878.659 532.263 878.399 532.003C878.139 531.743 877.726 531.743 877.466 532.003L870.866 538.603Z" fill="#A9A9A9"/>
<path d="M1107 283H1106V282C1106 281.448 1105.55 281 1105 281C1104.45 281 1104 281.448 1104 282V283H1096V282C1096 281.448 1095.55 281 1095 281C1094.45 281 1094 281.448 1094 282V283H1093C1091.89 283 1091.01 283.9 1091.01 285L1091 299C1091 300.1 1091.89 301 1093 301H1107C1108.1 301 1109 300.1 1109 299V285C1109 283.9 1108.1 283 1107 283ZM1107 299H1093V289H1107V299ZM1107 287H1093V285H1107V287ZM1097 292C1097 292.552 1096.55 293 1096 293C1095.45 293 1095 292.552 1095 292C1095 291.448 1095.45 291 1096 291C1096.55 291 1097 291.448 1097 292ZM1101 292C1101 292.552 1100.55 293 1100 293C1099.45 293 1099 292.552 1099 292C1099 291.448 1099.45 291 1100 291C1100.55 291 1101 291.448 1101 292ZM1105 292C1105 292.552 1104.55 293 1104 293C1103.45 293 1103 292.552 1103 292C1103 291.448 1103.45 291 1104 291C1104.55 291 1105 291.448 1105 292ZM1097 296C1097 296.552 1096.55 297 1096 297C1095.45 297 1095 296.552 1095 296C1095 295.448 1095.45 295 1096 295C1096.55 295 1097 295.448 1097 296ZM1101 296C1101 296.552 1100.55 297 1100 297C1099.45 297 1099 296.552 1099 296C1099 295.448 1099.45 295 1100 295C1100.55 295 1101 295.448 1101 296ZM1105 296C1105 296.552 1104.55 297 1104 297C1103.45 297 1103 296.552 1103 296C1103 295.448 1103.45 295 1104 295C1104.55 295 1105 295.448 1105 296Z" fill="#A9A9A9"/>
<path d="M194 402.703V414.703H179.17L178 415.873V402.703H194ZM194 400.703H178C176.9 400.703 176 401.603 176 402.703V418.293C176 419.183 177.08 419.633 177.71 419.003L180 416.703H194C195.1 416.703 196 415.803 196 414.703V402.703C196 401.603 195.1 400.703 194 400.703Z" fill="#A9A9A9"/>
<path d="M631 588H626V593" stroke="#A9A9A9" stroke-width="2" stroke-linecap="round" stroke-linejoin="round"/>
<path d="M639 588H644V593" stroke="#A9A9A9" stroke-width="2" stroke-linecap="round" stroke-linejoin="round"/>
<path d="M626 588L633.536 595.536C634.473 596.473 635 597.745 635 599.07V606" stroke="#A9A9A9" stroke-width="2" stroke-linecap="round" stroke-linejoin="round"/>
<path d="M641 591.01V591" stroke="#A9A9A9" stroke-width="2" stroke-linecap="round" stroke-linejoin="round"/>
<path d="M639 593.02V593.01" stroke="#A9A9A9" stroke-width="2" stroke-linecap="round" stroke-linejoin="round"/>
<path d="M637 595V595.01" stroke="#A9A9A9" stroke-width="2" stroke-linecap="round" stroke-linejoin="round"/>
<path d="M1100 498V487L1108 491L1100 495M1108.56 495.222C1109.09 496.862 1109.14 498.62 1108.71 500.288C1108.27 501.955 1107.36 503.462 1106.09 504.628C1104.82 505.794 1103.24 506.571 1101.54 506.866C1099.84 507.161 1098.09 506.962 1096.51 506.292C1094.92 505.623 1093.55 504.51 1092.58 503.088C1091.6 501.666 1091.06 499.994 1091.01 498.27C1090.95 496.547 1091.4 494.845 1092.28 493.366C1093.17 491.888 1094.47 490.696 1096.01 489.932M1096 494.997C1095.5 495.664 1095.18 496.445 1095.05 497.271C1094.93 498.096 1095.02 498.939 1095.31 499.722C1095.59 500.505 1096.07 501.204 1096.7 501.755C1097.33 502.306 1098.08 502.691 1098.89 502.876C1099.71 503.06 1100.55 503.038 1101.36 502.812C1102.16 502.586 1102.89 502.162 1103.49 501.58C1104.09 500.997 1104.53 500.274 1104.78 499.478C1105.02 498.681 1105.07 497.834 1104.9 497.017" stroke="#A9A9A9" stroke-width="1.33333" stroke-linecap="round" stroke-linejoin="round"/>
<rect x="-10" y="-6" width="20" height="12" fill="#FF6B6B" opacity="0.9">
  <animateMotion dur="25s" repeatCount="indefinite" rotate="auto">
    <mpath href="#mainPath"/>
  </animateMotion>
</rect>

<rect x="-10" y="-6" width="20" height="12" fill="#FFD93D" opacity="0.9">
  <animateMotion dur="30s" begin="5s" repeatCount="indefinite" rotate="auto">
    <mpath href="#mainPath"/>
  </animateMotion>
</rect>

<rect x="-10" y="-6" width="20" height="12" fill="#6BCB77" opacity="0.9">
  <animateMotion dur="30s" begin="10s" repeatCount="indefinite" rotate="auto">
    <mpath href="#mainPath"/>
  </animateMotion>
</rect>
</g>
<defs>
<filter id="filter0_d_7189_6303" x="607" y="569" width="56" height="56" filterUnits="userSpaceOnUse" color-interpolation-filters="sRGB">
<feFlood flood-opacity="0" result="BackgroundImageFix"/>
<feColorMatrix in="SourceAlpha" type="matrix" values="0 0 0 0 0 0 0 0 0 0 0 0 0 0 0 0 0 0 127 0" result="hardAlpha"/>
<feOffset/>
<feGaussianBlur stdDeviation="3"/>
<feColorMatrix type="matrix" values="0 0 0 0 0 0 0 0 0 0 0 0 0 0 0 0 0 0 0.1 0"/>
<feBlend mode="normal" in2="BackgroundImageFix" result="effect1_dropShadow_7189_6303"/>
<feBlend mode="normal" in="SourceGraphic" in2="effect1_dropShadow_7189_6303" result="shape"/>
</filter>
<filter id="filter1_d_7189_6303" x="356" y="485" width="56" height="56" filterUnits="userSpaceOnUse" color-interpolation-filters="sRGB">
<feFlood flood-opacity="0" result="BackgroundImageFix"/>
<feColorMatrix in="SourceAlpha" type="matrix" values="0 0 0 0 0 0 0 0 0 0 0 0 0 0 0 0 0 0 127 0" result="hardAlpha"/>
<feOffset/>
<feGaussianBlur stdDeviation="3"/>
<feColorMatrix type="matrix" values="0 0 0 0 0 0 0 0 0 0 0 0 0 0 0 0 0 0 0.1 0"/>
<feBlend mode="normal" in2="BackgroundImageFix" result="effect1_dropShadow_7189_6303"/>
<feBlend mode="normal" in="SourceGraphic" in2="effect1_dropShadow_7189_6303" result="shape"/>
</filter>
<filter id="filter2_d_7189_6303" x="158" y="382" width="56" height="56" filterUnits="userSpaceOnUse" color-interpolation-filters="sRGB">
<feFlood flood-opacity="0" result="BackgroundImageFix"/>
<feColorMatrix in="SourceAlpha" type="matrix" values="0 0 0 0 0 0 0 0 0 0 0 0 0 0 0 0 0 0 127 0" result="hardAlpha"/>
<feOffset/>
<feGaussianBlur stdDeviation="3"/>
<feColorMatrix type="matrix" values="0 0 0 0 0 0 0 0 0 0 0 0 0 0 0 0 0 0 0.1 0"/>
<feBlend mode="normal" in2="BackgroundImageFix" result="effect1_dropShadow_7189_6303"/>
<feBlend mode="normal" in="SourceGraphic" in2="effect1_dropShadow_7189_6303" result="shape"/>
</filter>
<filter id="filter3_d_7189_6303" x="72" y="210" width="56" height="56" filterUnits="userSpaceOnUse" color-interpolation-filters="sRGB">
<feFlood flood-opacity="0" result="BackgroundImageFix"/>
<feColorMatrix in="SourceAlpha" type="matrix" values="0 0 0 0 0 0 0 0 0 0 0 0 0 0 0 0 0 0 127 0" result="hardAlpha"/>
<feOffset/>
<feGaussianBlur stdDeviation="3"/>
<feColorMatrix type="matrix" values="0 0 0 0 0 0 0 0 0 0 0 0 0 0 0 0 0 0 0.1 0"/>
<feBlend mode="normal" in2="BackgroundImageFix" result="effect1_dropShadow_7189_6303"/>
<feBlend mode="normal" in="SourceGraphic" in2="effect1_dropShadow_7189_6303" result="shape"/>
</filter>
<filter id="filter4_d_7189_6303" x="845" y="508" width="56" height="56" filterUnits="userSpaceOnUse" color-interpolation-filters="sRGB">
<feFlood flood-opacity="0" result="BackgroundImageFix"/>
<feColorMatrix in="SourceAlpha" type="matrix" values="0 0 0 0 0 0 0 0 0 0 0 0 0 0 0 0 0 0 127 0" result="hardAlpha"/>
<feOffset/>
<feGaussianBlur stdDeviation="3"/>
<feColorMatrix type="matrix" values="0 0 0 0 0 0 0 0 0 0 0 0 0 0 0 0 0 0 0.1 0"/>
<feBlend mode="normal" in2="BackgroundImageFix" result="effect1_dropShadow_7189_6303"/>
<feBlend mode="normal" in="SourceGraphic" in2="effect1_dropShadow_7189_6303" result="shape"/>
</filter>
<filter id="filter5_d_7189_6303" x="1072" y="469" width="56" height="56" filterUnits="userSpaceOnUse" color-interpolation-filters="sRGB">
<feFlood flood-opacity="0" result="BackgroundImageFix"/>
<feColorMatrix in="SourceAlpha" type="matrix" values="0 0 0 0 0 0 0 0 0 0 0 0 0 0 0 0 0 0 127 0" result="hardAlpha"/>
<feOffset/>
<feGaussianBlur stdDeviation="3"/>
<feColorMatrix type="matrix" values="0 0 0 0 0 0 0 0 0 0 0 0 0 0 0 0 0 0 0.1 0"/>
<feBlend mode="normal" in2="BackgroundImageFix" result="effect1_dropShadow_7189_6303"/>
<feBlend mode="normal" in="SourceGraphic" in2="effect1_dropShadow_7189_6303" result="shape"/>
</filter>
<filter id="filter6_d_7189_6303" x="1072" y="263" width="56" height="56" filterUnits="userSpaceOnUse" color-interpolation-filters="sRGB">
<feFlood flood-opacity="0" result="BackgroundImageFix"/>
<feColorMatrix in="SourceAlpha" type="matrix" values="0 0 0 0 0 0 0 0 0 0 0 0 0 0 0 0 0 0 127 0" result="hardAlpha"/>
<feOffset/>
<feGaussianBlur stdDeviation="3"/>
<feColorMatrix type="matrix" values="0 0 0 0 0 0 0 0 0 0 0 0 0 0 0 0 0 0 0.1 0"/>
<feBlend mode="normal" in2="BackgroundImageFix" result="effect1_dropShadow_7189_6303"/>
<feBlend mode="normal" in="SourceGraphic" in2="effect1_dropShadow_7189_6303" result="shape"/>
</filter>
<linearGradient id="paint0_linear_7189_6303" x1="639.5" y1="0" x2="639.5" y2="626" gradientUnits="userSpaceOnUse">
<stop stop-color="#CFDEF9"/>
<stop offset="1" stop-color="white"/>
</linearGradient>
<clipPath id="clip0_7189_6303">
<rect width="1279" height="626" fill="white"/>
</clipPath>
</defs>
</svg>

