<svg width="41" height="40" viewBox="0 0 41 40" fill="none" xmlns="http://www.w3.org/2000/svg">
<path d="M33.1008 6.94533C28.7008 3.94533 23.2675 5.34533 20.3342 8.77866C17.4008 5.34533 11.9675 3.92866 7.56751 6.94533C5.23418 8.54533 3.76751 11.2453 3.66751 14.0953C3.43418 20.562 9.16751 25.7453 17.9175 33.6953L18.0842 33.8453C19.3508 34.9953 21.3008 34.9953 22.5675 33.8287L22.7508 33.662C31.5008 25.7287 37.2175 20.5453 37.0008 14.0787C36.9008 11.2453 35.4342 8.54533 33.1008 6.94533ZM20.5008 31.212L20.3342 31.3787L20.1675 31.212C12.2342 24.0287 7.00084 19.2787 7.00084 14.462C7.00084 11.1287 9.50084 8.62866 12.8342 8.62866C15.4008 8.62866 17.9008 10.2787 18.7842 12.562H21.9008C22.7675 10.2787 25.2675 8.62866 27.8342 8.62866C31.1675 8.62866 33.6675 11.1287 33.6675 14.462C33.6675 19.2787 28.4342 24.0287 20.5008 31.212Z" fill="#595959"/>
</svg>
