<svg width="40" height="40" viewBox="0 0 40 40" fill="none" xmlns="http://www.w3.org/2000/svg">
<path d="M15.0002 35C15.0002 35.9167 15.7502 36.6667 16.6668 36.6667H23.3335C24.2502 36.6667 25.0002 35.9167 25.0002 35V33.3333H15.0002V35ZM20.0002 3.33333C13.5668 3.33333 8.3335 8.56666 8.3335 15C8.3335 18.9667 10.3168 22.45 13.3335 24.5667V28.3333C13.3335 29.25 14.0835 30 15.0002 30H25.0002C25.9168 30 26.6668 29.25 26.6668 28.3333V24.5667C29.6835 22.45 31.6668 18.9667 31.6668 15C31.6668 8.56666 26.4335 3.33333 20.0002 3.33333ZM24.7502 21.8333L23.3335 22.8333V26.6667H16.6668V22.8333L15.2502 21.8333C13.0002 20.2667 11.6668 17.7167 11.6668 15C11.6668 10.4 15.4002 6.66666 20.0002 6.66666C24.6002 6.66666 28.3335 10.4 28.3335 15C28.3335 17.7167 27.0002 20.2667 24.7502 21.8333Z" fill="#595959"/>
</svg>
