<svg width="19" height="18" viewBox="0 0 19 18" fill="none" xmlns="http://www.w3.org/2000/svg">
<g id="Frame">
<path id="Vector" d="M6.79239 9C6.79239 7.61933 7.91132 6.4998 9.29199 6.4998C10.6727 6.4998 11.7922 7.61933 11.7922 9C11.7922 10.3807 10.6727 11.5002 9.29199 11.5002C7.91132 11.5002 6.79239 10.3807 6.79239 9ZM5.44083 9C5.44083 11.127 7.16499 12.8512 9.29199 12.8512C11.419 12.8512 13.1432 11.127 13.1432 9C13.1432 6.873 11.419 5.14884 9.29199 5.14884C7.16499 5.14884 5.44083 6.873 5.44083 9ZM12.3956 4.99614C12.3956 5.17414 12.4483 5.34817 12.5471 5.49622C12.6459 5.64426 12.7865 5.75967 12.9509 5.82785C13.1153 5.89604 13.2962 5.91394 13.4708 5.87928C13.6454 5.84462 13.8059 5.75897 13.9317 5.63315C14.0576 5.50733 14.1434 5.34701 14.1782 5.17244C14.213 4.99787 14.1953 4.8169 14.1272 4.65241C14.0592 4.48794 13.9439 4.34733 13.7959 4.24838C13.648 4.14943 13.474 4.09658 13.2959 4.0965C13.0573 4.09661 12.8282 4.19142 12.6595 4.3601C12.4907 4.52878 12.3958 4.75754 12.3956 4.99614ZM6.26199 15.1048C5.53077 15.0715 5.13333 14.9497 4.86921 14.8468C4.51905 14.7105 4.26921 14.5481 4.00653 14.2859C3.74385 14.0235 3.58125 13.7739 3.44553 13.4237C3.34257 13.1597 3.22077 12.7621 3.18753 12.031C3.15117 11.2404 3.14391 11.0029 3.14391 9.00008C3.14391 6.9972 3.15177 6.76038 3.18753 5.96916C3.22083 5.23794 3.34353 4.84116 3.44553 4.57638C3.58185 4.22622 3.74421 3.97638 4.00653 3.7137C4.26885 3.45102 4.51845 3.28842 4.86921 3.1527C5.13321 3.04974 5.53077 2.92794 6.26199 2.8947C7.05255 2.85834 7.29003 2.85108 9.29199 2.85108C11.294 2.85108 11.5316 2.85894 12.3229 2.8947C13.0541 2.928 13.4509 3.0507 13.7156 3.1527C14.0658 3.28842 14.3156 3.45138 14.5784 3.7137C14.841 3.97602 15.003 4.22622 15.1394 4.57638C15.2423 4.84038 15.3641 5.23794 15.3974 5.96916C15.4337 6.76038 15.4409 6.9972 15.4409 9.00008C15.4409 11.0029 15.4337 11.2397 15.3974 12.031C15.3641 12.7621 15.2417 13.1596 15.1394 13.4237C15.003 13.7739 14.8406 14.0237 14.5784 14.2859C14.316 14.5479 14.0658 14.7105 13.7156 14.8468C13.4516 14.9497 13.0541 15.0715 12.3229 15.1048C11.5323 15.1411 11.2949 15.1484 9.29199 15.1484C7.28913 15.1484 7.05231 15.1411 6.26199 15.1048ZM6.19989 1.54542C5.40147 1.58178 4.85589 1.70838 4.37943 1.89378C3.88599 2.08524 3.46827 2.3421 3.05085 2.75886C2.63343 3.17562 2.37723 3.594 2.18577 4.08744C2.00037 4.5642 1.87377 5.10948 1.83741 5.9079C1.80045 6.70758 1.79199 6.96324 1.79199 9C1.79199 11.0368 1.80045 11.2925 1.83741 12.0921C1.87377 12.8906 2.00037 13.4358 2.18577 13.9126C2.37723 14.4057 2.63349 14.8246 3.05085 15.2411C3.46821 15.6578 3.88599 15.9143 4.37943 16.1063C4.85679 16.2916 5.40147 16.4183 6.19989 16.4545C6.99999 16.4909 7.25523 16.5 9.29199 16.5C11.3288 16.5 11.5844 16.4915 12.3841 16.4545C13.1825 16.4183 13.7278 16.2916 14.2046 16.1063C14.6977 15.9143 15.1157 15.6579 15.5331 15.2411C15.9506 14.8244 16.2062 14.4057 16.3982 13.9126C16.5836 13.4358 16.7108 12.8906 16.7465 12.0921C16.7829 11.2919 16.7914 11.0368 16.7914 9C16.7914 6.96324 16.7829 6.70758 16.7465 5.9079C16.7102 5.10942 16.5836 4.5639 16.3982 4.08744C16.2062 3.5943 15.9499 3.17628 15.5331 2.75886C15.1163 2.34144 14.6977 2.08524 14.2052 1.89378C13.7278 1.70838 13.1825 1.58118 12.3847 1.54542C11.585 1.50906 11.3294 1.5 9.29259 1.5C7.25583 1.5 6.99999 1.50846 6.19989 1.54542Z" fill="#3A3A3A"/>
<path id="Vector_2" d="M6.79239 9C6.79239 7.61933 7.91132 6.4998 9.29199 6.4998C10.6727 6.4998 11.7922 7.61933 11.7922 9C11.7922 10.3807 10.6727 11.5002 9.29199 11.5002C7.91132 11.5002 6.79239 10.3807 6.79239 9ZM5.44083 9C5.44083 11.127 7.16499 12.8512 9.29199 12.8512C11.419 12.8512 13.1432 11.127 13.1432 9C13.1432 6.873 11.419 5.14884 9.29199 5.14884C7.16499 5.14884 5.44083 6.873 5.44083 9ZM12.3956 4.99614C12.3956 5.17414 12.4483 5.34817 12.5471 5.49622C12.6459 5.64426 12.7865 5.75967 12.9509 5.82785C13.1153 5.89604 13.2962 5.91394 13.4708 5.87928C13.6454 5.84462 13.8059 5.75897 13.9317 5.63315C14.0576 5.50733 14.1434 5.34701 14.1782 5.17244C14.213 4.99787 14.1953 4.8169 14.1272 4.65241C14.0592 4.48794 13.9439 4.34733 13.7959 4.24838C13.648 4.14943 13.474 4.09658 13.2959 4.0965C13.0573 4.09661 12.8282 4.19142 12.6595 4.3601C12.4907 4.52878 12.3958 4.75754 12.3956 4.99614ZM6.26199 15.1048C5.53077 15.0715 5.13333 14.9497 4.86921 14.8468C4.51905 14.7105 4.26921 14.5481 4.00653 14.2859C3.74385 14.0235 3.58125 13.7739 3.44553 13.4237C3.34257 13.1597 3.22077 12.7621 3.18753 12.031C3.15117 11.2404 3.14391 11.0029 3.14391 9.00008C3.14391 6.9972 3.15177 6.76038 3.18753 5.96916C3.22083 5.23794 3.34353 4.84116 3.44553 4.57638C3.58185 4.22622 3.74421 3.97638 4.00653 3.7137C4.26885 3.45102 4.51845 3.28842 4.86921 3.1527C5.13321 3.04974 5.53077 2.92794 6.26199 2.8947C7.05255 2.85834 7.29003 2.85108 9.29199 2.85108C11.294 2.85108 11.5316 2.85894 12.3229 2.8947C13.0541 2.928 13.4509 3.0507 13.7156 3.1527C14.0658 3.28842 14.3156 3.45138 14.5784 3.7137C14.841 3.97602 15.003 4.22622 15.1394 4.57638C15.2423 4.84038 15.3641 5.23794 15.3974 5.96916C15.4337 6.76038 15.4409 6.9972 15.4409 9.00008C15.4409 11.0029 15.4337 11.2397 15.3974 12.031C15.3641 12.7621 15.2417 13.1596 15.1394 13.4237C15.003 13.7739 14.8406 14.0237 14.5784 14.2859C14.316 14.5479 14.0658 14.7105 13.7156 14.8468C13.4516 14.9497 13.0541 15.0715 12.3229 15.1048C11.5323 15.1411 11.2949 15.1484 9.29199 15.1484C7.28913 15.1484 7.05231 15.1411 6.26199 15.1048ZM6.19989 1.54542C5.40147 1.58178 4.85589 1.70838 4.37943 1.89378C3.88599 2.08524 3.46827 2.3421 3.05085 2.75886C2.63343 3.17562 2.37723 3.594 2.18577 4.08744C2.00037 4.5642 1.87377 5.10948 1.83741 5.9079C1.80045 6.70758 1.79199 6.96324 1.79199 9C1.79199 11.0368 1.80045 11.2925 1.83741 12.0921C1.87377 12.8906 2.00037 13.4358 2.18577 13.9126C2.37723 14.4057 2.63349 14.8246 3.05085 15.2411C3.46821 15.6578 3.88599 15.9143 4.37943 16.1063C4.85679 16.2916 5.40147 16.4183 6.19989 16.4545C6.99999 16.4909 7.25523 16.5 9.29199 16.5C11.3288 16.5 11.5844 16.4915 12.3841 16.4545C13.1825 16.4183 13.7278 16.2916 14.2046 16.1063C14.6977 15.9143 15.1157 15.6579 15.5331 15.2411C15.9506 14.8244 16.2062 14.4057 16.3982 13.9126C16.5836 13.4358 16.7108 12.8906 16.7465 12.0921C16.7829 11.2919 16.7914 11.0368 16.7914 9C16.7914 6.96324 16.7829 6.70758 16.7465 5.9079C16.7102 5.10942 16.5836 4.5639 16.3982 4.08744C16.2062 3.5943 15.9499 3.17628 15.5331 2.75886C15.1163 2.34144 14.6977 2.08524 14.2052 1.89378C13.7278 1.70838 13.1825 1.58118 12.3847 1.54542C11.585 1.50906 11.3294 1.5 9.29259 1.5C7.25583 1.5 6.99999 1.50846 6.19989 1.54542Z" fill="#3A3A3A"/>
</g>
</svg>
