<svg width="50" height="52" viewBox="0 0 50 52" fill="none" xmlns="http://www.w3.org/2000/svg">
<path d="M49.2172 28.1123C44.2136 27.623 38.6358 28.4328 34.2391 25.3625C29.6457 21.5838 27.6606 15.1903 27.4802 9.30288C27.3817 6.60377 27.8411 3.92154 27.9231 1.2393C27.4637 -0.903111 24.642 -0.0259027 24.9537 2.03216C23.9366 12.4743 22.3125 25.4638 10.3858 28.0954C8.90932 28.399 4.41426 27.7749 2.24876 27.5218C1.39568 27.4206 -0.0479896 27.6399 0.00122637 28.7702C0.034037 29.5799 0.969141 30.086 2.10111 30.2547C3.23308 30.4234 5.95636 30.6764 8.05624 30.9801C10.1561 31.2837 13.4044 32.7176 15.9144 33.9659C20.9508 36.1927 24.1499 42.7212 24.035 48.4399C24.1663 49.6376 23.3296 51.4595 24.8881 51.9319C27.0044 52.4548 26.8239 49.84 27.2669 48.4568C27.759 46.618 28.2676 44.7961 28.8254 42.9911C30.2362 37.2049 34.8133 32.8357 40.3747 31.3512C43.9839 30.3728 47.8392 30.8114 48.8563 30.6427C50.1523 30.4908 50.4476 28.5846 49.2172 28.1123ZM25.9709 42.6537C24.642 38.352 21.361 33.6117 17.5057 31.7054C16.1933 30.9969 14.8152 30.4234 13.4208 29.8667C20.0813 27.6062 23.8218 22.7478 25.5115 16.0675C27.0864 22.073 30.8432 28.1966 37.0773 29.6642C31.5651 31.9079 27.4145 36.7494 25.9709 42.6537Z" fill="#FFBF00"/>
</svg>
