<svg width="19" height="18" viewBox="0 0 19 18" fill="none" xmlns="http://www.w3.org/2000/svg">
<g id="Frame">
<path id="Vector" d="M15.0716 2.25H3.55308C3.00873 2.25 2.57324 2.68549 2.57324 3.22984V14.7701C2.57324 15.2927 3.00873 15.75 3.55308 15.75H15.0281C15.5725 15.75 16.0079 15.3146 16.0079 14.7701V3.20807C16.0515 2.68549 15.616 2.25 15.0716 2.25ZM6.55793 13.725H4.57648V7.30161H6.55793V13.725ZM5.55631 6.40887C4.90309 6.40887 4.40227 5.88629 4.40227 5.25484C4.40227 4.62339 4.92487 4.10081 5.55631 4.10081C6.18777 4.10081 6.71035 4.62339 6.71035 5.25484C6.71035 5.88629 6.23131 6.40887 5.55631 6.40887ZM14.07 13.725H12.0886V10.6113C12.0886 9.87098 12.0668 8.8911 11.0434 8.8911C9.99825 8.8911 9.84585 9.71858 9.84585 10.546V13.725H7.86435V7.30161H9.80227V8.19435H9.82402C10.1071 7.67175 10.7386 7.14919 11.7184 7.14919C13.7435 7.14919 14.1136 8.45565 14.1136 10.2411V13.725H14.07Z" fill="#3A3A3A"/>
</g>
</svg>
