<svg width="13" height="15" viewBox="0 0 13 15" fill="none" xmlns="http://www.w3.org/2000/svg">
<g id="Vector">
<path d="M11.7087 6.33333C11.7087 9.662 8.01599 13.1287 6.77599 14.1993C6.66048 14.2862 6.51986 14.3332 6.37533 14.3332C6.23079 14.3332 6.09018 14.2862 5.97466 14.1993C4.73466 13.1287 1.04199 9.662 1.04199 6.33333C1.04199 4.91885 1.6039 3.56229 2.60409 2.5621C3.60428 1.5619 4.96084 1 6.37533 1C7.78981 1 9.14637 1.5619 10.1466 2.5621C11.1468 3.56229 11.7087 4.91885 11.7087 6.33333Z" stroke="#3C69D7" stroke-width="1.33333" stroke-linecap="round" stroke-linejoin="round"/>
<path d="M6.37533 8.33333C7.4799 8.33333 8.37533 7.4379 8.37533 6.33333C8.37533 5.22876 7.4799 4.33333 6.37533 4.33333C5.27076 4.33333 4.37533 5.22876 4.37533 6.33333C4.37533 7.4379 5.27076 8.33333 6.37533 8.33333Z" stroke="#3C69D7" stroke-width="1.33333" stroke-linecap="round" stroke-linejoin="round"/>
</g>
</svg>
