<svg width="41" height="40" viewBox="0 0 41 40" fill="none" xmlns="http://www.w3.org/2000/svg">
<path d="M20.6663 22.5C18.833 22.5 17.333 24 17.333 25.8333C17.333 27.6667 18.833 29.1667 20.6663 29.1667C22.4997 29.1667 23.9997 27.6667 23.9997 25.8333C23.9997 24 22.4997 22.5 20.6663 22.5ZM30.6663 14.1667H28.9997V10.8333C28.9997 6.23333 25.2663 2.5 20.6663 2.5C16.8663 2.5 13.5497 5.06667 12.5997 8.75C12.3663 9.65 12.8997 10.55 13.7997 10.7833C14.683 11.0167 15.5997 10.4833 15.833 9.58333C16.3997 7.38333 18.383 5.83333 20.6663 5.83333C23.4163 5.83333 25.6663 8.08333 25.6663 10.8333V14.1667H10.6663C8.83301 14.1667 7.33301 15.6667 7.33301 17.5V34.1667C7.33301 36 8.83301 37.5 10.6663 37.5H30.6663C32.4997 37.5 33.9997 36 33.9997 34.1667V17.5C33.9997 15.6667 32.4997 14.1667 30.6663 14.1667ZM30.6663 32.5C30.6663 33.4167 29.9163 34.1667 28.9997 34.1667H12.333C11.4163 34.1667 10.6663 33.4167 10.6663 32.5V19.1667C10.6663 18.25 11.4163 17.5 12.333 17.5H28.9997C29.9163 17.5 30.6663 18.25 30.6663 19.1667V32.5Z" fill="#595959"/>
</svg>
