<svg width="185" height="121" viewBox="0 0 185 121" fill="none" xmlns="http://www.w3.org/2000/svg">
<g id="undraw_newsletter_re_wrob 1" clip-path="url(#clip0_2481_6030)">
<path id="Vector" d="M184.5 56.8396C184.5 61.6138 182.706 66.2122 179.477 69.7155C176.248 73.2189 171.821 75.369 167.081 75.736C166.921 75.7482 166.759 75.7603 166.597 75.7676V57.7799C166.598 57.6001 166.558 57.4226 166.481 57.2603C166.404 57.098 166.291 56.9551 166.152 56.842C166.136 56.8254 166.118 56.8107 166.099 56.7983C166.081 56.7839 166.063 56.7709 166.043 56.7594C165.873 56.6495 165.679 56.5842 165.477 56.5693C165.276 56.5544 165.073 56.5906 164.889 56.6743L164.688 56.2321C164.908 56.1317 165.146 56.0795 165.388 56.079L151.607 44.1561C151.714 44.0346 151.825 43.9155 151.936 43.7965C154.534 41.046 157.894 39.1412 161.581 38.3282C165.268 37.5152 169.113 37.8313 172.619 39.2357C176.125 40.64 179.131 43.0682 181.249 46.2063C183.367 49.3445 184.5 53.0484 184.5 56.8396Z" fill="#F2F2F2"/>
<path id="Vector_2" d="M5.2847 69.7627C5.21617 69.411 5.22524 69.0485 5.31128 68.7008C5.39731 68.3531 5.55821 68.0285 5.78265 67.75C6.00709 67.4714 6.28961 67.2457 6.6103 67.0887C6.931 66.9317 7.28207 66.8472 7.63879 66.8412L18.5164 53.8362L21.2321 57.3234L10.1462 69.4268C10.1165 70.0293 9.86783 70.6 9.4472 71.0306C9.02657 71.4613 8.46327 71.722 7.86402 71.7634C7.26478 71.8048 6.67123 71.624 6.19585 71.2553C5.72046 70.8865 5.39626 70.3554 5.2847 69.7627Z" fill="#FFB8B8"/>
<path id="Vector_3" d="M56.9388 53.7558C56.8627 53.8664 56.7953 53.9828 56.7374 54.104L44.8601 55.8092L43.0565 53.5095L39.2451 55.7896L42.8278 61.3997L57.3134 57.1111C57.6957 57.4586 58.1742 57.681 58.6854 57.7488C59.1966 57.8165 59.7162 57.7263 60.1751 57.4902C60.6341 57.2541 61.0105 56.8833 61.2545 56.4271C61.4985 55.9709 61.5984 55.4509 61.5409 54.9362C61.4835 54.4216 61.2714 53.9367 60.9328 53.5461C60.5943 53.1555 60.1454 52.8776 59.6458 52.7495C59.1462 52.6213 58.6197 52.649 58.1361 52.8287C57.6525 53.0085 57.2349 53.3318 56.9388 53.7558Z" fill="#FFB8B8"/>
<path id="Vector_4" d="M36.6504 97.2079L38.7523 99.3097L47.8246 92.168L44.7226 89.0659L36.6504 97.2079Z" fill="#FFB8B8"/>
<path id="Vector_5" d="M40.8623 105.323L34.2567 98.7174L36.7979 96.1542L40.8514 100.208C41.1865 100.543 41.4527 100.941 41.6346 101.38C41.8165 101.818 41.9107 102.288 41.9117 102.763C41.9127 103.238 41.8206 103.709 41.6405 104.148C41.4605 104.587 41.196 104.987 40.8623 105.323Z" fill="#2F2E41"/>
<path id="Vector_6" d="M25.478 117.368H28.4441L29.855 105.878H25.4775L25.478 117.368Z" fill="#FFB8B8"/>
<path id="Vector_7" d="M34.1641 120.134L24.8424 120.134L24.8422 116.517L30.5623 116.517C31.0353 116.517 31.5036 116.61 31.9406 116.792C32.3776 116.974 32.7746 117.24 33.1091 117.576C33.4435 117.912 33.7088 118.311 33.8899 118.75C34.0709 119.188 34.164 119.659 34.1641 120.134Z" fill="#2F2E41"/>
<path id="Vector_8" d="M24.8338 108.494L21.4554 83.47C20.9267 79.6883 21.0908 75.8414 21.9396 72.1189C22.6328 69.1274 23.5694 67.0552 24.7234 65.9602C24.9055 65.7886 25.1386 65.6817 25.387 65.6558L36.5415 64.4888C36.7564 64.4668 36.9731 64.5065 37.1663 64.6035C37.3595 64.7005 37.5212 64.8506 37.6326 65.0365L37.9993 65.6502C38.0438 65.7247 38.0797 65.804 38.1063 65.8867L40.4647 73.2295C40.4999 73.3405 40.5567 73.4433 40.6318 73.532C40.7069 73.6207 40.7988 73.6935 40.9022 73.7462C44.6153 75.6501 56.6768 82.0773 55.9865 84.8503C55.338 87.4558 49.2659 91.6804 47.4204 92.913C47.2324 93.0392 47.0111 93.1058 46.785 93.104C46.5589 93.1023 46.3386 93.0324 46.1526 92.9033L43.089 90.7982C42.9395 90.6954 42.8166 90.5582 42.7306 90.3979C42.6447 90.2376 42.5982 90.059 42.595 89.877C42.5919 89.695 42.6321 89.5149 42.7124 89.3518C42.7928 89.1886 42.9108 89.0471 43.0567 88.9391L45.1693 87.3757C45.2986 87.2799 45.3995 87.1506 45.4611 87.0017C45.5226 86.8527 45.5426 86.6896 45.5188 86.5301C45.495 86.3706 45.4283 86.2206 45.326 86.0963C45.2236 85.972 45.0894 85.878 44.9379 85.8246L33.5918 81.8262C33.4644 81.7813 33.3284 81.7663 33.1943 81.7824C33.0603 81.7986 32.9317 81.8453 32.8185 81.9192C32.7052 81.993 32.6104 82.092 32.5412 82.2084C32.4719 82.3249 32.4302 82.4557 32.4193 82.5908L30.3272 108.271C30.3042 108.546 30.1826 108.804 29.985 108.996C29.7874 109.188 29.5271 109.302 29.2524 109.316L26.0155 109.479C25.9958 109.48 25.9763 109.481 25.9568 109.481C25.682 109.482 25.4164 109.382 25.2096 109.2C25.0029 109.018 24.8692 108.767 24.8338 108.494Z" fill="#2F2E41"/>
<path id="Vector_9" d="M29.9489 43.7708C33.2306 43.7708 35.8909 41.0989 35.8909 37.803C35.8909 34.5071 33.2306 31.8352 29.9489 31.8352C26.6672 31.8352 24.0068 34.5071 24.0068 37.803C24.0068 41.0989 26.6672 43.7708 29.9489 43.7708Z" fill="#FFB8B8"/>
<path id="Vector_10" d="M24.3915 64.9381L20.0176 48.91L20.0925 48.8593C20.1864 48.7957 29.614 42.5435 40.6517 47.5819L40.8518 47.6972L38.2601 64.3333C38.2035 64.7129 38.0169 65.0609 37.7323 65.3171C37.4476 65.5733 37.0829 65.7218 36.701 65.7369L26.0361 66.1489C26.0146 66.1496 25.9932 66.1501 25.9718 66.1501C25.6123 66.1509 25.2626 66.0326 24.9768 65.8135C24.6911 65.5943 24.4853 65.2866 24.3915 64.9381Z" fill="#CCCCCC"/>
<path id="Vector_11" d="M19.8506 59.3444L16.2078 55.1372C16.0324 54.935 15.9336 54.6772 15.9289 54.409C15.9242 54.1409 16.0138 53.8797 16.1821 53.6715L19.9902 48.9468L22.9135 49.7475L24.4634 55.1956L21.6375 59.2502C21.5389 59.3924 21.4092 59.5101 21.2582 59.5942C21.1073 59.6782 20.9392 59.7264 20.7668 59.7349C20.7464 59.7359 20.7262 59.7364 20.7059 59.7364C20.5437 59.7367 20.3832 59.7019 20.2356 59.6342C20.088 59.5666 19.9567 59.4677 19.8506 59.3444Z" fill="#CCCCCC"/>
<path id="Vector_12" d="M39.9954 58.4681C39.823 58.4595 39.6549 58.4113 39.504 58.3273C39.353 58.2433 39.2233 58.1256 39.1247 57.9833L36.2988 53.9287L37.6581 48.1938L40.3496 47.4565L40.8519 47.6972L44.5801 52.4046C44.7484 52.6129 44.838 52.8741 44.8333 53.1422C44.8286 53.4103 44.7298 53.6682 44.5544 53.8703L40.9116 58.0776C40.8055 58.2009 40.6742 58.2997 40.5266 58.3674C40.379 58.435 40.2186 58.4699 40.0563 58.4696C40.0361 58.4695 40.0157 58.469 39.9954 58.4681Z" fill="#CCCCCC"/>
<path id="Vector_13" d="M166.597 56.5892C166.6 56.6497 166.579 56.7088 166.539 56.7545C166.497 56.8034 166.438 56.8337 166.374 56.8388C166.31 56.8438 166.247 56.8231 166.198 56.7812L165.388 56.079L151.607 44.156L112.957 10.71C112.736 10.5204 112.456 10.4164 112.165 10.4169C111.875 10.4173 111.595 10.5222 111.375 10.7124L59.326 56.1276L58.8567 56.5358C58.8386 56.5518 58.8182 56.5649 58.7962 56.5746C58.7574 56.5919 58.7149 56.5986 58.6727 56.5941C58.6123 56.5876 58.5564 56.5591 58.5155 56.5139C58.4945 56.49 58.4784 56.4622 58.4681 56.432C58.4578 56.4018 58.4535 56.3699 58.4556 56.3381C58.4576 56.3062 58.4658 56.2751 58.4799 56.2465C58.4939 56.2179 58.5134 56.1923 58.5372 56.1713L58.6026 56.113L111.058 10.3455C111.366 10.0796 111.759 9.93302 112.165 9.93213C112.571 9.93124 112.964 10.0761 113.274 10.3406L151.936 43.7964L166.513 56.4119C166.538 56.434 166.559 56.4612 166.573 56.4917C166.588 56.5222 166.596 56.5554 166.597 56.5892Z" fill="#3F3D56"/>
<path id="Vector_14" d="M137.21 63.7645L136.574 62.0054L134.382 55.9309L129.66 42.8513L124.381 28.2313L114.861 1.86082C114.674 1.34657 114.292 0.927679 113.798 0.695875C113.304 0.46407 112.739 0.438246 112.226 0.624056L57.185 20.6674C56.6728 20.8549 56.2556 21.2388 56.0248 21.7348C55.7939 22.2308 55.7684 22.7985 55.9536 23.3134L69.4508 60.6981L69.6806 61.3372L83.848 67.7858L87.8301 69.5984L88.4761 69.8924L105.336 77.5681L105.989 77.33L117.048 73.3039L133.729 67.2294L135.977 66.4106C136.489 66.2232 136.906 65.8395 137.138 65.3436C137.369 64.8476 137.395 64.2798 137.21 63.7645Z" fill="#E6E6E6"/>
<path id="Vector_15" d="M114.131 32.6243C113.856 31.8674 113.294 31.2508 112.567 30.9097C111.841 30.5685 111.009 30.5306 110.255 30.8043L88.4764 38.7376L77.9598 42.5669C77.5861 42.7026 77.2427 42.9109 76.9492 43.1799C76.6558 43.4489 76.418 43.7734 76.2494 44.1347C76.0809 44.4961 75.9849 44.8873 75.9669 45.2859C75.949 45.6846 76.0095 46.0829 76.1449 46.458C76.2804 46.8332 76.4881 47.1779 76.7562 47.4724C77.0244 47.7669 77.3477 48.0054 77.7076 48.1743C78.0676 48.3432 78.4572 48.4392 78.8542 48.4568C79.2511 48.4745 79.6476 48.4133 80.021 48.2769L88.4764 45.1984L112.319 36.5168C113.072 36.241 113.686 35.6764 114.026 34.9467C114.365 34.217 114.403 33.3818 114.131 32.6243Z" fill="white"/>
<path id="Vector_16" d="M117.965 43.2473C117.691 42.4904 117.128 41.8739 116.402 41.5327C115.675 41.1915 114.844 41.1537 114.089 41.4274L110.4 42.771L88.4763 50.7553L81.7944 53.1875C81.0408 53.4626 80.4268 54.0269 80.0873 54.7563C79.7478 55.4858 79.7106 56.3208 79.9837 57.0779C80.2569 57.8349 80.8182 58.4521 81.5442 58.7938C82.2702 59.1354 83.1015 59.1736 83.8556 58.9L88.4763 57.2161L116.153 47.1374C116.216 47.1155 116.276 47.0888 116.337 47.062C117.04 46.7524 117.599 46.186 117.901 45.4776C118.203 44.7692 118.226 43.9719 117.965 43.2473Z" fill="white"/>
<path id="Vector_17" d="M121.84 53.9821C121.566 53.2254 121.004 52.6088 120.278 52.2676C119.552 51.9264 118.721 51.8885 117.967 52.1622L107.619 55.9308L99.609 58.849L88.4754 62.9019L85.6691 63.9248C85.0206 64.1621 84.4721 64.6146 84.1144 65.2076C83.7567 65.8005 83.6113 66.4983 83.7022 67.1856C83.7299 67.3901 83.7786 67.5912 83.8474 67.7857L87.8295 69.5984L88.4754 69.3627H88.4803L108.684 62.0053L120.028 57.8746C120.782 57.5994 121.396 57.0349 121.736 56.305C122.076 55.5751 122.113 54.7396 121.84 53.9821Z" fill="white"/>
<path id="Vector_18" d="M99.1642 22.1811C98.8896 21.4243 98.3274 20.8077 97.6009 20.4665C96.8743 20.1254 96.0428 20.0875 95.2885 20.3612L82.7807 24.9146C82.0271 25.1897 81.4132 25.7539 81.0737 26.4834C80.7341 27.2129 80.6969 28.0479 80.9701 28.805C81.2432 29.562 81.8045 30.1792 82.5305 30.5208C83.2565 30.8625 84.0879 30.9007 84.8419 30.6271L88.8 29.1862L91.4199 28.2313L97.3522 26.0712C98.1056 25.796 98.7195 25.2318 99.0592 24.5025C99.3989 23.7732 99.4366 22.9383 99.1642 22.1811Z" fill="white"/>
<path id="Vector_19" d="M149.079 28.2312H90.532C90.1867 28.2315 89.847 28.3192 89.5443 28.4861C89.2416 28.653 88.9856 28.8937 88.7999 29.1861C88.5875 29.5172 88.4749 29.9027 88.4756 30.2965V69.8923L105.336 77.568L107.711 78.6493L111.464 80.3574C111.683 80.4571 111.922 80.5087 112.163 80.5087C112.404 80.5087 112.642 80.4571 112.862 80.3574L116.614 78.6493L128.358 73.3038L139.303 68.3203L151.135 62.9359V30.2965C151.135 29.7489 150.918 29.2238 150.533 28.8365C150.147 28.4493 149.624 28.2316 149.079 28.2312Z" fill="#3C69D7"/>
<path id="Vector_20" d="M136.983 55.9309H102.629C101.848 55.9314 101.097 56.2355 100.534 56.7795C99.9713 57.3235 99.64 58.0651 99.6095 58.8491C99.6055 58.8886 99.6039 58.9284 99.6047 58.9681C99.6058 59.7733 99.9248 60.5452 100.492 61.1145C101.059 61.6839 101.827 62.0042 102.629 62.0054H136.983C137.785 62.0054 138.554 61.6854 139.121 61.1158C139.688 60.5462 140.007 59.7737 140.007 58.9681C140.007 58.1626 139.688 57.3901 139.121 56.8205C138.554 56.2509 137.785 55.9309 136.983 55.9309Z" fill="white"/>
<path id="Vector_21" d="M138.94 67.9533C138.395 67.4848 137.7 67.2279 136.983 67.2293H102.629C101.827 67.2293 101.057 67.5492 100.49 68.1188C99.9231 68.6884 99.6045 69.461 99.6045 70.2665C99.6045 71.072 99.9231 71.8445 100.49 72.4141C101.057 72.9837 101.827 73.3037 102.629 73.3037H128.358L139.303 68.3202C139.192 68.1879 139.071 68.0651 138.94 67.9533Z" fill="white"/>
<path id="Vector_22" d="M107.712 78.6494L111.464 80.3576C111.684 80.4573 111.922 80.5088 112.163 80.5088C112.405 80.5088 112.643 80.4573 112.863 80.3576L116.615 78.6494H107.712Z" fill="white"/>
<path id="Vector_23" d="M129.299 42.9824C129.086 42.3977 128.7 41.8928 128.192 41.536C127.684 41.1793 127.079 40.9878 126.459 40.9875H113.153C112.572 40.9881 112.004 41.1565 111.515 41.4728C111.027 41.789 110.64 42.2397 110.4 42.771C110.221 43.1644 110.128 43.5921 110.129 44.0248C110.13 44.83 110.449 45.6018 111.016 46.1712C111.583 46.7405 112.351 47.0609 113.153 47.062H126.459C126.946 47.0621 127.425 46.9442 127.856 46.7185C128.288 46.4928 128.659 46.1658 128.938 45.7654C129.216 45.365 129.395 44.9029 129.458 44.4184C129.521 43.9339 129.466 43.4413 129.299 42.9824Z" fill="white"/>
<path id="Vector_24" d="M127.184 73.3039L115.441 78.6494L112.661 79.9153C112.505 79.9862 112.335 80.0229 112.163 80.0229C111.991 80.0229 111.821 79.9862 111.665 79.9153L108.885 78.6494H107.712L111.464 80.3576C111.684 80.4573 111.922 80.5088 112.163 80.5088C112.404 80.5088 112.642 80.4573 112.862 80.3576L116.614 78.6494L128.358 73.3039H127.184ZM127.184 73.3039L115.441 78.6494L112.661 79.9153C112.505 79.9862 112.335 80.0229 112.163 80.0229C111.991 80.0229 111.821 79.9862 111.665 79.9153L108.885 78.6494H107.712L111.464 80.3576C111.684 80.4573 111.922 80.5088 112.163 80.5088C112.404 80.5088 112.642 80.4573 112.862 80.3576L116.614 78.6494L128.358 73.3039H127.184ZM127.184 73.3039L115.441 78.6494L112.661 79.9153C112.505 79.9862 112.335 80.0229 112.163 80.0229C111.991 80.0229 111.821 79.9862 111.665 79.9153L108.885 78.6494H107.712L111.464 80.3576C111.684 80.4573 111.922 80.5088 112.163 80.5088C112.404 80.5088 112.642 80.4573 112.862 80.3576L116.614 78.6494L128.358 73.3039H127.184ZM166.597 56.5894C166.508 56.5002 166.41 56.4204 166.304 56.3513C166.067 56.1965 165.794 56.1045 165.511 56.0836C165.229 56.0628 164.946 56.1139 164.688 56.2322L138.94 67.9535L127.184 73.3039L115.441 78.6494L112.661 79.9153C112.505 79.9862 112.335 80.0229 112.163 80.0229C111.991 80.0229 111.821 79.9862 111.665 79.9153L108.885 78.6494L105.989 77.33L88.4805 69.3628L88.4757 69.3603L83.7024 67.1857L69.4505 60.6982L59.6378 56.2322C59.538 56.1858 59.4333 56.1508 59.3257 56.1277C59.0888 56.0683 58.8415 56.0633 58.6023 56.1131C58.2197 56.1918 57.8758 56.4005 57.6286 56.7042C57.3814 57.0078 57.2459 57.3877 57.2451 57.78V118.799C57.2456 119.25 57.4242 119.683 57.7417 120.001C58.0592 120.32 58.4896 120.5 58.9386 120.5H165.387C165.836 120.5 166.267 120.32 166.584 120.001C166.902 119.683 167.08 119.25 167.081 118.799V57.78C167.082 57.3347 166.908 56.9069 166.597 56.5894ZM166.597 118.799C166.597 119.121 166.469 119.43 166.243 119.658C166.016 119.886 165.708 120.014 165.387 120.014H58.9386C58.6178 120.014 58.3102 119.886 58.0834 119.658C57.8566 119.43 57.7291 119.121 57.729 118.799V57.78C57.7291 57.5769 57.7798 57.3771 57.8766 57.1989C57.9734 57.0206 58.1131 56.8695 58.283 56.7595C58.4025 56.6826 58.5342 56.6267 58.6725 56.5942C58.7132 56.5854 58.7544 56.5789 58.7959 56.5748C58.8432 56.5679 58.8909 56.5647 58.9386 56.5651C59.1106 56.5653 59.2806 56.6026 59.437 56.6744L69.6802 61.3372L83.8476 67.7858L87.8298 69.5985L88.4757 69.8925L105.336 77.5682L107.712 78.6494L111.464 80.3576C111.684 80.4573 111.922 80.5088 112.163 80.5088C112.404 80.5088 112.642 80.4573 112.862 80.3576L116.614 78.6494L128.358 73.3039L139.303 68.3204L164.889 56.6744C165.073 56.5906 165.275 56.5545 165.477 56.5694C165.678 56.5842 165.873 56.6496 166.043 56.7595C166.062 56.771 166.081 56.784 166.099 56.7983C166.118 56.8108 166.136 56.8255 166.152 56.8421C166.291 56.9552 166.403 57.0981 166.48 57.2604C166.557 57.4226 166.597 57.6002 166.597 57.78L166.597 118.799ZM127.184 73.3039L115.441 78.6494L112.661 79.9153C112.505 79.9862 112.335 80.0229 112.163 80.0229C111.991 80.0229 111.821 79.9862 111.665 79.9153L108.885 78.6494H107.712L111.464 80.3576C111.684 80.4573 111.922 80.5088 112.163 80.5088C112.404 80.5088 112.642 80.4573 112.862 80.3576L116.614 78.6494L128.358 73.3039H127.184ZM127.184 73.3039L115.441 78.6494L112.661 79.9153C112.505 79.9862 112.335 80.0229 112.163 80.0229C111.991 80.0229 111.821 79.9862 111.665 79.9153L108.885 78.6494H107.712L111.464 80.3576C111.684 80.4573 111.922 80.5088 112.163 80.5088C112.404 80.5088 112.642 80.4573 112.862 80.3576L116.614 78.6494L128.358 73.3039H127.184ZM87.8298 69.5985L88.4757 69.8925V69.3628L87.8298 69.5985ZM127.184 73.3039L115.441 78.6494L112.661 79.9153C112.505 79.9862 112.335 80.0229 112.163 80.0229C111.991 80.0229 111.821 79.9862 111.665 79.9153L108.885 78.6494H107.712L111.464 80.3576C111.684 80.4573 111.922 80.5088 112.163 80.5088C112.404 80.5088 112.642 80.4573 112.862 80.3576L116.614 78.6494L128.358 73.3039H127.184Z" fill="#3F3D56"/>
<path id="Vector_25" d="M42.9647 120.5H15.6267C15.5625 120.5 15.501 120.475 15.4556 120.429C15.4103 120.383 15.3848 120.322 15.3848 120.257C15.3848 120.193 15.4103 120.131 15.4556 120.085C15.501 120.04 15.5625 120.014 15.6267 120.014H42.9647C43.0288 120.014 43.0904 120.04 43.1357 120.085C43.1811 120.131 43.2066 120.193 43.2066 120.257C43.2066 120.322 43.1811 120.383 43.1357 120.429C43.0904 120.475 43.0288 120.5 42.9647 120.5Z" fill="#3F3D56"/>
<path id="Vector_26" d="M27.6898 42.1672C27.2434 41.9398 26.8723 41.5873 26.6213 41.1524C26.3703 40.7175 26.2502 40.2188 26.2756 39.7168C26.3009 39.2147 26.4706 38.7309 26.7641 38.3237C27.0576 37.9165 27.4623 37.6034 27.9292 37.4225C29.7223 36.7275 31.7324 38.1458 33.6119 37.7426C35.4853 37.3407 36.569 35.0913 36.1218 33.2206C35.6747 31.3498 34.0472 29.9407 32.2526 29.2678C31.0805 28.8294 29.8253 28.6613 28.5798 28.7759C27.3343 28.8906 26.1305 29.2851 25.0573 29.9302C23.9952 30.5942 23.1107 31.5087 22.4806 32.5941C21.8505 33.6796 21.4939 34.9032 21.4418 36.1586C21.4174 37.4151 21.723 38.6559 22.328 39.7561C22.9329 40.8562 23.8158 41.7768 24.8877 42.4252C25.3654 42.7018 25.9215 42.9238 26.4587 42.7993C26.8998 42.6554 27.3153 42.4421 27.6898 42.1672Z" fill="#2F2E41"/>
<path id="Vector_27" d="M25.7643 29.7847C24.1831 27.6785 22.0488 25.9482 19.5652 25.0903C17.0816 24.2325 14.2434 24.3013 11.9109 25.5137C9.57829 26.726 7.83875 29.1337 7.65718 31.7652C7.35498 36.1448 11.0811 39.8677 11.4635 44.241C11.5847 45.6272 11.3607 47.0219 10.8116 48.2994C10.2625 49.577 9.40564 50.6974 8.31813 51.5596C7.23063 52.4218 5.94666 52.9988 4.58187 53.2385C3.21709 53.4783 1.81435 53.3733 0.5 52.9331C1.43615 53.707 2.52155 54.2782 3.688 54.6107C4.85446 54.9431 6.07677 55.0298 7.27815 54.8651C8.47756 54.6843 9.62188 54.2377 10.6281 53.5576C11.6344 52.8776 12.4773 51.9812 13.0959 50.9334C13.9345 49.47 14.2788 47.7702 14.4126 46.0872C14.6226 43.426 14.3382 40.7487 13.5736 38.192C13.1557 36.797 12.5889 35.3615 12.8539 33.9292C13.005 33.1843 13.3707 32.5003 13.9055 31.9623C14.4404 31.4244 15.1209 31.0561 15.8624 30.9033C17.0608 30.6778 18.286 31.0451 19.4302 31.4678C20.5745 31.8906 21.7281 32.3798 22.947 32.4077C24.1659 32.4357 25.4935 31.8754 25.9646 30.746L25.7643 29.7847Z" fill="#2F2E41"/>
</g>
<defs>
<clipPath id="clip0_2481_6030">
<rect width="184" height="120" fill="white" transform="translate(0.5 0.5)"/>
</clipPath>
</defs>
</svg>
