<svg width="17" height="16" viewBox="0 0 17 16" fill="none" xmlns="http://www.w3.org/2000/svg">
<g id="lucide/phone" clip-path="url(#clip0_2475_13758)">
<path id="Vector" d="M14.7089 11.2797V13.2797C14.7097 13.4654 14.6717 13.6492 14.5973 13.8193C14.5229 13.9894 14.4138 14.1421 14.277 14.2676C14.1402 14.3932 13.9787 14.4887 13.8028 14.5482C13.6269 14.6077 13.4405 14.6298 13.2556 14.6131C11.2042 14.3902 9.23361 13.6892 7.50227 12.5664C5.89149 11.5428 4.52583 10.1772 3.50227 8.56641C2.37559 6.82721 1.67444 4.84707 1.45561 2.78641C1.43895 2.60205 1.46086 2.41625 1.51994 2.24082C1.57902 2.0654 1.67399 1.9042 1.79878 1.76749C1.92358 1.63077 2.07548 1.52155 2.2448 1.44675C2.41412 1.37196 2.59717 1.33325 2.78227 1.33307H4.78227C5.10581 1.32989 5.41947 1.44446 5.66478 1.65543C5.91009 1.8664 6.07032 2.15937 6.11561 2.47974C6.20002 3.11978 6.35657 3.74822 6.58227 4.35307C6.67197 4.59169 6.69138 4.85102 6.63821 5.10033C6.58504 5.34964 6.46152 5.57848 6.28227 5.75974L5.43561 6.60641C6.38464 8.27544 7.76658 9.65737 9.43561 10.6064L10.2823 9.75974C10.4635 9.5805 10.6924 9.45697 10.9417 9.4038C11.191 9.35063 11.4503 9.37004 11.6889 9.45974C12.2938 9.68544 12.9222 9.84199 13.5623 9.92641C13.8861 9.97209 14.1819 10.1352 14.3933 10.3847C14.6047 10.6343 14.7171 10.9528 14.7089 11.2797Z" stroke="#3C69D7" stroke-width="1.33333" stroke-linecap="round" stroke-linejoin="round"/>
</g>
<defs>
<clipPath id="clip0_2475_13758">
<rect width="16" height="16" fill="white" transform="translate(0.0419922)"/>
</clipPath>
</defs>
</svg>
