<svg width="49" height="49" viewBox="0 0 49 49" fill="none" xmlns="http://www.w3.org/2000/svg">
<path d="M42.3668 25.5091C42.2955 25.9774 42.4526 26.4516 42.7871 26.7862L45.0679 29.0669C45.7515 29.7505 46.0948 30.648 46.0948 31.5454C46.0948 32.4429 45.753 33.3389 45.0679 34.024L42.7246 36.3673C42.5671 36.5246 42.375 36.6428 42.1635 36.7126C41.9521 36.7823 41.7273 36.8015 41.5071 36.7687C40.8235 36.6669 40.3406 36.0705 40.0991 35.4233C39.8873 34.8513 39.535 34.3418 39.0747 33.9416C38.6145 33.5414 38.061 33.2634 37.4651 33.133C36.8693 33.0027 36.2502 33.0243 35.6649 33.1958C35.0796 33.3673 34.5468 33.6832 34.1155 34.1145C33.6842 34.5458 33.3683 35.0786 33.1968 35.6639C33.0253 36.2492 33.0037 36.8683 33.134 37.4641C33.2643 38.06 33.5424 38.6135 33.9426 39.0738C34.3428 39.534 34.8523 39.8863 35.4242 40.0982C36.073 40.3396 36.6679 40.8211 36.7697 41.5062C36.8026 41.7264 36.7834 41.9512 36.7137 42.1626C36.644 42.3741 36.5257 42.5662 36.3682 42.7236L34.0264 45.0654C33.7012 45.3918 33.3146 45.6506 32.889 45.8271C32.4634 46.0036 32.0072 46.0942 31.5464 46.0938C31.086 46.0944 30.63 46.004 30.2046 45.8277C29.7793 45.6515 29.393 45.3929 29.0679 45.0669L26.7871 42.7862C26.6223 42.621 26.421 42.4968 26.1995 42.4236C25.9779 42.3503 25.7423 42.33 25.5115 42.3643C24.7944 42.472 24.2897 43.0974 24.0279 43.7723C23.8084 44.3356 23.452 44.8353 22.9908 45.2262C22.5297 45.6171 21.9784 45.8868 21.3867 46.0111C20.7951 46.1353 20.1819 46.11 19.6024 45.9376C19.023 45.7652 18.4957 45.451 18.0683 45.0236C17.6408 44.5961 17.3267 44.0688 17.1542 43.4894C16.9818 42.91 16.9566 42.2967 17.0808 41.7051C17.205 41.1135 17.4748 40.5622 17.8656 40.101C18.2565 39.6399 18.7562 39.2834 19.3195 39.064C19.9944 38.8022 20.6199 38.2974 20.726 37.5803C20.7605 37.3497 20.7405 37.1141 20.6675 36.8926C20.5945 36.671 20.4706 36.4697 20.3057 36.3047L18.025 34.024C17.6989 33.6989 17.4404 33.3126 17.2641 32.8872C17.0879 32.4619 16.9975 32.0059 16.998 31.5454C16.998 30.648 17.3413 29.7505 18.025 29.0669L20.2446 26.8473C20.5937 26.4982 21.0897 26.3338 21.5784 26.4065C22.3275 26.5185 22.854 27.1745 23.1391 27.8756C23.3656 28.4309 23.7259 28.9215 24.1879 29.3039C24.6499 29.6862 25.1993 29.9483 25.7871 30.0669C26.3749 30.1855 26.983 30.1568 27.5571 29.9836C28.1312 29.8103 28.6535 29.4977 29.0775 29.0736C29.5016 28.6496 29.8141 28.1273 29.9874 27.5532C30.1607 26.9791 30.1894 26.3711 30.0708 25.7832C29.9522 25.1954 29.6901 24.646 29.3077 24.184C28.9254 23.722 28.4348 23.3617 27.8795 23.1353C27.1784 22.8502 26.5224 22.3236 26.4104 21.5745C26.3377 21.0858 26.5006 20.5913 26.8511 20.2407L29.0693 18.0225C29.3944 17.6969 29.7805 17.4387 30.2056 17.2627C30.6307 17.0868 31.0863 16.9965 31.5464 16.9971C32.4439 16.9971 33.3413 17.3403 34.025 18.024L36.3057 20.3047C36.6402 20.6393 37.1144 20.7963 37.5813 20.7265C38.2984 20.6189 38.8031 19.9934 39.065 19.3185C39.2844 18.7552 39.6408 18.2556 40.102 17.8647C40.5631 17.4738 41.1145 17.204 41.7061 17.0798C42.2977 16.9556 42.911 16.9808 43.4904 17.1533C44.0698 17.3257 44.5971 17.6398 45.0246 18.0673C45.452 18.4948 45.7662 19.022 45.9386 19.6015C46.111 20.1809 46.1362 20.7941 46.012 21.3858C45.8878 21.9774 45.6181 22.5287 45.2272 22.9899C44.8363 23.451 44.3366 23.8074 43.7733 24.0269C43.0984 24.2887 42.473 24.792 42.3668 25.5091Z" stroke="#3C69D7" stroke-width="1.64278" stroke-linecap="round" stroke-linejoin="round"/>
<path d="M21.5847 26.3687C21.1163 26.2975 20.6421 26.4546 20.3076 26.7891L18.0269 29.0698C17.3432 29.7535 16.4458 30.0967 15.5483 30.0967C14.6509 30.0967 13.7549 29.7549 13.0698 29.0698L10.7265 26.7265C10.5692 26.5691 10.4509 26.3769 10.3812 26.1655C10.3115 25.9541 10.2922 25.7293 10.325 25.5091C10.4269 24.8255 11.0232 24.3425 11.6705 24.1011C12.2424 23.8892 12.7519 23.537 13.1521 23.0767C13.5523 22.6164 13.8304 22.0629 13.9607 21.4671C14.091 20.8712 14.0694 20.2522 13.8979 19.6669C13.7264 19.0815 13.4105 18.5487 12.9792 18.1175C12.5479 17.6862 12.0151 17.3703 11.4298 17.1987C10.8445 17.0272 10.2255 17.0057 9.62961 17.136C9.03377 17.2663 8.48026 17.5443 8.01999 17.9445C7.55971 18.3447 7.20744 18.8542 6.99559 19.4262C6.75413 20.0749 6.27267 20.6698 5.58758 20.7716C5.3674 20.8046 5.14256 20.7854 4.93113 20.7157C4.71969 20.6459 4.52755 20.5276 4.37013 20.3702L2.02831 18.0284C1.70196 17.7031 1.44311 17.3166 1.26663 16.891C1.09015 16.4654 0.999518 16.0091 0.999946 15.5484C0.999359 15.0879 1.08978 14.632 1.26601 14.2066C1.44225 13.7812 1.70082 13.3949 2.02686 13.0698L4.30758 10.7891C4.47272 10.6242 4.59691 10.423 4.67017 10.2014C4.74342 9.97989 4.76371 9.74426 4.7294 9.51346C4.62177 8.79637 3.99631 8.29164 3.3214 8.02982C2.75812 7.81037 2.25843 7.45394 1.86754 6.99279C1.47666 6.53165 1.20691 5.98032 1.08269 5.38869C0.95848 4.79707 0.983724 4.18381 1.15614 3.60439C1.32856 3.02498 1.64271 2.49769 2.07017 2.07022C2.49763 1.64276 3.02492 1.32861 3.60434 1.15619C4.18375 0.983777 4.79701 0.958533 5.38864 1.08275C5.98027 1.20696 6.53159 1.47671 6.99274 1.8676C7.45389 2.25848 7.81031 2.75817 8.02977 3.32146C8.29158 3.99637 8.79631 4.62182 9.5134 4.728C9.74409 4.7625 9.97965 4.74244 10.2012 4.66944C10.4227 4.59643 10.6241 4.47252 10.789 4.30764L13.0698 2.02691C13.3949 1.70087 13.7812 1.4423 14.2065 1.26607C14.6319 1.08984 15.0879 0.999416 15.5483 1C16.4458 1 17.3432 1.34327 18.0269 2.02691L20.2465 4.24655C20.5956 4.59564 20.7599 5.09164 20.6872 5.58037C20.5752 6.32946 19.9192 6.856 19.2181 7.14109C18.6629 7.36756 18.1722 7.72784 17.7899 8.18984C17.4076 8.65184 17.1455 9.20122 17.0269 9.78906C16.9083 10.3769 16.9369 10.9849 17.1102 11.559C17.2835 12.1331 17.5961 12.6554 18.0201 13.0795C18.4442 13.5035 18.9665 13.8161 19.5406 13.9894C20.1147 14.1627 20.7227 14.1913 21.3105 14.0727C21.8984 13.9541 22.4477 13.692 22.9097 13.3097C23.3717 12.9274 23.732 12.4367 23.9585 11.8815C24.2436 11.1804 24.7701 10.5244 25.5192 10.4124C26.0079 10.3396 26.5025 10.5025 26.853 10.8531L29.0712 13.0713C29.3968 13.3963 29.655 13.7825 29.831 14.2075C30.007 14.6326 30.0973 15.0883 30.0967 15.5484C30.0967 16.4458 29.7534 17.3433 29.0698 18.0269L26.789 20.3076C26.4545 20.6422 26.2974 21.1164 26.3672 21.5833C26.4749 22.3004 27.1003 22.8051 27.7752 23.0669C28.3385 23.2864 28.8382 23.6428 29.2291 24.1039C29.62 24.5651 29.8897 25.1164 30.0139 25.708C30.1381 26.2997 30.1129 26.9129 29.9405 27.4923C29.7681 28.0718 29.4539 28.599 29.0265 29.0265C28.599 29.454 28.0717 29.7681 27.4923 29.9405C26.9129 30.113 26.2996 30.1382 25.708 30.014C25.1164 29.8898 24.565 29.62 24.1039 29.2291C23.6427 28.8382 23.2863 28.3386 23.0669 27.7753C22.805 27.1004 22.3018 26.4749 21.5847 26.3687Z" stroke="#3C69D7" stroke-width="1.64278" stroke-linecap="round" stroke-linejoin="round"/>
</svg>
