<svg width="48" height="48" viewBox="0 0 48 48" fill="none" xmlns="http://www.w3.org/2000/svg">
<path d="M18 23.9999L22 27.9999L30 19.9999M40 25.9999C40 35.9999 33 40.9999 24.68 43.8999C24.2443 44.0476 23.7711 44.0405 23.34 43.8799C15 40.9999 8 35.9999 8 25.9999V11.9999C8 11.4695 8.21071 10.9608 8.58579 10.5857C8.96086 10.2106 9.46957 9.99992 10 9.99992C14 9.99992 19 7.59992 22.48 4.55992C22.9037 4.19792 23.4427 3.99902 24 3.99902C24.5573 3.99902 25.0963 4.19792 25.52 4.55992C29.02 7.61992 34 9.99992 38 9.99992C38.5304 9.99992 39.0391 10.2106 39.4142 10.5857C39.7893 10.9608 40 11.4695 40 11.9999V25.9999Z" stroke="#B96ED5" stroke-width="2.25882" stroke-linecap="round" stroke-linejoin="round"/>
</svg>
