<svg width="28" height="30" viewBox="0 0 28 30" fill="none" xmlns="http://www.w3.org/2000/svg">
<path d="M27.5616 16.2186C24.7596 15.9364 21.636 16.4035 19.1739 14.6322C16.6016 12.4522 15.4899 8.76363 15.3889 5.36704C15.3338 3.80987 15.591 2.26243 15.6369 0.714982C15.3797 -0.521026 13.7995 -0.0149439 13.9741 1.1724C13.4045 7.19673 12.495 14.6906 5.81605 16.2089C4.98922 16.3841 2.47199 16.024 1.2593 15.878C0.78158 15.8196 -0.0268742 15.9461 0.00068677 16.5982C0.0190607 17.0653 0.542719 17.3573 1.17662 17.4546C1.81052 17.5519 3.33556 17.6979 4.5115 17.8731C5.68743 18.0483 7.50645 18.8755 8.91206 19.5957C11.7325 20.8804 13.5239 24.6468 13.4596 27.9461C13.5331 28.6371 13.0646 29.6882 13.9373 29.9607C15.1225 30.2624 15.0214 28.7539 15.2695 27.9558C15.5451 26.895 15.8299 25.8439 16.1422 24.8025C16.9323 21.4643 19.4955 18.9437 22.6099 18.0872C24.631 17.5227 26.7899 17.7758 27.3595 17.6785C28.0853 17.5909 28.2507 16.4911 27.5616 16.2186ZM14.5437 24.6079C13.7995 22.1261 11.9621 19.3914 9.8032 18.2916C9.06824 17.8828 8.29653 17.5519 7.51564 17.2308C11.2456 15.9266 13.3402 13.1237 14.2864 9.26972C15.1684 12.7344 17.2722 16.2673 20.7633 17.114C17.6764 18.4084 15.3521 21.2016 14.5437 24.6079Z" fill="#FFBF00"/>
</svg>
