<svg width="58" height="56" viewBox="0 0 58 56" fill="none" xmlns="http://www.w3.org/2000/svg">
<path fill-rule="evenodd" clip-rule="evenodd" d="M56.4014 23.4744C57.1748 23.6473 57.9019 24.2575 57.8943 25.1028C57.883 26.0331 57.0633 26.6011 56.3772 27.0766C56.3437 27.0999 56.3104 27.1229 56.2776 27.1458C53.4912 29.0769 44.0938 32.8227 40.9138 34.0435C42.0759 40.6333 42.607 44.0251 42.2224 52.3224C42.2182 52.4066 42.2144 52.4885 42.2106 52.568C42.1774 53.277 42.1524 53.8076 41.9431 54.2485C41.6213 54.8987 40.9329 55.224 40.212 55.1809C39.116 55.1151 38.3196 54.2391 35.9568 51.6403C35.0524 50.6455 33.9185 49.3983 32.4504 47.8474C31.5446 46.8858 31.0172 46.3368 30.4243 45.7196C29.4353 44.6902 28.2641 43.4711 24.8513 39.8314C21.9352 40.8167 18.996 41.7569 16.0623 42.6799C14.2969 43.2329 12.5469 43.849 10.7981 44.4647C8.95746 45.1127 7.118 45.7603 5.26281 46.3335C5.01697 46.4082 4.77363 46.4991 4.52316 46.5927C4.2207 46.7057 3.90783 46.8227 3.56759 46.9195C3.45415 46.9518 3.34432 46.9865 3.23683 47.0205C2.75494 47.1728 2.32004 47.3102 1.81736 47.1488C0.860992 46.8417 0.440437 45.746 0.960427 45.0652C1.40474 44.4712 1.90971 43.8812 2.62497 43.0454C3.02548 42.5775 3.49194 42.0325 4.05061 41.3666C5.11989 40.0898 6.18917 38.813 7.24685 37.5136C6.5141 38.4464 10.8509 33.0946 14.6279 27.9022C12.0425 24.1264 10.7693 21.4692 8.80521 17.3701C8.2069 16.1215 7.54449 14.739 6.76135 13.1504C6.27261 12.1682 5.94771 11.5477 5.72952 11.1309C5.36495 10.4346 5.2983 10.3073 5.26311 10.0132C5.17629 9.34477 5.52676 8.7226 6.35181 8.44118C7.23234 8.13202 8.90903 8.72561 13.3446 10.2959C15.9679 11.2246 19.5561 12.4949 24.5154 14.1222C26.8288 10.9654 29.5963 7.33277 32.1842 4.37714C32.8396 3.62679 34.2905 1.98274 35.0087 1.2714C36.2372 0.0268803 37.6631 0.220959 38.5319 1.32879C39.4864 2.56109 39.4166 6.519 39.3318 11.3278C39.2924 13.564 39.2497 15.9841 39.3053 18.3998C43.9387 19.6729 46.9983 20.6911 49.4642 21.5118C51.3285 22.1322 52.8534 22.6398 54.4625 23.0591C55.4504 23.3022 55.8092 23.3667 56.1328 23.4248C56.2209 23.4406 56.3065 23.456 56.4014 23.4744ZM47.4805 28.1704C48.0539 27.9023 48.5478 27.6715 48.9301 27.4995C50.2509 26.9062 51.5826 26.2789 52.8686 25.618C51.5985 25.2678 49.8911 24.6997 48.1886 24.1332C47.1073 23.7735 46.028 23.4143 45.064 23.1122C43.1799 22.5261 38.4451 21.1378 37.5296 20.938C36.6141 20.7383 36.1634 20.4994 35.9315 20.0481C35.7801 19.7535 35.9262 17.9315 36.0474 16.4198C36.1118 15.6167 36.1692 14.9012 36.1712 14.5489C36.1746 14.1588 36.1821 13.6165 36.1908 12.9818C36.2265 10.3776 36.2835 6.21731 36.1746 4.62221C34.3646 6.62193 33.3459 7.85846 32.0755 9.40975C29.9575 12.0591 28.8066 13.9878 28.0257 15.2967C27.344 16.4391 26.9442 17.1092 26.429 17.374C25.9777 17.6059 25.1238 17.3317 24.0992 17.0027C18.6934 15.2671 15.5045 14.1286 13.0321 13.2458C11.7552 12.79 10.6695 12.4023 9.56818 12.0359C10.2878 13.4886 10.9264 14.8288 11.5205 16.0757C13.4366 20.0969 14.8902 23.1475 17.107 25.8724C18.1478 27.1485 18.1473 27.6193 18.0956 28.0737C17.9923 28.9824 14.6729 32.9842 14.6729 32.9842L5.81422 43.3295L24.996 36.5058C25.9185 36.3636 26.9589 37.6197 27.8374 38.6803C28.0913 38.9869 28.3317 39.2771 28.5518 39.5125C30.522 41.6375 31.4034 42.5464 32.2718 43.4419C33.519 44.7279 34.7395 45.9865 39.1195 50.7799C39.359 42.2785 38.671 39.1727 38.0758 36.4863C37.8515 35.4738 37.6404 34.5208 37.4971 33.3609C37.3968 32.4998 37.7101 32.1106 38.3321 31.9336C41.1872 31.1125 45.049 29.3071 47.4805 28.1704Z" fill="#A5C8FF"/>
</svg>
