<svg width="266" height="55" viewBox="0 0 266 55" fill="none" xmlns="http://www.w3.org/2000/svg">
<path d="M7.53107 1.26725C7.69215 0.831943 8.30785 0.831944 8.46893 1.26725L10.0809 5.62365C10.1316 5.76051 10.2395 5.86842 10.3763 5.91906L14.7327 7.53107C15.1681 7.69215 15.1681 8.30785 14.7327 8.46893L10.3763 10.0809C10.2395 10.1316 10.1316 10.2395 10.0809 10.3763L8.46893 14.7327C8.30785 15.1681 7.69215 15.1681 7.53107 14.7327L5.91906 10.3763C5.86842 10.2395 5.76051 10.1316 5.62365 10.0809L1.26725 8.46893C0.831943 8.30785 0.831944 7.69215 1.26725 7.53107L5.62365 5.91906C5.76051 5.86842 5.86842 5.76051 5.91906 5.62365L7.53107 1.26725Z" fill="#0066D8"/>
<path d="M260.966 44.2673C261.127 43.8319 261.742 43.8319 261.903 44.2673L262.552 46.0212C262.603 46.158 262.711 46.2659 262.848 46.3166L264.602 46.9656C265.037 47.1267 265.037 47.7424 264.602 47.9034L262.848 48.5524C262.711 48.6031 262.603 48.711 262.552 48.8479L261.903 50.6018C261.742 51.0371 261.127 51.0371 260.966 50.6018L260.317 48.8479C260.266 48.711 260.158 48.6031 260.021 48.5524L258.267 47.9034C257.832 47.7424 257.832 47.1267 258.267 46.9656L260.021 46.3166C260.158 46.2659 260.266 46.158 260.317 46.0212L260.966 44.2673Z" fill="#0066D8"/>
<rect x="11" y="11" width="248" height="35" rx="8" fill="#0066D8"/>
<path d="M136.449 53.4759C135.661 54.3049 134.339 54.3049 133.551 53.4759L126.088 45.6282C124.877 44.3545 125.78 42.25 127.537 42.25L142.463 42.25C144.22 42.25 145.123 44.3545 143.912 45.6282L136.449 53.4759Z" fill="#0066D8"/>
<path d="M33.041 31.1973C33.041 31.7051 32.9141 32.1406 32.6602 32.5039C32.4102 32.8633 32.0566 33.1387 31.5996 33.3301C31.1426 33.5215 30.5996 33.6172 29.9707 33.6172C29.6543 33.6172 29.3516 33.5996 29.0625 33.5645C28.7773 33.5332 28.5117 33.4863 28.2656 33.4238C28.0195 33.3613 27.7969 33.2832 27.5977 33.1895V32.0527C27.9219 32.1855 28.2969 32.3105 28.7227 32.4277C29.1484 32.541 29.5879 32.5977 30.041 32.5977C30.4355 32.5977 30.7656 32.5449 31.0312 32.4395C31.3008 32.3301 31.5039 32.1777 31.6406 31.9824C31.7773 31.7871 31.8457 31.5527 31.8457 31.2793C31.8457 31.0059 31.7793 30.7773 31.6465 30.5938C31.5137 30.4062 31.3027 30.2344 31.0137 30.0781C30.7285 29.9219 30.3535 29.7559 29.8887 29.5801C29.5645 29.4629 29.2695 29.3301 29.0039 29.1816C28.7383 29.0293 28.5078 28.8555 28.3125 28.6602C28.1211 28.4648 27.9727 28.2363 27.8672 27.9746C27.7617 27.709 27.709 27.4043 27.709 27.0605C27.709 26.5879 27.8242 26.1836 28.0547 25.8477C28.2891 25.5117 28.6152 25.2559 29.0332 25.0801C29.4512 24.9004 29.9355 24.8105 30.4863 24.8105C30.9395 24.8105 31.3613 24.8555 31.752 24.9453C32.1465 25.0352 32.5215 25.1582 32.877 25.3145L32.4961 26.3105C32.1641 26.1738 31.8301 26.0625 31.4941 25.9766C31.1582 25.8906 30.8105 25.8477 30.4512 25.8477C30.1191 25.8477 29.8379 25.8965 29.6074 25.9941C29.3809 26.0918 29.207 26.2305 29.0859 26.4102C28.9688 26.5898 28.9102 26.8027 28.9102 27.0488C28.9102 27.3262 28.9727 27.5566 29.0977 27.7402C29.2227 27.9238 29.4199 28.0898 29.6895 28.2383C29.959 28.3867 30.3105 28.5449 30.7441 28.7129C31.2324 28.9004 31.6465 29.0996 31.9863 29.3105C32.3301 29.5215 32.5918 29.7754 32.7715 30.0723C32.9512 30.3691 33.041 30.7441 33.041 31.1973ZM36.5605 26.9316C37.3574 26.9316 37.9531 27.1094 38.3477 27.4648C38.7422 27.8164 38.9395 28.373 38.9395 29.1348V33.5H38.0957L37.8672 32.5625H37.8203C37.6406 32.7969 37.4531 32.9922 37.2578 33.1484C37.0625 33.3047 36.8359 33.4219 36.5781 33.5C36.3242 33.5781 36.0137 33.6172 35.6465 33.6172C35.2559 33.6172 34.9082 33.5469 34.6035 33.4062C34.2988 33.2656 34.0586 33.0547 33.8828 32.7734C33.7109 32.4883 33.625 32.127 33.625 31.6895C33.625 31.0332 33.877 30.5352 34.3809 30.1953C34.8848 29.8555 35.6484 29.6699 36.6719 29.6387L37.7852 29.5918V29.2285C37.7852 28.7246 37.6719 28.3691 37.4453 28.1621C37.2227 27.9551 36.9102 27.8516 36.5078 27.8516C36.1758 27.8516 35.8574 27.9004 35.5527 27.998C35.248 28.0918 34.9551 28.2051 34.6738 28.3379L34.2988 27.4824C34.6035 27.3262 34.9492 27.1953 35.3359 27.0898C35.7266 26.9844 36.1348 26.9316 36.5605 26.9316ZM37.7734 30.3652L36.8711 30.4062C36.125 30.4336 35.5996 30.5586 35.2949 30.7812C34.9941 31 34.8438 31.3066 34.8438 31.7012C34.8438 32.0449 34.9473 32.2969 35.1543 32.457C35.3613 32.6172 35.6348 32.6973 35.9746 32.6973C36.498 32.6973 36.9277 32.5508 37.2637 32.2578C37.6035 31.9609 37.7734 31.5234 37.7734 30.9453V30.3652ZM41.8613 33.5L39.4062 27.043H40.6543L42.0312 30.8926C42.1211 31.1465 42.209 31.4238 42.2949 31.7246C42.3848 32.0254 42.4453 32.2734 42.4766 32.4688H42.5176C42.5566 32.2695 42.623 32.0195 42.7168 31.7188C42.8105 31.418 42.9004 31.1426 42.9863 30.8926L44.3574 27.043H45.6113L43.1504 33.5H41.8613ZM48.6504 26.9258C49.2129 26.9258 49.6953 27.0469 50.0977 27.2891C50.5 27.5273 50.8086 27.8652 51.0234 28.3027C51.2383 28.7402 51.3457 29.2559 51.3457 29.8496V30.5176H46.9629C46.9746 31.209 47.1523 31.7402 47.4961 32.1113C47.8398 32.4785 48.3223 32.6621 48.9434 32.6621C49.3535 32.6621 49.7188 32.623 50.0391 32.5449C50.3594 32.4668 50.6914 32.3516 51.0352 32.1992V33.1895C50.7109 33.3379 50.3848 33.4453 50.0566 33.5117C49.7324 33.582 49.3438 33.6172 48.8906 33.6172C48.2656 33.6172 47.7168 33.4922 47.2441 33.2422C46.7754 32.9922 46.4102 32.623 46.1484 32.1348C45.8867 31.6426 45.7559 31.0371 45.7559 30.3184C45.7559 29.6074 45.875 29 46.1133 28.4961C46.3516 27.9883 46.6875 27.5996 47.1211 27.3301C47.5547 27.0605 48.0645 26.9258 48.6504 26.9258ZM48.6445 27.8398C48.168 27.8398 47.7852 27.9961 47.4961 28.3086C47.207 28.6172 47.0371 29.0605 46.9863 29.6387H50.1621C50.1582 29.2832 50.1016 28.9707 49.9922 28.7012C49.8828 28.4316 49.7168 28.2207 49.4941 28.0684C49.2754 27.916 48.9922 27.8398 48.6445 27.8398ZM60.5527 27.043V33.5H59.6094L59.4453 32.6152H59.3809C59.248 32.8379 59.0762 33.0234 58.8652 33.1719C58.6543 33.3203 58.418 33.4316 58.1562 33.5059C57.8945 33.5801 57.6172 33.6172 57.3242 33.6172C56.8281 33.6172 56.4062 33.5352 56.0586 33.3711C55.7148 33.207 55.4531 32.9531 55.2734 32.6094C55.0977 32.2617 55.0098 31.8145 55.0098 31.2676V27.043H56.1934V31.1035C56.1934 31.623 56.3047 32.0117 56.5273 32.2695C56.7539 32.5273 57.0977 32.6562 57.5586 32.6562C58.0078 32.6562 58.3633 32.5684 58.625 32.3926C58.8906 32.2129 59.0801 31.9531 59.1934 31.6133C59.3105 31.2695 59.3691 30.8496 59.3691 30.3535V27.043H60.5527ZM65.2441 26.9258C66.0293 26.9258 66.6562 27.2051 67.125 27.7637C67.5977 28.3184 67.834 29.1484 67.834 30.2539C67.834 30.9883 67.7246 31.6055 67.5059 32.1055C67.291 32.6016 66.9863 32.9785 66.5918 33.2363C66.2012 33.4902 65.7422 33.6172 65.2148 33.6172C64.8828 33.6172 64.5918 33.5742 64.3418 33.4883C64.0918 33.3984 63.877 33.2812 63.6973 33.1367C63.5215 32.9883 63.373 32.8301 63.252 32.6621H63.1758C63.1914 32.8145 63.207 32.9922 63.2227 33.1953C63.2422 33.3945 63.252 33.5742 63.252 33.7344V36.3711H62.0684V27.043H63.0352L63.1934 27.9688H63.252C63.373 27.7773 63.5215 27.6035 63.6973 27.4473C63.877 27.2871 64.0938 27.1602 64.3477 27.0664C64.6016 26.9727 64.9004 26.9258 65.2441 26.9258ZM64.9746 27.8984C64.5605 27.8984 64.2285 27.9805 63.9785 28.1445C63.7324 28.3047 63.5508 28.5449 63.4336 28.8652C63.3203 29.1855 63.2598 29.5879 63.252 30.0723V30.2598C63.252 30.7754 63.3066 31.2109 63.416 31.5664C63.5254 31.918 63.707 32.1875 63.9609 32.375C64.2148 32.5586 64.5566 32.6504 64.9863 32.6504C65.3535 32.6504 65.6582 32.5508 65.9004 32.3516C66.1465 32.1523 66.3281 31.8711 66.4453 31.5078C66.5664 31.1445 66.627 30.7227 66.627 30.2422C66.627 29.5117 66.4922 28.9395 66.2227 28.5254C65.9531 28.1074 65.5371 27.8984 64.9746 27.8984ZM73.8418 32.6621C74.0098 32.6621 74.1797 32.6484 74.3516 32.6211C74.5234 32.5898 74.6719 32.5508 74.7969 32.5039V33.4062C74.6641 33.4648 74.4863 33.5137 74.2637 33.5527C74.0449 33.5957 73.8203 33.6172 73.5898 33.6172C73.2383 33.6172 72.9199 33.5566 72.6348 33.4355C72.3496 33.3145 72.1211 33.1074 71.9492 32.8145C71.7812 32.5215 71.6973 32.1152 71.6973 31.5957V27.9512H70.8008V27.4062L71.7383 26.9727L72.1543 25.5781H72.8809V27.043H74.75V27.9512H72.8809V31.5781C72.8809 31.9414 72.9668 32.2129 73.1387 32.3926C73.3145 32.5723 73.5488 32.6621 73.8418 32.6621ZM81.2461 30.2598C81.2461 30.791 81.1758 31.2656 81.0352 31.6836C80.8984 32.0977 80.6973 32.4492 80.4316 32.7383C80.1699 33.0234 79.8535 33.2422 79.4824 33.3945C79.1113 33.543 78.6914 33.6172 78.2227 33.6172C77.7852 33.6172 77.3828 33.543 77.0156 33.3945C76.6523 33.2422 76.3379 33.0234 76.0723 32.7383C75.8066 32.4492 75.6016 32.0977 75.457 31.6836C75.3125 31.2656 75.2402 30.791 75.2402 30.2598C75.2402 29.5527 75.3613 28.9512 75.6035 28.4551C75.8457 27.9551 76.1914 27.5762 76.6406 27.3184C77.0938 27.0566 77.6328 26.9258 78.2578 26.9258C78.8516 26.9258 79.373 27.0566 79.8223 27.3184C80.2715 27.5801 80.6211 27.959 80.8711 28.4551C81.1211 28.9512 81.2461 29.5527 81.2461 30.2598ZM76.4473 30.2598C76.4473 30.7559 76.5098 31.1836 76.6348 31.543C76.7637 31.8984 76.959 32.1719 77.2207 32.3633C77.4863 32.5547 77.8281 32.6504 78.2461 32.6504C78.6562 32.6504 78.9941 32.5547 79.2598 32.3633C79.5254 32.1719 79.7207 31.8984 79.8457 31.543C79.9707 31.1836 80.0332 30.7559 80.0332 30.2598C80.0332 29.7676 79.9707 29.3457 79.8457 28.9941C79.7207 28.6426 79.5254 28.373 79.2598 28.1855C78.998 27.998 78.6562 27.9043 78.2344 27.9043C77.6172 27.9043 77.1641 28.1113 76.875 28.5254C76.5898 28.9355 76.4473 29.5137 76.4473 30.2598ZM87.3711 28.2031C87.9375 28.2031 88.4316 28.3027 88.8535 28.502C89.2793 28.6973 89.6094 28.9844 89.8438 29.3633C90.082 29.7422 90.2012 30.2031 90.2012 30.7461C90.2012 31.3398 90.0742 31.8516 89.8203 32.2812C89.5664 32.7109 89.1973 33.041 88.7129 33.2715C88.2285 33.502 87.6426 33.6172 86.9551 33.6172C86.5098 33.6172 86.0938 33.5781 85.707 33.5C85.3203 33.4219 84.9922 33.3047 84.7227 33.1484V32.0645C85.0117 32.2324 85.3594 32.3691 85.7656 32.4746C86.1758 32.5762 86.5703 32.627 86.9492 32.627C87.3633 32.627 87.7227 32.5625 88.0273 32.4336C88.3359 32.3047 88.5742 32.1094 88.7422 31.8477C88.9102 31.5859 88.9941 31.2539 88.9941 30.8516C88.9941 30.3203 88.8281 29.9102 88.4961 29.6211C88.1641 29.332 87.6426 29.1875 86.9316 29.1875C86.6934 29.1875 86.4355 29.209 86.1582 29.252C85.8809 29.291 85.6523 29.332 85.4727 29.375L84.9219 29.041L85.25 24.9336H89.6094V25.9824H86.2695L86.0703 28.3438C86.2148 28.3125 86.3945 28.2812 86.6094 28.25C86.8242 28.2188 87.0781 28.2031 87.3711 28.2031ZM96.6562 29.2051C96.6562 29.9004 96.6035 30.5215 96.498 31.0684C96.3926 31.6152 96.2246 32.0781 95.9941 32.457C95.7676 32.8359 95.4707 33.125 95.1035 33.3242C94.7402 33.5195 94.3008 33.6172 93.7852 33.6172C93.1367 33.6172 92.6016 33.4434 92.1797 33.0957C91.7578 32.748 91.4434 32.2461 91.2363 31.5898C91.0293 30.9297 90.9258 30.1348 90.9258 29.2051C90.9258 28.291 91.0195 27.5059 91.207 26.8496C91.3945 26.1895 91.6973 25.6836 92.1152 25.332C92.5371 24.9766 93.0938 24.7988 93.7852 24.7988C94.4414 24.7988 94.9805 24.9746 95.4023 25.3262C95.8281 25.6738 96.1426 26.1777 96.3457 26.8379C96.5527 27.4941 96.6562 28.2832 96.6562 29.2051ZM92.1094 29.2051C92.1094 29.9668 92.1641 30.6016 92.2734 31.1094C92.3828 31.6172 92.5605 31.998 92.8066 32.252C93.0527 32.502 93.3789 32.627 93.7852 32.627C94.1914 32.627 94.5176 32.502 94.7637 32.252C95.0137 32.002 95.1934 31.623 95.3027 31.1152C95.4121 30.6074 95.4668 29.9707 95.4668 29.2051C95.4668 28.4551 95.4121 27.8281 95.3027 27.3242C95.1934 26.8164 95.0156 26.4355 94.7695 26.1816C94.5273 25.9238 94.1992 25.7949 93.7852 25.7949C93.3711 25.7949 93.041 25.9238 92.7949 26.1816C92.5527 26.4355 92.377 26.8164 92.2676 27.3242C92.1621 27.8281 92.1094 28.4551 92.1094 29.2051ZM99.0801 24.8105C99.6895 24.8105 100.15 25.0449 100.463 25.5137C100.779 25.9785 100.938 26.6367 100.938 27.4883C100.938 28.3398 100.785 29.0039 100.48 29.4805C100.18 29.9531 99.7129 30.1895 99.0801 30.1895C98.4941 30.1895 98.0449 29.9531 97.7324 29.4805C97.4238 29.0039 97.2695 28.3398 97.2695 27.4883C97.2695 26.6367 97.416 25.9785 97.709 25.5137C98.0059 25.0449 98.4629 24.8105 99.0801 24.8105ZM99.0859 25.6367C98.8008 25.6367 98.5898 25.791 98.4531 26.0996C98.3203 26.4082 98.2539 26.8711 98.2539 27.4883C98.2539 28.1094 98.3203 28.5762 98.4531 28.8887C98.5898 29.2012 98.8008 29.3574 99.0859 29.3574C99.3789 29.3574 99.5957 29.2012 99.7363 28.8887C99.8809 28.5762 99.9531 28.1094 99.9531 27.4883C99.9531 26.875 99.8828 26.4141 99.7422 26.1055C99.6016 25.793 99.3828 25.6367 99.0859 25.6367ZM104.67 24.9336L99.918 33.5H98.9277L103.68 24.9336H104.67ZM104.482 28.2383C105.084 28.2383 105.543 28.4727 105.859 28.9414C106.176 29.4102 106.334 30.0684 106.334 30.916C106.334 31.7637 106.182 32.4258 105.877 32.9023C105.576 33.375 105.111 33.6113 104.482 33.6113C103.893 33.6113 103.443 33.375 103.135 32.9023C102.826 32.4258 102.672 31.7637 102.672 30.916C102.672 30.0684 102.818 29.4102 103.111 28.9414C103.404 28.4727 103.861 28.2383 104.482 28.2383ZM104.482 29.0762C104.197 29.0762 103.988 29.2305 103.855 29.5391C103.723 29.8438 103.656 30.3047 103.656 30.9219C103.656 31.5391 103.723 32.0039 103.855 32.3164C103.988 32.6289 104.197 32.7852 104.482 32.7852C104.775 32.7852 104.994 32.6309 105.139 32.3223C105.283 32.0137 105.355 31.5469 105.355 30.9219C105.355 30.3047 105.283 29.8438 105.139 29.5391C104.998 29.2305 104.779 29.0762 104.482 29.0762ZM115.266 33.4883L114.281 30.1133C114.238 29.9609 114.191 29.793 114.141 29.6094C114.094 29.4258 114.047 29.2422 114 29.0586C113.953 28.875 113.91 28.7051 113.871 28.5488C113.836 28.3887 113.809 28.2598 113.789 28.1621H113.742C113.723 28.2598 113.695 28.3887 113.66 28.5488C113.625 28.7051 113.584 28.877 113.537 29.0645C113.494 29.248 113.447 29.4336 113.396 29.6211C113.35 29.8086 113.303 29.9785 113.256 30.1309L112.225 33.4883H110.924L109.131 27.0371H110.332L111.217 30.418C111.275 30.6445 111.332 30.8789 111.387 31.1211C111.441 31.3633 111.488 31.5918 111.527 31.8066C111.566 32.0215 111.596 32.2051 111.615 32.3574H111.662C111.682 32.2559 111.705 32.1309 111.732 31.9824C111.764 31.8301 111.797 31.6719 111.832 31.5078C111.867 31.3398 111.904 31.1777 111.943 31.0215C111.986 30.8652 112.025 30.7285 112.061 30.6113L113.15 27.0371H114.428L115.477 30.6055C115.527 30.7773 115.58 30.9707 115.635 31.1855C115.689 31.3965 115.738 31.6055 115.781 31.8125C115.824 32.0195 115.854 32.1973 115.869 32.3457H115.916C115.932 32.2129 115.961 32.041 116.004 31.8301C116.047 31.6191 116.096 31.3906 116.15 31.1445C116.205 30.8945 116.264 30.6523 116.326 30.418L117.223 27.0371H118.406L116.602 33.4883H115.266ZM120.227 27.043V33.5H119.049V27.043H120.227ZM119.646 24.5996C119.834 24.5996 119.994 24.6543 120.127 24.7637C120.264 24.873 120.332 25.0508 120.332 25.2969C120.332 25.543 120.264 25.7227 120.127 25.8359C119.994 25.9453 119.834 26 119.646 26C119.455 26 119.293 25.9453 119.16 25.8359C119.031 25.7227 118.967 25.543 118.967 25.2969C118.967 25.0508 119.031 24.873 119.16 24.7637C119.293 24.6543 119.455 24.5996 119.646 24.5996ZM123.986 32.6621C124.154 32.6621 124.324 32.6484 124.496 32.6211C124.668 32.5898 124.816 32.5508 124.941 32.5039V33.4062C124.809 33.4648 124.631 33.5137 124.408 33.5527C124.189 33.5957 123.965 33.6172 123.734 33.6172C123.383 33.6172 123.064 33.5566 122.779 33.4355C122.494 33.3145 122.266 33.1074 122.094 32.8145C121.926 32.5215 121.842 32.1152 121.842 31.5957V27.9512H120.945V27.4062L121.883 26.9727L122.299 25.5781H123.025V27.043H124.895V27.9512H123.025V31.5781C123.025 31.9414 123.111 32.2129 123.283 32.3926C123.459 32.5723 123.693 32.6621 123.986 32.6621ZM126.926 24.3828V26.8906C126.926 27.0898 126.92 27.2852 126.908 27.4766C126.896 27.668 126.883 27.8281 126.867 27.957H126.938C127.074 27.7305 127.242 27.543 127.441 27.3945C127.645 27.2422 127.873 27.1289 128.127 27.0547C128.385 26.9766 128.656 26.9375 128.941 26.9375C129.445 26.9375 129.871 27.0195 130.219 27.1836C130.566 27.3477 130.83 27.6035 131.01 27.9512C131.189 28.2949 131.279 28.7422 131.279 29.293V33.5H130.113V29.4512C130.113 28.9355 130 28.5488 129.773 28.291C129.547 28.0293 129.199 27.8984 128.73 27.8984C128.285 27.8984 127.93 27.9883 127.664 28.168C127.398 28.3438 127.209 28.6035 127.096 28.9473C126.982 29.291 126.926 29.7129 126.926 30.2129V33.5H125.748V24.3828H126.926ZM140.633 33.5H134.926V32.5742L137.182 30.2832C137.611 29.8496 137.967 29.4707 138.248 29.1465C138.533 28.8184 138.748 28.502 138.893 28.1973C139.037 27.8887 139.109 27.5527 139.109 27.1895C139.109 26.7441 138.979 26.4043 138.717 26.1699C138.455 25.9355 138.107 25.8184 137.674 25.8184C137.283 25.8184 136.93 25.8906 136.613 26.0352C136.301 26.1758 135.977 26.3789 135.641 26.6445L135.008 25.8594C135.238 25.6641 135.488 25.4883 135.758 25.332C136.027 25.1719 136.322 25.0449 136.643 24.9512C136.963 24.8574 137.318 24.8105 137.709 24.8105C138.244 24.8105 138.705 24.9043 139.092 25.0918C139.482 25.2793 139.783 25.5449 139.994 25.8887C140.205 26.2324 140.311 26.6348 140.311 27.0957C140.311 27.5527 140.219 27.9766 140.035 28.3672C139.855 28.7539 139.6 29.1387 139.268 29.5215C138.936 29.9043 138.543 30.3125 138.09 30.7461L136.42 32.3984V32.4512H140.633V33.5ZM146.822 26.9316C147.619 26.9316 148.215 27.1094 148.609 27.4648C149.004 27.8164 149.201 28.373 149.201 29.1348V33.5H148.357L148.129 32.5625H148.082C147.902 32.7969 147.715 32.9922 147.52 33.1484C147.324 33.3047 147.098 33.4219 146.84 33.5C146.586 33.5781 146.275 33.6172 145.908 33.6172C145.518 33.6172 145.17 33.5469 144.865 33.4062C144.561 33.2656 144.32 33.0547 144.145 32.7734C143.973 32.4883 143.887 32.127 143.887 31.6895C143.887 31.0332 144.139 30.5352 144.643 30.1953C145.146 29.8555 145.91 29.6699 146.934 29.6387L148.047 29.5918V29.2285C148.047 28.7246 147.934 28.3691 147.707 28.1621C147.484 27.9551 147.172 27.8516 146.77 27.8516C146.438 27.8516 146.119 27.9004 145.814 27.998C145.51 28.0918 145.217 28.2051 144.936 28.3379L144.561 27.4824C144.865 27.3262 145.211 27.1953 145.598 27.0898C145.988 26.9844 146.396 26.9316 146.822 26.9316ZM148.035 30.3652L147.133 30.4062C146.387 30.4336 145.861 30.5586 145.557 30.7812C145.256 31 145.105 31.3066 145.105 31.7012C145.105 32.0449 145.209 32.2969 145.416 32.457C145.623 32.6172 145.896 32.6973 146.236 32.6973C146.76 32.6973 147.189 32.5508 147.525 32.2578C147.865 31.9609 148.035 31.5234 148.035 30.9453V30.3652ZM152.902 33.6172C152.113 33.6172 151.482 33.3379 151.01 32.7793C150.541 32.2207 150.307 31.3926 150.307 30.2949C150.307 29.1855 150.545 28.3477 151.021 27.7812C151.502 27.2109 152.139 26.9258 152.932 26.9258C153.264 26.9258 153.555 26.9707 153.805 27.0605C154.055 27.1504 154.27 27.2695 154.449 27.418C154.633 27.5664 154.785 27.7344 154.906 27.9219H154.977C154.957 27.8008 154.938 27.6309 154.918 27.4121C154.898 27.1934 154.889 27.002 154.889 26.8379V24.3828H156.066V33.5H155.135L154.941 32.6035H154.889C154.771 32.791 154.621 32.9629 154.438 33.1191C154.258 33.2715 154.041 33.3926 153.787 33.4824C153.537 33.5723 153.242 33.6172 152.902 33.6172ZM153.178 32.6562C153.814 32.6562 154.264 32.4727 154.525 32.1055C154.791 31.7383 154.926 31.1934 154.93 30.4707V30.2891C154.93 29.5195 154.803 28.9297 154.549 28.5195C154.299 28.1055 153.838 27.8984 153.166 27.8984C152.619 27.8984 152.207 28.1133 151.93 28.543C151.652 28.9688 151.514 29.5605 151.514 30.3184C151.514 31.0684 151.652 31.6465 151.93 32.0527C152.207 32.4551 152.623 32.6562 153.178 32.6562ZM159.809 33.6172C159.02 33.6172 158.389 33.3379 157.916 32.7793C157.447 32.2207 157.213 31.3926 157.213 30.2949C157.213 29.1855 157.451 28.3477 157.928 27.7812C158.408 27.2109 159.045 26.9258 159.838 26.9258C160.17 26.9258 160.461 26.9707 160.711 27.0605C160.961 27.1504 161.176 27.2695 161.355 27.418C161.539 27.5664 161.691 27.7344 161.812 27.9219H161.883C161.863 27.8008 161.844 27.6309 161.824 27.4121C161.805 27.1934 161.795 27.002 161.795 26.8379V24.3828H162.973V33.5H162.041L161.848 32.6035H161.795C161.678 32.791 161.527 32.9629 161.344 33.1191C161.164 33.2715 160.947 33.3926 160.693 33.4824C160.443 33.5723 160.148 33.6172 159.809 33.6172ZM160.084 32.6562C160.721 32.6562 161.17 32.4727 161.432 32.1055C161.697 31.7383 161.832 31.1934 161.836 30.4707V30.2891C161.836 29.5195 161.709 28.9297 161.455 28.5195C161.205 28.1055 160.744 27.8984 160.072 27.8984C159.525 27.8984 159.113 28.1133 158.836 28.543C158.559 28.9688 158.42 29.5605 158.42 30.3184C158.42 31.0684 158.559 31.6465 158.836 32.0527C159.113 32.4551 159.529 32.6562 160.084 32.6562ZM165.66 27.043V33.5H164.482V27.043H165.66ZM165.08 24.5996C165.268 24.5996 165.428 24.6543 165.561 24.7637C165.697 24.873 165.766 25.0508 165.766 25.2969C165.766 25.543 165.697 25.7227 165.561 25.8359C165.428 25.9453 165.268 26 165.08 26C164.889 26 164.727 25.9453 164.594 25.8359C164.465 25.7227 164.4 25.543 164.4 25.2969C164.4 25.0508 164.465 24.873 164.594 24.7637C164.727 24.6543 164.889 24.5996 165.08 24.5996ZM169.42 32.6621C169.588 32.6621 169.758 32.6484 169.93 32.6211C170.102 32.5898 170.25 32.5508 170.375 32.5039V33.4062C170.242 33.4648 170.064 33.5137 169.842 33.5527C169.623 33.5957 169.398 33.6172 169.168 33.6172C168.816 33.6172 168.498 33.5566 168.213 33.4355C167.928 33.3145 167.699 33.1074 167.527 32.8145C167.359 32.5215 167.275 32.1152 167.275 31.5957V27.9512H166.379V27.4062L167.316 26.9727L167.732 25.5781H168.459V27.043H170.328V27.9512H168.459V31.5781C168.459 31.9414 168.545 32.2129 168.717 32.3926C168.893 32.5723 169.127 32.6621 169.42 32.6621ZM172.359 27.043V33.5H171.182V27.043H172.359ZM171.779 24.5996C171.967 24.5996 172.127 24.6543 172.26 24.7637C172.396 24.873 172.465 25.0508 172.465 25.2969C172.465 25.543 172.396 25.7227 172.26 25.8359C172.127 25.9453 171.967 26 171.779 26C171.588 26 171.426 25.9453 171.293 25.8359C171.164 25.7227 171.1 25.543 171.1 25.2969C171.1 25.0508 171.164 24.873 171.293 24.7637C171.426 24.6543 171.588 24.5996 171.779 24.5996ZM179.512 30.2598C179.512 30.791 179.441 31.2656 179.301 31.6836C179.164 32.0977 178.963 32.4492 178.697 32.7383C178.436 33.0234 178.119 33.2422 177.748 33.3945C177.377 33.543 176.957 33.6172 176.488 33.6172C176.051 33.6172 175.648 33.543 175.281 33.3945C174.918 33.2422 174.604 33.0234 174.338 32.7383C174.072 32.4492 173.867 32.0977 173.723 31.6836C173.578 31.2656 173.506 30.791 173.506 30.2598C173.506 29.5527 173.627 28.9512 173.869 28.4551C174.111 27.9551 174.457 27.5762 174.906 27.3184C175.359 27.0566 175.898 26.9258 176.523 26.9258C177.117 26.9258 177.639 27.0566 178.088 27.3184C178.537 27.5801 178.887 27.959 179.137 28.4551C179.387 28.9512 179.512 29.5527 179.512 30.2598ZM174.713 30.2598C174.713 30.7559 174.775 31.1836 174.9 31.543C175.029 31.8984 175.225 32.1719 175.486 32.3633C175.752 32.5547 176.094 32.6504 176.512 32.6504C176.922 32.6504 177.26 32.5547 177.525 32.3633C177.791 32.1719 177.986 31.8984 178.111 31.543C178.236 31.1836 178.299 30.7559 178.299 30.2598C178.299 29.7676 178.236 29.3457 178.111 28.9941C177.986 28.6426 177.791 28.373 177.525 28.1855C177.264 27.998 176.922 27.9043 176.5 27.9043C175.883 27.9043 175.43 28.1113 175.141 28.5254C174.855 28.9355 174.713 29.5137 174.713 30.2598ZM183.857 26.9258C184.604 26.9258 185.176 27.1133 185.574 27.4883C185.977 27.8633 186.178 28.4648 186.178 29.293V33.5H185.012V29.4512C185.012 28.9355 184.898 28.5488 184.672 28.291C184.445 28.0293 184.098 27.8984 183.629 27.8984C182.961 27.8984 182.492 28.0957 182.223 28.4902C181.957 28.8848 181.824 29.457 181.824 30.207V33.5H180.646V27.043H181.578L181.748 27.9512H181.812C181.949 27.7246 182.123 27.5352 182.334 27.3828C182.545 27.2305 182.779 27.1172 183.037 27.043C183.299 26.9648 183.572 26.9258 183.857 26.9258ZM190.119 26.9316C190.916 26.9316 191.512 27.1094 191.906 27.4648C192.301 27.8164 192.498 28.373 192.498 29.1348V33.5H191.654L191.426 32.5625H191.379C191.199 32.7969 191.012 32.9922 190.816 33.1484C190.621 33.3047 190.395 33.4219 190.137 33.5C189.883 33.5781 189.572 33.6172 189.205 33.6172C188.814 33.6172 188.467 33.5469 188.162 33.4062C187.857 33.2656 187.617 33.0547 187.441 32.7734C187.27 32.4883 187.184 32.127 187.184 31.6895C187.184 31.0332 187.436 30.5352 187.939 30.1953C188.443 29.8555 189.207 29.6699 190.23 29.6387L191.344 29.5918V29.2285C191.344 28.7246 191.23 28.3691 191.004 28.1621C190.781 27.9551 190.469 27.8516 190.066 27.8516C189.734 27.8516 189.416 27.9004 189.111 27.998C188.807 28.0918 188.514 28.2051 188.232 28.3379L187.857 27.4824C188.162 27.3262 188.508 27.1953 188.895 27.0898C189.285 26.9844 189.693 26.9316 190.119 26.9316ZM191.332 30.3652L190.43 30.4062C189.684 30.4336 189.158 30.5586 188.854 30.7812C188.553 31 188.402 31.3066 188.402 31.7012C188.402 32.0449 188.506 32.2969 188.713 32.457C188.92 32.6172 189.193 32.6973 189.533 32.6973C190.057 32.6973 190.486 32.5508 190.822 32.2578C191.162 31.9609 191.332 31.5234 191.332 30.9453V30.3652ZM195.15 33.5H193.967V24.3828H195.15V33.5ZM202.324 27.9512H200.736V33.5H199.559V27.9512H198.463V27.3828L199.559 27.0254V26.5801C199.559 26.0371 199.643 25.6016 199.811 25.2734C199.979 24.9414 200.219 24.6992 200.531 24.5469C200.848 24.3945 201.23 24.3184 201.68 24.3184C201.949 24.3184 202.195 24.3418 202.418 24.3887C202.645 24.4355 202.84 24.4883 203.004 24.5469L202.699 25.4492C202.566 25.4062 202.418 25.3672 202.254 25.332C202.09 25.293 201.916 25.2734 201.732 25.2734C201.393 25.2734 201.141 25.3828 200.977 25.6016C200.816 25.8203 200.736 26.1504 200.736 26.5918V27.043H202.324V27.9512ZM205.498 26.9258C206.061 26.9258 206.543 27.0469 206.945 27.2891C207.348 27.5273 207.656 27.8652 207.871 28.3027C208.086 28.7402 208.193 29.2559 208.193 29.8496V30.5176H203.811C203.822 31.209 204 31.7402 204.344 32.1113C204.688 32.4785 205.17 32.6621 205.791 32.6621C206.201 32.6621 206.566 32.623 206.887 32.5449C207.207 32.4668 207.539 32.3516 207.883 32.1992V33.1895C207.559 33.3379 207.232 33.4453 206.904 33.5117C206.58 33.582 206.191 33.6172 205.738 33.6172C205.113 33.6172 204.564 33.4922 204.092 33.2422C203.623 32.9922 203.258 32.623 202.996 32.1348C202.734 31.6426 202.604 31.0371 202.604 30.3184C202.604 29.6074 202.723 29 202.961 28.4961C203.199 27.9883 203.535 27.5996 203.969 27.3301C204.402 27.0605 204.912 26.9258 205.498 26.9258ZM205.492 27.8398C205.016 27.8398 204.633 27.9961 204.344 28.3086C204.055 28.6172 203.885 29.0605 203.834 29.6387H207.01C207.006 29.2832 206.949 28.9707 206.84 28.7012C206.73 28.4316 206.564 28.2207 206.342 28.0684C206.123 27.916 205.84 27.8398 205.492 27.8398ZM211.771 26.9316C212.568 26.9316 213.164 27.1094 213.559 27.4648C213.953 27.8164 214.15 28.373 214.15 29.1348V33.5H213.307L213.078 32.5625H213.031C212.852 32.7969 212.664 32.9922 212.469 33.1484C212.273 33.3047 212.047 33.4219 211.789 33.5C211.535 33.5781 211.225 33.6172 210.857 33.6172C210.467 33.6172 210.119 33.5469 209.814 33.4062C209.51 33.2656 209.27 33.0547 209.094 32.7734C208.922 32.4883 208.836 32.127 208.836 31.6895C208.836 31.0332 209.088 30.5352 209.592 30.1953C210.096 29.8555 210.859 29.6699 211.883 29.6387L212.996 29.5918V29.2285C212.996 28.7246 212.883 28.3691 212.656 28.1621C212.434 27.9551 212.121 27.8516 211.719 27.8516C211.387 27.8516 211.068 27.9004 210.764 27.998C210.459 28.0918 210.166 28.2051 209.885 28.3379L209.51 27.4824C209.814 27.3262 210.16 27.1953 210.547 27.0898C210.938 26.9844 211.346 26.9316 211.771 26.9316ZM212.984 30.3652L212.082 30.4062C211.336 30.4336 210.811 30.5586 210.506 30.7812C210.205 31 210.055 31.3066 210.055 31.7012C210.055 32.0449 210.158 32.2969 210.365 32.457C210.572 32.6172 210.846 32.6973 211.186 32.6973C211.709 32.6973 212.139 32.5508 212.475 32.2578C212.814 31.9609 212.984 31.5234 212.984 30.9453V30.3652ZM217.869 32.6621C218.037 32.6621 218.207 32.6484 218.379 32.6211C218.551 32.5898 218.699 32.5508 218.824 32.5039V33.4062C218.691 33.4648 218.514 33.5137 218.291 33.5527C218.072 33.5957 217.848 33.6172 217.617 33.6172C217.266 33.6172 216.947 33.5566 216.662 33.4355C216.377 33.3145 216.148 33.1074 215.977 32.8145C215.809 32.5215 215.725 32.1152 215.725 31.5957V27.9512H214.828V27.4062L215.766 26.9727L216.182 25.5781H216.908V27.043H218.777V27.9512H216.908V31.5781C216.908 31.9414 216.994 32.2129 217.166 32.3926C217.342 32.5723 217.576 32.6621 217.869 32.6621ZM225.115 27.043V33.5H224.172L224.008 32.6152H223.943C223.811 32.8379 223.639 33.0234 223.428 33.1719C223.217 33.3203 222.98 33.4316 222.719 33.5059C222.457 33.5801 222.18 33.6172 221.887 33.6172C221.391 33.6172 220.969 33.5352 220.621 33.3711C220.277 33.207 220.016 32.9531 219.836 32.6094C219.66 32.2617 219.572 31.8145 219.572 31.2676V27.043H220.756V31.1035C220.756 31.623 220.867 32.0117 221.09 32.2695C221.316 32.5273 221.66 32.6562 222.121 32.6562C222.57 32.6562 222.926 32.5684 223.188 32.3926C223.453 32.2129 223.643 31.9531 223.756 31.6133C223.873 31.2695 223.932 30.8496 223.932 30.3535V27.043H225.115ZM229.736 26.9258C229.854 26.9258 229.98 26.9336 230.117 26.9492C230.254 26.9609 230.371 26.9766 230.469 26.9961L230.346 28.0918C230.252 28.0684 230.143 28.0488 230.018 28.0332C229.896 28.0176 229.783 28.0098 229.678 28.0098C229.428 28.0098 229.189 28.0566 228.963 28.1504C228.736 28.2441 228.537 28.3809 228.365 28.5605C228.193 28.7363 228.059 28.9531 227.961 29.2109C227.863 29.4648 227.814 29.7559 227.814 30.084V33.5H226.631V27.043H227.58L227.721 28.209H227.773C227.906 27.9746 228.066 27.7598 228.254 27.5645C228.445 27.3691 228.664 27.2148 228.91 27.1016C229.16 26.9844 229.436 26.9258 229.736 26.9258ZM233.701 26.9258C234.264 26.9258 234.746 27.0469 235.148 27.2891C235.551 27.5273 235.859 27.8652 236.074 28.3027C236.289 28.7402 236.396 29.2559 236.396 29.8496V30.5176H232.014C232.025 31.209 232.203 31.7402 232.547 32.1113C232.891 32.4785 233.373 32.6621 233.994 32.6621C234.404 32.6621 234.77 32.623 235.09 32.5449C235.41 32.4668 235.742 32.3516 236.086 32.1992V33.1895C235.762 33.3379 235.436 33.4453 235.107 33.5117C234.783 33.582 234.395 33.6172 233.941 33.6172C233.316 33.6172 232.768 33.4922 232.295 33.2422C231.826 32.9922 231.461 32.623 231.199 32.1348C230.938 31.6426 230.807 31.0371 230.807 30.3184C230.807 29.6074 230.926 29 231.164 28.4961C231.402 27.9883 231.738 27.5996 232.172 27.3301C232.605 27.0605 233.115 26.9258 233.701 26.9258ZM233.695 27.8398C233.219 27.8398 232.836 27.9961 232.547 28.3086C232.258 28.6172 232.088 29.0605 232.037 29.6387H235.213C235.209 29.2832 235.152 28.9707 235.043 28.7012C234.934 28.4316 234.768 28.2207 234.545 28.0684C234.326 27.916 234.043 27.8398 233.695 27.8398ZM241.762 31.6953C241.762 32.1133 241.658 32.4668 241.451 32.7559C241.248 33.041 240.951 33.2559 240.561 33.4004C240.17 33.5449 239.701 33.6172 239.154 33.6172C238.701 33.6172 238.311 33.582 237.982 33.5117C237.654 33.4453 237.357 33.3477 237.092 33.2188V32.1758C237.377 32.3125 237.707 32.4336 238.082 32.5391C238.457 32.6445 238.824 32.6973 239.184 32.6973C239.688 32.6973 240.051 32.6172 240.273 32.457C240.5 32.2969 240.613 32.0801 240.613 31.8066C240.613 31.6465 240.568 31.5059 240.479 31.3848C240.389 31.2598 240.23 31.1367 240.004 31.0156C239.781 30.8906 239.461 30.748 239.043 30.5879C238.633 30.4277 238.281 30.2676 237.988 30.1074C237.699 29.9473 237.479 29.7539 237.326 29.5273C237.174 29.3008 237.098 29.0078 237.098 28.6484C237.098 28.0898 237.32 27.6641 237.766 27.3711C238.215 27.0742 238.807 26.9258 239.541 26.9258C239.932 26.9258 240.299 26.9648 240.643 27.043C240.99 27.1211 241.322 27.2305 241.639 27.3711L241.258 28.2793C240.977 28.1582 240.688 28.0586 240.391 27.9805C240.094 27.8984 239.791 27.8574 239.482 27.8574C239.08 27.8574 238.771 27.9219 238.557 28.0508C238.346 28.1797 238.24 28.3574 238.24 28.584C238.24 28.7598 238.289 28.9062 238.387 29.0234C238.488 29.1406 238.656 29.2559 238.891 29.3691C239.125 29.4785 239.441 29.6094 239.84 29.7617C240.234 29.9102 240.574 30.0645 240.859 30.2246C241.148 30.3848 241.371 30.5801 241.527 30.8105C241.684 31.041 241.762 31.3359 241.762 31.6953Z" fill="white"/>
<path d="M134.363 34.2324H242.283V34.5254H134.363V34.2324Z" fill="white"/>
</svg>
