<svg width="45" height="46" viewBox="0 0 45 46" fill="none" xmlns="http://www.w3.org/2000/svg">
<rect y="0.5" width="45" height="45" rx="3.57099" fill="#3C69D7"/>
<path d="M26.5 32V30C26.5 28.9391 26.0786 27.9217 25.3284 27.1716C24.5783 26.4214 23.5609 26 22.5 26H16.5C15.4391 26 14.4217 26.4214 13.6716 27.1716C12.9214 27.9217 12.5 28.9391 12.5 30V32M32.5 32V30C32.4993 29.1137 32.2044 28.2528 31.6614 27.5523C31.1184 26.8519 30.3581 26.3516 29.5 26.13M26.5 14.13C27.3604 14.3503 28.123 14.8507 28.6676 15.5523C29.2122 16.2539 29.5078 17.1168 29.5078 18.005C29.5078 18.8932 29.2122 19.7561 28.6676 20.4577C28.123 21.1593 27.3604 21.6597 26.5 21.88M23.5 18C23.5 20.2091 21.7091 22 19.5 22C17.2909 22 15.5 20.2091 15.5 18C15.5 15.7909 17.2909 14 19.5 14C21.7091 14 23.5 15.7909 23.5 18Z" stroke="white" stroke-width="2" stroke-linecap="round" stroke-linejoin="round"/>
</svg>
