<svg width="20" height="24" viewBox="0 0 20 24" fill="none" xmlns="http://www.w3.org/2000/svg">
<path d="M19.6869 12.9749C17.6854 12.7491 15.4543 13.1228 13.6957 11.7058C11.8583 9.96175 11.0642 7.01091 10.9921 4.29364C10.9527 3.04789 11.1364 1.80994 11.1692 0.571986C10.9855 -0.416821 9.85681 -0.0119551 9.98149 0.937922C9.57464 5.75738 8.92499 11.7525 4.15432 12.9671C3.56373 13.1072 1.7657 12.8192 0.899503 12.7024C0.558272 12.6557 -0.0191958 12.7569 0.00049055 13.2785C0.0136148 13.6523 0.387656 13.8858 0.840443 13.9637C1.29323 14.0416 2.38254 14.1583 3.2225 14.2985C4.06245 14.4386 5.36175 15.1004 6.36576 15.6766C8.38033 16.7043 9.65995 19.7175 9.61401 22.3569C9.66651 22.9097 9.33184 23.7505 9.95524 23.9685C10.8018 24.2099 10.7296 23.0031 10.9068 22.3647C11.1036 21.516 11.307 20.6751 11.5302 19.842C12.0945 17.1715 13.9253 15.1549 16.1499 14.4698C17.5936 14.0182 19.1357 14.2206 19.5425 14.1428C20.0609 14.0727 20.179 13.1929 19.6869 12.9749Z" fill="#FFEE34"/>
</svg>
