<svg width="22" height="26" viewBox="0 0 22 26" fill="none" xmlns="http://www.w3.org/2000/svg">
<path d="M0.344422 11.9439C2.54602 12.1885 5.00026 11.7836 6.93478 13.3187C8.95591 15.2081 9.82933 18.4049 9.90873 21.3486C9.95204 22.6981 9.74993 24.0392 9.71383 25.3803C9.91595 26.4516 11.1575 26.013 11.0204 24.9839C11.4679 19.7628 12.1825 13.2681 17.4303 11.9523C18.0799 11.8005 20.0577 12.1126 21.0106 12.2391C21.3859 12.2897 22.0211 12.18 21.9995 11.6149C21.985 11.2101 21.5736 10.957 21.0755 10.8727C20.5775 10.7883 19.3792 10.6618 18.4553 10.51C17.5313 10.3581 16.1021 9.6412 14.9977 9.01703C12.7816 7.90365 11.3741 4.63942 11.4246 1.78006C11.3668 1.18119 11.735 0.270246 11.0492 0.0340745C10.1181 -0.227402 10.1975 1.07998 10.0026 1.77162C9.78603 2.69101 9.56226 3.60195 9.31683 4.50446C8.69605 7.39757 6.68213 9.58215 4.23511 10.3244C2.64708 10.8136 0.950767 10.5943 0.503229 10.6787C-0.0670208 10.7546 -0.196954 11.7077 0.344422 11.9439Z" fill="#FFEE34"/>
</svg>
