<svg width="316" height="28" viewBox="0 0 316 28" fill="none" xmlns="http://www.w3.org/2000/svg">
<g clip-path="url(#clip0_2253_12510)">
<path d="M34.1829 6.02615C34.284 5.85113 34.224 5.62742 34.049 5.52647L32.9403 4.88641C29.5726 2.94204 25.2664 4.09591 23.322 7.46365L16.8981 18.5901C15.6986 20.6676 16.4104 23.3241 18.488 24.5235C20.5654 25.7229 23.222 25.0111 24.4214 22.9337L34.1829 6.02615Z" fill="#3395FF"/>
<path d="M-0.0876565 6.02615C-0.18866 5.85113 -0.128712 5.62742 0.0462298 5.52646L1.15492 4.88641C4.52264 2.94204 8.82891 4.09591 10.7733 7.46365L17.1972 18.5901C18.3966 20.6676 17.6848 23.3241 15.6073 24.5235C13.5298 25.7229 10.8733 25.0111 9.67388 22.9337L-0.0876565 6.02615Z" fill="#3395FF"/>
<path fill-rule="evenodd" clip-rule="evenodd" d="M20.3495 11.7539C21.4348 13.1102 21.6404 15.0463 20.7196 16.6413L17.1064 22.8995C17.0606 22.9789 17.0126 23.0562 16.9627 23.1317C16.9252 23.0734 16.8891 23.014 16.8541 22.9534L13.2408 16.6953C12.0414 14.6178 12.7532 11.9613 14.8308 10.7619C16.6944 9.68589 19.0238 10.1479 20.3495 11.7539Z" fill="#0070E8"/>
</g>
<path d="M60.7598 7.72266L57.0293 22H54.4707L52.0879 13.4453C52.0293 13.237 51.9642 12.9896 51.8926 12.7031C51.821 12.4167 51.7493 12.1237 51.6777 11.8242C51.6126 11.5247 51.554 11.2513 51.502 11.0039C51.4564 10.75 51.4238 10.5547 51.4043 10.418C51.3913 10.5547 51.362 10.7467 51.3164 10.9941C51.2708 11.2415 51.2155 11.515 51.1504 11.8145C51.0918 12.1074 51.0267 12.4004 50.9551 12.6934C50.8835 12.9798 50.8184 13.2337 50.7598 13.4551L48.416 22H45.8672L42.1465 7.72266H44.5L46.5605 16.0918C46.6257 16.3587 46.6908 16.6484 46.7559 16.9609C46.8275 17.2669 46.8926 17.5762 46.9512 17.8887C47.0163 18.2012 47.0749 18.5072 47.127 18.8066C47.179 19.0996 47.2214 19.3665 47.2539 19.6074C47.2865 19.36 47.3288 19.0866 47.3809 18.7871C47.4329 18.4811 47.4883 18.1719 47.5469 17.8594C47.612 17.5404 47.6771 17.2344 47.7422 16.9414C47.8138 16.6484 47.8854 16.3848 47.957 16.1504L50.2812 7.72266H52.5664L54.9395 16.1797C55.0111 16.4206 55.0794 16.6908 55.1445 16.9902C55.2161 17.2897 55.2845 17.5957 55.3496 17.9082C55.4147 18.2207 55.4733 18.5234 55.5254 18.8164C55.5775 19.1094 55.6198 19.373 55.6523 19.6074C55.6979 19.2884 55.7565 18.9238 55.8281 18.5137C55.8997 18.1035 55.9811 17.6868 56.0723 17.2637C56.1634 16.8405 56.2546 16.4499 56.3457 16.0918L58.3965 7.72266H60.7598ZM66.3535 10.9844C67.3171 10.9844 68.1439 11.1829 68.834 11.5801C69.5241 11.9772 70.0547 12.5404 70.4258 13.2695C70.7969 13.9987 70.9824 14.8711 70.9824 15.8867V17.1172H63.7656C63.7917 18.1654 64.0716 18.9727 64.6055 19.5391C65.1458 20.1055 65.901 20.3887 66.8711 20.3887C67.5612 20.3887 68.1797 20.3236 68.7266 20.1934C69.2799 20.0566 69.8496 19.8581 70.4355 19.5977V21.4629C69.8952 21.7168 69.3451 21.9023 68.7852 22.0195C68.2253 22.1367 67.5547 22.1953 66.7734 22.1953C65.7122 22.1953 64.778 21.9902 63.9707 21.5801C63.1699 21.1634 62.5417 20.5449 62.0859 19.7246C61.6367 18.9043 61.4121 17.8854 61.4121 16.668C61.4121 15.457 61.6172 14.4284 62.0273 13.582C62.4375 12.7357 63.0137 12.0911 63.7559 11.6484C64.498 11.2057 65.3639 10.9844 66.3535 10.9844ZM66.3535 12.7129C65.6309 12.7129 65.0449 12.9473 64.5957 13.416C64.153 13.8848 63.8926 14.5716 63.8145 15.4766H68.7363C68.7298 14.9362 68.6387 14.4577 68.4629 14.041C68.2936 13.6243 68.0332 13.2988 67.6816 13.0645C67.3366 12.8301 66.8939 12.7129 66.3535 12.7129ZM75.3652 6.80469V10.4668C75.3652 10.89 75.3522 11.3066 75.3262 11.7168C75.3066 12.1204 75.2871 12.4362 75.2676 12.6641H75.3652C75.6582 12.1953 76.0651 11.8014 76.5859 11.4824C77.1133 11.1569 77.7871 10.9941 78.6074 10.9941C79.89 10.9941 80.9219 11.4661 81.7031 12.4102C82.4844 13.3477 82.875 14.7376 82.875 16.5801C82.875 17.804 82.696 18.8327 82.3379 19.666C81.9798 20.4993 81.4753 21.1309 80.8242 21.5605C80.1797 21.9837 79.4212 22.1953 78.5488 22.1953C77.7285 22.1953 77.0645 22.0456 76.5566 21.7461C76.0553 21.4401 75.6615 21.0853 75.375 20.6816H75.209L74.7891 22H73.0703V6.80469H75.3652ZM78.002 12.8594C77.3509 12.8594 76.8333 12.9896 76.4492 13.25C76.0716 13.5104 75.7982 13.901 75.6289 14.4219C75.4596 14.9362 75.3717 15.5905 75.3652 16.3848V16.5898C75.3652 17.7943 75.554 18.7155 75.9316 19.3535C76.3158 19.9915 77.0124 20.3105 78.0215 20.3105C78.8223 20.3105 79.4375 19.9883 79.8672 19.3438C80.2969 18.6927 80.5117 17.7617 80.5117 16.5508C80.5117 15.3268 80.2969 14.4056 79.8672 13.7871C79.444 13.1686 78.8223 12.8594 78.002 12.8594ZM87.3359 22H85.0312V6.80469H87.3359V22ZM92.4121 11.1895V22H90.1172V11.1895H92.4121ZM91.2793 7.04883C91.6309 7.04883 91.9336 7.14323 92.1875 7.33203C92.4479 7.52083 92.5781 7.84635 92.5781 8.30859C92.5781 8.76432 92.4479 9.08984 92.1875 9.28516C91.9336 9.47396 91.6309 9.56836 91.2793 9.56836C90.9147 9.56836 90.6055 9.47396 90.3516 9.28516C90.1042 9.08984 89.9805 8.76432 89.9805 8.30859C89.9805 7.84635 90.1042 7.52083 90.3516 7.33203C90.6055 7.14323 90.9147 7.04883 91.2793 7.04883ZM100.838 10.9844C102.055 10.9844 103.003 11.3001 103.68 11.9316C104.363 12.5566 104.705 13.5625 104.705 14.9492V22H102.41V15.3789C102.41 14.5391 102.238 13.9108 101.893 13.4941C101.548 13.071 101.014 12.8594 100.291 12.8594C99.2428 12.8594 98.5137 13.1816 98.1035 13.8262C97.6999 14.4707 97.498 15.4049 97.498 16.6289V22H95.2031V11.1895H96.9902L97.3125 12.6543H97.4395C97.6738 12.2767 97.9635 11.9674 98.3086 11.7266C98.6602 11.4792 99.0508 11.2936 99.4805 11.1699C99.9167 11.0462 100.369 10.9844 100.838 10.9844ZM110.504 26.8047C109.039 26.8047 107.916 26.541 107.135 26.0137C106.354 25.4863 105.963 24.7474 105.963 23.7969C105.963 23.1328 106.171 22.5697 106.588 22.1074C107.005 21.6517 107.6 21.3359 108.375 21.1602C108.082 21.0299 107.828 20.8281 107.613 20.5547C107.405 20.2747 107.301 19.9655 107.301 19.627C107.301 19.2233 107.415 18.8783 107.643 18.5918C107.87 18.3053 108.212 18.0286 108.668 17.7617C108.102 17.5208 107.646 17.1302 107.301 16.5898C106.962 16.043 106.793 15.4017 106.793 14.666C106.793 13.8848 106.959 13.2207 107.291 12.6738C107.623 12.1204 108.108 11.7005 108.746 11.4141C109.384 11.1211 110.156 10.9746 111.061 10.9746C111.256 10.9746 111.467 10.9876 111.695 11.0137C111.93 11.0332 112.145 11.0592 112.34 11.0918C112.542 11.1178 112.695 11.1471 112.799 11.1797H116.539V12.459L114.703 12.8008C114.879 13.0482 115.019 13.3314 115.123 13.6504C115.227 13.9629 115.279 14.3047 115.279 14.6758C115.279 15.7956 114.892 16.6777 114.117 17.3223C113.349 17.9603 112.288 18.2793 110.934 18.2793C110.608 18.2663 110.292 18.2402 109.986 18.2012C109.752 18.3444 109.573 18.5039 109.449 18.6797C109.326 18.849 109.264 19.041 109.264 19.2559C109.264 19.4316 109.326 19.5749 109.449 19.6855C109.573 19.7897 109.755 19.8678 109.996 19.9199C110.243 19.972 110.543 19.998 110.895 19.998H112.76C113.945 19.998 114.85 20.2487 115.475 20.75C116.1 21.2513 116.412 21.987 116.412 22.957C116.412 24.1875 115.904 25.1348 114.889 25.7988C113.873 26.4694 112.411 26.8047 110.504 26.8047ZM110.592 25.1934C111.393 25.1934 112.066 25.1152 112.613 24.959C113.16 24.8027 113.574 24.5781 113.854 24.2852C114.133 23.9987 114.273 23.6569 114.273 23.2598C114.273 22.9082 114.186 22.638 114.01 22.4492C113.834 22.2604 113.57 22.1302 113.219 22.0586C112.867 21.987 112.431 21.9512 111.91 21.9512H110.211C109.788 21.9512 109.413 22.0163 109.088 22.1465C108.762 22.2832 108.508 22.4785 108.326 22.7324C108.15 22.9863 108.062 23.2923 108.062 23.6504C108.062 24.1452 108.281 24.526 108.717 24.793C109.16 25.0599 109.785 25.1934 110.592 25.1934ZM111.041 16.7754C111.712 16.7754 112.21 16.5931 112.535 16.2285C112.861 15.8574 113.023 15.3366 113.023 14.666C113.023 13.9368 112.854 13.39 112.516 13.0254C112.184 12.6608 111.689 12.4785 111.031 12.4785C110.387 12.4785 109.895 12.6641 109.557 13.0352C109.225 13.4062 109.059 13.9564 109.059 14.6855C109.059 15.3431 109.225 15.8574 109.557 16.2285C109.895 16.5931 110.39 16.7754 111.041 16.7754ZM125.277 18.9141C125.277 19.6237 125.105 20.2227 124.76 20.7109C124.415 21.1992 123.91 21.5703 123.246 21.8242C122.589 22.0716 121.781 22.1953 120.824 22.1953C120.069 22.1953 119.418 22.14 118.871 22.0293C118.331 21.9251 117.82 21.7624 117.338 21.541V19.5586C117.852 19.7995 118.428 20.0078 119.066 20.1836C119.711 20.3594 120.32 20.4473 120.893 20.4473C121.648 20.4473 122.191 20.3301 122.523 20.0957C122.855 19.8548 123.021 19.5358 123.021 19.1387C123.021 18.9043 122.953 18.696 122.816 18.5137C122.686 18.3249 122.439 18.1328 122.074 17.9375C121.716 17.7357 121.189 17.4948 120.492 17.2148C119.809 16.9414 119.232 16.668 118.764 16.3945C118.295 16.1211 117.94 15.7923 117.699 15.4082C117.458 15.0176 117.338 14.5195 117.338 13.9141C117.338 12.957 117.715 12.2311 118.471 11.7363C119.232 11.235 120.238 10.9844 121.488 10.9844C122.152 10.9844 122.777 11.0527 123.363 11.1895C123.956 11.3197 124.535 11.5117 125.102 11.7656L124.379 13.4941C123.891 13.2793 123.399 13.1035 122.904 12.9668C122.416 12.8236 121.918 12.752 121.41 12.752C120.818 12.752 120.365 12.8431 120.053 13.0254C119.747 13.2077 119.594 13.4681 119.594 13.8066C119.594 14.0605 119.669 14.2754 119.818 14.4512C119.968 14.627 120.225 14.8027 120.59 14.9785C120.961 15.1543 121.475 15.3724 122.133 15.6328C122.777 15.8802 123.334 16.1406 123.803 16.4141C124.278 16.681 124.643 17.0098 124.896 17.4004C125.15 17.791 125.277 18.2956 125.277 18.9141ZM149.072 7.72266L145.342 22H142.783L140.4 13.4453C140.342 13.237 140.277 12.9896 140.205 12.7031C140.133 12.4167 140.062 12.1237 139.99 11.8242C139.925 11.5247 139.867 11.2513 139.814 11.0039C139.769 10.75 139.736 10.5547 139.717 10.418C139.704 10.5547 139.674 10.7467 139.629 10.9941C139.583 11.2415 139.528 11.515 139.463 11.8145C139.404 12.1074 139.339 12.4004 139.268 12.6934C139.196 12.9798 139.131 13.2337 139.072 13.4551L136.729 22H134.18L130.459 7.72266H132.812L134.873 16.0918C134.938 16.3587 135.003 16.6484 135.068 16.9609C135.14 17.2669 135.205 17.5762 135.264 17.8887C135.329 18.2012 135.387 18.5072 135.439 18.8066C135.492 19.0996 135.534 19.3665 135.566 19.6074C135.599 19.36 135.641 19.0866 135.693 18.7871C135.745 18.4811 135.801 18.1719 135.859 17.8594C135.924 17.5404 135.99 17.2344 136.055 16.9414C136.126 16.6484 136.198 16.3848 136.27 16.1504L138.594 7.72266H140.879L143.252 16.1797C143.324 16.4206 143.392 16.6908 143.457 16.9902C143.529 17.2897 143.597 17.5957 143.662 17.9082C143.727 18.2207 143.786 18.5234 143.838 18.8164C143.89 19.1094 143.932 19.373 143.965 19.6074C144.01 19.2884 144.069 18.9238 144.141 18.5137C144.212 18.1035 144.294 17.6868 144.385 17.2637C144.476 16.8405 144.567 16.4499 144.658 16.0918L146.709 7.72266H149.072ZM159.93 16.5703C159.93 17.4688 159.812 18.2663 159.578 18.9629C159.344 19.6595 159.002 20.2487 158.553 20.7305C158.104 21.2057 157.563 21.5703 156.932 21.8242C156.3 22.0716 155.587 22.1953 154.793 22.1953C154.051 22.1953 153.37 22.0716 152.752 21.8242C152.133 21.5703 151.596 21.2057 151.141 20.7305C150.691 20.2487 150.343 19.6595 150.096 18.9629C149.848 18.2663 149.725 17.4688 149.725 16.5703C149.725 15.3789 149.93 14.3698 150.34 13.543C150.757 12.7096 151.349 12.0749 152.117 11.6387C152.885 11.2025 153.8 10.9844 154.861 10.9844C155.857 10.9844 156.736 11.2025 157.498 11.6387C158.26 12.0749 158.855 12.7096 159.285 13.543C159.715 14.3763 159.93 15.3854 159.93 16.5703ZM152.088 16.5703C152.088 17.3581 152.182 18.0319 152.371 18.5918C152.566 19.1517 152.866 19.5814 153.27 19.8809C153.673 20.1738 154.194 20.3203 154.832 20.3203C155.47 20.3203 155.991 20.1738 156.395 19.8809C156.798 19.5814 157.094 19.1517 157.283 18.5918C157.472 18.0319 157.566 17.3581 157.566 16.5703C157.566 15.7826 157.472 15.1152 157.283 14.5684C157.094 14.015 156.798 13.5951 156.395 13.3086C155.991 13.0156 155.467 12.8691 154.822 12.8691C153.872 12.8691 153.178 13.1882 152.742 13.8262C152.306 14.4642 152.088 15.3789 152.088 16.5703ZM167.545 10.9844C167.727 10.9844 167.926 10.9941 168.141 11.0137C168.355 11.0332 168.541 11.0592 168.697 11.0918L168.482 13.2402C168.346 13.2012 168.176 13.1719 167.975 13.1523C167.779 13.1328 167.604 13.123 167.447 13.123C167.037 13.123 166.646 13.1914 166.275 13.3281C165.904 13.4583 165.576 13.6602 165.289 13.9336C165.003 14.2005 164.778 14.5358 164.615 14.9395C164.452 15.3431 164.371 15.8118 164.371 16.3457V22H162.066V11.1895H163.863L164.176 13.0938H164.283C164.498 12.7096 164.765 12.3581 165.084 12.0391C165.403 11.7201 165.768 11.4661 166.178 11.2773C166.594 11.082 167.05 10.9844 167.545 10.9844ZM172.494 6.80469V14.1484C172.494 14.4805 172.481 14.8451 172.455 15.2422C172.429 15.6328 172.403 16.0007 172.377 16.3457H172.426C172.595 16.1178 172.797 15.8509 173.031 15.5449C173.272 15.2389 173.5 14.972 173.715 14.7441L177.016 11.1895H179.652L175.326 15.8379L179.936 22H177.24L173.783 17.2539L172.494 18.3574V22H170.199V6.80469H172.494ZM188.43 18.9141C188.43 19.6237 188.257 20.2227 187.912 20.7109C187.567 21.1992 187.062 21.5703 186.398 21.8242C185.741 22.0716 184.934 22.1953 183.977 22.1953C183.221 22.1953 182.57 22.14 182.023 22.0293C181.483 21.9251 180.972 21.7624 180.49 21.541V19.5586C181.005 19.7995 181.581 20.0078 182.219 20.1836C182.863 20.3594 183.472 20.4473 184.045 20.4473C184.8 20.4473 185.344 20.3301 185.676 20.0957C186.008 19.8548 186.174 19.5358 186.174 19.1387C186.174 18.9043 186.105 18.696 185.969 18.5137C185.839 18.3249 185.591 18.1328 185.227 17.9375C184.868 17.7357 184.341 17.4948 183.645 17.2148C182.961 16.9414 182.385 16.668 181.916 16.3945C181.447 16.1211 181.092 15.7923 180.852 15.4082C180.611 15.0176 180.49 14.5195 180.49 13.9141C180.49 12.957 180.868 12.2311 181.623 11.7363C182.385 11.235 183.391 10.9844 184.641 10.9844C185.305 10.9844 185.93 11.0527 186.516 11.1895C187.108 11.3197 187.688 11.5117 188.254 11.7656L187.531 13.4941C187.043 13.2793 186.551 13.1035 186.057 12.9668C185.568 12.8236 185.07 12.752 184.562 12.752C183.97 12.752 183.518 12.8431 183.205 13.0254C182.899 13.2077 182.746 13.4681 182.746 13.8066C182.746 14.0605 182.821 14.2754 182.971 14.4512C183.12 14.627 183.378 14.8027 183.742 14.9785C184.113 15.1543 184.628 15.3724 185.285 15.6328C185.93 15.8802 186.486 16.1406 186.955 16.4141C187.43 16.681 187.795 17.0098 188.049 17.4004C188.303 17.791 188.43 18.2956 188.43 18.9141ZM199.834 11.1895V22H198.027L197.715 20.5449H197.588C197.36 20.916 197.07 21.2253 196.719 21.4727C196.367 21.7135 195.977 21.8926 195.547 22.0098C195.117 22.1335 194.665 22.1953 194.189 22.1953C193.376 22.1953 192.679 22.0586 192.1 21.7852C191.527 21.5052 191.087 21.0755 190.781 20.4961C190.475 19.9167 190.322 19.168 190.322 18.25V11.1895H192.627V17.8203C192.627 18.6602 192.796 19.2884 193.135 19.7051C193.48 20.1217 194.014 20.3301 194.736 20.3301C195.433 20.3301 195.986 20.1868 196.396 19.9004C196.807 19.6139 197.096 19.1908 197.266 18.6309C197.441 18.071 197.529 17.3841 197.529 16.5703V11.1895H199.834ZM204.92 11.1895V22H202.625V11.1895H204.92ZM203.787 7.04883C204.139 7.04883 204.441 7.14323 204.695 7.33203C204.956 7.52083 205.086 7.84635 205.086 8.30859C205.086 8.76432 204.956 9.08984 204.695 9.28516C204.441 9.47396 204.139 9.56836 203.787 9.56836C203.423 9.56836 203.113 9.47396 202.859 9.28516C202.612 9.08984 202.488 8.76432 202.488 8.30859C202.488 7.84635 202.612 7.52083 202.859 7.33203C203.113 7.14323 203.423 7.04883 203.787 7.04883ZM211.734 20.3398C212.034 20.3398 212.33 20.3138 212.623 20.2617C212.916 20.2031 213.183 20.1348 213.424 20.0566V21.7949C213.17 21.9056 212.841 22 212.438 22.0781C212.034 22.1562 211.614 22.1953 211.178 22.1953C210.566 22.1953 210.016 22.0944 209.527 21.8926C209.039 21.6842 208.652 21.3294 208.365 20.8281C208.079 20.3268 207.936 19.6335 207.936 18.748V12.9375H206.461V11.9121L208.043 11.1016L208.795 8.78711H210.24V11.1895H213.336V12.9375H210.24V18.7188C210.24 19.2656 210.377 19.6725 210.65 19.9395C210.924 20.2064 211.285 20.3398 211.734 20.3398ZM219.428 10.9844C220.391 10.9844 221.218 11.1829 221.908 11.5801C222.598 11.9772 223.129 12.5404 223.5 13.2695C223.871 13.9987 224.057 14.8711 224.057 15.8867V17.1172H216.84C216.866 18.1654 217.146 18.9727 217.68 19.5391C218.22 20.1055 218.975 20.3887 219.945 20.3887C220.635 20.3887 221.254 20.3236 221.801 20.1934C222.354 20.0566 222.924 19.8581 223.51 19.5977V21.4629C222.969 21.7168 222.419 21.9023 221.859 22.0195C221.299 22.1367 220.629 22.1953 219.848 22.1953C218.786 22.1953 217.852 21.9902 217.045 21.5801C216.244 21.1634 215.616 20.5449 215.16 19.7246C214.711 18.9043 214.486 17.8854 214.486 16.668C214.486 15.457 214.691 14.4284 215.102 13.582C215.512 12.7357 216.088 12.0911 216.83 11.6484C217.572 11.2057 218.438 10.9844 219.428 10.9844ZM219.428 12.7129C218.705 12.7129 218.119 12.9473 217.67 13.416C217.227 13.8848 216.967 14.5716 216.889 15.4766H221.811C221.804 14.9362 221.713 14.4577 221.537 14.041C221.368 13.6243 221.107 13.2988 220.756 13.0645C220.411 12.8301 219.968 12.7129 219.428 12.7129Z" fill="#0066D8"/>
<defs>
<clipPath id="clip0_2253_12510">
<rect width="34" height="21.6364" fill="white" transform="translate(0 3.18188)"/>
</clipPath>
</defs>
</svg>
