<svg width="60" height="54" viewBox="0 0 60 54" fill="none" xmlns="http://www.w3.org/2000/svg">
<g id="Frame 39 1">
<path id="Vector" d="M52.2369 13.681C52.3677 13.4545 52.2901 13.165 52.0636 13.0344L50.6289 12.2061C46.2706 9.68983 40.6978 11.1831 38.1816 15.5413L29.8683 29.9403C28.3161 32.6287 29.2372 36.0666 31.9258 37.6188C34.6143 39.171 38.0521 38.2498 39.6043 35.5614L52.2369 13.681Z" fill="#3395FF"/>
<path id="Vector_2" d="M7.88673 13.681C7.75602 13.4545 7.8336 13.165 8.06 13.0344L9.49478 12.2061C13.853 9.68983 19.4258 11.1831 21.9421 15.5413L30.2554 29.9403C31.8076 32.6287 30.8864 36.0666 28.1978 37.6188C25.5094 39.171 22.0715 38.2498 20.5193 35.5614L7.88673 13.681Z" fill="#3395FF"/>
<path id="Vector_3" fill-rule="evenodd" clip-rule="evenodd" d="M34.3344 21.0931C35.7388 22.8483 36.0049 25.3539 34.8133 27.4179L30.1374 35.5168C30.0781 35.6196 30.016 35.7196 29.9514 35.8173C29.9029 35.7418 29.8561 35.665 29.8108 35.5866L25.1349 27.4878C23.5827 24.7993 24.5038 21.3615 27.1924 19.8093C29.6041 18.4168 32.6187 19.0147 34.3344 21.0931Z" fill="#326BDC"/>
</g>
</svg>
