<svg width="34" height="22" viewBox="0 0 34 22" fill="none" xmlns="http://www.w3.org/2000/svg">
<g clip-path="url(#clip0_2253_12505)">
<path d="M34.1829 3.02615C34.284 2.85113 34.224 2.62742 34.049 2.52647L32.9403 1.88641C29.5726 -0.0579606 25.2664 1.09591 23.322 4.46365L16.8981 15.5901C15.6986 17.6676 16.4104 20.3241 18.488 21.5235C20.5654 22.7229 23.222 22.0111 24.4214 19.9337L34.1829 3.02615Z" fill="#3395FF"/>
<path d="M-0.0876565 3.02615C-0.18866 2.85113 -0.128712 2.62742 0.0462298 2.52646L1.15492 1.88641C4.52264 -0.0579605 8.82891 1.09591 10.7733 4.46365L17.1972 15.5901C18.3966 17.6676 17.6848 20.3241 15.6073 21.5235C13.5298 22.7229 10.8733 22.0111 9.67388 19.9337L-0.0876565 3.02615Z" fill="#3395FF"/>
<path fill-rule="evenodd" clip-rule="evenodd" d="M20.3495 8.75394C21.4348 10.1102 21.6404 12.0463 20.7196 13.6413L17.1064 19.8995C17.0606 19.9789 17.0126 20.0562 16.9627 20.1317C16.9252 20.0734 16.8891 20.014 16.8541 19.9534L13.2408 13.6953C12.0414 11.6178 12.7532 8.96131 14.8308 7.76188C16.6944 6.68589 19.0238 7.14791 20.3495 8.75394Z" fill="#0070E8"/>
</g>
<defs>
<clipPath id="clip0_2253_12505">
<rect width="34" height="21.6364" fill="white" transform="translate(0 0.181885)"/>
</clipPath>
</defs>
</svg>
