<svg width="19" height="18" viewBox="0 0 19 18" fill="none" xmlns="http://www.w3.org/2000/svg">
<g id="Frame" clip-path="url(#clip0_2479_14226)">
<path id="Vector" d="M17.9145 4.88019C17.7113 4.13364 17.1017 3.55299 16.3178 3.35944C14.9243 3 9.29199 3 9.29199 3C9.29199 3 3.65974 3 2.26619 3.35944C1.48231 3.55299 0.872636 4.13364 0.669407 4.88019C0.291992 6.23502 0.291992 9 0.291992 9C0.291992 9 0.291992 11.7927 0.669407 13.1199C0.872636 13.8663 1.48231 14.447 2.26619 14.6405C3.65974 15 9.29199 15 9.29199 15C9.29199 15 14.9243 15 16.3178 14.6405C17.1017 14.447 17.7113 13.8663 17.9145 13.1199C18.292 11.7927 18.292 9 18.292 9C18.292 9 18.292 6.23502 17.9145 4.88019ZM7.49199 11.5714V6.42857L12.1661 9L7.49199 11.5714Z" fill="#3A3A3A"/>
</g>
<defs>
<clipPath id="clip0_2479_14226">
<rect width="18" height="18" fill="white" transform="translate(0.291992)"/>
</clipPath>
</defs>
</svg>
