<svg width="400" height="400" viewBox="0 0 400 400" fill="none" xmlns="http://www.w3.org/2000/svg">
<path d="M348.244 131.207C349.115 129.697 348.598 127.767 347.089 126.896L337.524 121.374C308.469 104.599 271.317 114.554 254.542 143.608L199.12 239.602C188.772 257.525 194.913 280.444 212.836 290.792C230.76 301.14 253.678 294.999 264.026 277.076L348.244 131.207Z" fill="#3395FF"/>
<path d="M52.5776 131.207C51.7062 129.697 52.2233 127.767 53.7327 126.896L63.2978 121.374C92.3527 104.599 129.505 114.554 146.28 143.608L201.702 239.602C212.05 257.525 205.909 280.444 187.985 290.792C170.062 301.14 147.143 294.999 136.795 277.076L52.5776 131.207Z" fill="#3395FF"/>
<path d="M228.892 180.621C238.255 192.321 240.03 209.026 232.085 222.786L200.913 276.779C200.517 277.464 200.103 278.131 199.672 278.782C199.349 278.279 199.037 277.767 198.735 277.244L167.563 223.252C157.215 205.329 163.356 182.41 181.279 172.062C197.357 162.779 217.454 166.765 228.892 180.621Z" fill="#0070E8"/>
</svg>
